<?xml version="1.0" encoding="UTF-8"?>
<svg enable-background="new 0 0 1920 1080" version="1.1" viewBox="0 0 1920 1080" xml:space="preserve" xmlns="http://www.w3.org/2000/svg">
<style type="text/css">
	.st0{fill:#C8CBD9;stroke:#B3B3B3;stroke-width:0.25;stroke-miterlimit:10;}
	.st1{fill:#804C00;}
	.st2{fill:#FFD740;}
	.st3{fill:#10142D;}
	.st4{fill:#A4B8FF;}
	.st5{fill:#092709;}
	.st6{fill:#8BC34A;}
	.st7{fill:#006838;}
	.st8{fill:#E51C23;}
	.st9{fill:#001D66;}
</style>
<rect class="st0" x="11.9" width="1909.9" height="1080"/>
	<path class="st1" d="m1195.8 417.6c34.7-16.7 49.2-58.4 32.5-93.1l-115-238.7c-16.7-34.7-58.4-49.3-93.1-32.5l-238.7 115.1c-34.7 16.7-49.3 58.4-32.5 93.1l115.1 238.7c16.7 34.7 58.4 49.2 93.1 32.5l238.6-115.1z"/>
	<path class="st2" d="m901.8 482l-115.1-238.7c-6.7-13.9-0.9-30.5 13-37.2l238.7-115.1c13.9-6.7 30.5-0.9 37.2 13l115.1 238.7c6.7 13.9 0.9 30.5-13 37.2l-238.7 115.1c-13.9 6.7-30.5 0.9-37.2-13z"/>
	<path class="st3" d="m460.1 627.2l59.9 258.1c8.7 37.5 46.2 60.9 83.7 52.2l258.1-59.9c37.5-8.7 60.9-46.2 52.2-83.7l-60-258.1c-8.7-37.5-46.2-60.9-83.7-52.2l-258.1 59.9c-37.5 8.7-60.8 46.2-52.1 83.7z"/>
	<path class="st4" d="m813.3 545.2l59.9 258.1c3.5 15-5.9 30-20.9 33.5l-258.1 59.9c-15 3.5-30-5.9-33.5-20.9l-59.9-258.1c-3.5-15 5.9-30 20.9-33.5l258.1-59.9c15-3.4 30 5.9 33.5 20.9z"/>
	<path class="st5" d="m1354.7 647.5c3.6-38.3-24.5-72.4-62.8-76l-263.9-24.7c-38.3-3.6-72.4 24.5-76 62.9l-24.8 263.8c-3.6 38.3 24.5 72.4 62.9 76l263.8 24.8c38.3 3.6 72.3-24.6 75.9-62.9l24.9-263.9z"/>
	<path class="st6" d="m1288.2 907.4c-1.4 15.3-15 26.6-30.4 25.2l-263.8-24.8c-15.3-1.5-26.6-15-25.2-30.4l24.8-263.8c1.5-15.3 15-26.6 30.4-25.2l263.8 24.8c15.3 1.5 26.6 15 25.2 30.4l-24.8 263.8z"/>
	<path class="st7" d="m940.2 453c11.6 0.1 21-9.1 21.2-20.7l0.5-42.6 119.1-57.4 33.6 26.1c8.9 7.4 22.1 6.1 29.4-2.8s6.1-22.1-2.8-29.4c-0.3-0.3-0.6-0.5-1-0.7l-184-143c-0.1-0.1-0.3-0.2-0.5-0.3-0.6-0.4-1.2-0.8-1.9-1.2-0.5-0.3-1.1-0.7-1.7-0.9-0.6-0.3-1.2-0.5-1.8-0.7s-1.4-0.5-2.1-0.7-1.1-0.2-1.7-0.3l-2.4-0.3c-0.2 0-0.3-0.1-0.5 0-0.4 0-0.8 0.1-1.3 0.1-0.8 0-1.5 0.1-2.3 0.2-0.7 0.1-1.3 0.3-1.9 0.4s-1.3 0.4-2 0.6c-1.3 0.5-2.5 1.1-3.7 1.8-0.6 0.4-1.2 0.8-1.7 1.2l-1.5 1.2c-0.6 0.5-1.1 1.1-1.6 1.7l-0.9 0.9c-0.1 0.1-0.2 0.3-0.3 0.4-0.5 0.7-0.9 1.4-1.3 2.1-0.3 0.5-0.6 0.9-0.8 1.4-0.3 0.7-0.6 1.4-0.8 2.1l-0.6 1.8c-0.2 0.6-0.2 1.3-0.3 1.9-0.1 0.7-0.2 1.4-0.3 2.2 0 0.2-0.1 0.4-0.1 0.6l-2.9 233.1c0.2 11.6 9.4 21.1 20.9 21.2zm23.6-211.7l80.3 62.4-81.6 39.3 1.3-101.7z"/>
	<path class="st8" d="m667.8 849l51.7-12c44-10.2 71.4-54.1 61.2-98.1-6.8-29.5-29.4-52.8-58.7-60.6 5.8-13.1 7.1-27.8 3.9-41.7-8.5-36.2-44.7-58.7-80.9-50.4l-36.2 8.4c-14.7 3.5-25.5 16.1-26.7 31.2-0.5 2.9-0.5 5.8 0.2 8.6l0.5 2 14.7 63.4 7.4 31.7 21.1 91.5 0.3 1.2c0.4 1.6 0.9 3.1 1.7 4.5 6.6 15.5 23.4 24.1 39.8 20.3zm72.1-100.7c5 21.5-8.4 43-29.9 48l-44.8 10.4-18.1-77.8 44.8-10.4c21.5-5 43 8.4 48 29.8zm-54.8-102.2c3.2 13.8-5.4 27.5-19.1 30.7l-29.4 6.8-11.6-49.8 29.4-6.8c13.8-3.2 27.5 5.3 30.7 19.1z"/>
	<path class="st9" d="m1208.2 827.4c-36.1 28.1-88.2 21.7-116.4-14.4s-21.7-88.2 14.4-116.4c33.9-26.4 82.2-22.6 111.5 8.8 7.9 8.4 21.1 8.9 29.6 1 8.4-7.9 8.9-21.1 1-29.6-47-50.3-126-53-176.3-5.9-50.3 47-53 126-5.9 176.3 44.1 47.2 116.9 52.9 167.8 13.2 9.1-7.1 10.7-20.3 3.6-29.4s-20.2-10.6-29.3-3.6z"/>
</svg>
