<svg id="svg" version="1.1" width="400" height="104.23728813559322" xmlns="http://www.w3.org/2000/svg" xmlns:xlink="http://www.w3.org/1999/xlink" style="display: block;"><g id="svgg"><path id="path0" d="M26.250 2.418 C 21.939 3.107,17.719 7.294,14.996 13.583 C 14.102 15.647,12.916 19.222,12.685 20.547 C 12.581 21.146,12.383 21.905,12.246 22.234 C 12.109 22.562,11.918 23.597,11.822 24.535 C 11.726 25.472,11.529 26.766,11.385 27.411 C 10.787 30.088,10.845 41.731,11.473 45.099 C 11.660 46.099,11.861 47.427,11.920 48.050 C 11.980 48.673,12.172 49.686,12.347 50.300 C 12.523 50.913,12.667 51.624,12.667 51.879 C 12.667 52.291,12.897 53.113,13.728 55.667 C 14.605 58.360,14.585 58.309,15.750 60.667 C 16.631 62.448,16.957 62.962,18.075 64.325 C 19.027 65.486,21.671 67.833,22.027 67.833 C 22.121 67.833,22.398 67.971,22.641 68.140 C 23.503 68.737,25.816 69.335,27.264 69.334 C 30.847 69.332,35.492 66.561,37.984 62.940 C 38.826 61.716,38.917 61.985,38.917 65.720 L 38.917 68.923 37.750 70.360 C 34.921 73.846,34.042 74.973,33.417 75.914 C 33.050 76.465,32.663 77.009,32.556 77.122 C 32.450 77.235,32.019 77.835,31.598 78.456 C 31.178 79.076,30.572 79.958,30.253 80.417 C 29.933 80.875,29.671 81.334,29.669 81.436 C 29.668 81.538,29.529 81.801,29.361 82.019 C 26.583 85.638,25.235 92.583,26.338 97.592 C 26.627 98.906,28.673 101.667,29.357 101.667 C 29.453 101.667,29.748 101.821,30.012 102.009 C 32.057 103.464,37.245 102.870,39.123 100.964 C 41.973 98.072,42.030 97.723,42.152 82.750 C 42.262 69.039,42.121 70.388,43.669 68.250 C 44.752 66.754,45.069 66.300,46.075 64.808 C 46.529 64.134,46.948 63.546,47.005 63.500 C 47.063 63.454,47.460 62.892,47.888 62.250 C 48.316 61.608,48.767 60.933,48.891 60.750 C 49.014 60.567,49.390 60.004,49.726 59.500 C 50.061 58.996,50.436 58.433,50.559 58.250 C 52.054 56.016,53.220 54.193,54.183 52.583 C 54.661 51.784,55.832 49.855,56.156 49.333 C 56.900 48.134,58.351 45.644,58.515 45.283 C 58.734 44.803,59.061 44.700,59.282 45.042 C 59.356 45.156,59.464 49.262,59.523 54.167 C 59.640 63.994,59.726 64.862,60.745 66.505 C 62.941 70.047,68.882 70.550,72.528 67.503 C 73.950 66.315,76.333 63.317,76.333 62.716 C 76.333 62.622,76.472 62.366,76.642 62.147 C 76.812 61.929,77.047 61.450,77.164 61.083 C 77.281 60.717,77.441 60.335,77.520 60.235 C 77.702 60.004,78.446 57.859,78.745 56.703 C 78.870 56.219,79.118 55.432,79.296 54.953 C 79.889 53.362,80.500 51.408,80.507 51.077 C 80.511 50.897,80.630 50.450,80.771 50.083 C 80.912 49.717,81.167 48.892,81.338 48.250 C 82.257 44.807,83.470 41.836,84.488 40.536 C 85.907 38.725,87.677 39.008,88.438 41.167 L 88.820 42.250 88.827 55.304 L 88.833 68.359 89.321 68.846 C 90.120 69.645,91.165 69.445,91.597 68.409 C 91.793 67.941,91.833 65.918,91.833 56.597 C 91.833 43.837,91.703 44.925,93.402 43.533 C 95.496 41.816,97.066 40.830,99.832 39.492 C 101.507 38.682,104.054 38.733,105.272 39.602 C 107.383 41.107,107.382 41.098,107.310 55.945 C 107.250 68.123,107.251 68.141,107.600 68.612 C 108.264 69.505,109.405 69.554,109.956 68.713 C 110.228 68.299,110.256 67.368,110.333 56.383 L 110.417 44.502 111.250 43.741 C 112.928 42.208,114.998 40.759,116.500 40.064 C 117.004 39.831,117.717 39.499,118.083 39.326 C 121.362 37.779,124.891 39.288,125.500 42.499 C 125.597 43.009,125.667 46.721,125.667 51.338 C 125.667 58.882,125.817 62.162,126.277 64.667 C 126.525 66.020,128.455 68.667,129.194 68.667 C 129.281 68.667,129.692 68.822,130.107 69.011 C 132.055 69.898,135.961 69.432,137.893 68.083 C 139.456 66.991,142.500 63.378,142.500 62.615 C 142.500 62.521,142.606 62.325,142.736 62.180 C 143.068 61.810,144.426 58.321,144.915 56.583 C 145.162 55.704,145.729 53.924,146.029 53.083 C 146.127 52.808,146.320 52.133,146.456 51.583 C 146.593 51.033,146.838 50.208,147.001 49.750 C 147.164 49.292,147.410 48.467,147.548 47.917 C 147.686 47.367,147.929 46.542,148.089 46.083 C 148.249 45.625,148.564 44.725,148.789 44.083 C 150.331 39.684,152.963 37.822,154.769 39.854 C 155.766 40.975,155.747 40.696,155.779 54.976 C 155.812 69.794,155.762 69.333,157.328 69.333 C 158.779 69.333,158.738 69.679,158.833 56.663 C 158.929 43.558,158.706 45.101,160.750 43.388 C 166.072 38.928,171.211 37.520,173.809 39.811 C 175.038 40.893,175.047 40.981,175.184 52.500 C 175.311 63.142,175.374 64.087,176.063 65.750 C 177.330 68.806,181.361 70.378,184.452 69.021 C 185.105 68.734,185.680 68.500,185.729 68.500 C 185.843 68.500,186.665 67.936,187.833 67.057 C 189.243 65.995,190.888 64.212,192.764 61.713 C 192.956 61.458,193.393 60.744,193.737 60.125 C 194.081 59.506,194.430 59.000,194.513 59.000 C 194.674 59.000,195.667 61.078,195.667 61.416 C 195.667 62.030,197.474 64.913,198.697 66.251 C 199.422 67.045,201.309 68.500,201.613 68.500 C 201.662 68.500,202.087 68.696,202.559 68.935 C 203.573 69.450,205.410 69.651,207.566 69.483 C 208.943 69.376,209.396 69.224,211.651 68.112 C 212.460 67.713,215.077 65.210,215.248 64.673 C 215.464 63.993,215.904 64.299,216.499 65.542 C 218.207 69.113,221.470 70.386,225.171 68.924 C 226.419 68.431,226.714 68.240,228.234 66.946 C 229.212 66.113,231.323 63.360,231.330 62.907 C 231.332 62.811,231.521 62.477,231.750 62.167 C 231.979 61.856,232.167 61.486,232.167 61.345 C 232.167 61.204,232.347 60.712,232.568 60.252 C 232.993 59.370,233.285 58.544,233.898 56.500 C 234.104 55.813,234.352 55.100,234.448 54.917 C 234.544 54.733,234.677 54.283,234.742 53.917 C 234.808 53.550,234.998 52.913,235.165 52.500 C 235.331 52.087,235.582 51.300,235.722 50.750 C 238.629 39.349,240.402 37.592,246.295 40.268 C 246.779 40.487,247.287 40.667,247.425 40.667 C 247.564 40.667,248.110 40.849,248.640 41.072 C 249.265 41.335,250.117 41.519,251.066 41.596 C 253.326 41.779,253.327 41.774,249.590 46.583 C 248.946 47.412,247.231 49.679,246.526 50.635 C 246.099 51.213,245.375 52.164,244.917 52.748 C 244.046 53.859,242.156 56.359,241.583 57.160 C 241.400 57.416,240.800 58.208,240.250 58.920 C 239.700 59.632,239.138 60.373,239.001 60.566 C 238.776 60.882,236.733 63.587,236.091 64.417 C 233.918 67.229,233.920 67.225,233.918 68.036 C 233.914 70.118,236.037 69.821,238.250 67.430 C 238.506 67.153,239.815 66.310,240.833 65.766 C 241.669 65.319,241.927 65.270,243.763 65.205 L 245.776 65.134 247.763 66.165 C 248.856 66.732,249.862 67.286,250.000 67.396 C 250.137 67.506,250.512 67.724,250.833 67.881 C 251.154 68.037,251.529 68.236,251.667 68.322 C 255.683 70.855,261.156 69.271,265.106 64.433 C 266.661 62.529,266.750 62.403,267.956 60.417 C 268.167 60.069,270.195 55.978,270.812 54.656 C 271.007 54.237,271.167 53.786,271.167 53.653 C 271.167 53.520,271.311 53.143,271.487 52.814 C 271.663 52.486,271.888 51.925,271.987 51.567 C 272.252 50.608,272.435 50.369,272.701 50.635 C 273.075 51.008,273.010 68.797,272.633 69.341 C 272.477 69.566,271.786 70.462,271.096 71.333 C 269.250 73.665,267.954 75.348,267.634 75.827 C 267.479 76.060,266.973 76.775,266.511 77.417 C 266.048 78.058,265.397 78.996,265.063 79.500 C 264.728 80.004,264.321 80.612,264.158 80.850 C 263.685 81.539,262.071 84.691,261.856 85.347 C 261.748 85.675,261.511 86.235,261.330 86.591 C 261.148 86.946,261.000 87.408,261.000 87.617 C 261.000 87.826,260.845 88.391,260.655 88.873 C 259.945 90.676,259.936 96.498,260.641 98.033 C 260.838 98.463,261.000 98.879,261.000 98.958 C 261.000 99.037,261.244 99.435,261.542 99.842 C 264.799 104.299,272.266 103.710,274.817 98.795 C 276.108 96.306,276.059 96.899,276.160 82.722 C 276.249 70.151,276.253 70.023,276.598 69.638 C 276.789 69.425,277.314 68.699,277.764 68.025 C 278.215 67.352,278.733 66.593,278.917 66.339 C 279.100 66.085,279.605 65.361,280.038 64.730 C 280.472 64.099,281.241 62.983,281.748 62.250 C 282.255 61.517,282.795 60.729,282.947 60.500 C 283.367 59.869,284.307 58.459,284.559 58.083 C 286.642 54.972,286.976 54.454,287.199 54.000 C 287.312 53.771,287.575 53.371,287.785 53.112 C 287.995 52.853,288.167 52.559,288.167 52.459 C 288.167 52.358,288.274 52.158,288.405 52.013 C 288.536 51.868,288.745 51.562,288.870 51.333 C 289.193 50.737,290.109 49.210,290.668 48.333 C 290.931 47.921,291.492 46.965,291.915 46.208 C 293.289 43.751,293.332 43.947,293.341 52.781 C 293.345 56.797,293.416 60.383,293.499 60.750 C 294.502 65.185,296.527 67.577,300.417 68.926 C 302.094 69.507,305.263 69.596,306.417 69.093 C 306.783 68.933,307.431 68.697,307.855 68.567 C 308.279 68.438,308.720 68.220,308.834 68.083 C 308.948 67.946,309.141 67.833,309.264 67.833 C 309.585 67.833,312.282 65.546,313.161 64.529 C 314.270 63.245,314.737 63.432,315.172 65.333 C 316.294 70.242,323.210 70.978,327.686 66.667 C 328.698 65.692,330.500 63.283,330.500 62.905 C 330.500 62.816,330.687 62.468,330.917 62.131 C 331.146 61.794,331.333 61.425,331.333 61.311 C 331.333 61.198,331.481 60.800,331.662 60.427 C 332.085 59.553,332.619 58.038,332.990 56.661 C 333.151 56.062,333.373 55.403,333.484 55.197 C 333.594 54.990,333.824 54.318,333.995 53.702 C 334.165 53.087,334.504 51.908,334.747 51.083 C 334.990 50.258,335.302 49.133,335.440 48.583 C 335.578 48.033,335.830 47.273,336.001 46.893 C 336.172 46.513,336.364 45.913,336.428 45.560 C 336.493 45.206,336.685 44.638,336.856 44.298 C 337.027 43.958,337.167 43.576,337.167 43.450 C 337.167 43.163,338.300 41.033,338.751 40.474 C 340.380 38.451,342.580 38.709,343.500 41.031 L 343.917 42.083 343.868 54.789 C 343.812 69.491,343.795 69.333,345.357 69.333 C 346.895 69.333,346.833 69.854,346.833 56.928 C 346.833 43.966,346.730 44.858,348.381 43.557 C 349.742 42.484,351.148 41.500,351.320 41.500 C 351.397 41.500,351.561 41.377,351.686 41.227 C 351.810 41.077,352.213 40.813,352.581 40.640 C 352.949 40.467,353.438 40.220,353.667 40.092 C 357.583 37.899,361.286 38.826,362.081 42.199 C 362.288 43.079,362.329 45.269,362.331 55.671 C 362.333 66.922,362.359 68.131,362.608 68.505 C 363.266 69.493,364.075 69.617,364.846 68.846 L 365.333 68.359 365.336 56.721 C 365.338 47.759,365.386 44.989,365.546 44.673 C 365.792 44.187,368.329 41.951,369.167 41.482 C 369.488 41.302,370.087 40.934,370.500 40.664 C 371.265 40.162,371.400 40.094,373.000 39.401 C 376.755 37.773,380.032 39.251,380.646 42.847 C 380.767 43.556,380.833 46.823,380.833 52.081 C 380.833 63.809,381.106 65.733,383.041 67.669 C 384.802 69.429,388.398 70.024,390.500 68.902 C 395.912 66.013,399.702 60.000,396.110 60.000 C 395.374 60.000,395.085 60.261,393.129 62.691 C 392.513 63.457,391.665 64.346,391.246 64.667 C 390.827 64.987,390.271 65.419,390.010 65.625 C 389.236 66.236,386.137 66.176,385.390 65.535 C 384.103 64.432,384.115 64.539,384.008 52.583 L 383.913 41.917 383.398 40.750 C 382.409 38.513,381.253 37.244,379.250 36.195 C 377.756 35.412,374.763 35.299,373.270 35.969 C 372.823 36.169,372.373 36.333,372.270 36.333 C 372.090 36.333,369.965 37.367,368.917 37.965 C 368.642 38.122,367.994 38.562,367.478 38.942 C 365.334 40.522,364.843 40.629,364.415 39.606 C 363.536 37.502,360.500 35.746,357.755 35.755 C 355.068 35.763,352.835 36.677,348.705 39.458 C 346.795 40.745,346.976 40.770,346.201 39.116 C 345.503 37.627,344.545 36.637,343.583 36.409 C 343.308 36.344,342.842 36.145,342.547 35.968 C 341.848 35.548,340.892 35.545,340.073 35.960 C 339.712 36.143,339.172 36.345,338.873 36.410 C 337.508 36.705,335.203 39.716,333.830 43.000 C 333.342 44.167,333.113 44.883,332.421 47.417 C 332.270 47.967,331.969 49.017,331.751 49.750 C 331.533 50.483,331.306 51.381,331.246 51.744 C 331.187 52.108,331.039 52.597,330.918 52.831 C 330.797 53.065,330.619 53.685,330.522 54.208 C 330.425 54.730,330.239 55.366,330.109 55.621 C 329.978 55.875,329.784 56.505,329.678 57.021 C 329.572 57.537,329.338 58.247,329.159 58.598 C 328.980 58.950,328.833 59.333,328.833 59.450 C 328.833 59.695,327.768 61.763,327.133 62.750 C 326.462 63.793,325.319 64.889,324.280 65.483 L 323.329 66.027 321.253 65.972 L 319.176 65.917 318.667 65.333 C 317.710 64.238,317.756 64.915,317.667 50.667 C 317.576 36.187,317.621 36.797,316.589 36.241 C 315.980 35.913,315.423 35.989,314.813 36.483 L 314.417 36.804 314.331 46.277 C 314.246 55.619,314.239 55.766,313.858 56.917 C 312.514 60.979,310.211 63.837,306.978 65.456 L 305.750 66.070 303.500 66.077 L 301.250 66.083 300.250 65.511 C 298.859 64.716,297.666 63.414,297.072 62.044 L 296.583 60.917 296.554 49.000 C 296.538 42.446,296.519 36.992,296.512 36.881 C 296.494 36.581,295.316 35.833,294.862 35.833 C 294.132 35.833,293.174 36.656,293.169 37.286 C 293.167 37.620,292.828 38.288,291.469 40.641 C 291.222 41.068,290.862 41.717,290.668 42.083 C 290.475 42.450,290.114 43.098,289.866 43.524 C 289.619 43.950,289.208 44.663,288.952 45.108 C 288.697 45.553,288.308 46.217,288.088 46.583 C 287.869 46.950,287.531 47.512,287.339 47.833 C 287.146 48.154,286.769 48.754,286.500 49.167 C 286.231 49.579,285.849 50.214,285.650 50.578 C 285.452 50.942,285.161 51.430,285.004 51.662 C 284.847 51.894,284.532 52.383,284.303 52.750 C 284.075 53.117,283.519 53.975,283.069 54.657 C 282.619 55.339,282.175 56.022,282.083 56.176 C 281.992 56.330,281.772 56.672,281.596 56.936 C 281.420 57.200,281.025 57.792,280.720 58.250 C 280.414 58.708,280.064 59.233,279.941 59.417 C 279.818 59.600,279.425 60.190,279.067 60.728 C 278.709 61.266,278.248 61.941,278.041 62.228 C 277.834 62.515,277.477 63.031,277.247 63.375 C 276.248 64.868,276.250 64.893,276.250 50.191 L 276.250 36.798 275.673 36.316 C 274.981 35.737,274.561 35.713,273.718 36.201 C 272.883 36.684,272.839 36.765,272.836 37.797 C 272.834 38.281,272.716 38.956,272.573 39.297 C 272.430 39.638,272.173 40.479,272.001 41.167 C 271.830 41.854,271.581 42.754,271.448 43.167 C 271.316 43.579,271.130 44.217,271.035 44.583 C 270.834 45.363,270.425 46.576,269.967 47.750 C 269.788 48.208,269.541 48.921,269.417 49.333 C 269.054 50.540,268.505 52.020,268.088 52.917 C 267.875 53.375,267.497 54.200,267.250 54.750 C 267.002 55.300,266.628 56.125,266.418 56.583 C 266.208 57.042,265.990 57.529,265.932 57.667 C 265.875 57.804,265.607 58.254,265.336 58.667 C 265.066 59.079,264.694 59.692,264.509 60.028 C 263.100 62.597,261.655 64.034,259.088 65.420 L 257.932 66.044 255.941 66.016 C 253.775 65.986,253.659 65.945,251.167 64.324 C 250.754 64.056,250.117 63.687,249.750 63.504 C 249.383 63.321,248.971 63.099,248.833 63.012 C 247.571 62.211,246.549 61.935,244.502 61.843 C 241.759 61.720,241.785 61.904,244.084 58.917 C 244.988 57.741,246.400 55.872,248.049 53.667 C 248.700 52.796,249.574 51.659,249.992 51.141 C 250.409 50.623,251.099 49.723,251.526 49.141 C 252.540 47.759,254.206 45.545,254.696 44.929 C 254.909 44.661,255.514 43.874,256.040 43.179 C 257.442 41.331,257.542 41.201,258.019 40.617 C 259.980 38.217,260.261 37.322,259.325 36.458 C 258.539 35.734,258.203 35.824,255.972 37.363 C 254.400 38.447,251.941 38.628,249.697 37.824 C 249.176 37.638,248.412 37.388,248.000 37.268 C 247.588 37.149,247.025 36.938,246.750 36.798 C 246.475 36.659,245.725 36.450,245.083 36.333 C 244.442 36.217,243.701 36.012,243.437 35.879 C 242.788 35.550,241.615 35.553,241.110 35.884 C 240.883 36.033,240.350 36.242,239.926 36.348 C 239.046 36.570,237.198 38.259,236.443 39.532 C 234.885 42.158,234.113 44.090,233.226 47.583 C 233.086 48.133,232.860 48.921,232.723 49.333 C 232.586 49.746,232.376 50.533,232.257 51.083 C 232.037 52.102,231.650 53.424,230.912 55.673 C 230.685 56.364,230.500 57.080,230.500 57.263 C 230.500 57.446,230.348 57.893,230.163 58.256 C 229.977 58.620,229.744 59.216,229.645 59.582 C 229.546 59.948,229.335 60.435,229.177 60.665 C 229.018 60.895,228.845 61.202,228.793 61.346 C 228.349 62.587,226.583 64.603,225.192 65.458 C 223.928 66.236,221.085 66.273,220.210 65.524 C 218.910 64.411,218.937 64.725,218.838 49.944 L 218.750 36.804 218.354 36.483 C 216.852 35.267,215.670 36.305,215.668 38.842 C 215.667 39.826,215.492 40.333,215.153 40.333 C 215.091 40.333,214.408 39.715,213.636 38.958 C 209.453 34.864,203.257 34.812,198.950 38.835 C 197.868 39.845,196.500 41.685,196.500 42.130 C 196.500 42.219,196.388 42.385,196.251 42.499 C 196.114 42.613,195.920 43.016,195.818 43.394 C 195.717 43.773,195.499 44.383,195.334 44.750 C 195.169 45.117,194.952 45.955,194.851 46.613 C 194.750 47.272,194.590 48.013,194.496 48.261 C 194.402 48.509,194.247 49.679,194.152 50.861 C 194.018 52.535,193.890 53.203,193.575 53.880 C 193.352 54.359,193.169 54.871,193.168 55.019 C 193.167 55.167,193.027 55.467,192.856 55.686 C 192.686 55.904,192.492 56.254,192.427 56.462 C 192.362 56.670,192.015 57.308,191.656 57.879 C 191.297 58.450,190.857 59.179,190.679 59.500 C 188.621 63.194,184.876 66.000,182.003 66.000 L 180.168 66.000 179.517 65.412 C 178.415 64.417,178.333 63.562,178.333 53.154 C 178.334 39.440,178.005 38.146,174.026 36.206 L 172.750 35.583 170.500 35.590 C 167.475 35.599,164.217 36.926,160.398 39.706 C 159.188 40.587,159.034 40.669,158.773 40.569 C 158.623 40.512,158.500 40.379,158.500 40.275 C 158.500 39.072,156.518 36.693,155.228 36.348 C 154.849 36.247,154.446 36.052,154.332 35.915 C 154.038 35.560,152.659 35.599,151.796 35.987 C 151.404 36.163,150.848 36.394,150.561 36.499 C 149.111 37.032,145.667 41.727,145.667 43.171 C 145.667 43.311,145.555 43.585,145.418 43.780 C 145.282 43.975,145.067 44.573,144.941 45.109 C 144.814 45.645,144.597 46.353,144.458 46.684 C 144.318 47.014,144.152 47.614,144.089 48.017 C 144.025 48.420,143.792 49.288,143.570 49.945 C 143.348 50.602,143.167 51.282,143.167 51.457 C 143.167 51.632,142.979 52.312,142.750 52.968 C 142.521 53.624,142.332 54.331,142.330 54.539 C 142.328 54.747,142.186 55.225,142.014 55.603 C 141.843 55.980,141.654 56.542,141.594 56.853 C 141.332 58.216,140.024 61.196,139.043 62.667 C 138.479 63.513,136.979 65.167,136.775 65.167 C 136.680 65.167,136.335 65.349,136.009 65.571 C 135.360 66.015,134.906 66.073,132.456 66.029 C 130.504 65.994,129.970 65.635,129.314 63.917 C 128.935 62.923,128.932 62.850,128.838 52.250 L 128.742 41.583 128.111 40.260 C 126.299 36.463,121.534 34.399,118.167 35.953 C 117.754 36.143,117.154 36.375,116.833 36.469 C 116.513 36.562,115.837 36.867,115.333 37.147 C 114.829 37.427,114.137 37.810,113.795 37.996 C 113.454 38.183,112.854 38.565,112.462 38.844 C 110.040 40.570,109.780 40.644,109.392 39.717 C 107.674 35.604,101.595 34.551,96.667 37.513 C 96.529 37.596,96.137 37.815,95.795 38.000 C 95.454 38.185,94.854 38.563,94.462 38.841 C 94.070 39.118,93.475 39.527,93.139 39.749 C 92.803 39.971,92.480 40.231,92.421 40.327 C 92.120 40.813,91.725 40.442,91.110 39.098 C 90.452 37.659,89.889 37.042,88.667 36.422 C 88.346 36.260,87.971 36.030,87.833 35.911 C 87.354 35.499,86.125 35.437,85.661 35.802 C 85.432 35.982,84.951 36.252,84.592 36.402 C 83.846 36.714,81.720 38.826,81.194 39.778 C 80.039 41.869,78.924 44.444,78.754 45.411 C 78.690 45.774,78.538 46.265,78.416 46.501 C 78.294 46.738,78.108 47.407,78.002 47.988 C 77.897 48.570,77.675 49.392,77.511 49.815 C 77.346 50.237,77.159 50.941,77.095 51.378 C 77.031 51.815,76.841 52.490,76.673 52.878 C 76.504 53.266,76.312 53.917,76.246 54.325 C 76.180 54.733,75.996 55.371,75.838 55.742 C 75.680 56.113,75.495 56.717,75.427 57.083 C 75.359 57.450,75.165 58.053,74.997 58.422 C 74.829 58.792,74.637 59.317,74.571 59.589 C 74.505 59.861,74.312 60.282,74.142 60.526 C 73.972 60.769,73.833 61.035,73.833 61.118 C 73.833 61.386,72.562 63.230,71.770 64.110 C 70.370 65.665,69.586 65.977,66.940 66.031 C 64.339 66.084,64.135 66.004,63.250 64.581 L 62.750 63.776 62.667 50.234 L 62.583 36.692 61.951 36.262 C 60.907 35.554,59.333 36.064,59.333 37.111 C 59.333 37.459,58.630 38.816,56.640 42.305 C 56.395 42.733,56.077 43.308,55.933 43.583 C 55.788 43.858,55.445 44.458,55.171 44.917 C 54.897 45.375,54.482 46.087,54.248 46.500 C 54.014 46.913,53.603 47.587,53.334 48.000 C 53.065 48.413,52.691 49.012,52.504 49.333 C 52.316 49.654,51.864 50.393,51.498 50.975 C 51.133 51.557,50.833 52.066,50.833 52.107 C 50.833 52.147,50.696 52.383,50.527 52.632 C 50.359 52.880,49.809 53.721,49.305 54.500 C 48.802 55.279,48.264 56.104,48.111 56.333 C 47.957 56.563,47.536 57.200,47.174 57.750 C 46.812 58.300,46.359 58.975,46.167 59.250 C 45.975 59.525,45.502 60.229,45.117 60.814 C 44.732 61.400,44.248 62.112,44.041 62.398 C 43.834 62.683,43.468 63.212,43.227 63.574 L 42.789 64.231 42.478 63.847 C 42.180 63.480,42.167 62.898,42.167 50.269 C 42.167 35.774,42.227 36.632,41.165 36.082 C 40.504 35.740,40.167 35.777,39.583 36.254 L 39.083 36.662 39.000 45.373 C 38.918 53.967,38.912 54.094,38.542 54.896 C 38.335 55.343,38.167 55.837,38.167 55.994 C 38.167 56.971,35.896 60.609,34.099 62.513 C 29.139 67.766,22.980 67.189,19.454 61.141 C 18.337 59.225,17.097 56.428,16.921 55.422 C 16.857 55.059,16.698 54.555,16.567 54.302 C 16.436 54.049,16.222 53.281,16.091 52.594 C 15.959 51.908,15.773 51.199,15.678 51.020 C 15.582 50.841,15.395 49.919,15.261 48.971 C 15.128 48.023,14.944 46.910,14.853 46.499 C 13.992 42.635,13.882 29.701,14.680 26.203 C 14.779 25.771,14.998 24.623,15.166 23.654 C 15.334 22.685,15.582 21.627,15.717 21.304 C 15.852 20.981,16.011 20.386,16.071 19.983 C 16.192 19.174,16.821 17.376,17.436 16.081 C 17.655 15.621,17.833 15.151,17.833 15.036 C 17.833 14.263,20.628 9.867,21.997 8.487 C 25.443 5.012,29.077 4.368,32.960 6.543 C 33.898 7.068,36.052 9.258,36.442 10.083 C 37.622 12.576,39.019 13.315,39.958 11.944 C 40.431 11.253,40.428 11.077,39.917 9.979 C 38.773 7.520,36.740 5.110,35.000 4.151 C 34.679 3.975,34.304 3.763,34.167 3.682 C 31.983 2.388,29.208 1.945,26.250 2.418 M60.145 19.656 C 57.979 20.337,57.589 23.761,59.582 24.593 C 61.528 25.407,63.500 24.217,63.500 22.230 C 63.500 20.586,61.665 19.178,60.145 19.656 M273.364 20.163 C 272.395 20.866,272.095 21.395,272.095 22.406 C 272.095 25.454,276.874 25.754,277.279 22.732 C 277.594 20.384,275.215 18.823,273.364 20.163 M208.833 39.523 C 210.914 40.416,213.086 42.546,213.582 44.180 C 213.650 44.402,213.838 44.808,214.001 45.083 C 214.164 45.358,214.348 45.846,214.410 46.167 C 214.472 46.487,214.685 47.237,214.883 47.833 C 215.426 49.467,215.430 56.165,214.890 57.917 C 214.692 58.558,214.480 59.327,214.419 59.625 C 213.824 62.505,210.707 65.674,207.981 66.171 C 200.909 67.460,196.988 61.835,197.405 51.000 C 197.732 42.520,203.146 37.082,208.833 39.523 M38.921 74.875 C 38.973 75.081,38.993 79.787,38.966 85.333 L 38.917 95.417 38.542 96.130 C 38.335 96.523,38.167 96.947,38.167 97.073 C 38.167 97.643,36.868 98.939,35.830 99.405 C 30.543 101.778,27.195 95.337,30.031 88.250 C 30.215 87.792,30.423 87.192,30.495 86.917 C 30.640 86.357,32.186 83.332,32.932 82.146 C 34.395 79.821,35.038 78.884,36.500 76.947 C 38.472 74.335,38.730 74.114,38.921 74.875 M272.920 75.208 C 272.976 75.506,272.998 80.250,272.969 85.750 L 272.917 95.750 272.458 96.582 C 272.206 97.040,271.997 97.490,271.993 97.582 C 271.951 98.597,269.819 99.750,268.000 99.741 C 264.394 99.723,262.778 97.106,263.313 92.154 C 263.582 89.671,264.436 86.899,265.543 84.917 C 265.646 84.733,265.905 84.246,266.120 83.833 C 266.712 82.696,267.844 80.765,268.631 79.551 C 269.113 78.807,271.386 75.801,271.874 75.260 C 272.035 75.083,272.167 74.876,272.167 74.802 C 272.167 74.363,272.828 74.720,272.920 75.208 " stroke="none" fill="#000000" fill-rule="evenodd"></path><path id="path1" d="M0.000 52.083 L 0.000 104.167 200.000 104.167 L 400.000 104.167 400.000 52.083 L 400.000 0.000 200.000 0.000 L 0.000 0.000 0.000 52.083 M30.426 2.411 C 31.924 2.624,32.997 2.989,34.167 3.682 C 34.304 3.763,34.679 3.975,35.000 4.151 C 36.740 5.110,38.773 7.520,39.917 9.979 C 40.428 11.077,40.431 11.253,39.958 11.944 C 39.019 13.315,37.622 12.576,36.442 10.083 C 36.052 9.258,33.898 7.068,32.960 6.543 C 29.077 4.368,25.443 5.012,21.997 8.487 C 20.628 9.867,17.833 14.263,17.833 15.036 C 17.833 15.151,17.655 15.621,17.436 16.081 C 16.821 17.376,16.192 19.174,16.071 19.983 C 16.011 20.386,15.852 20.981,15.717 21.304 C 15.582 21.627,15.334 22.685,15.166 23.654 C 14.998 24.623,14.779 25.771,14.680 26.203 C 13.882 29.701,13.992 42.635,14.853 46.499 C 14.944 46.910,15.128 48.023,15.261 48.971 C 15.395 49.919,15.582 50.841,15.678 51.020 C 15.773 51.199,15.959 51.908,16.091 52.594 C 16.222 53.281,16.436 54.049,16.567 54.302 C 16.698 54.555,16.857 55.059,16.921 55.422 C 17.050 56.159,17.586 57.497,18.454 59.250 C 22.342 67.105,28.542 68.398,34.099 62.513 C 35.896 60.609,38.167 56.971,38.167 55.994 C 38.167 55.837,38.335 55.343,38.542 54.896 C 38.912 54.094,38.918 53.967,39.000 45.373 L 39.083 36.662 39.583 36.254 C 40.167 35.777,40.504 35.740,41.165 36.082 C 42.227 36.632,42.167 35.774,42.167 50.269 C 42.167 62.898,42.180 63.480,42.478 63.847 L 42.789 64.231 43.227 63.574 C 43.468 63.212,43.834 62.683,44.041 62.398 C 44.248 62.112,44.732 61.400,45.117 60.814 C 45.502 60.229,45.975 59.525,46.167 59.250 C 46.359 58.975,46.812 58.300,47.174 57.750 C 47.536 57.200,47.957 56.563,48.111 56.333 C 48.264 56.104,48.802 55.279,49.305 54.500 C 49.809 53.721,50.359 52.880,50.527 52.632 C 50.696 52.383,50.833 52.147,50.833 52.107 C 50.833 52.066,51.133 51.557,51.498 50.975 C 51.864 50.393,52.316 49.654,52.504 49.333 C 52.691 49.012,53.065 48.413,53.334 48.000 C 53.603 47.587,54.014 46.913,54.248 46.500 C 54.482 46.087,54.897 45.375,55.171 44.917 C 55.445 44.458,55.788 43.858,55.933 43.583 C 56.077 43.308,56.395 42.733,56.640 42.305 C 58.630 38.816,59.333 37.459,59.333 37.111 C 59.333 36.064,60.907 35.554,61.951 36.262 L 62.583 36.692 62.667 50.234 L 62.750 63.776 63.250 64.581 C 64.135 66.004,64.339 66.084,66.940 66.031 C 69.586 65.977,70.370 65.665,71.770 64.110 C 72.562 63.230,73.833 61.386,73.833 61.118 C 73.833 61.035,73.972 60.769,74.142 60.526 C 74.312 60.282,74.505 59.861,74.571 59.589 C 74.637 59.317,74.829 58.792,74.997 58.422 C 75.165 58.053,75.359 57.450,75.427 57.083 C 75.495 56.717,75.680 56.113,75.838 55.742 C 75.996 55.371,76.180 54.733,76.246 54.325 C 76.312 53.917,76.504 53.266,76.673 52.878 C 76.841 52.490,77.031 51.815,77.095 51.378 C 77.159 50.941,77.346 50.237,77.511 49.815 C 77.675 49.392,77.897 48.570,78.002 47.988 C 78.108 47.407,78.294 46.738,78.416 46.501 C 78.538 46.265,78.690 45.774,78.754 45.411 C 78.924 44.444,80.039 41.869,81.194 39.778 C 81.720 38.826,83.846 36.714,84.592 36.402 C 84.951 36.252,85.432 35.982,85.661 35.802 C 86.125 35.437,87.354 35.499,87.833 35.911 C 87.971 36.030,88.346 36.260,88.667 36.422 C 89.889 37.042,90.452 37.659,91.110 39.098 C 91.725 40.442,92.120 40.813,92.421 40.327 C 92.480 40.231,92.803 39.971,93.139 39.749 C 93.475 39.527,94.070 39.118,94.462 38.841 C 94.854 38.563,95.454 38.185,95.795 38.000 C 96.137 37.815,96.529 37.596,96.667 37.513 C 101.595 34.551,107.674 35.604,109.392 39.717 C 109.780 40.644,110.040 40.570,112.462 38.844 C 112.854 38.565,113.454 38.183,113.795 37.996 C 114.137 37.810,114.829 37.427,115.333 37.147 C 115.837 36.867,116.513 36.562,116.833 36.469 C 117.154 36.375,117.754 36.143,118.167 35.953 C 121.534 34.399,126.299 36.463,128.111 40.260 L 128.742 41.583 128.838 52.250 C 128.967 66.704,128.829 66.383,134.750 66.017 C 135.124 65.994,135.676 65.799,136.009 65.571 C 136.335 65.349,136.680 65.167,136.775 65.167 C 136.979 65.167,138.479 63.513,139.043 62.667 C 140.024 61.196,141.332 58.216,141.594 56.853 C 141.654 56.542,141.843 55.980,142.014 55.603 C 142.186 55.225,142.328 54.747,142.330 54.539 C 142.332 54.331,142.521 53.624,142.750 52.968 C 142.979 52.312,143.167 51.632,143.167 51.457 C 143.167 51.282,143.348 50.602,143.570 49.945 C 143.792 49.288,144.025 48.420,144.089 48.017 C 144.152 47.614,144.318 47.014,144.458 46.684 C 144.597 46.353,144.814 45.645,144.941 45.109 C 145.067 44.573,145.282 43.975,145.418 43.780 C 145.555 43.585,145.667 43.311,145.667 43.171 C 145.667 41.727,149.111 37.032,150.561 36.499 C 150.848 36.394,151.404 36.163,151.796 35.987 C 152.659 35.599,154.038 35.560,154.332 35.915 C 154.446 36.052,154.849 36.247,155.228 36.348 C 156.518 36.693,158.500 39.072,158.500 40.275 C 158.500 40.379,158.623 40.512,158.773 40.569 C 159.034 40.669,159.188 40.587,160.398 39.706 C 162.289 38.330,163.978 37.409,166.833 36.198 C 168.221 35.609,168.296 35.596,170.500 35.590 L 172.750 35.583 174.026 36.206 C 178.005 38.146,178.334 39.440,178.333 53.154 C 178.333 63.562,178.415 64.417,179.517 65.412 L 180.168 66.000 182.003 66.000 C 184.876 66.000,188.621 63.194,190.679 59.500 C 190.857 59.179,191.297 58.450,191.656 57.879 C 192.015 57.308,192.362 56.670,192.427 56.462 C 192.492 56.254,192.686 55.904,192.856 55.686 C 193.027 55.467,193.167 55.167,193.168 55.019 C 193.169 54.871,193.352 54.359,193.575 53.880 C 193.890 53.203,194.018 52.535,194.152 50.861 C 194.247 49.679,194.402 48.509,194.496 48.261 C 194.590 48.013,194.750 47.272,194.851 46.613 C 194.952 45.955,195.169 45.117,195.334 44.750 C 195.499 44.383,195.717 43.773,195.818 43.394 C 195.920 43.016,196.114 42.613,196.251 42.499 C 196.388 42.385,196.500 42.219,196.500 42.130 C 196.500 41.685,197.868 39.845,198.950 38.835 C 203.257 34.812,209.453 34.864,213.636 38.958 C 214.408 39.715,215.091 40.333,215.153 40.333 C 215.492 40.333,215.667 39.826,215.668 38.842 C 215.670 36.305,216.852 35.267,218.354 36.483 L 218.750 36.804 218.838 49.944 C 218.926 63.025,218.928 63.088,219.298 64.073 C 220.710 67.827,227.132 65.983,228.793 61.346 C 228.845 61.202,229.018 60.895,229.177 60.665 C 229.335 60.435,229.546 59.948,229.645 59.582 C 229.744 59.216,229.977 58.620,230.163 58.256 C 230.348 57.893,230.500 57.446,230.500 57.263 C 230.500 57.080,230.685 56.364,230.912 55.673 C 231.650 53.424,232.037 52.102,232.257 51.083 C 232.376 50.533,232.586 49.746,232.723 49.333 C 232.860 48.921,233.086 48.133,233.226 47.583 C 234.113 44.090,234.885 42.158,236.443 39.532 C 237.198 38.259,239.046 36.570,239.926 36.348 C 240.350 36.242,240.883 36.033,241.110 35.884 C 241.615 35.553,242.788 35.550,243.437 35.879 C 243.701 36.012,244.442 36.217,245.083 36.333 C 245.725 36.450,246.475 36.659,246.750 36.798 C 247.025 36.938,247.588 37.149,248.000 37.268 C 248.412 37.388,249.176 37.638,249.697 37.824 C 251.941 38.628,254.400 38.447,255.972 37.363 C 258.203 35.824,258.539 35.734,259.325 36.458 C 260.261 37.322,259.980 38.217,258.019 40.617 C 257.542 41.201,257.442 41.331,256.040 43.179 C 255.514 43.874,254.909 44.661,254.696 44.929 C 254.206 45.545,252.540 47.759,251.526 49.141 C 251.099 49.723,250.409 50.623,249.992 51.141 C 249.574 51.659,248.700 52.796,248.049 53.667 C 246.400 55.872,244.988 57.741,244.084 58.917 C 241.785 61.904,241.759 61.720,244.502 61.843 C 246.549 61.935,247.571 62.211,248.833 63.012 C 248.971 63.099,249.383 63.321,249.750 63.504 C 250.117 63.687,250.754 64.056,251.167 64.324 C 253.659 65.945,253.775 65.986,255.941 66.016 L 257.932 66.044 259.088 65.420 C 261.655 64.034,263.100 62.597,264.509 60.028 C 264.694 59.692,265.066 59.079,265.336 58.667 C 265.607 58.254,265.875 57.804,265.932 57.667 C 265.990 57.529,266.208 57.042,266.418 56.583 C 266.628 56.125,267.002 55.300,267.250 54.750 C 267.497 54.200,267.875 53.375,268.088 52.917 C 268.505 52.020,269.054 50.540,269.417 49.333 C 269.541 48.921,269.788 48.208,269.967 47.750 C 270.425 46.576,270.834 45.363,271.035 44.583 C 271.130 44.217,271.316 43.579,271.448 43.167 C 271.581 42.754,271.830 41.854,272.001 41.167 C 272.173 40.479,272.430 39.638,272.573 39.297 C 272.716 38.956,272.834 38.281,272.836 37.797 C 272.839 36.765,272.883 36.684,273.718 36.201 C 274.561 35.713,274.981 35.737,275.673 36.316 L 276.250 36.798 276.250 50.191 C 276.250 64.893,276.248 64.868,277.247 63.375 C 277.477 63.031,277.834 62.515,278.041 62.228 C 278.248 61.941,278.709 61.266,279.067 60.728 C 279.425 60.190,279.818 59.600,279.941 59.417 C 280.064 59.233,280.414 58.708,280.720 58.250 C 281.025 57.792,281.420 57.200,281.596 56.936 C 281.772 56.672,281.992 56.330,282.083 56.176 C 282.175 56.022,282.619 55.339,283.069 54.657 C 283.519 53.975,284.075 53.117,284.303 52.750 C 284.532 52.383,284.847 51.894,285.004 51.662 C 285.161 51.430,285.452 50.942,285.650 50.578 C 285.849 50.214,286.231 49.579,286.500 49.167 C 286.769 48.754,287.146 48.154,287.339 47.833 C 287.531 47.512,287.869 46.950,288.088 46.583 C 288.308 46.217,288.697 45.553,288.952 45.108 C 289.208 44.663,289.619 43.950,289.866 43.524 C 290.114 43.098,290.475 42.450,290.668 42.083 C 290.862 41.717,291.222 41.068,291.469 40.641 C 292.828 38.288,293.167 37.620,293.169 37.286 C 293.174 36.656,294.132 35.833,294.862 35.833 C 295.316 35.833,296.494 36.581,296.512 36.881 C 296.519 36.992,296.538 42.446,296.554 49.000 L 296.583 60.917 297.072 62.044 C 297.666 63.414,298.859 64.716,300.250 65.511 L 301.250 66.083 303.500 66.077 L 305.750 66.070 306.978 65.456 C 310.211 63.837,312.514 60.979,313.858 56.917 C 314.239 55.766,314.246 55.619,314.331 46.277 L 314.417 36.804 314.813 36.483 C 315.423 35.989,315.980 35.913,316.589 36.241 C 317.621 36.797,317.576 36.187,317.667 50.667 C 317.756 64.915,317.710 64.238,318.667 65.333 L 319.176 65.917 321.253 65.972 L 323.329 66.027 324.280 65.483 C 325.319 64.889,326.462 63.793,327.133 62.750 C 327.768 61.763,328.833 59.695,328.833 59.450 C 328.833 59.333,328.980 58.950,329.159 58.598 C 329.338 58.247,329.572 57.537,329.678 57.021 C 329.784 56.505,329.978 55.875,330.109 55.621 C 330.239 55.366,330.425 54.730,330.522 54.208 C 330.619 53.685,330.797 53.065,330.918 52.831 C 331.039 52.597,331.187 52.108,331.246 51.744 C 331.306 51.381,331.533 50.483,331.751 49.750 C 331.969 49.017,332.270 47.967,332.421 47.417 C 333.113 44.883,333.342 44.167,333.830 43.000 C 335.203 39.716,337.508 36.705,338.873 36.410 C 339.172 36.345,339.712 36.143,340.073 35.960 C 340.892 35.545,341.848 35.548,342.547 35.968 C 342.842 36.145,343.308 36.344,343.583 36.409 C 344.545 36.637,345.503 37.627,346.201 39.116 C 346.976 40.770,346.795 40.745,348.705 39.458 C 352.835 36.677,355.068 35.763,357.755 35.755 C 360.500 35.746,363.536 37.502,364.415 39.606 C 364.843 40.629,365.334 40.522,367.478 38.942 C 367.994 38.562,368.642 38.122,368.917 37.965 C 369.965 37.367,372.090 36.333,372.270 36.333 C 372.373 36.333,372.823 36.169,373.270 35.969 C 374.763 35.299,377.756 35.412,379.250 36.195 C 381.253 37.244,382.409 38.513,383.398 40.750 L 383.913 41.917 384.008 52.583 C 384.115 64.539,384.103 64.432,385.390 65.535 C 386.137 66.176,389.236 66.236,390.010 65.625 C 390.271 65.419,390.827 64.987,391.246 64.667 C 391.665 64.346,392.513 63.457,393.129 62.691 C 395.085 60.261,395.374 60.000,396.110 60.000 C 399.702 60.000,395.912 66.013,390.500 68.902 C 388.398 70.024,384.802 69.429,383.041 67.669 C 381.106 65.733,380.833 63.809,380.833 52.081 C 380.833 46.823,380.767 43.556,380.646 42.847 C 380.032 39.251,376.755 37.773,373.000 39.401 C 371.400 40.094,371.265 40.162,370.500 40.664 C 370.087 40.934,369.488 41.302,369.167 41.482 C 368.329 41.951,365.792 44.187,365.546 44.673 C 365.386 44.989,365.338 47.759,365.336 56.721 L 365.333 68.359 364.846 68.846 C 364.075 69.617,363.266 69.493,362.608 68.505 C 362.359 68.131,362.333 66.922,362.331 55.671 C 362.329 45.269,362.288 43.079,362.081 42.199 C 361.286 38.826,357.583 37.899,353.667 40.092 C 353.438 40.220,352.949 40.467,352.581 40.640 C 352.213 40.813,351.810 41.077,351.686 41.227 C 351.561 41.377,351.397 41.500,351.320 41.500 C 351.148 41.500,349.742 42.484,348.381 43.557 C 346.730 44.858,346.833 43.966,346.833 56.928 C 346.833 69.854,346.895 69.333,345.357 69.333 C 343.795 69.333,343.812 69.491,343.868 54.789 L 343.917 42.083 343.500 41.031 C 342.580 38.709,340.380 38.451,338.751 40.474 C 338.300 41.033,337.167 43.163,337.167 43.450 C 337.167 43.576,337.027 43.958,336.856 44.298 C 336.685 44.638,336.493 45.206,336.428 45.560 C 336.364 45.913,336.172 46.513,336.001 46.893 C 335.830 47.273,335.578 48.033,335.440 48.583 C 335.302 49.133,334.990 50.258,334.747 51.083 C 334.504 51.908,334.165 53.087,333.995 53.702 C 333.824 54.318,333.594 54.990,333.484 55.197 C 333.373 55.403,333.151 56.062,332.990 56.661 C 332.619 58.038,332.085 59.553,331.662 60.427 C 331.481 60.800,331.333 61.198,331.333 61.311 C 331.333 61.425,331.146 61.794,330.917 62.131 C 330.687 62.468,330.500 62.816,330.500 62.905 C 330.500 63.283,328.698 65.692,327.686 66.667 C 323.210 70.978,316.294 70.242,315.172 65.333 C 314.737 63.432,314.270 63.245,313.161 64.529 C 312.282 65.546,309.585 67.833,309.264 67.833 C 309.141 67.833,308.948 67.946,308.834 68.083 C 308.720 68.220,308.279 68.438,307.855 68.567 C 307.431 68.697,306.783 68.933,306.417 69.093 C 305.263 69.596,302.094 69.507,300.417 68.926 C 296.527 67.577,294.502 65.185,293.499 60.750 C 293.416 60.383,293.345 56.797,293.341 52.781 C 293.332 43.947,293.289 43.751,291.915 46.208 C 291.492 46.965,290.931 47.921,290.668 48.333 C 290.109 49.210,289.193 50.737,288.870 51.333 C 288.745 51.562,288.536 51.868,288.405 52.013 C 288.274 52.158,288.167 52.358,288.167 52.459 C 288.167 52.559,287.995 52.853,287.785 53.112 C 287.575 53.371,287.312 53.771,287.199 54.000 C 286.976 54.454,286.642 54.972,284.559 58.083 C 284.307 58.459,283.367 59.869,282.947 60.500 C 282.795 60.729,282.255 61.517,281.748 62.250 C 281.241 62.983,280.472 64.099,280.038 64.730 C 279.605 65.361,279.100 66.085,278.917 66.339 C 278.733 66.593,278.215 67.352,277.764 68.025 C 277.314 68.699,276.789 69.425,276.598 69.638 C 276.253 70.023,276.249 70.151,276.160 82.722 C 276.059 96.899,276.108 96.306,274.817 98.795 C 272.266 103.710,264.799 104.299,261.542 99.842 C 261.244 99.435,261.000 99.037,261.000 98.958 C 261.000 98.879,260.838 98.463,260.641 98.033 C 259.936 96.498,259.945 90.676,260.655 88.873 C 260.845 88.391,261.000 87.826,261.000 87.617 C 261.000 87.408,261.148 86.946,261.330 86.591 C 261.511 86.235,261.748 85.675,261.856 85.347 C 262.071 84.691,263.685 81.539,264.158 80.850 C 264.321 80.612,264.728 80.004,265.063 79.500 C 265.397 78.996,266.048 78.058,266.511 77.417 C 266.973 76.775,267.479 76.060,267.634 75.827 C 267.954 75.348,269.250 73.665,271.096 71.333 C 271.786 70.462,272.477 69.566,272.633 69.341 C 273.010 68.797,273.075 51.008,272.701 50.635 C 272.435 50.369,272.252 50.608,271.987 51.567 C 271.888 51.925,271.663 52.486,271.487 52.814 C 271.311 53.143,271.167 53.520,271.167 53.653 C 271.167 53.786,271.007 54.237,270.812 54.656 C 270.195 55.978,268.167 60.069,267.956 60.417 C 267.546 61.093,266.593 62.588,266.471 62.750 C 263.392 66.802,261.574 68.189,257.917 69.275 C 256.162 69.796,253.315 69.362,251.667 68.322 C 251.529 68.236,251.154 68.037,250.833 67.881 C 250.512 67.724,250.137 67.506,250.000 67.396 C 249.862 67.286,248.856 66.732,247.763 66.165 L 245.776 65.134 243.763 65.205 C 241.927 65.270,241.669 65.319,240.833 65.766 C 239.815 66.310,238.506 67.153,238.250 67.430 C 236.037 69.821,233.914 70.118,233.918 68.036 C 233.920 67.225,233.918 67.229,236.091 64.417 C 236.733 63.587,238.776 60.882,239.001 60.566 C 239.138 60.373,239.700 59.632,240.250 58.920 C 240.800 58.208,241.400 57.416,241.583 57.160 C 242.156 56.359,244.046 53.859,244.917 52.748 C 245.375 52.164,246.099 51.213,246.526 50.635 C 247.231 49.679,248.946 47.412,249.590 46.583 C 253.327 41.774,253.326 41.779,251.066 41.596 C 250.117 41.519,249.265 41.335,248.640 41.072 C 248.110 40.849,247.564 40.667,247.425 40.667 C 247.287 40.667,246.779 40.487,246.295 40.268 C 240.402 37.592,238.629 39.349,235.722 50.750 C 235.582 51.300,235.331 52.087,235.165 52.500 C 234.998 52.913,234.808 53.550,234.742 53.917 C 234.677 54.283,234.544 54.733,234.448 54.917 C 234.352 55.100,234.104 55.813,233.898 56.500 C 233.285 58.544,232.993 59.370,232.568 60.252 C 232.347 60.712,232.167 61.204,232.167 61.345 C 232.167 61.486,231.979 61.856,231.750 62.167 C 231.521 62.477,231.332 62.811,231.330 62.907 C 231.323 63.360,229.212 66.113,228.234 66.946 C 226.714 68.240,226.419 68.431,225.171 68.924 C 221.470 70.386,218.207 69.113,216.499 65.542 C 215.904 64.299,215.464 63.993,215.248 64.673 C 215.077 65.210,212.460 67.713,211.651 68.112 C 209.396 69.224,208.943 69.376,207.566 69.483 C 205.410 69.651,203.573 69.450,202.559 68.935 C 202.087 68.696,201.662 68.500,201.613 68.500 C 201.309 68.500,199.422 67.045,198.697 66.251 C 197.474 64.913,195.667 62.030,195.667 61.416 C 195.667 61.078,194.674 59.000,194.513 59.000 C 194.430 59.000,194.081 59.506,193.737 60.125 C 193.393 60.744,192.956 61.458,192.764 61.713 C 190.888 64.212,189.243 65.995,187.833 67.057 C 186.665 67.936,185.843 68.500,185.729 68.500 C 185.680 68.500,185.105 68.734,184.452 69.021 C 181.361 70.378,177.330 68.806,176.063 65.750 C 175.374 64.087,175.311 63.142,175.184 52.500 C 175.068 42.707,175.047 42.207,174.715 41.277 C 173.249 37.163,167.062 38.098,160.750 43.388 C 158.706 45.101,158.929 43.558,158.833 56.663 C 158.738 69.679,158.779 69.333,157.328 69.333 C 155.762 69.333,155.812 69.794,155.779 54.976 C 155.747 40.696,155.766 40.975,154.769 39.854 C 152.963 37.822,150.331 39.684,148.789 44.083 C 148.564 44.725,148.249 45.625,148.089 46.083 C 147.929 46.542,147.686 47.367,147.548 47.917 C 147.410 48.467,147.164 49.292,147.001 49.750 C 146.838 50.208,146.593 51.033,146.456 51.583 C 146.320 52.133,146.127 52.808,146.029 53.083 C 145.729 53.924,145.162 55.704,144.915 56.583 C 144.426 58.321,143.068 61.810,142.736 62.180 C 142.606 62.325,142.500 62.521,142.500 62.615 C 142.500 63.378,139.456 66.991,137.893 68.083 C 135.961 69.432,132.055 69.898,130.107 69.011 C 129.692 68.822,129.281 68.667,129.194 68.667 C 128.455 68.667,126.525 66.020,126.277 64.667 C 125.817 62.162,125.667 58.882,125.667 51.338 C 125.667 46.721,125.597 43.009,125.500 42.499 C 124.891 39.288,121.362 37.779,118.083 39.326 C 117.717 39.499,117.004 39.831,116.500 40.064 C 114.998 40.759,112.928 42.208,111.250 43.741 L 110.417 44.502 110.333 56.383 C 110.256 67.368,110.228 68.299,109.956 68.713 C 109.405 69.554,108.264 69.505,107.600 68.612 C 107.251 68.141,107.250 68.123,107.310 55.945 C 107.382 41.098,107.383 41.107,105.272 39.602 C 104.054 38.733,101.507 38.682,99.832 39.492 C 97.066 40.830,95.496 41.816,93.402 43.533 C 91.703 44.925,91.833 43.837,91.833 56.597 C 91.833 65.918,91.793 67.941,91.597 68.409 C 91.165 69.445,90.120 69.645,89.321 68.846 L 88.833 68.359 88.827 55.304 L 88.820 42.250 88.438 41.167 C 87.677 39.008,85.907 38.725,84.488 40.536 C 83.470 41.836,82.257 44.807,81.338 48.250 C 81.167 48.892,80.912 49.717,80.771 50.083 C 80.630 50.450,80.511 50.897,80.507 51.077 C 80.500 51.408,79.889 53.362,79.296 54.953 C 79.118 55.432,78.870 56.219,78.745 56.703 C 78.446 57.859,77.702 60.004,77.520 60.235 C 77.441 60.335,77.281 60.717,77.164 61.083 C 77.047 61.450,76.812 61.929,76.642 62.147 C 76.472 62.366,76.333 62.622,76.333 62.716 C 76.333 63.317,73.950 66.315,72.528 67.503 C 68.882 70.550,62.941 70.047,60.745 66.505 C 59.726 64.862,59.640 63.994,59.523 54.167 C 59.464 49.262,59.356 45.156,59.282 45.042 C 59.061 44.700,58.734 44.803,58.515 45.283 C 58.351 45.644,56.900 48.134,56.156 49.333 C 55.832 49.855,54.661 51.784,54.183 52.583 C 53.220 54.193,52.054 56.016,50.559 58.250 C 50.436 58.433,50.061 58.996,49.726 59.500 C 49.390 60.004,49.014 60.567,48.891 60.750 C 48.767 60.933,48.316 61.608,47.888 62.250 C 47.460 62.892,47.063 63.454,47.005 63.500 C 46.948 63.546,46.529 64.134,46.075 64.808 C 45.069 66.300,44.752 66.754,43.669 68.250 C 42.121 70.388,42.262 69.039,42.152 82.750 C 42.030 97.723,41.973 98.072,39.123 100.964 C 37.245 102.870,32.057 103.464,30.012 102.009 C 29.748 101.821,29.453 101.667,29.357 101.667 C 29.036 101.667,27.408 99.929,26.944 99.092 C 24.854 95.322,26.144 86.210,29.361 82.019 C 29.529 81.801,29.668 81.538,29.669 81.436 C 29.671 81.334,29.933 80.875,30.253 80.417 C 30.572 79.958,31.178 79.076,31.598 78.456 C 32.019 77.835,32.450 77.235,32.556 77.122 C 32.663 77.009,33.050 76.465,33.417 75.914 C 34.042 74.973,34.921 73.846,37.750 70.360 L 38.917 68.923 38.917 65.720 C 38.917 61.985,38.826 61.716,37.984 62.940 C 35.492 66.561,30.847 69.332,27.264 69.334 C 25.816 69.335,23.503 68.737,22.641 68.140 C 22.398 67.971,22.121 67.833,22.027 67.833 C 21.671 67.833,19.027 65.486,18.075 64.325 C 16.957 62.962,16.631 62.448,15.750 60.667 C 14.808 58.762,14.542 58.157,14.245 57.250 C 12.889 53.104,12.667 52.349,12.667 51.879 C 12.667 51.624,12.523 50.913,12.347 50.300 C 12.172 49.686,11.980 48.673,11.920 48.050 C 11.861 47.427,11.660 46.099,11.473 45.099 C 10.845 41.731,10.787 30.088,11.385 27.411 C 11.529 26.766,11.726 25.472,11.822 24.535 C 11.918 23.597,12.109 22.562,12.246 22.234 C 12.383 21.905,12.581 21.146,12.685 20.547 C 12.916 19.222,14.102 15.647,14.996 13.583 C 16.727 9.586,19.027 6.457,21.698 4.467 C 24.367 2.478,26.826 1.899,30.426 2.411 M62.190 20.016 C 65.034 22.042,62.812 25.943,59.582 24.593 C 58.080 23.966,57.836 21.177,59.194 20.173 C 60.189 19.437,61.295 19.379,62.190 20.016 M276.201 20.165 C 277.088 20.723,277.437 21.553,277.279 22.732 C 276.874 25.754,272.095 25.454,272.095 22.406 C 272.095 20.237,274.353 19.005,276.201 20.165 M203.830 39.459 C 198.901 41.535,196.763 46.954,197.469 55.583 C 197.787 59.467,199.330 63.090,201.375 64.753 C 205.803 68.354,213.218 65.439,214.419 59.625 C 214.480 59.327,214.692 58.558,214.890 57.917 C 215.430 56.165,215.426 49.467,214.883 47.833 C 214.685 47.237,214.472 46.487,214.410 46.167 C 214.348 45.846,214.164 45.358,214.001 45.083 C 213.838 44.808,213.650 44.402,213.582 44.180 C 212.488 40.581,207.220 38.031,203.830 39.459 M37.917 75.117 C 37.364 75.799,35.801 77.857,35.193 78.706 C 34.773 79.292,33.715 80.901,32.932 82.146 C 32.186 83.332,30.640 86.357,30.495 86.917 C 30.423 87.192,30.215 87.792,30.031 88.250 C 27.195 95.337,30.543 101.778,35.830 99.405 C 36.868 98.939,38.167 97.643,38.167 97.073 C 38.167 96.947,38.335 96.523,38.542 96.130 L 38.917 95.417 38.966 85.333 C 39.024 73.484,39.048 73.722,37.917 75.117 M272.167 74.802 C 272.167 74.876,272.035 75.083,271.874 75.260 C 271.386 75.801,269.113 78.807,268.631 79.551 C 267.844 80.765,266.712 82.696,266.120 83.833 C 265.905 84.246,265.646 84.733,265.543 84.917 C 262.373 90.592,262.462 97.599,265.728 99.291 C 267.828 100.379,271.924 99.262,271.993 97.582 C 271.997 97.490,272.206 97.040,272.458 96.582 L 272.917 95.750 272.969 85.750 C 273.025 75.079,273.007 74.667,272.492 74.667 C 272.313 74.667,272.167 74.728,272.167 74.802 " stroke="none" fill="#ffffff" fill-rule="evenodd"></path></g></svg>