<svg id="svg" version="1.1" width="400" height="69.81818181818181" xmlns="http://www.w3.org/2000/svg" xmlns:xlink="http://www.w3.org/1999/xlink" style="display: block;"><g id="svgg"><path id="path0" d="M8.381 4.261 C 6.294 4.718,3.396 7.385,3.756 8.518 C 4.154 9.774,5.218 9.737,6.701 8.415 C 8.789 6.552,10.341 6.448,13.847 7.934 C 16.287 8.970,17.440 9.185,18.663 8.834 C 19.088 8.712,19.295 8.723,19.448 8.876 C 19.722 9.151,19.956 51.240,19.699 54.167 C 19.382 57.776,18.183 59.255,15.845 58.920 C 14.410 58.714,13.432 57.866,10.945 54.667 C 9.455 52.749,7.424 53.665,8.432 55.800 C 11.873 63.082,19.935 63.642,22.124 56.750 L 22.548 55.417 22.649 44.083 L 22.750 32.750 24.188 32.702 C 25.193 32.669,25.845 32.734,26.355 32.921 C 26.755 33.067,27.346 33.265,27.667 33.360 C 27.988 33.455,28.363 33.629,28.500 33.746 C 28.637 33.864,28.975 34.075,29.250 34.215 C 31.222 35.223,34.825 40.415,35.577 43.333 C 35.636 43.563,35.822 44.087,35.990 44.500 C 36.159 44.913,36.501 45.925,36.751 46.750 C 38.464 52.405,39.445 55.150,40.175 56.333 C 40.260 56.471,40.476 56.846,40.654 57.167 C 42.193 59.940,44.953 61.667,47.848 61.667 C 51.931 61.667,54.909 59.438,58.426 53.750 C 59.334 52.283,61.510 47.377,61.920 45.875 C 62.034 45.458,62.244 45.392,62.448 45.708 C 62.523 45.823,62.629 48.204,62.685 51.000 C 62.816 57.560,63.140 59.017,64.771 60.390 C 66.221 61.610,68.892 62.078,70.311 61.360 C 70.644 61.192,71.179 60.926,71.500 60.771 C 73.618 59.744,78.500 54.455,78.500 53.189 C 78.500 52.236,79.134 52.733,79.641 54.083 C 81.013 57.738,82.937 59.963,85.859 61.275 C 87.255 61.902,90.651 61.968,91.767 61.390 C 92.124 61.205,92.615 61.004,92.857 60.945 C 93.564 60.770,95.297 59.366,96.208 58.229 C 97.172 57.027,97.180 57.027,97.778 58.301 C 98.896 60.684,100.156 61.527,102.763 61.633 L 104.442 61.702 106.072 60.909 C 109.309 59.335,110.355 58.096,117.546 47.327 C 125.295 35.721,124.584 36.688,125.150 36.991 C 125.773 37.325,129.311 41.414,130.419 43.083 C 133.894 48.313,133.566 53.590,129.530 57.415 C 129.193 57.735,128.833 57.998,128.731 57.999 C 128.629 57.999,128.361 58.145,128.136 58.321 C 127.693 58.670,125.202 59.333,124.336 59.333 C 122.451 59.333,119.536 57.404,118.671 55.583 C 118.294 54.791,117.479 54.000,117.038 54.000 C 116.589 54.000,115.667 54.835,115.667 55.242 C 115.667 56.689,119.057 60.414,121.122 61.237 C 122.696 61.864,126.263 61.934,127.553 61.364 C 127.963 61.183,128.531 60.983,128.814 60.921 C 129.098 60.859,129.373 60.737,129.426 60.651 C 129.479 60.566,129.808 60.350,130.156 60.172 C 131.396 59.539,133.833 56.917,133.833 56.215 C 133.833 55.876,135.176 54.534,135.623 54.426 C 137.843 53.888,140.750 52.094,142.641 50.095 C 143.622 49.058,143.949 48.952,144.090 49.625 C 144.143 49.877,144.263 50.421,144.357 50.833 C 144.451 51.246,144.595 51.990,144.677 52.487 C 145.292 56.235,147.966 59.752,151.359 61.275 C 152.778 61.912,156.108 61.959,157.286 61.357 C 157.671 61.161,158.084 61.000,158.204 61.000 C 158.791 61.000,161.101 59.084,162.069 57.793 C 162.635 57.039,162.673 57.057,163.299 58.396 C 164.601 61.177,167.833 62.586,169.980 61.308 C 172.575 59.763,173.942 58.476,175.565 56.050 C 176.305 54.945,176.174 53.830,175.277 53.605 C 174.513 53.413,174.051 53.736,172.697 55.408 C 170.032 58.698,167.713 59.710,166.290 58.202 C 165.291 57.144,165.278 56.979,165.176 44.782 L 165.083 33.647 164.667 33.327 C 163.504 32.434,162.500 33.441,162.500 35.500 C 162.500 36.947,162.265 36.947,160.720 35.504 C 157.069 32.094,151.887 32.038,148.244 35.368 C 147.403 36.136,146.167 37.755,146.167 38.087 C 146.167 38.162,146.061 38.342,145.931 38.487 C 145.641 38.812,145.047 40.430,144.755 41.696 C 144.635 42.216,144.416 42.814,144.268 43.024 C 144.121 43.235,144.000 43.525,144.000 43.668 C 144.000 44.014,141.690 47.201,140.699 48.224 C 139.427 49.535,136.123 51.532,135.679 51.257 C 135.606 51.212,135.492 50.293,135.425 49.215 C 135.359 48.136,135.194 46.953,135.059 46.585 C 134.924 46.218,134.738 45.654,134.646 45.333 C 134.076 43.334,132.160 40.549,128.775 36.798 C 127.924 35.855,126.994 34.761,126.709 34.366 C 126.134 33.572,125.079 32.667,124.728 32.667 C 124.380 32.667,123.142 33.855,122.904 34.417 C 122.788 34.692,121.914 36.079,120.961 37.500 C 120.008 38.921,118.903 40.571,118.505 41.167 C 118.107 41.762,117.625 42.475,117.434 42.750 C 117.053 43.300,115.074 46.238,111.768 51.161 C 109.440 54.627,107.653 56.684,105.847 57.972 L 104.758 58.750 103.059 58.750 C 99.730 58.750,99.791 59.006,99.705 44.709 L 99.638 33.668 99.213 33.334 C 98.242 32.570,97.168 33.243,97.165 34.617 C 97.160 36.758,96.832 37.108,95.829 36.041 C 90.027 29.875,80.942 33.213,79.239 42.136 C 79.111 42.806,78.960 43.431,78.902 43.524 C 78.845 43.617,78.731 44.525,78.649 45.541 C 78.511 47.261,78.050 48.974,77.494 49.833 C 77.405 49.971,77.258 50.271,77.166 50.500 C 77.075 50.729,76.929 51.029,76.841 51.167 C 76.753 51.304,76.453 51.809,76.174 52.289 C 72.920 57.883,68.241 60.432,66.100 57.776 L 65.583 57.136 65.500 31.247 L 65.417 5.358 65.067 4.887 C 64.597 4.256,63.555 4.145,63.075 4.676 C 62.759 5.024,62.748 5.463,62.667 20.059 C 62.584 34.931,62.580 35.094,62.221 36.167 C 62.022 36.762,61.706 37.775,61.519 38.417 C 60.954 40.362,60.046 43.182,59.587 44.417 C 59.348 45.058,59.052 45.883,58.929 46.250 C 58.670 47.022,57.198 50.337,57.005 50.583 C 56.933 50.675,56.825 50.911,56.764 51.108 C 56.668 51.423,55.688 53.117,54.754 54.583 C 52.916 57.467,50.505 58.892,47.605 58.806 L 45.700 58.750 44.891 58.067 C 43.890 57.221,43.329 56.441,42.563 54.833 C 41.691 53.003,41.409 52.275,40.751 50.167 C 40.622 49.754,40.286 48.779,40.003 48.000 C 39.720 47.221,39.385 46.246,39.258 45.833 C 37.189 39.116,33.752 33.574,30.685 32.009 C 30.321 31.823,29.986 31.612,29.941 31.540 C 29.897 31.467,29.254 31.152,28.513 30.839 C 26.898 30.156,26.909 30.204,28.208 29.414 C 30.464 28.042,32.334 26.212,33.742 24.000 C 34.004 23.587,34.345 23.063,34.500 22.833 C 34.819 22.361,35.705 20.750,36.790 18.667 C 37.197 17.887,37.745 16.837,38.009 16.333 C 38.273 15.829,38.567 15.229,38.664 15.000 C 38.760 14.771,39.012 14.283,39.224 13.917 C 39.437 13.550,39.774 12.964,39.975 12.614 C 43.638 6.231,47.527 5.116,50.429 9.618 C 51.691 11.577,51.915 11.879,52.280 12.118 C 53.272 12.768,54.400 11.646,54.002 10.404 C 53.316 8.262,51.214 5.684,49.391 4.751 C 47.911 3.993,45.100 4.005,43.500 4.776 C 42.130 5.437,38.500 9.271,38.500 10.057 C 38.500 10.109,38.307 10.436,38.071 10.784 C 37.835 11.132,37.118 12.466,36.477 13.750 C 35.837 15.033,35.106 16.458,34.854 16.917 C 34.602 17.375,34.129 18.244,33.803 18.847 C 32.721 20.851,32.011 21.934,30.759 23.490 C 28.805 25.916,27.489 27.101,25.136 28.551 C 24.299 29.067,22.941 29.507,22.756 29.323 C 22.642 29.208,22.555 25.064,22.500 17.060 L 22.417 4.970 22.023 4.652 C 21.367 4.120,20.693 4.242,19.679 5.073 C 18.210 6.278,16.956 6.281,14.000 5.085 C 11.429 4.045,10.193 3.863,8.381 4.261 M290.879 4.784 C 290.602 5.207,290.580 6.227,290.538 20.874 C 290.487 38.788,290.654 37.324,288.855 35.627 C 284.577 31.592,279.142 32.045,274.956 36.786 C 272.922 39.091,271.765 39.820,269.544 40.196 C 266.468 40.717,262.036 39.102,261.085 37.114 C 260.325 35.526,257.893 33.754,255.688 33.182 C 251.083 31.988,245.436 35.125,244.398 39.453 C 244.337 39.708,244.171 40.142,244.031 40.417 C 243.890 40.692,243.683 41.404,243.571 42.000 C 243.459 42.596,243.290 43.496,243.196 44.000 C 243.102 44.504,242.976 45.939,242.917 47.188 C 242.798 49.679,242.811 49.640,241.280 52.250 C 239.752 54.855,237.102 57.603,235.258 58.496 C 234.126 59.044,231.572 58.948,230.914 58.333 C 229.870 57.357,229.925 58.017,229.833 45.359 L 229.750 33.802 229.250 33.402 C 228.451 32.763,227.099 33.084,226.904 33.959 C 226.848 34.211,226.660 34.848,226.485 35.376 C 226.310 35.903,226.167 36.457,226.167 36.605 C 226.167 37.018,225.073 40.318,224.354 42.077 C 222.833 45.795,220.236 49.156,218.072 50.208 C 217.100 50.680,217.032 50.586,216.833 48.495 C 216.466 44.649,214.444 41.252,209.161 35.610 C 208.660 35.074,208.185 34.437,208.105 34.193 C 207.561 32.538,206.287 32.255,205.174 33.542 C 203.906 35.006,200.971 37.876,200.000 38.600 C 199.496 38.976,198.504 39.707,197.795 40.224 C 196.138 41.433,195.863 42.376,196.956 43.095 C 197.805 43.652,199.870 42.442,203.232 39.417 C 205.957 36.963,206.109 36.849,206.513 36.955 C 207.185 37.131,211.174 41.931,212.660 44.353 C 216.173 50.075,213.696 57.432,207.731 58.994 C 204.494 59.842,201.596 58.439,199.944 55.223 C 199.335 54.037,198.391 53.712,197.623 54.423 C 197.062 54.944,197.047 55.425,197.565 56.398 C 200.372 61.678,205.582 63.231,211.116 60.439 C 212.852 59.563,214.443 57.896,215.548 55.792 C 216.238 54.480,216.665 54.091,218.250 53.330 C 220.312 52.339,222.225 50.741,223.934 48.583 C 224.517 47.847,224.777 47.464,225.631 46.083 C 225.745 45.900,225.992 45.413,226.181 45.000 C 226.847 43.549,226.955 44.230,227.049 50.466 C 227.172 58.607,227.636 59.990,230.662 61.252 C 234.244 62.746,238.494 60.573,242.317 55.292 C 242.897 54.490,243.438 53.833,243.519 53.833 C 243.762 53.833,244.333 54.481,244.333 54.756 C 244.333 56.178,248.504 61.000,249.735 61.000 C 249.799 61.000,250.194 61.156,250.611 61.346 C 252.178 62.060,254.989 61.837,257.250 60.819 C 261.614 58.854,264.577 51.925,263.825 45.443 C 263.517 42.795,263.524 42.576,263.917 42.625 C 267.582 43.079,269.331 43.066,271.981 42.563 L 272.544 42.456 272.442 43.019 C 271.988 45.517,271.948 49.284,272.360 50.897 C 272.450 51.252,272.592 51.959,272.675 52.467 C 273.034 54.675,274.340 57.200,276.035 58.966 C 276.801 59.763,278.442 61.000,278.735 61.000 C 278.799 61.000,279.192 61.155,279.607 61.344 C 282.669 62.739,287.574 61.055,290.101 57.742 C 290.637 57.039,290.637 57.038,291.377 58.533 C 292.577 60.956,293.978 61.742,296.904 61.631 C 298.215 61.582,298.943 61.473,299.417 61.258 C 299.783 61.091,300.259 60.873,300.474 60.774 C 301.154 60.460,302.953 58.695,303.784 57.527 C 304.505 56.513,304.897 55.799,305.720 54.000 C 306.290 52.752,307.618 48.588,308.990 43.750 C 309.573 41.692,310.533 39.034,311.036 38.083 C 312.548 35.229,314.888 34.860,315.869 37.323 L 316.238 38.250 316.195 49.333 C 316.161 58.264,316.195 60.498,316.373 60.833 C 316.684 61.421,317.355 61.714,317.909 61.503 C 318.824 61.155,318.833 61.042,318.833 50.597 C 318.833 39.804,318.741 40.550,320.223 39.386 C 325.527 35.219,329.335 34.404,331.267 37.024 C 332.033 38.062,332.071 38.706,332.015 49.847 C 331.968 59.303,331.989 60.328,332.239 60.813 C 332.590 61.492,333.205 61.746,333.802 61.460 C 334.670 61.044,334.662 61.151,334.664 50.531 C 334.666 44.397,334.729 40.529,334.830 40.340 C 335.271 39.515,339.157 36.724,340.545 36.234 C 340.917 36.103,341.312 35.920,341.423 35.828 C 341.534 35.736,342.216 35.576,342.938 35.474 C 345.069 35.171,346.264 35.722,347.298 37.481 L 347.750 38.250 347.850 46.417 C 347.985 57.314,348.219 58.880,349.937 60.321 C 351.505 61.636,354.279 62.100,355.977 61.330 C 356.376 61.148,356.789 61.000,356.893 60.999 C 357.139 60.998,358.868 59.790,359.969 58.851 C 360.936 58.027,362.453 56.227,363.391 54.792 C 363.736 54.265,364.089 53.833,364.176 53.833 C 364.405 53.833,365.000 54.464,365.001 54.708 C 365.003 55.359,366.521 57.787,367.690 59.009 C 371.692 63.192,378.352 62.568,381.769 57.690 C 382.168 57.120,382.396 57.263,382.906 58.406 C 384.974 63.043,390.521 62.778,394.547 57.851 C 396.388 55.599,396.681 54.997,396.353 54.136 C 395.903 52.951,394.560 53.439,393.153 55.300 C 392.550 56.097,391.510 57.200,390.840 57.750 L 389.624 58.750 388.073 58.750 C 384.888 58.750,384.942 58.981,384.826 44.750 C 384.776 38.608,384.720 33.567,384.701 33.546 C 383.574 32.319,382.307 33.142,382.174 35.186 C 382.057 36.987,381.898 37.015,380.364 35.507 C 376.896 32.100,371.547 32.044,367.901 35.377 C 367.090 36.117,366.637 36.711,365.599 38.389 C 364.634 39.950,363.840 43.476,363.682 46.902 L 363.566 49.417 362.790 50.863 C 359.471 57.048,354.785 60.340,351.987 58.454 C 350.779 57.641,350.769 57.558,350.661 47.250 L 350.564 38.083 350.073 36.920 C 347.820 31.571,341.914 31.283,335.484 36.208 C 334.738 36.780,334.068 36.815,333.908 36.292 C 333.566 35.177,332.021 33.830,330.387 33.224 C 327.563 32.175,324.294 33.120,320.034 36.214 C 318.910 37.030,318.747 36.982,318.168 35.667 C 317.663 34.521,316.757 33.565,316.008 33.390 C 315.774 33.335,315.337 33.142,315.035 32.961 C 312.587 31.489,308.131 35.910,306.851 41.083 C 306.760 41.450,306.578 42.087,306.446 42.500 C 306.315 42.913,306.113 43.625,305.998 44.083 C 305.434 46.334,303.962 51.341,303.425 52.833 C 302.591 55.154,300.957 57.399,299.417 58.340 C 298.340 58.997,295.073 58.958,294.364 58.279 C 293.201 57.165,293.270 58.781,293.172 30.362 C 293.085 5.310,293.077 4.802,292.760 4.570 C 292.192 4.155,291.219 4.266,290.879 4.784 M253.152 22.124 C 249.152 26.158,248.944 26.462,249.494 27.488 C 250.180 28.770,250.794 28.427,254.701 24.588 C 259.176 20.191,259.452 19.694,257.886 18.861 C 256.941 18.357,256.775 18.472,253.152 22.124 M226.740 19.561 C 225.816 20.359,225.753 22.064,226.618 22.838 C 227.685 23.792,229.326 23.650,230.081 22.539 C 231.568 20.351,228.741 17.832,226.740 19.561 M91.167 36.054 C 93.691 37.035,95.245 39.092,96.351 42.917 C 96.901 44.821,96.905 50.315,96.357 52.000 C 96.163 52.596,96.003 53.180,96.002 53.299 C 96.001 53.417,95.780 53.980,95.510 54.549 C 93.088 59.669,87.223 60.665,83.811 56.536 C 83.170 55.761,82.169 53.895,82.165 53.469 C 82.163 53.348,82.004 52.762,81.811 52.167 C 81.240 50.407,81.281 44.137,81.877 42.237 C 83.533 36.952,87.199 34.512,91.167 36.054 M156.925 36.171 C 158.827 37.023,161.489 40.322,161.502 41.843 C 161.503 41.975,161.659 42.571,161.847 43.167 C 162.307 44.620,162.345 49.991,161.906 51.583 C 161.755 52.133,161.566 52.852,161.488 53.180 C 161.133 54.660,158.807 58.000,158.132 58.000 C 158.042 58.000,157.753 58.153,157.489 58.341 C 155.018 60.101,150.715 58.857,148.739 55.810 C 146.473 52.318,146.112 44.372,148.035 40.333 C 149.961 36.289,153.496 34.634,156.925 36.171 M255.894 36.156 C 257.694 36.964,260.333 40.182,260.333 41.567 C 260.333 41.690,260.498 42.268,260.698 42.853 C 261.613 45.520,261.165 51.771,259.862 54.500 C 257.070 60.353,250.011 60.635,247.170 55.006 C 246.007 52.702,245.291 46.048,245.924 43.417 C 247.439 37.114,251.479 34.172,255.894 36.156 M284.908 36.175 C 286.091 36.712,287.284 37.715,287.997 38.771 C 288.563 39.610,289.499 41.535,289.502 41.868 C 289.503 41.986,289.659 42.571,289.847 43.167 C 290.307 44.620,290.345 49.991,289.906 51.583 C 289.755 52.133,289.566 52.852,289.488 53.180 C 289.133 54.660,286.807 58.000,286.132 58.000 C 286.042 58.000,285.753 58.153,285.489 58.341 C 283.018 60.101,278.715 58.857,276.739 55.810 C 274.390 52.190,274.109 44.378,276.174 40.083 C 277.974 36.337,281.646 34.695,284.908 36.175 M375.917 35.927 C 376.192 36.047,376.679 36.253,377.000 36.384 C 378.631 37.051,380.611 39.724,381.156 41.994 C 381.234 42.318,381.418 43.030,381.565 43.577 C 382.337 46.438,381.769 52.175,380.450 54.822 C 378.752 58.232,375.126 59.828,371.587 58.723 C 370.378 58.346,368.595 56.473,367.721 54.666 C 365.906 50.909,366.069 43.349,368.046 39.592 C 369.665 36.518,373.350 34.802,375.917 35.927 " stroke="none" fill="#000000" fill-rule="evenodd"></path><path id="path1" d="M0.000 34.833 L 0.000 69.667 200.000 69.667 L 400.000 69.667 400.000 34.833 L 400.000 0.000 200.000 0.000 L 0.000 0.000 0.000 34.833 M11.153 4.188 C 11.756 4.292,13.037 4.696,14.000 5.085 C 16.956 6.281,18.210 6.278,19.679 5.073 C 20.693 4.242,21.367 4.120,22.023 4.652 L 22.417 4.970 22.500 17.060 C 22.593 30.488,22.503 29.657,23.809 29.161 C 24.709 28.819,24.902 28.713,26.500 27.687 C 28.767 26.231,31.797 22.563,33.803 18.847 C 34.129 18.244,34.602 17.375,34.854 16.917 C 35.106 16.458,35.837 15.033,36.477 13.750 C 37.118 12.466,37.835 11.132,38.071 10.784 C 38.307 10.436,38.500 10.109,38.500 10.057 C 38.500 9.271,42.130 5.437,43.500 4.776 C 45.100 4.005,47.911 3.993,49.391 4.751 C 51.214 5.684,53.316 8.262,54.002 10.404 C 54.400 11.646,53.272 12.768,52.280 12.118 C 51.915 11.879,51.691 11.577,50.429 9.618 C 47.527 5.116,43.638 6.231,39.975 12.614 C 39.774 12.964,39.437 13.550,39.224 13.917 C 39.012 14.283,38.760 14.771,38.664 15.000 C 38.567 15.229,38.273 15.829,38.009 16.333 C 37.745 16.837,37.197 17.887,36.790 18.667 C 35.705 20.750,34.819 22.361,34.500 22.833 C 34.345 23.063,34.004 23.587,33.742 24.000 C 32.334 26.212,30.464 28.042,28.208 29.414 C 26.909 30.204,26.898 30.156,28.513 30.839 C 29.254 31.152,29.897 31.467,29.941 31.540 C 29.986 31.612,30.321 31.823,30.685 32.009 C 32.524 32.947,35.147 36.153,36.679 39.333 C 37.966 42.006,38.472 43.283,39.258 45.833 C 39.385 46.246,39.720 47.221,40.003 48.000 C 40.286 48.779,40.622 49.754,40.751 50.167 C 41.409 52.275,41.691 53.003,42.563 54.833 C 43.329 56.441,43.890 57.221,44.891 58.067 L 45.700 58.750 47.605 58.806 C 50.505 58.892,52.916 57.467,54.754 54.583 C 55.688 53.117,56.668 51.423,56.764 51.108 C 56.825 50.911,56.933 50.675,57.005 50.583 C 57.198 50.337,58.670 47.022,58.929 46.250 C 59.052 45.883,59.348 45.058,59.587 44.417 C 60.046 43.182,60.954 40.362,61.519 38.417 C 61.706 37.775,62.022 36.762,62.221 36.167 C 62.580 35.094,62.584 34.931,62.667 20.059 C 62.748 5.463,62.759 5.024,63.075 4.676 C 63.555 4.145,64.597 4.256,65.067 4.887 L 65.417 5.358 65.500 31.247 L 65.583 57.136 66.100 57.776 C 68.241 60.432,72.920 57.883,76.174 52.289 C 76.453 51.809,76.753 51.304,76.841 51.167 C 76.929 51.029,77.075 50.729,77.166 50.500 C 77.258 50.271,77.405 49.971,77.494 49.833 C 78.050 48.974,78.511 47.261,78.649 45.541 C 78.731 44.525,78.845 43.617,78.902 43.524 C 78.960 43.431,79.111 42.806,79.239 42.136 C 80.942 33.213,90.027 29.875,95.829 36.041 C 96.832 37.108,97.160 36.758,97.165 34.617 C 97.168 33.243,98.242 32.570,99.213 33.334 L 99.638 33.668 99.705 44.709 C 99.791 59.006,99.730 58.750,103.059 58.750 L 104.758 58.750 105.847 57.972 C 107.653 56.684,109.440 54.627,111.768 51.161 C 115.074 46.238,117.053 43.300,117.434 42.750 C 117.625 42.475,118.107 41.762,118.505 41.167 C 118.903 40.571,120.008 38.921,120.961 37.500 C 121.914 36.079,122.788 34.692,122.904 34.417 C 123.142 33.855,124.380 32.667,124.728 32.667 C 125.079 32.667,126.134 33.572,126.709 34.366 C 126.994 34.761,127.924 35.855,128.775 36.798 C 132.160 40.549,134.076 43.334,134.646 45.333 C 134.738 45.654,134.924 46.218,135.059 46.585 C 135.194 46.953,135.359 48.136,135.425 49.215 C 135.492 50.293,135.606 51.212,135.679 51.257 C 136.123 51.532,139.427 49.535,140.699 48.224 C 141.690 47.201,144.000 44.014,144.000 43.668 C 144.000 43.525,144.121 43.235,144.268 43.024 C 144.416 42.814,144.635 42.216,144.755 41.696 C 145.047 40.430,145.641 38.812,145.931 38.487 C 146.061 38.342,146.167 38.162,146.167 38.087 C 146.167 37.755,147.403 36.136,148.244 35.368 C 151.887 32.038,157.069 32.094,160.720 35.504 C 162.265 36.947,162.500 36.947,162.500 35.500 C 162.500 33.441,163.504 32.434,164.667 33.327 L 165.083 33.647 165.176 44.782 C 165.278 56.979,165.291 57.144,166.290 58.202 C 167.713 59.710,170.032 58.698,172.697 55.408 C 174.051 53.736,174.513 53.413,175.277 53.605 C 176.174 53.830,176.305 54.945,175.565 56.050 C 173.942 58.476,172.575 59.763,169.980 61.308 C 167.833 62.586,164.601 61.177,163.299 58.396 C 162.673 57.057,162.635 57.039,162.069 57.793 C 161.101 59.084,158.791 61.000,158.204 61.000 C 158.084 61.000,157.671 61.161,157.286 61.357 C 156.108 61.959,152.778 61.912,151.359 61.275 C 147.966 59.752,145.292 56.235,144.677 52.487 C 144.595 51.990,144.451 51.246,144.357 50.833 C 144.263 50.421,144.143 49.877,144.090 49.625 C 143.949 48.952,143.622 49.058,142.641 50.095 C 140.750 52.094,137.843 53.888,135.623 54.426 C 135.176 54.534,133.833 55.876,133.833 56.215 C 133.833 56.917,131.396 59.539,130.156 60.172 C 129.808 60.350,129.479 60.566,129.426 60.651 C 129.373 60.737,129.098 60.859,128.814 60.921 C 128.531 60.983,127.963 61.183,127.553 61.364 C 126.263 61.934,122.696 61.864,121.122 61.237 C 119.057 60.414,115.667 56.689,115.667 55.242 C 115.667 54.835,116.589 54.000,117.038 54.000 C 117.479 54.000,118.294 54.791,118.671 55.583 C 119.536 57.404,122.451 59.333,124.336 59.333 C 125.202 59.333,127.693 58.670,128.136 58.321 C 128.361 58.145,128.629 57.999,128.731 57.999 C 128.833 57.998,129.193 57.735,129.530 57.415 C 133.566 53.590,133.894 48.313,130.419 43.083 C 129.311 41.414,125.773 37.325,125.150 36.991 C 124.584 36.688,125.295 35.721,117.546 47.327 C 110.355 58.096,109.309 59.335,106.072 60.909 L 104.442 61.702 102.763 61.633 C 100.156 61.527,98.896 60.684,97.778 58.301 C 97.180 57.027,97.172 57.027,96.208 58.229 C 95.297 59.366,93.564 60.770,92.857 60.945 C 92.615 61.004,92.124 61.205,91.767 61.390 C 90.651 61.968,87.255 61.902,85.859 61.275 C 82.937 59.963,81.013 57.738,79.641 54.083 C 79.134 52.733,78.500 52.236,78.500 53.189 C 78.500 54.455,73.618 59.744,71.500 60.771 C 71.179 60.926,70.644 61.192,70.311 61.360 C 68.892 62.078,66.221 61.610,64.771 60.390 C 63.140 59.017,62.816 57.560,62.685 51.000 C 62.629 48.204,62.523 45.823,62.448 45.708 C 62.244 45.392,62.034 45.458,61.920 45.875 C 61.510 47.377,59.334 52.283,58.426 53.750 C 54.909 59.438,51.931 61.667,47.848 61.667 C 44.953 61.667,42.193 59.940,40.654 57.167 C 40.476 56.846,40.260 56.471,40.175 56.333 C 39.445 55.150,38.464 52.405,36.751 46.750 C 36.501 45.925,36.159 44.913,35.990 44.500 C 35.822 44.087,35.636 43.563,35.577 43.333 C 34.825 40.415,31.222 35.223,29.250 34.215 C 28.975 34.075,28.637 33.864,28.500 33.746 C 28.363 33.629,27.988 33.455,27.667 33.360 C 27.346 33.265,26.755 33.067,26.355 32.921 C 25.845 32.734,25.193 32.669,24.188 32.702 L 22.750 32.750 22.649 44.083 L 22.548 55.417 22.124 56.750 C 19.935 63.642,11.873 63.082,8.432 55.800 C 7.424 53.665,9.455 52.749,10.945 54.667 C 13.432 57.866,14.410 58.714,15.845 58.920 C 18.183 59.255,19.382 57.776,19.699 54.167 C 19.956 51.240,19.722 9.151,19.448 8.876 C 19.295 8.723,19.088 8.712,18.663 8.834 C 17.440 9.185,16.287 8.970,13.847 7.934 C 10.341 6.448,8.789 6.552,6.701 8.415 C 5.218 9.737,4.154 9.774,3.756 8.518 C 3.396 7.385,6.294 4.718,8.381 4.261 C 9.717 3.968,9.847 3.964,11.153 4.188 M292.760 4.570 C 293.077 4.802,293.085 5.310,293.172 30.362 C 293.270 58.781,293.201 57.165,294.364 58.279 C 295.073 58.958,298.340 58.997,299.417 58.340 C 300.957 57.399,302.591 55.154,303.425 52.833 C 303.962 51.341,305.434 46.334,305.998 44.083 C 306.113 43.625,306.315 42.913,306.446 42.500 C 306.578 42.087,306.760 41.450,306.851 41.083 C 308.131 35.910,312.587 31.489,315.035 32.961 C 315.337 33.142,315.774 33.335,316.008 33.390 C 316.757 33.565,317.663 34.521,318.168 35.667 C 318.747 36.982,318.910 37.030,320.034 36.214 C 324.294 33.120,327.563 32.175,330.387 33.224 C 332.021 33.830,333.566 35.177,333.908 36.292 C 334.068 36.815,334.738 36.780,335.484 36.208 C 341.914 31.283,347.820 31.571,350.073 36.920 L 350.564 38.083 350.661 47.250 C 350.769 57.558,350.779 57.641,351.987 58.454 C 354.785 60.340,359.471 57.048,362.790 50.863 L 363.566 49.417 363.682 46.902 C 363.840 43.476,364.634 39.950,365.599 38.389 C 366.637 36.711,367.090 36.117,367.901 35.377 C 371.547 32.044,376.896 32.100,380.364 35.507 C 381.898 37.015,382.057 36.987,382.174 35.186 C 382.307 33.142,383.574 32.319,384.701 33.546 C 384.720 33.567,384.776 38.608,384.826 44.750 C 384.942 58.981,384.888 58.750,388.073 58.750 L 389.624 58.750 390.840 57.750 C 391.510 57.200,392.550 56.097,393.153 55.300 C 394.859 53.043,396.879 52.897,396.403 55.064 C 396.035 56.737,392.863 59.968,390.326 61.254 C 387.712 62.578,384.158 61.215,382.906 58.406 C 382.396 57.263,382.168 57.120,381.769 57.690 C 378.352 62.568,371.692 63.192,367.690 59.009 C 366.521 57.787,365.003 55.359,365.001 54.708 C 365.000 54.464,364.405 53.833,364.176 53.833 C 364.089 53.833,363.736 54.265,363.391 54.792 C 362.453 56.227,360.936 58.027,359.969 58.851 C 358.868 59.790,357.139 60.998,356.893 60.999 C 356.789 61.000,356.376 61.148,355.977 61.330 C 354.279 62.100,351.505 61.636,349.937 60.321 C 348.219 58.880,347.985 57.314,347.850 46.417 L 347.750 38.250 347.298 37.481 C 346.264 35.722,345.069 35.171,342.938 35.474 C 342.216 35.576,341.534 35.736,341.423 35.828 C 341.312 35.920,340.917 36.103,340.545 36.234 C 339.157 36.724,335.271 39.515,334.830 40.340 C 334.729 40.529,334.666 44.397,334.664 50.531 C 334.662 61.151,334.670 61.044,333.802 61.460 C 333.205 61.746,332.590 61.492,332.239 60.813 C 331.989 60.328,331.968 59.303,332.015 49.847 C 332.071 38.706,332.033 38.062,331.267 37.024 C 329.335 34.404,325.527 35.219,320.223 39.386 C 318.741 40.550,318.833 39.804,318.833 50.597 C 318.833 61.042,318.824 61.155,317.909 61.503 C 317.355 61.714,316.684 61.421,316.373 60.833 C 316.195 60.498,316.161 58.264,316.195 49.333 L 316.238 38.250 315.869 37.323 C 314.888 34.860,312.548 35.229,311.036 38.083 C 310.533 39.034,309.573 41.692,308.990 43.750 C 308.066 47.009,307.004 50.471,306.332 52.417 C 305.674 54.321,304.758 56.157,303.784 57.527 C 302.953 58.695,301.154 60.460,300.474 60.774 C 300.259 60.873,299.783 61.091,299.417 61.258 C 298.943 61.473,298.215 61.582,296.904 61.631 C 293.978 61.742,292.577 60.956,291.377 58.533 C 290.637 57.038,290.637 57.039,290.101 57.742 C 287.574 61.055,282.669 62.739,279.607 61.344 C 279.192 61.155,278.799 61.000,278.735 61.000 C 278.442 61.000,276.801 59.763,276.035 58.966 C 274.340 57.200,273.034 54.675,272.675 52.467 C 272.592 51.959,272.450 51.252,272.360 50.897 C 271.948 49.284,271.988 45.517,272.442 43.019 L 272.544 42.456 271.981 42.563 C 269.331 43.066,267.582 43.079,263.917 42.625 C 263.524 42.576,263.517 42.795,263.825 45.443 C 264.509 51.343,261.910 58.176,258.159 60.337 C 255.701 61.753,252.457 62.187,250.611 61.346 C 250.194 61.156,249.799 61.000,249.735 61.000 C 248.504 61.000,244.333 56.178,244.333 54.756 C 244.333 54.481,243.762 53.833,243.519 53.833 C 243.438 53.833,242.897 54.490,242.317 55.292 C 238.494 60.573,234.244 62.746,230.662 61.252 C 227.636 59.990,227.172 58.607,227.049 50.466 C 226.955 44.230,226.847 43.549,226.181 45.000 C 225.992 45.413,225.745 45.900,225.631 46.083 C 224.777 47.464,224.517 47.847,223.934 48.583 C 222.225 50.741,220.312 52.339,218.250 53.330 C 216.665 54.091,216.238 54.480,215.548 55.792 C 211.806 62.912,202.610 63.930,198.341 57.698 C 197.100 55.886,196.922 55.074,197.623 54.423 C 198.391 53.712,199.335 54.037,199.944 55.223 C 204.325 63.753,216.170 57.530,214.011 47.833 C 213.597 45.975,213.218 45.166,211.667 42.824 C 210.636 41.268,206.949 37.069,206.513 36.955 C 206.109 36.849,205.957 36.963,203.232 39.417 C 199.870 42.442,197.805 43.652,196.956 43.095 C 195.863 42.376,196.138 41.433,197.795 40.224 C 198.504 39.707,199.496 38.976,200.000 38.600 C 200.971 37.876,203.906 35.006,205.174 33.542 C 206.287 32.255,207.561 32.538,208.105 34.193 C 208.185 34.437,208.660 35.074,209.161 35.610 C 214.444 41.252,216.466 44.649,216.833 48.495 C 217.032 50.586,217.100 50.680,218.072 50.208 C 220.236 49.156,222.833 45.795,224.354 42.077 C 225.073 40.318,226.167 37.018,226.167 36.605 C 226.167 36.457,226.310 35.903,226.485 35.376 C 226.660 34.848,226.848 34.211,226.904 33.959 C 227.099 33.084,228.451 32.763,229.250 33.402 L 229.750 33.802 229.833 45.359 C 229.925 58.017,229.870 57.357,230.914 58.333 C 231.572 58.948,234.126 59.044,235.258 58.496 C 237.102 57.603,239.752 54.855,241.280 52.250 C 242.811 49.640,242.798 49.679,242.917 47.188 C 242.976 45.939,243.102 44.504,243.196 44.000 C 243.290 43.496,243.459 42.596,243.571 42.000 C 243.683 41.404,243.890 40.692,244.031 40.417 C 244.171 40.142,244.337 39.708,244.398 39.453 C 245.436 35.125,251.083 31.988,255.688 33.182 C 257.893 33.754,260.325 35.526,261.085 37.114 C 262.036 39.102,266.468 40.717,269.544 40.196 C 271.765 39.820,272.922 39.091,274.956 36.786 C 279.142 32.045,284.577 31.592,288.855 35.627 C 290.654 37.324,290.487 38.788,290.538 20.874 C 290.580 6.227,290.602 5.207,290.879 4.784 C 291.219 4.266,292.192 4.155,292.760 4.570 M257.886 18.861 C 259.452 19.694,259.176 20.191,254.701 24.588 C 250.794 28.427,250.180 28.770,249.494 27.488 C 248.944 26.462,249.152 26.158,253.152 22.124 C 256.775 18.472,256.941 18.357,257.886 18.861 M229.772 19.728 C 231.408 21.364,230.051 23.859,227.759 23.429 C 225.161 22.942,225.568 19.000,228.216 19.000 C 228.971 19.000,229.108 19.064,229.772 19.728 M88.333 35.629 C 85.456 35.894,83.113 38.292,81.877 42.237 C 81.281 44.137,81.240 50.407,81.811 52.167 C 82.004 52.762,82.163 53.348,82.165 53.469 C 82.172 54.261,83.850 56.826,84.938 57.709 C 87.249 59.585,90.827 59.514,93.228 57.546 C 94.351 56.627,95.994 54.110,96.002 53.299 C 96.003 53.180,96.163 52.596,96.357 52.000 C 96.905 50.315,96.901 44.821,96.351 42.917 C 94.893 37.871,92.049 35.287,88.333 35.629 M153.833 35.631 C 149.403 36.025,146.917 40.232,146.917 47.333 C 146.917 52.563,147.586 54.809,149.878 57.273 C 151.557 59.078,155.648 59.652,157.489 58.341 C 157.753 58.153,158.042 58.000,158.132 58.000 C 158.807 58.000,161.133 54.660,161.488 53.180 C 161.566 52.852,161.755 52.133,161.906 51.583 C 162.345 49.991,162.307 44.620,161.847 43.167 C 161.659 42.571,161.503 41.975,161.502 41.843 C 161.501 41.711,161.153 40.904,160.729 40.050 C 159.243 37.056,156.631 35.382,153.833 35.631 M252.083 35.653 C 248.965 36.528,246.978 39.032,245.924 43.417 C 245.291 46.048,246.007 52.702,247.170 55.006 C 250.011 60.635,257.070 60.353,259.862 54.500 C 261.165 51.771,261.613 45.520,260.698 42.853 C 260.498 42.268,260.333 41.690,260.333 41.567 C 260.333 40.993,258.868 38.540,257.987 37.640 C 256.417 36.036,253.827 35.164,252.083 35.653 M281.833 35.631 C 277.461 36.020,274.917 40.324,274.917 47.333 C 274.917 52.563,275.586 54.809,277.878 57.273 C 279.557 59.078,283.648 59.652,285.489 58.341 C 285.753 58.153,286.042 58.000,286.132 58.000 C 286.807 58.000,289.133 54.660,289.488 53.180 C 289.566 52.852,289.755 52.133,289.906 51.583 C 290.345 49.991,290.307 44.620,289.847 43.167 C 289.659 42.571,289.503 41.986,289.502 41.868 C 289.499 41.535,288.563 39.610,287.997 38.771 C 286.590 36.687,284.118 35.427,281.833 35.631 M373.250 35.678 C 368.870 36.282,366.583 40.279,366.583 47.333 C 366.583 53.651,368.370 57.718,371.587 58.723 C 375.126 59.828,378.752 58.232,380.450 54.822 C 381.769 52.175,382.337 46.438,381.565 43.577 C 381.418 43.030,381.234 42.318,381.156 41.994 C 380.611 39.724,378.631 37.051,377.000 36.384 C 376.679 36.253,376.192 36.047,375.917 35.927 C 375.242 35.631,374.257 35.539,373.250 35.678 " stroke="none" fill="#ffffff" fill-rule="evenodd"></path></g></svg>