<svg id="svg" version="1.1" width="400" height="59.56006768189509" xmlns="http://www.w3.org/2000/svg" xmlns:xlink="http://www.w3.org/1999/xlink" style="display: block;"><g id="svgg"><path id="path0" d="M8.639 2.588 C 5.289 3.250,2.523 7.500,5.443 7.500 C 5.698 7.500,6.217 7.152,6.879 6.537 C 8.424 5.104,9.119 4.888,11.050 5.241 C 11.888 5.394,12.650 5.582,12.745 5.658 C 13.012 5.872,15.128 6.687,16.051 6.930 C 16.688 7.098,17.067 7.107,17.674 6.967 C 18.109 6.866,18.575 6.827,18.710 6.878 C 18.981 6.982,19.235 45.593,18.988 49.191 C 18.613 54.672,14.706 55.171,11.339 50.167 C 10.549 48.993,10.145 48.667,9.481 48.667 C 7.381 48.667,8.012 50.925,10.891 53.715 C 14.833 57.534,19.350 56.742,21.183 51.908 C 21.557 50.923,21.560 50.847,21.621 40.174 C 21.663 32.849,21.740 29.363,21.862 29.216 C 22.312 28.673,26.224 29.317,27.167 30.089 C 27.304 30.201,27.643 30.408,27.920 30.548 C 29.761 31.479,33.086 36.324,33.835 39.167 C 33.944 39.579,34.093 39.992,34.167 40.083 C 34.240 40.175,34.386 40.587,34.490 41.000 C 34.594 41.412,34.778 42.012,34.899 42.333 C 35.020 42.654,35.278 43.442,35.472 44.083 C 36.858 48.661,37.608 50.528,38.751 52.250 C 42.596 58.040,48.754 57.426,53.801 50.750 C 53.936 50.571,54.625 49.470,54.945 48.919 C 55.179 48.518,56.929 44.962,57.244 44.250 C 57.441 43.804,57.792 42.895,58.333 41.431 C 58.769 40.250,58.915 41.250,59.016 46.133 C 59.179 53.984,60.114 55.826,64.083 56.111 C 67.008 56.322,71.950 52.247,73.801 48.098 C 74.077 47.480,74.286 47.684,74.809 49.083 C 77.759 56.984,85.838 58.749,90.535 52.519 C 91.051 51.835,91.189 51.904,91.748 53.128 C 93.512 56.991,98.277 57.144,102.267 53.466 C 103.554 52.280,105.308 49.933,108.408 45.250 C 116.980 32.298,116.547 32.901,117.118 33.121 C 117.978 33.453,121.851 38.260,123.010 40.435 C 126.256 46.526,122.732 53.843,116.558 53.832 C 114.184 53.827,112.603 52.798,111.022 50.228 C 110.175 48.851,109.112 48.627,108.511 49.699 C 107.902 50.783,110.838 54.566,113.083 55.592 C 114.395 56.191,117.761 56.379,119.000 55.923 C 119.412 55.771,120.013 55.568,120.333 55.473 C 120.654 55.378,121.029 55.210,121.167 55.099 C 121.304 54.988,121.604 54.817,121.833 54.717 C 122.675 54.352,124.251 52.708,125.049 51.361 C 125.844 50.019,126.490 49.333,126.956 49.333 C 128.055 49.333,131.321 47.342,133.161 45.551 C 134.718 44.034,134.710 44.027,135.333 47.636 C 136.755 55.875,145.493 58.988,150.875 53.174 C 152.177 51.768,152.045 51.787,152.568 52.931 C 153.625 55.239,154.924 56.083,157.417 56.083 C 159.019 56.083,159.084 56.061,160.970 54.863 C 162.797 53.703,165.164 50.750,165.166 49.629 C 165.168 48.236,163.708 48.162,162.700 49.505 C 160.365 52.612,159.361 53.333,157.372 53.333 C 154.442 53.333,154.473 53.464,154.348 40.268 L 154.250 29.952 153.802 29.618 C 152.871 28.923,152.002 29.734,151.998 31.303 C 151.992 33.148,151.757 33.210,150.273 31.754 C 145.182 26.763,137.463 29.628,135.467 37.250 C 135.371 37.617,135.152 38.225,134.980 38.602 C 134.807 38.978,134.667 39.357,134.667 39.444 C 134.667 39.613,134.133 40.385,132.689 42.302 C 131.294 44.155,128.314 46.333,127.174 46.333 C 126.901 46.333,126.851 46.140,126.750 44.708 C 126.447 40.421,125.163 38.083,119.887 32.216 C 119.294 31.555,118.599 30.727,118.345 30.376 C 117.103 28.662,116.086 28.892,114.786 31.181 C 114.547 31.601,113.472 33.251,112.397 34.847 C 111.323 36.444,108.846 40.136,106.894 43.053 C 100.952 51.930,99.610 53.290,96.716 53.373 C 93.544 53.464,93.612 53.736,93.548 40.750 C 93.492 29.492,93.520 29.939,92.840 29.587 C 91.791 29.044,91.146 29.704,91.035 31.437 C 90.933 33.023,90.717 33.145,89.776 32.147 C 85.053 27.140,77.414 29.043,74.981 35.833 C 74.512 37.143,73.847 40.422,73.832 41.500 C 73.824 42.004,73.705 42.717,73.566 43.083 C 73.427 43.450,73.244 43.975,73.159 44.250 C 72.325 46.963,68.780 51.523,66.438 52.895 C 65.736 53.307,65.541 53.342,64.217 53.298 L 62.766 53.250 62.243 52.564 C 61.500 51.589,61.500 51.582,61.500 25.913 L 61.500 3.545 61.155 3.106 C 60.716 2.548,59.864 2.505,59.401 3.017 C 59.095 3.355,59.080 3.897,59.000 17.309 L 58.917 31.250 58.524 32.500 C 58.309 33.188,57.983 34.275,57.800 34.917 C 57.617 35.558,57.392 36.308,57.299 36.583 C 57.205 36.858,57.027 37.421,56.902 37.833 C 56.552 38.993,56.008 40.528,55.741 41.109 C 55.609 41.397,55.500 41.715,55.500 41.814 C 55.500 41.976,54.939 43.237,53.711 45.833 C 52.029 49.391,50.329 51.529,48.205 52.756 C 46.667 53.646,43.890 53.745,42.693 52.953 C 41.091 51.894,39.660 49.017,37.909 43.333 C 37.675 42.576,36.440 39.038,35.936 37.681 C 35.785 37.276,35.597 36.864,35.518 36.764 C 35.439 36.665,35.321 36.410,35.256 36.197 C 35.190 35.985,34.835 35.272,34.466 34.614 C 32.338 30.818,30.597 29.044,27.563 27.578 C 26.013 26.829,25.773 26.623,26.244 26.442 C 27.729 25.872,30.462 23.420,31.696 21.551 C 33.391 18.983,33.279 19.181,35.780 14.333 C 41.119 3.981,44.352 2.419,48.110 8.375 C 49.920 11.244,51.944 10.349,50.473 7.331 C 48.838 3.973,46.948 2.589,44.000 2.590 C 40.215 2.592,37.880 4.863,34.414 11.917 C 33.964 12.833,33.377 13.958,33.110 14.417 C 32.843 14.875,32.369 15.737,32.057 16.333 C 30.561 19.183,27.876 22.524,25.839 24.069 C 24.123 25.371,22.119 26.318,21.875 25.942 C 21.806 25.837,21.712 20.700,21.667 14.527 L 21.583 3.304 21.190 2.985 C 20.568 2.481,19.979 2.586,18.987 3.375 C 17.697 4.403,16.204 4.408,13.750 3.395 C 12.833 3.016,11.671 2.655,11.167 2.591 C 10.662 2.528,10.137 2.452,10.000 2.422 C 9.862 2.392,9.250 2.467,8.639 2.588 M344.439 2.879 C 343.936 3.247,343.841 4.277,343.837 9.425 C 343.834 13.094,343.780 14.487,343.633 14.633 C 343.494 14.773,342.587 14.833,340.626 14.833 C 337.575 14.833,337.000 15.019,337.000 16.000 C 337.000 16.961,337.598 17.167,340.398 17.167 C 341.817 17.167,343.171 17.240,343.406 17.329 L 343.833 17.492 343.831 23.704 C 343.829 27.121,343.773 29.992,343.706 30.083 C 342.261 32.050,338.560 31.881,335.684 29.718 C 334.413 28.761,333.810 29.022,332.338 31.167 C 331.345 32.615,331.213 32.798,329.369 35.278 C 327.455 37.852,327.167 37.918,327.165 35.782 C 327.164 33.974,326.894 32.393,326.464 31.671 C 326.047 30.969,324.999 29.833,324.769 29.833 C 324.679 29.833,324.280 29.676,323.881 29.483 C 322.222 28.680,319.820 29.794,318.241 32.099 C 317.333 33.426,316.298 35.637,316.091 36.691 C 316.031 36.998,315.880 37.512,315.756 37.833 C 315.545 38.376,315.318 39.218,314.768 41.500 C 314.646 42.004,314.419 42.829,314.263 43.333 C 314.107 43.837,313.822 44.775,313.631 45.417 C 313.439 46.058,313.144 46.935,312.974 47.364 C 312.805 47.794,312.667 48.217,312.667 48.305 C 312.667 48.669,311.134 51.140,310.469 51.849 C 309.220 53.178,308.694 53.390,306.628 53.394 C 303.317 53.400,303.456 53.944,303.332 40.500 C 303.279 34.679,303.219 29.900,303.201 29.879 C 302.142 28.714,300.840 29.678,300.836 31.630 C 300.833 32.954,300.539 33.144,299.774 32.316 C 295.682 27.890,289.139 28.461,285.940 33.523 C 284.673 35.529,280.055 35.029,275.750 32.421 C 275.383 32.199,274.928 31.945,274.739 31.858 C 273.972 31.502,271.333 29.516,271.333 29.294 C 271.333 29.224,271.085 29.167,270.781 29.167 C 269.531 29.167,268.884 30.766,269.724 31.779 C 270.535 32.756,271.278 33.953,271.723 35.000 C 271.976 35.596,272.267 36.232,272.368 36.414 C 273.050 37.641,273.584 41.565,273.422 44.168 C 272.930 52.086,265.479 56.583,261.480 51.374 C 260.241 49.761,260.243 49.776,260.296 39.500 C 260.346 29.862,260.355 29.965,259.458 29.535 C 258.895 29.265,258.050 29.637,257.921 30.211 C 257.875 30.416,257.816 33.846,257.790 37.833 C 257.735 46.269,257.732 46.291,256.228 49.401 C 253.802 54.420,247.301 54.912,245.423 50.220 L 245.000 49.163 245.000 39.785 C 245.000 29.518,245.040 29.931,244.012 29.505 C 243.267 29.196,242.435 29.705,242.370 30.508 C 242.345 30.824,242.180 31.571,242.003 32.167 C 241.827 32.762,241.531 33.775,241.347 34.417 C 240.774 36.412,240.041 38.700,239.585 39.917 C 239.345 40.558,239.070 41.346,238.973 41.667 C 238.877 41.987,238.700 42.438,238.579 42.667 C 238.458 42.896,238.212 43.421,238.032 43.833 C 237.130 45.897,236.807 46.605,236.662 46.833 C 236.575 46.971,236.380 47.308,236.228 47.583 C 233.970 51.676,231.757 53.405,228.808 53.383 L 227.199 53.370 225.808 52.530 C 222.576 50.577,221.419 50.110,219.625 50.032 C 217.681 49.947,217.647 49.884,218.765 48.417 C 219.185 47.867,220.178 46.565,220.972 45.523 C 221.767 44.482,222.567 43.419,222.750 43.161 C 223.125 42.633,225.568 39.423,227.083 37.466 C 232.406 30.592,232.302 30.763,231.655 29.939 C 231.074 29.201,230.330 29.330,228.909 30.414 C 227.453 31.525,225.830 31.563,222.921 30.553 C 222.002 30.234,220.875 29.872,220.417 29.747 C 219.958 29.622,219.283 29.407,218.917 29.267 C 218.047 28.938,217.914 28.941,217.102 29.317 C 216.725 29.491,216.113 29.714,215.742 29.813 C 214.073 30.258,213.361 31.257,210.081 37.750 C 206.732 44.378,206.343 45.094,204.886 47.296 C 203.154 49.916,201.294 51.737,199.377 52.688 L 197.917 53.413 195.500 53.412 C 191.420 53.410,189.419 51.898,187.943 47.705 C 187.194 45.574,187.162 39.876,187.888 37.776 C 190.211 31.058,195.212 29.709,199.529 34.634 C 200.898 36.195,202.693 34.915,201.541 33.200 C 196.892 26.277,186.986 28.963,185.347 37.591 C 185.261 38.045,185.106 38.638,185.003 38.909 C 184.645 39.851,184.757 45.481,185.170 47.227 C 186.559 53.106,189.983 56.085,195.333 56.070 C 200.558 56.055,204.409 53.206,208.615 46.244 C 208.785 45.962,210.148 43.236,213.877 35.717 C 215.785 31.868,217.161 31.182,220.333 32.494 C 222.160 33.250,223.945 33.797,225.083 33.950 C 226.471 34.135,226.432 34.246,223.703 37.862 C 217.333 46.302,216.406 47.527,214.948 49.427 C 214.381 50.166,213.767 50.981,213.583 51.239 C 213.400 51.496,212.950 52.093,212.583 52.564 C 211.355 54.143,211.167 54.476,211.167 55.073 C 211.167 56.478,212.410 56.461,214.019 55.033 C 215.936 53.331,217.268 52.750,219.250 52.750 L 220.917 52.750 222.417 53.571 C 223.242 54.022,224.262 54.595,224.685 54.844 C 227.095 56.264,228.854 56.512,231.084 55.747 C 234.489 54.578,236.872 52.003,239.488 46.667 C 239.959 45.704,240.425 44.775,240.523 44.601 C 240.620 44.427,240.849 43.865,241.030 43.351 C 241.776 41.245,241.879 41.000,242.017 41.000 C 242.265 41.000,242.318 41.647,242.382 45.500 C 242.464 50.347,242.851 51.688,244.730 53.632 C 248.393 57.421,253.993 56.862,257.409 52.367 C 258.273 51.231,258.392 51.251,259.156 52.667 C 261.096 56.260,266.587 57.201,270.400 54.592 C 272.808 52.945,274.980 49.706,275.491 47.000 C 275.569 46.587,275.725 45.800,275.836 45.250 C 276.205 43.434,275.769 38.833,274.978 36.209 C 274.664 35.166,274.911 34.998,276.038 35.489 C 277.785 36.248,278.099 36.373,279.083 36.703 C 279.737 36.921,280.776 37.074,282.083 37.144 L 284.083 37.250 284.137 37.717 C 284.166 37.973,284.073 38.653,283.929 39.227 C 283.631 40.414,283.576 44.425,283.841 45.667 C 283.929 46.079,284.083 46.867,284.183 47.417 C 284.810 50.865,287.140 54.144,289.945 55.523 C 291.302 56.191,295.144 56.378,296.008 55.818 C 296.233 55.672,296.615 55.504,296.857 55.444 C 297.537 55.277,299.262 53.899,300.042 52.900 C 300.919 51.778,300.880 51.772,301.566 53.125 C 302.673 55.307,303.969 56.084,306.495 56.082 C 310.327 56.080,313.278 53.471,315.168 48.417 C 315.374 47.867,315.640 47.154,315.760 46.833 C 315.879 46.512,316.176 45.575,316.419 44.750 C 316.662 43.925,316.940 43.063,317.036 42.833 C 317.133 42.604,317.307 42.004,317.424 41.500 C 317.540 40.996,317.712 40.358,317.806 40.083 C 317.901 39.808,318.329 38.496,318.757 37.167 C 320.208 32.667,321.993 30.867,323.636 32.249 C 324.774 33.207,324.750 32.945,324.751 44.417 C 324.752 56.765,324.670 56.000,325.996 56.000 C 327.047 56.000,327.074 55.833,327.167 48.758 L 327.250 42.417 327.833 41.591 C 328.154 41.137,329.129 39.809,330.000 38.640 C 330.871 37.471,332.252 35.611,333.070 34.507 C 334.764 32.219,334.558 32.314,336.142 33.094 C 338.097 34.057,341.082 34.265,342.843 33.560 C 343.833 33.164,343.797 32.875,343.884 42.000 C 343.969 50.995,344.081 52.240,344.921 53.592 C 346.306 55.819,349.017 56.770,351.083 55.754 C 351.542 55.528,351.971 55.341,352.036 55.339 C 353.096 55.292,357.049 51.180,358.493 48.622 C 358.789 48.096,359.063 47.667,359.101 47.667 C 359.200 47.667,360.000 49.503,360.000 49.730 C 360.000 49.834,360.188 50.272,360.417 50.703 C 361.600 52.924,363.163 54.555,364.964 55.446 L 366.250 56.083 368.430 56.083 C 370.722 56.083,370.558 56.122,372.635 55.102 C 373.404 54.725,374.646 53.609,375.406 52.612 C 376.016 51.812,376.077 51.829,376.608 52.958 C 378.274 56.502,381.650 57.189,385.232 54.714 C 386.649 53.735,389.110 50.786,389.183 49.980 C 389.343 48.200,387.912 47.953,386.705 49.552 C 384.428 52.567,383.344 53.333,381.356 53.333 C 378.504 53.333,378.505 53.340,378.483 40.489 C 378.466 30.063,378.469 30.116,377.798 29.615 C 376.861 28.915,376.000 29.775,376.000 31.411 C 376.000 33.161,375.839 33.194,374.312 31.753 C 370.340 28.006,364.262 28.701,361.244 33.247 C 360.927 33.726,360.667 34.179,360.667 34.254 C 360.667 34.329,360.566 34.509,360.442 34.654 C 360.182 34.958,359.716 36.249,359.475 37.333 C 359.384 37.746,359.206 38.533,359.081 39.083 C 358.956 39.633,358.807 40.747,358.750 41.558 C 358.648 43.010,358.578 43.237,357.526 45.500 C 354.460 52.099,348.795 55.563,346.894 52.000 C 346.540 51.335,346.314 18.040,346.660 17.500 C 346.790 17.298,347.413 17.234,349.924 17.167 C 353.323 17.075,353.500 17.018,353.500 16.005 C 353.500 14.899,353.299 14.833,349.913 14.833 C 347.050 14.833,346.834 14.812,346.673 14.511 C 346.564 14.308,346.500 12.217,346.500 8.867 C 346.500 3.735,346.488 3.529,346.155 3.106 C 345.770 2.617,344.947 2.508,344.439 2.879 M85.566 32.261 C 92.857 35.180,92.437 51.894,85.033 53.478 C 79.217 54.722,75.865 49.701,76.505 40.702 C 76.962 34.292,81.072 30.463,85.566 32.261 M146.333 32.215 C 148.872 33.267,150.015 34.709,151.178 38.333 C 152.066 41.099,151.698 46.818,150.461 49.500 C 147.970 54.896,141.209 55.086,138.597 49.833 C 136.878 46.375,136.883 39.472,138.607 35.917 C 140.232 32.567,143.455 31.022,146.333 32.215 M295.373 32.252 C 300.316 34.234,302.321 43.817,299.083 49.978 C 296.441 55.006,289.892 54.877,287.493 49.750 C 285.716 45.953,285.736 39.488,287.536 35.885 C 289.235 32.483,292.350 31.039,295.373 32.252 M370.859 32.396 C 373.380 33.629,374.547 35.478,375.535 39.805 C 376.059 42.102,375.444 47.630,374.449 49.572 C 371.699 54.935,365.164 55.074,362.633 49.823 C 360.857 46.138,360.877 39.415,362.675 35.833 C 364.419 32.361,367.844 30.922,370.859 32.396 " stroke="none" fill="#000000" fill-rule="evenodd"></path><path id="path1" d="M0.000 29.750 L 0.000 59.500 200.000 59.500 L 400.000 59.500 400.000 29.750 L 400.000 0.000 200.000 0.000 L 0.000 0.000 0.000 29.750 M11.167 2.591 C 11.671 2.655,12.833 3.016,13.750 3.395 C 16.204 4.408,17.697 4.403,18.987 3.375 C 19.979 2.586,20.568 2.481,21.190 2.985 L 21.583 3.304 21.667 14.527 C 21.712 20.700,21.806 25.837,21.875 25.942 C 22.119 26.318,24.123 25.371,25.839 24.069 C 27.876 22.524,30.561 19.183,32.057 16.333 C 32.369 15.737,32.843 14.875,33.110 14.417 C 33.377 13.958,33.964 12.833,34.414 11.917 C 37.880 4.863,40.215 2.592,44.000 2.590 C 46.948 2.589,48.838 3.973,50.473 7.331 C 51.944 10.349,49.920 11.244,48.110 8.375 C 44.352 2.419,41.119 3.981,35.780 14.333 C 33.279 19.181,33.391 18.983,31.696 21.551 C 30.462 23.420,27.729 25.872,26.244 26.442 C 25.773 26.623,26.013 26.829,27.563 27.578 C 30.597 29.044,32.338 30.818,34.466 34.614 C 34.835 35.272,35.190 35.985,35.256 36.197 C 35.321 36.410,35.439 36.665,35.518 36.764 C 35.597 36.864,35.785 37.276,35.936 37.681 C 36.440 39.038,37.675 42.576,37.909 43.333 C 39.660 49.017,41.091 51.894,42.693 52.953 C 43.890 53.745,46.667 53.646,48.205 52.756 C 50.329 51.529,52.029 49.391,53.711 45.833 C 54.939 43.237,55.500 41.976,55.500 41.814 C 55.500 41.715,55.609 41.397,55.741 41.109 C 56.008 40.528,56.552 38.993,56.902 37.833 C 57.027 37.421,57.205 36.858,57.299 36.583 C 57.392 36.308,57.617 35.558,57.800 34.917 C 57.983 34.275,58.309 33.188,58.524 32.500 L 58.917 31.250 59.000 17.309 C 59.080 3.897,59.095 3.355,59.401 3.017 C 59.864 2.505,60.716 2.548,61.155 3.106 L 61.500 3.545 61.500 25.913 C 61.500 51.582,61.500 51.589,62.243 52.564 L 62.766 53.250 64.217 53.298 C 66.255 53.366,67.793 52.369,70.087 49.495 C 71.213 48.084,72.828 45.327,73.159 44.250 C 73.244 43.975,73.427 43.450,73.566 43.083 C 73.705 42.717,73.824 42.004,73.832 41.500 C 73.977 31.111,83.519 25.513,89.776 32.147 C 90.717 33.145,90.933 33.023,91.035 31.437 C 91.146 29.704,91.791 29.044,92.840 29.587 C 93.520 29.939,93.492 29.492,93.548 40.750 C 93.612 53.736,93.544 53.464,96.716 53.373 C 99.610 53.290,100.952 51.930,106.894 43.053 C 108.846 40.136,111.323 36.444,112.397 34.847 C 113.472 33.251,114.547 31.601,114.786 31.181 C 116.086 28.892,117.103 28.662,118.345 30.376 C 118.599 30.727,119.294 31.555,119.887 32.216 C 125.163 38.083,126.447 40.421,126.750 44.708 C 126.851 46.140,126.901 46.333,127.174 46.333 C 128.314 46.333,131.294 44.155,132.689 42.302 C 134.133 40.385,134.667 39.613,134.667 39.444 C 134.667 39.357,134.807 38.978,134.980 38.602 C 135.152 38.225,135.371 37.617,135.467 37.250 C 137.463 29.628,145.182 26.763,150.273 31.754 C 151.757 33.210,151.992 33.148,151.998 31.303 C 152.002 29.734,152.871 28.923,153.802 29.618 L 154.250 29.952 154.348 40.268 C 154.473 53.464,154.442 53.333,157.372 53.333 C 159.361 53.333,160.365 52.612,162.700 49.505 C 163.708 48.162,165.168 48.236,165.166 49.629 C 165.164 50.750,162.797 53.703,160.970 54.863 C 159.084 56.061,159.019 56.083,157.417 56.083 C 154.924 56.083,153.625 55.239,152.568 52.931 C 152.045 51.787,152.177 51.768,150.875 53.174 C 145.493 58.988,136.755 55.875,135.333 47.636 C 134.710 44.027,134.718 44.034,133.161 45.551 C 131.321 47.342,128.055 49.333,126.956 49.333 C 126.490 49.333,125.844 50.019,125.049 51.361 C 124.251 52.708,122.675 54.352,121.833 54.717 C 121.604 54.817,121.304 54.988,121.167 55.099 C 121.029 55.210,120.654 55.378,120.333 55.473 C 120.013 55.568,119.412 55.771,119.000 55.923 C 117.761 56.379,114.395 56.191,113.083 55.592 C 110.838 54.566,107.902 50.783,108.511 49.699 C 109.112 48.627,110.175 48.851,111.022 50.228 C 112.603 52.798,114.184 53.827,116.558 53.832 C 122.732 53.843,126.256 46.526,123.010 40.435 C 121.851 38.260,117.978 33.453,117.118 33.121 C 116.547 32.901,116.980 32.298,108.408 45.250 C 105.308 49.933,103.554 52.280,102.267 53.466 C 98.277 57.144,93.512 56.991,91.748 53.128 C 91.189 51.904,91.051 51.835,90.535 52.519 C 86.734 57.560,79.836 57.429,76.424 52.250 C 75.694 51.142,75.260 50.291,74.809 49.083 C 74.286 47.684,74.077 47.480,73.801 48.098 C 71.950 52.247,67.008 56.322,64.083 56.111 C 60.114 55.826,59.179 53.984,59.016 46.133 C 58.915 41.250,58.769 40.250,58.333 41.431 C 57.379 44.013,57.335 44.114,56.082 46.667 C 55.100 48.668,55.010 48.835,54.339 49.919 C 53.855 50.701,53.901 50.637,52.857 51.928 C 48.983 56.715,43.756 57.529,40.092 53.917 C 38.954 52.795,37.753 50.812,37.064 48.917 C 36.697 47.909,35.869 45.395,35.472 44.083 C 35.278 43.442,35.020 42.654,34.899 42.333 C 34.778 42.012,34.594 41.412,34.490 41.000 C 34.386 40.587,34.240 40.175,34.167 40.083 C 34.093 39.992,33.944 39.579,33.835 39.167 C 33.086 36.324,29.761 31.479,27.920 30.548 C 27.643 30.408,27.304 30.201,27.167 30.089 C 26.224 29.317,22.312 28.673,21.862 29.216 C 21.740 29.363,21.663 32.849,21.621 40.174 C 21.560 50.847,21.557 50.923,21.183 51.908 C 19.350 56.742,14.833 57.534,10.891 53.715 C 8.012 50.925,7.381 48.667,9.481 48.667 C 10.145 48.667,10.549 48.993,11.339 50.167 C 14.706 55.171,18.613 54.672,18.988 49.191 C 19.235 45.593,18.981 6.982,18.710 6.878 C 18.575 6.827,18.109 6.866,17.674 6.967 C 17.067 7.107,16.688 7.098,16.051 6.930 C 15.128 6.687,13.012 5.872,12.745 5.658 C 12.650 5.582,11.888 5.394,11.050 5.241 C 9.119 4.888,8.424 5.104,6.879 6.537 C 5.738 7.596,5.314 7.711,4.606 7.155 C 3.625 6.383,4.716 4.579,7.056 3.105 C 7.547 2.795,9.563 2.328,10.000 2.422 C 10.137 2.452,10.662 2.528,11.167 2.591 M346.155 3.106 C 346.488 3.529,346.500 3.735,346.500 8.867 C 346.500 12.217,346.564 14.308,346.673 14.511 C 346.834 14.812,347.050 14.833,349.913 14.833 C 353.299 14.833,353.500 14.899,353.500 16.005 C 353.500 17.018,353.323 17.075,349.924 17.167 C 347.413 17.234,346.790 17.298,346.660 17.500 C 346.314 18.040,346.540 51.335,346.894 52.000 C 347.680 53.472,349.653 53.890,351.328 52.938 C 353.421 51.750,356.137 48.489,357.526 45.500 C 358.578 43.237,358.648 43.010,358.750 41.558 C 358.807 40.747,358.956 39.633,359.081 39.083 C 359.206 38.533,359.384 37.746,359.475 37.333 C 359.716 36.249,360.182 34.958,360.442 34.654 C 360.566 34.509,360.667 34.329,360.667 34.254 C 360.667 34.179,360.927 33.726,361.244 33.247 C 364.262 28.701,370.340 28.006,374.312 31.753 C 375.839 33.194,376.000 33.161,376.000 31.411 C 376.000 29.775,376.861 28.915,377.798 29.615 C 378.469 30.116,378.466 30.063,378.483 40.489 C 378.505 53.340,378.504 53.333,381.356 53.333 C 383.344 53.333,384.428 52.567,386.705 49.552 C 387.912 47.953,389.343 48.200,389.183 49.980 C 389.145 50.396,387.818 52.262,386.724 53.438 C 383.169 57.257,378.526 57.037,376.608 52.958 C 376.077 51.829,376.016 51.812,375.406 52.612 C 374.646 53.609,373.404 54.725,372.635 55.102 C 370.558 56.122,370.722 56.083,368.430 56.083 L 366.250 56.083 364.964 55.446 C 363.163 54.555,361.600 52.924,360.417 50.703 C 360.188 50.272,360.000 49.834,360.000 49.730 C 360.000 49.503,359.200 47.667,359.101 47.667 C 359.063 47.667,358.789 48.096,358.493 48.622 C 357.049 51.180,353.096 55.292,352.036 55.339 C 351.971 55.341,351.542 55.528,351.083 55.754 C 349.017 56.770,346.306 55.819,344.921 53.592 C 344.081 52.240,343.969 50.995,343.884 42.000 C 343.797 32.875,343.833 33.164,342.843 33.560 C 341.082 34.265,338.097 34.057,336.142 33.094 C 334.558 32.314,334.764 32.219,333.070 34.507 C 332.252 35.611,330.871 37.471,330.000 38.640 C 329.129 39.809,328.154 41.137,327.833 41.591 L 327.250 42.417 327.167 48.758 C 327.074 55.833,327.047 56.000,325.996 56.000 C 324.670 56.000,324.752 56.765,324.751 44.417 C 324.750 32.945,324.774 33.207,323.636 32.249 C 321.993 30.867,320.208 32.667,318.757 37.167 C 318.329 38.496,317.901 39.808,317.806 40.083 C 317.712 40.358,317.540 40.996,317.424 41.500 C 317.307 42.004,317.133 42.604,317.036 42.833 C 316.940 43.063,316.662 43.925,316.419 44.750 C 316.176 45.575,315.879 46.512,315.760 46.833 C 315.640 47.154,315.374 47.867,315.168 48.417 C 313.278 53.471,310.327 56.080,306.495 56.082 C 303.969 56.084,302.673 55.307,301.566 53.125 C 300.880 51.772,300.919 51.778,300.042 52.900 C 299.262 53.899,297.537 55.277,296.857 55.444 C 296.615 55.504,296.233 55.672,296.008 55.818 C 295.144 56.378,291.302 56.191,289.945 55.523 C 287.140 54.144,284.810 50.865,284.183 47.417 C 284.083 46.867,283.929 46.079,283.841 45.667 C 283.576 44.425,283.631 40.414,283.929 39.227 C 284.073 38.653,284.166 37.973,284.137 37.717 L 284.083 37.250 282.083 37.144 C 280.776 37.074,279.737 36.921,279.083 36.703 C 278.099 36.373,277.785 36.248,276.038 35.489 C 274.911 34.998,274.664 35.166,274.978 36.209 C 275.769 38.833,276.205 43.434,275.836 45.250 C 275.725 45.800,275.569 46.587,275.491 47.000 C 274.980 49.706,272.808 52.945,270.400 54.592 C 266.587 57.201,261.096 56.260,259.156 52.667 C 258.392 51.251,258.273 51.231,257.409 52.367 C 253.993 56.862,248.393 57.421,244.730 53.632 C 242.851 51.688,242.464 50.347,242.382 45.500 C 242.318 41.647,242.265 41.000,242.017 41.000 C 241.879 41.000,241.776 41.245,241.030 43.351 C 240.849 43.865,240.620 44.427,240.523 44.601 C 240.425 44.775,239.959 45.704,239.488 46.667 C 236.872 52.003,234.489 54.578,231.084 55.747 C 228.854 56.512,227.095 56.264,224.685 54.844 C 224.262 54.595,223.242 54.022,222.417 53.571 L 220.917 52.750 219.250 52.750 C 217.268 52.750,215.936 53.331,214.019 55.033 C 212.410 56.461,211.167 56.478,211.167 55.073 C 211.167 54.476,211.355 54.143,212.583 52.564 C 212.950 52.093,213.400 51.496,213.583 51.239 C 213.767 50.981,214.381 50.166,214.948 49.427 C 216.291 47.676,216.224 47.765,219.005 44.083 C 227.223 33.205,226.651 34.159,225.083 33.950 C 223.945 33.797,222.160 33.250,220.333 32.494 C 217.161 31.182,215.785 31.868,213.877 35.717 C 210.148 43.236,208.785 45.962,208.615 46.244 C 204.409 53.206,200.558 56.055,195.333 56.070 C 189.983 56.085,186.559 53.106,185.170 47.227 C 184.757 45.481,184.645 39.851,185.003 38.909 C 185.106 38.638,185.261 38.045,185.347 37.591 C 186.986 28.963,196.892 26.277,201.541 33.200 C 202.693 34.915,200.898 36.195,199.529 34.634 C 196.599 31.292,193.862 30.787,190.827 33.031 C 187.075 35.805,186.079 45.206,189.019 50.099 C 190.472 52.516,192.220 53.410,195.500 53.412 L 197.917 53.413 199.377 52.688 C 201.294 51.737,203.154 49.916,204.886 47.296 C 206.343 45.094,206.732 44.378,210.081 37.750 C 213.361 31.257,214.073 30.258,215.742 29.813 C 216.113 29.714,216.725 29.491,217.102 29.317 C 217.914 28.941,218.047 28.938,218.917 29.267 C 219.283 29.407,219.958 29.622,220.417 29.747 C 220.875 29.872,222.002 30.234,222.921 30.553 C 225.830 31.563,227.453 31.525,228.909 30.414 C 230.330 29.330,231.074 29.201,231.655 29.939 C 232.099 30.504,232.090 30.706,231.584 31.462 C 230.631 32.886,230.658 32.849,227.083 37.466 C 225.568 39.423,223.125 42.633,222.750 43.161 C 222.567 43.419,221.767 44.482,220.972 45.523 C 217.266 50.381,217.399 49.935,219.625 50.032 C 221.419 50.110,222.576 50.577,225.808 52.530 L 227.199 53.370 228.808 53.383 C 231.757 53.405,233.970 51.676,236.228 47.583 C 236.380 47.308,236.575 46.971,236.662 46.833 C 236.807 46.605,237.130 45.897,238.032 43.833 C 238.212 43.421,238.458 42.896,238.579 42.667 C 238.700 42.438,238.877 41.987,238.973 41.667 C 239.070 41.346,239.345 40.558,239.585 39.917 C 240.041 38.700,240.774 36.412,241.347 34.417 C 241.531 33.775,241.827 32.762,242.003 32.167 C 242.180 31.571,242.345 30.824,242.370 30.508 C 242.435 29.705,243.267 29.196,244.012 29.505 C 245.040 29.931,245.000 29.518,245.000 39.785 L 245.000 49.163 245.423 50.220 C 247.301 54.912,253.802 54.420,256.228 49.401 C 257.732 46.291,257.735 46.269,257.790 37.833 C 257.816 33.846,257.875 30.416,257.921 30.211 C 258.050 29.637,258.895 29.265,259.458 29.535 C 260.355 29.965,260.346 29.862,260.296 39.500 C 260.243 49.776,260.241 49.761,261.480 51.374 C 265.479 56.583,272.930 52.086,273.422 44.168 C 273.584 41.565,273.050 37.641,272.368 36.414 C 272.267 36.232,271.976 35.596,271.723 35.000 C 271.278 33.953,270.535 32.756,269.724 31.779 C 268.884 30.766,269.531 29.167,270.781 29.167 C 271.085 29.167,271.333 29.224,271.333 29.294 C 271.333 29.516,273.972 31.502,274.739 31.858 C 274.928 31.945,275.383 32.199,275.750 32.421 C 280.055 35.029,284.673 35.529,285.940 33.523 C 289.139 28.461,295.682 27.890,299.774 32.316 C 300.539 33.144,300.833 32.954,300.836 31.630 C 300.840 29.678,302.142 28.714,303.201 29.879 C 303.219 29.900,303.279 34.679,303.332 40.500 C 303.456 53.944,303.317 53.400,306.628 53.394 C 308.694 53.390,309.220 53.178,310.469 51.849 C 311.134 51.140,312.667 48.669,312.667 48.305 C 312.667 48.217,312.805 47.794,312.974 47.364 C 313.144 46.935,313.439 46.058,313.631 45.417 C 313.822 44.775,314.107 43.837,314.263 43.333 C 314.419 42.829,314.646 42.004,314.768 41.500 C 315.318 39.218,315.545 38.376,315.756 37.833 C 315.880 37.512,316.031 36.998,316.091 36.691 C 316.298 35.637,317.333 33.426,318.241 32.099 C 319.820 29.794,322.222 28.680,323.881 29.483 C 324.280 29.676,324.679 29.833,324.769 29.833 C 324.999 29.833,326.047 30.969,326.464 31.671 C 326.894 32.393,327.164 33.974,327.165 35.782 C 327.167 37.918,327.455 37.852,329.369 35.278 C 331.213 32.798,331.345 32.615,332.338 31.167 C 333.810 29.022,334.413 28.761,335.684 29.718 C 338.560 31.881,342.261 32.050,343.706 30.083 C 343.773 29.992,343.829 27.121,343.831 23.704 L 343.833 17.492 343.406 17.329 C 343.171 17.240,341.817 17.167,340.398 17.167 C 337.598 17.167,337.000 16.961,337.000 16.000 C 337.000 15.019,337.575 14.833,340.626 14.833 C 342.587 14.833,343.494 14.773,343.633 14.633 C 343.780 14.487,343.834 13.094,343.837 9.425 C 343.841 4.277,343.936 3.247,344.439 2.879 C 344.947 2.508,345.770 2.617,346.155 3.106 M81.054 32.426 C 77.567 34.110,76.069 38.184,76.509 44.785 C 76.932 51.144,80.229 54.505,85.033 53.478 C 92.437 51.894,92.857 35.180,85.566 32.261 C 83.968 31.622,82.617 31.671,81.054 32.426 M142.368 32.217 C 140.629 32.939,139.525 34.025,138.607 35.917 C 136.883 39.472,136.878 46.375,138.597 49.833 C 141.209 55.086,147.970 54.896,150.461 49.500 C 152.120 45.904,152.082 40.055,150.374 36.167 C 148.870 32.742,145.321 30.991,142.368 32.217 M291.250 32.231 C 287.770 33.738,286.268 36.913,286.277 42.750 C 286.287 50.181,288.950 54.015,293.816 53.605 C 298.144 53.240,300.499 49.448,300.501 42.842 C 300.502 35.079,296.165 30.104,291.250 32.231 M366.417 32.223 C 362.806 33.823,361.419 36.747,361.423 42.750 C 361.428 49.976,363.730 53.584,368.333 53.583 C 372.964 53.582,375.464 50.088,375.629 43.388 C 375.698 40.579,375.655 40.152,375.090 38.032 C 373.842 33.355,369.869 30.694,366.417 32.223 " stroke="none" fill="#ffffff" fill-rule="evenodd"></path></g></svg>