<svg id="svg" version="1.1" width="400" height="106.17283950617283" xmlns="http://www.w3.org/2000/svg" xmlns:xlink="http://www.w3.org/1999/xlink" style="display: block;"><g id="svgg"><path id="path0" d="M10.090 4.028 C 8.972 4.242,8.026 4.850,6.553 6.304 C 4.885 7.950,4.699 8.450,5.431 9.321 C 6.206 10.241,6.985 10.075,8.479 8.671 C 9.772 7.457,10.693 7.000,11.845 7.000 C 12.762 7.000,14.994 7.493,15.702 7.853 C 16.042 8.025,16.424 8.167,16.552 8.167 C 16.679 8.167,17.114 8.342,17.517 8.556 C 18.713 9.190,20.573 9.581,21.326 9.355 C 22.368 9.043,22.979 9.108,23.086 9.542 C 23.137 9.748,23.158 21.729,23.131 36.167 L 23.083 62.417 22.555 63.611 C 20.810 67.557,17.019 66.726,13.633 61.656 C 12.479 59.928,11.546 59.562,10.513 60.431 C 9.610 61.191,10.042 62.531,11.943 64.861 C 13.153 66.346,15.556 68.333,16.141 68.333 C 16.254 68.333,16.662 68.499,17.048 68.701 C 18.220 69.314,20.756 69.237,22.083 68.548 C 23.877 67.615,25.030 66.102,25.864 63.583 L 26.250 62.417 26.333 49.500 C 26.379 42.374,26.483 36.480,26.565 36.353 C 26.795 35.995,30.041 36.189,31.011 36.617 C 31.417 36.797,31.951 36.994,32.197 37.056 C 33.214 37.310,35.594 39.145,36.795 40.602 C 37.945 41.996,39.500 44.314,39.500 44.634 C 39.500 44.743,39.684 45.189,39.910 45.625 C 40.685 47.125,41.002 47.847,41.151 48.465 C 41.234 48.805,41.449 49.458,41.630 49.917 C 42.070 51.033,42.458 52.191,42.830 53.500 C 43.149 54.626,43.494 55.719,43.932 57.000 C 44.073 57.413,44.303 58.163,44.443 58.667 C 44.583 59.171,44.756 59.658,44.827 59.750 C 44.898 59.842,45.084 60.310,45.241 60.790 C 45.397 61.270,45.589 61.702,45.667 61.750 C 45.745 61.799,45.901 62.118,46.014 62.461 C 46.127 62.803,46.344 63.271,46.497 63.500 C 46.650 63.729,47.025 64.292,47.329 64.750 C 51.351 70.796,58.838 70.609,64.029 64.333 C 65.089 63.052,65.424 62.575,66.787 60.407 C 66.959 60.133,68.338 57.354,69.512 54.917 C 69.689 54.550,69.953 53.913,70.101 53.500 C 71.169 50.504,71.203 50.442,71.465 50.940 C 71.556 51.114,71.663 53.636,71.708 56.667 C 71.837 65.392,72.444 67.154,75.838 68.675 C 77.300 69.329,79.201 69.370,80.335 68.772 C 80.746 68.554,81.260 68.322,81.476 68.255 C 83.590 67.599,88.197 62.682,89.677 59.500 L 90.026 58.750 90.346 59.143 C 90.523 59.360,90.667 59.641,90.667 59.769 C 90.667 59.897,90.817 60.281,91.000 60.623 C 91.183 60.965,91.333 61.336,91.333 61.447 C 91.333 61.715,92.409 63.766,92.935 64.500 C 93.974 65.950,96.648 68.333,97.236 68.333 C 97.301 68.333,97.771 68.530,98.280 68.771 C 99.284 69.246,102.923 69.403,104.083 69.021 C 106.423 68.251,108.210 67.057,109.638 65.309 C 110.663 64.055,110.924 63.938,111.176 64.625 C 111.834 66.417,113.105 67.954,114.462 68.600 C 115.651 69.166,118.926 69.302,119.673 68.817 C 119.899 68.670,120.354 68.462,120.685 68.353 C 122.575 67.734,125.732 64.839,127.911 61.726 C 128.641 60.685,136.381 49.062,136.605 48.671 C 136.739 48.439,137.033 47.987,137.260 47.667 C 137.731 46.999,137.894 46.759,138.296 46.141 C 141.220 41.643,141.849 40.878,142.412 41.134 C 143.639 41.693,148.838 48.204,149.758 50.333 C 149.897 50.654,150.113 51.104,150.238 51.333 C 151.436 53.523,151.341 58.159,150.043 60.833 C 149.230 62.510,147.080 65.000,146.446 65.000 C 146.317 65.000,146.017 65.153,145.780 65.340 C 145.342 65.684,143.553 66.216,142.148 66.420 C 139.871 66.750,136.823 64.995,135.333 62.498 C 134.171 60.548,133.446 60.104,132.475 60.747 C 131.435 61.435,131.702 62.726,133.337 64.910 C 134.345 66.258,136.714 68.333,137.244 68.333 C 137.342 68.333,137.720 68.498,138.086 68.699 C 138.869 69.131,142.875 69.345,144.187 69.025 C 146.372 68.493,147.651 67.865,149.366 66.483 C 150.457 65.604,152.333 63.349,152.333 62.918 C 152.333 62.397,153.563 61.161,154.314 60.926 C 155.306 60.617,157.132 59.858,157.667 59.533 C 159.670 58.315,161.397 56.951,162.444 55.756 C 163.544 54.502,163.794 54.541,164.020 55.999 C 165.044 62.602,167.485 66.528,171.810 68.524 C 173.709 69.401,177.401 69.494,179.041 68.707 C 179.431 68.519,180.012 68.243,180.333 68.091 C 180.654 67.940,181.109 67.710,181.344 67.581 C 181.833 67.311,183.935 65.147,184.382 64.453 C 184.764 63.861,184.869 63.938,185.525 65.297 C 186.870 68.079,188.393 69.069,191.345 69.078 C 194.494 69.088,196.689 67.560,200.303 62.841 C 201.261 61.590,201.126 60.222,200.017 59.950 C 199.133 59.733,198.724 59.992,197.473 61.560 C 194.673 65.071,193.572 65.836,191.336 65.827 C 189.397 65.818,188.899 65.503,188.298 63.906 C 187.928 62.922,187.925 62.845,187.838 50.234 C 187.742 36.459,187.803 37.251,186.813 36.740 C 185.717 36.172,184.977 37.006,184.836 38.969 C 184.676 41.176,184.512 41.278,183.253 39.954 C 178.993 35.476,172.587 35.317,168.302 39.583 C 167.147 40.734,165.333 43.603,165.333 44.280 C 165.333 44.408,165.193 44.792,165.022 45.132 C 164.851 45.472,164.658 46.111,164.593 46.552 C 164.529 46.993,164.339 47.593,164.172 47.885 C 164.005 48.178,163.812 48.604,163.744 48.833 C 163.677 49.063,163.463 49.452,163.269 49.698 C 163.075 49.945,162.542 50.691,162.083 51.356 C 160.970 52.971,159.377 54.638,158.207 55.415 C 157.680 55.764,157.058 56.180,156.823 56.340 C 154.652 57.816,154.238 57.632,154.096 55.126 C 153.969 52.904,153.901 52.543,153.266 50.750 C 152.741 49.265,152.075 47.974,150.857 46.083 C 150.323 45.253,147.533 41.916,146.072 40.358 C 145.470 39.716,144.776 38.909,144.530 38.564 C 143.605 37.266,142.537 36.333,141.974 36.333 C 141.422 36.333,140.121 37.523,139.895 38.235 C 139.798 38.541,139.599 38.856,137.833 41.500 C 137.421 42.118,136.795 43.064,136.442 43.603 C 136.090 44.142,135.697 44.733,135.569 44.917 C 135.441 45.100,135.061 45.663,134.726 46.167 C 134.390 46.671,134.016 47.233,133.894 47.417 C 133.772 47.600,132.939 48.827,132.044 50.144 C 130.528 52.374,129.935 53.259,128.270 55.773 C 127.914 56.310,127.486 56.938,127.320 57.167 C 127.153 57.396,126.770 57.984,126.467 58.473 C 124.930 60.959,122.167 63.948,120.259 65.189 L 119.267 65.833 117.473 65.833 C 115.202 65.833,114.761 65.540,114.142 63.621 L 113.753 62.417 113.708 50.167 C 113.657 36.428,113.712 37.325,112.900 36.845 C 111.597 36.077,110.694 37.130,110.676 39.441 C 110.667 40.548,110.549 40.833,110.099 40.833 C 110.076 40.833,109.459 40.247,108.728 39.530 C 106.011 36.868,102.911 35.999,99.130 36.842 C 97.620 37.178,97.240 37.348,95.583 38.428 C 94.062 39.420,91.333 43.028,91.333 44.047 C 91.333 44.212,91.185 44.637,91.004 44.993 C 90.822 45.348,90.589 46.188,90.485 46.858 C 90.381 47.529,90.224 48.266,90.135 48.497 C 90.047 48.728,89.902 49.854,89.812 51.000 C 89.695 52.482,89.554 53.265,89.324 53.713 C 89.146 54.060,89.000 54.427,89.000 54.528 C 89.000 54.736,87.854 57.065,87.251 58.083 C 87.034 58.450,86.731 58.968,86.577 59.235 C 85.711 60.737,83.212 63.497,81.721 64.598 C 79.162 66.487,76.560 66.379,75.358 64.334 L 74.917 63.583 74.833 34.278 L 74.750 4.973 74.206 4.486 C 73.598 3.943,73.088 3.873,72.538 4.259 C 71.726 4.828,71.755 4.220,71.667 22.250 L 71.583 39.250 71.208 40.131 C 71.002 40.616,70.833 41.162,70.833 41.345 C 70.833 41.528,70.673 42.144,70.477 42.714 C 70.281 43.284,70.024 44.163,69.904 44.667 C 69.785 45.171,69.453 46.221,69.166 47.000 C 68.880 47.779,68.531 48.792,68.390 49.250 C 68.250 49.708,67.992 50.388,67.818 50.761 C 67.643 51.134,67.500 51.539,67.500 51.661 C 67.500 51.783,67.303 52.303,67.062 52.817 C 66.820 53.330,66.435 54.163,66.204 54.667 C 65.974 55.171,65.609 55.932,65.393 56.358 C 65.177 56.784,65.000 57.230,65.000 57.349 C 65.000 57.468,64.800 57.869,64.554 58.241 C 64.309 58.613,63.946 59.179,63.746 59.500 C 61.587 62.975,60.562 64.012,57.918 65.397 C 56.616 66.079,53.052 66.058,52.016 65.363 C 50.506 64.349,48.213 60.572,47.747 58.333 C 47.681 58.012,47.494 57.487,47.333 57.167 C 47.172 56.846,46.985 56.321,46.917 56.000 C 46.848 55.679,46.662 55.154,46.502 54.833 C 46.342 54.512,46.158 53.953,46.092 53.591 C 46.026 53.229,45.839 52.666,45.675 52.341 C 45.512 52.016,45.324 51.453,45.258 51.089 C 45.192 50.726,45.025 50.210,44.888 49.944 C 44.750 49.678,44.540 49.113,44.420 48.688 C 44.045 47.359,42.338 43.573,41.367 41.917 C 39.911 39.434,37.711 36.879,36.167 35.877 C 35.662 35.550,34.983 35.107,34.658 34.891 C 34.332 34.676,33.980 34.500,33.875 34.500 C 33.770 34.500,33.353 34.324,32.949 34.109 C 32.544 33.894,32.052 33.676,31.856 33.624 C 31.344 33.490,31.417 33.210,32.042 32.918 C 32.340 32.779,32.890 32.460,33.265 32.208 C 33.641 31.956,34.191 31.589,34.489 31.393 C 36.021 30.381,38.520 27.476,39.673 25.365 C 39.857 25.027,40.170 24.488,40.367 24.167 C 40.925 23.258,42.827 19.709,43.448 18.417 C 43.580 18.142,43.772 17.767,43.875 17.583 C 43.977 17.400,44.165 17.025,44.291 16.750 C 44.418 16.475,44.606 16.100,44.709 15.917 C 44.812 15.733,45.059 15.283,45.258 14.917 C 47.999 9.861,51.048 6.833,53.399 6.833 C 54.641 6.833,57.007 8.421,57.745 9.750 C 59.367 12.670,59.994 13.304,61.032 13.076 C 62.519 12.750,62.236 10.802,60.272 7.833 C 57.139 3.100,51.553 2.485,47.600 6.438 C 46.131 7.907,43.516 11.680,42.821 13.333 C 42.553 13.971,40.856 17.312,40.323 18.250 C 40.063 18.708,39.697 19.383,39.510 19.750 C 37.650 23.385,35.386 26.486,32.825 28.901 C 30.712 30.895,27.082 32.982,26.587 32.488 C 26.475 32.375,26.388 27.664,26.333 18.700 C 26.287 11.211,26.185 4.950,26.105 4.787 C 25.647 3.847,24.339 3.930,23.024 4.981 C 21.526 6.178,19.660 6.269,17.473 5.251 C 16.984 5.023,16.469 4.836,16.329 4.835 C 16.189 4.834,15.908 4.717,15.705 4.575 C 14.824 3.958,11.934 3.676,10.090 4.028 M339.109 4.189 C 338.387 4.609,338.333 5.140,338.333 11.839 C 338.333 15.897,338.271 18.305,338.161 18.511 C 337.999 18.813,337.778 18.833,334.619 18.836 C 330.964 18.838,330.582 18.915,330.196 19.719 C 329.421 21.336,330.483 21.825,334.786 21.830 C 337.831 21.833,337.997 21.850,338.169 22.172 C 338.572 22.924,338.307 39.117,337.875 40.131 C 337.669 40.616,337.500 41.162,337.500 41.345 C 337.500 41.528,337.340 42.144,337.144 42.714 C 336.948 43.284,336.690 44.163,336.571 44.667 C 336.452 45.171,336.120 46.221,335.833 47.000 C 335.547 47.779,335.197 48.792,335.057 49.250 C 334.917 49.708,334.659 50.388,334.484 50.761 C 334.310 51.134,334.167 51.539,334.167 51.661 C 334.167 51.783,333.969 52.303,333.728 52.817 C 333.487 53.330,333.101 54.163,332.871 54.667 C 332.641 55.171,332.275 55.932,332.059 56.358 C 331.843 56.784,331.667 57.230,331.667 57.349 C 331.667 57.468,331.479 57.851,331.250 58.199 C 331.021 58.548,330.657 59.115,330.442 59.458 C 328.170 63.087,327.370 63.899,324.698 65.287 C 323.689 65.811,323.570 65.833,321.737 65.833 L 319.828 65.833 319.225 65.281 C 317.923 64.088,317.952 64.400,317.836 50.000 C 317.780 42.987,317.719 37.233,317.700 37.212 C 317.328 36.790,316.282 36.518,315.862 36.735 C 315.059 37.151,314.924 37.453,314.835 39.049 C 314.721 41.060,314.447 41.273,313.463 40.115 C 309.687 35.672,302.962 35.307,298.638 39.311 C 297.620 40.253,296.333 41.925,296.333 42.304 C 296.333 42.376,296.153 42.679,295.933 42.977 C 295.713 43.275,295.483 43.796,295.421 44.135 C 295.359 44.473,295.196 44.925,295.058 45.139 C 294.920 45.354,294.732 46.029,294.640 46.639 C 294.548 47.250,294.372 48.125,294.249 48.583 C 294.126 49.042,293.977 50.204,293.917 51.167 C 293.837 52.469,293.710 53.136,293.422 53.775 C 293.208 54.247,292.984 54.860,292.923 55.138 C 292.862 55.416,292.704 55.733,292.573 55.842 C 292.441 55.951,292.333 56.116,292.333 56.208 C 292.333 56.360,291.557 57.779,290.603 59.372 C 289.436 61.318,286.557 64.286,285.000 65.146 C 284.771 65.273,284.396 65.479,284.167 65.604 C 282.732 66.387,280.421 65.805,279.531 64.438 L 279.083 63.750 279.000 50.615 L 278.917 37.481 278.500 37.160 C 277.182 36.145,275.667 36.764,275.667 38.319 C 275.667 38.769,275.523 39.537,275.347 40.027 C 275.171 40.516,274.914 41.367,274.775 41.917 C 274.165 44.333,273.938 45.130,273.660 45.833 C 273.336 46.652,272.780 48.319,272.437 49.500 C 272.317 49.913,272.094 50.490,271.943 50.783 C 271.791 51.077,271.667 51.413,271.667 51.531 C 271.667 51.649,271.473 52.159,271.236 52.664 C 270.311 54.637,270.009 55.300,269.414 56.667 C 269.075 57.446,268.693 58.202,268.565 58.346 C 268.438 58.491,268.333 58.662,268.333 58.725 C 268.333 58.835,268.119 59.189,266.898 61.094 C 264.849 64.290,262.305 65.833,259.086 65.833 C 256.775 65.833,256.463 65.701,255.634 64.368 L 255.250 63.750 255.163 53.083 L 255.077 42.417 254.580 41.006 C 253.939 39.186,252.564 37.683,250.750 36.818 C 249.203 36.081,245.782 35.977,244.548 36.629 C 244.162 36.833,243.761 37.000,243.657 37.000 C 243.389 37.000,240.557 38.393,239.663 38.964 C 238.526 39.691,238.147 39.944,237.359 40.502 C 236.311 41.242,236.167 41.053,236.167 38.938 L 236.167 37.250 235.602 36.800 C 234.524 35.939,234.341 35.983,232.881 37.443 C 230.366 39.958,227.334 42.416,224.750 44.035 C 222.852 45.224,222.338 46.028,222.843 47.018 C 223.302 47.919,224.285 48.042,225.333 47.328 C 225.563 47.172,226.125 46.813,226.583 46.530 C 227.630 45.884,229.122 44.766,231.034 43.196 C 232.245 42.202,232.565 42.013,232.760 42.175 C 232.967 42.347,233.000 46.312,233.000 71.162 C 233.000 90.457,233.057 100.112,233.171 100.442 C 233.539 101.495,234.819 101.792,235.649 101.016 L 236.167 100.533 236.167 73.059 L 236.167 45.586 237.409 44.387 C 239.861 42.021,243.928 39.747,246.440 39.337 C 248.950 38.927,250.785 39.797,251.709 41.833 C 251.839 42.121,251.930 45.421,252.002 52.500 C 252.117 63.900,252.188 64.638,253.339 66.453 C 255.642 70.084,261.632 70.096,266.019 66.480 C 267.814 65.001,270.773 61.142,271.499 59.333 C 271.591 59.104,271.742 58.785,271.833 58.625 C 272.181 58.017,272.336 57.705,273.089 56.104 C 273.515 55.199,274.013 54.037,274.196 53.521 C 274.379 53.005,274.660 52.212,274.820 51.759 C 275.580 49.609,275.787 50.639,275.874 57.000 C 275.959 63.233,276.168 64.722,277.191 66.395 C 278.619 68.727,282.227 69.906,284.401 68.750 C 284.832 68.521,285.278 68.333,285.392 68.333 C 286.423 68.333,290.671 64.366,292.424 61.766 C 293.106 60.755,293.520 60.065,293.753 59.553 C 293.886 59.261,294.072 58.975,294.166 58.917 C 294.336 58.812,295.236 60.618,295.442 61.478 C 295.831 63.102,298.432 66.518,300.083 67.573 C 302.791 69.305,307.129 69.851,309.043 68.701 C 309.340 68.522,309.787 68.328,310.036 68.270 C 311.015 68.039,314.154 65.326,314.424 64.477 C 314.629 63.831,315.082 64.143,315.571 65.265 C 316.175 66.651,317.318 68.070,318.029 68.318 C 319.124 68.700,319.639 69.539,319.070 70.011 C 318.796 70.239,318.424 70.886,317.832 72.167 C 317.641 72.579,317.400 73.067,317.297 73.250 C 314.015 79.090,317.838 85.971,323.833 85.013 C 327.355 84.451,330.830 80.988,329.410 79.457 C 328.604 78.587,327.817 78.780,326.514 80.166 C 323.143 83.751,319.417 82.522,319.417 77.827 C 319.417 75.561,319.333 75.862,320.735 73.049 C 321.800 70.911,324.524 68.335,325.722 68.333 C 325.829 68.333,326.429 67.996,327.054 67.585 C 329.542 65.950,330.990 64.325,333.453 60.407 C 333.625 60.133,335.005 57.354,336.179 54.917 C 336.355 54.550,336.604 53.950,336.731 53.583 C 336.953 52.945,337.350 51.884,337.699 51.002 C 338.157 49.841,338.333 51.076,338.339 55.490 C 338.351 64.648,339.051 66.940,342.333 68.577 C 343.720 69.268,345.848 69.367,346.953 68.793 C 347.391 68.565,347.926 68.323,348.142 68.256 C 350.263 67.594,354.864 62.682,356.344 59.500 L 356.693 58.750 357.013 59.143 C 357.189 59.360,357.333 59.641,357.333 59.769 C 357.333 59.897,357.483 60.281,357.667 60.623 C 357.850 60.965,358.000 61.336,358.000 61.447 C 358.000 61.715,359.076 63.766,359.602 64.500 C 360.640 65.950,363.315 68.333,363.903 68.333 C 363.968 68.333,364.437 68.530,364.947 68.771 C 365.950 69.246,369.589 69.403,370.750 69.021 C 373.090 68.251,374.877 67.057,376.305 65.309 C 377.330 64.055,377.591 63.938,377.843 64.625 C 380.320 71.372,387.785 70.521,392.829 62.917 C 394.777 59.979,392.230 58.626,390.113 61.475 C 388.860 63.161,387.886 64.170,386.620 65.091 L 385.600 65.833 383.972 65.833 C 381.890 65.833,381.415 65.501,380.808 63.621 L 380.420 62.417 380.375 50.167 C 380.324 36.428,380.379 37.325,379.566 36.845 C 378.264 36.077,377.361 37.130,377.343 39.441 C 377.334 40.548,377.216 40.833,376.765 40.833 C 376.743 40.833,376.126 40.247,375.395 39.530 C 372.678 36.868,369.578 35.999,365.796 36.842 C 364.287 37.178,363.906 37.348,362.250 38.428 C 360.729 39.420,358.000 43.028,358.000 44.047 C 358.000 44.212,357.852 44.637,357.670 44.993 C 357.489 45.348,357.256 46.188,357.151 46.858 C 357.047 47.529,356.890 48.266,356.802 48.497 C 356.714 48.728,356.568 49.854,356.478 51.000 C 356.362 52.482,356.221 53.265,355.991 53.713 C 355.812 54.060,355.667 54.427,355.667 54.528 C 355.667 54.736,354.521 57.065,353.918 58.083 C 353.701 58.450,353.397 58.968,353.243 59.235 C 352.376 60.740,349.779 63.610,348.403 64.583 C 345.601 66.566,343.206 66.409,342.054 64.167 L 341.583 63.250 341.534 42.940 C 341.490 24.725,341.512 22.590,341.746 22.232 C 342.007 21.834,342.014 21.833,345.250 21.833 C 349.716 21.833,350.726 21.351,349.899 19.616 C 349.530 18.843,349.501 18.838,345.371 18.836 L 341.825 18.833 341.663 18.406 C 341.567 18.155,341.500 15.298,341.500 11.476 L 341.500 4.974 341.013 4.487 C 340.494 3.968,339.702 3.844,339.109 4.189 M276.333 20.789 C 273.995 21.688,274.224 25.337,276.645 25.746 C 279.551 26.237,280.992 22.870,278.613 21.147 C 277.963 20.676,277.014 20.527,276.333 20.789 M103.805 39.986 C 104.180 40.177,104.568 40.333,104.667 40.333 C 104.931 40.333,106.501 41.539,107.087 42.190 C 109.251 44.597,110.171 47.543,110.281 52.417 C 110.364 56.070,110.303 56.630,109.532 59.333 C 107.436 66.688,99.290 68.628,95.224 62.742 C 94.303 61.409,93.894 60.347,93.237 57.583 C 92.722 55.416,92.935 48.640,93.572 46.917 C 93.708 46.550,93.823 46.137,93.829 46.000 C 93.842 45.698,94.842 43.698,95.353 42.952 C 96.175 41.754,97.655 40.546,98.667 40.248 C 98.896 40.181,99.181 40.048,99.300 39.952 C 99.976 39.411,102.719 39.431,103.805 39.986 M178.167 40.098 C 180.675 41.130,183.027 43.996,183.581 46.692 C 183.644 46.999,183.847 47.737,184.032 48.333 C 184.476 49.764,184.517 55.974,184.093 57.542 C 183.950 58.069,183.731 58.894,183.605 59.375 C 182.019 65.467,175.423 68.156,170.938 64.540 C 169.774 63.601,167.839 60.571,167.831 59.675 C 167.830 59.533,167.665 58.929,167.465 58.333 C 166.843 56.482,166.900 49.168,167.553 47.083 C 168.904 42.774,171.006 40.483,174.417 39.603 C 175.178 39.407,177.106 39.661,178.167 40.098 M307.576 39.827 C 307.688 39.920,308.088 40.105,308.467 40.238 C 310.105 40.816,312.292 43.006,312.755 44.532 C 312.819 44.744,313.005 45.142,313.168 45.417 C 313.331 45.692,313.515 46.179,313.577 46.500 C 313.639 46.821,313.850 47.571,314.046 48.167 C 314.996 51.057,314.443 58.005,313.025 61.000 C 309.849 67.708,301.660 67.962,298.601 61.447 C 295.763 55.401,296.760 45.191,300.527 41.740 C 301.307 41.026,302.276 40.333,302.497 40.333 C 302.599 40.333,302.923 40.208,303.217 40.055 C 304.277 39.503,307.013 39.360,307.576 39.827 M370.472 39.986 C 370.847 40.177,371.235 40.333,371.334 40.333 C 371.597 40.333,373.168 41.539,373.754 42.190 C 375.918 44.597,376.838 47.543,376.948 52.417 C 377.030 56.070,376.970 56.630,376.199 59.333 C 374.103 66.688,365.957 68.628,361.891 62.742 C 360.970 61.409,360.561 60.347,359.904 57.583 C 359.389 55.416,359.602 48.640,360.239 46.917 C 360.374 46.550,360.490 46.137,360.496 46.000 C 360.508 45.698,361.508 43.698,362.020 42.952 C 362.841 41.754,364.321 40.546,365.333 40.248 C 365.563 40.181,365.848 40.048,365.967 39.952 C 366.642 39.411,369.385 39.431,370.472 39.986 " stroke="none" fill="#000000" fill-rule="evenodd"></path><path id="path1" d="M0.000 53.083 L 0.000 106.167 200.000 106.167 L 400.000 106.167 400.000 53.083 L 400.000 0.000 200.000 0.000 L 0.000 0.000 0.000 53.083 M14.210 4.078 C 14.829 4.209,15.502 4.433,15.705 4.575 C 15.908 4.717,16.189 4.834,16.329 4.835 C 16.469 4.836,16.984 5.023,17.473 5.251 C 19.660 6.269,21.526 6.178,23.024 4.981 C 24.339 3.930,25.647 3.847,26.105 4.787 C 26.185 4.950,26.287 11.211,26.333 18.700 C 26.388 27.664,26.475 32.375,26.587 32.488 C 27.082 32.982,30.712 30.895,32.825 28.901 C 35.386 26.486,37.650 23.385,39.510 19.750 C 39.697 19.383,40.063 18.708,40.323 18.250 C 40.856 17.312,42.553 13.971,42.821 13.333 C 43.516 11.680,46.131 7.907,47.600 6.438 C 51.553 2.485,57.139 3.100,60.272 7.833 C 62.236 10.802,62.519 12.750,61.032 13.076 C 59.994 13.304,59.367 12.670,57.745 9.750 C 57.007 8.421,54.641 6.833,53.399 6.833 C 51.048 6.833,47.999 9.861,45.258 14.917 C 45.059 15.283,44.812 15.733,44.709 15.917 C 44.606 16.100,44.418 16.475,44.291 16.750 C 44.165 17.025,43.977 17.400,43.875 17.583 C 43.772 17.767,43.580 18.142,43.448 18.417 C 42.827 19.709,40.925 23.258,40.367 24.167 C 40.170 24.488,39.857 25.027,39.673 25.365 C 38.520 27.476,36.021 30.381,34.489 31.393 C 34.191 31.589,33.641 31.956,33.265 32.208 C 32.890 32.460,32.340 32.779,32.042 32.918 C 31.417 33.210,31.344 33.490,31.856 33.624 C 32.052 33.676,32.544 33.894,32.949 34.109 C 33.353 34.324,33.770 34.500,33.875 34.500 C 33.980 34.500,34.332 34.676,34.658 34.891 C 34.983 35.107,35.662 35.550,36.167 35.877 C 37.711 36.879,39.911 39.434,41.367 41.917 C 42.338 43.573,44.045 47.359,44.420 48.688 C 44.540 49.113,44.750 49.678,44.888 49.944 C 45.025 50.210,45.192 50.726,45.258 51.089 C 45.324 51.453,45.512 52.016,45.675 52.341 C 45.839 52.666,46.026 53.229,46.092 53.591 C 46.158 53.953,46.342 54.512,46.502 54.833 C 46.662 55.154,46.848 55.679,46.917 56.000 C 46.985 56.321,47.172 56.846,47.333 57.167 C 47.494 57.487,47.681 58.012,47.747 58.333 C 48.213 60.572,50.506 64.349,52.016 65.363 C 53.052 66.058,56.616 66.079,57.918 65.397 C 60.562 64.012,61.587 62.975,63.746 59.500 C 63.946 59.179,64.309 58.613,64.554 58.241 C 64.800 57.869,65.000 57.468,65.000 57.349 C 65.000 57.230,65.177 56.784,65.393 56.358 C 65.609 55.932,65.974 55.171,66.204 54.667 C 66.435 54.163,66.820 53.330,67.062 52.817 C 67.303 52.303,67.500 51.783,67.500 51.661 C 67.500 51.539,67.643 51.134,67.818 50.761 C 67.992 50.388,68.250 49.708,68.390 49.250 C 68.531 48.792,68.880 47.779,69.166 47.000 C 69.453 46.221,69.785 45.171,69.904 44.667 C 70.024 44.163,70.281 43.284,70.477 42.714 C 70.673 42.144,70.833 41.528,70.833 41.345 C 70.833 41.162,71.002 40.616,71.208 40.131 L 71.583 39.250 71.667 22.250 C 71.755 4.220,71.726 4.828,72.538 4.259 C 73.088 3.873,73.598 3.943,74.206 4.486 L 74.750 4.973 74.833 34.278 L 74.917 63.583 75.358 64.334 C 76.560 66.379,79.162 66.487,81.721 64.598 C 83.212 63.497,85.711 60.737,86.577 59.235 C 86.731 58.968,87.034 58.450,87.251 58.083 C 87.854 57.065,89.000 54.736,89.000 54.528 C 89.000 54.427,89.146 54.060,89.324 53.713 C 89.554 53.265,89.695 52.482,89.812 51.000 C 89.902 49.854,90.047 48.728,90.135 48.497 C 90.224 48.266,90.381 47.529,90.485 46.858 C 90.589 46.188,90.822 45.348,91.004 44.993 C 91.185 44.637,91.333 44.212,91.333 44.047 C 91.333 43.028,94.062 39.420,95.583 38.428 C 97.240 37.348,97.620 37.178,99.130 36.842 C 102.911 35.999,106.011 36.868,108.728 39.530 C 109.459 40.247,110.076 40.833,110.099 40.833 C 110.549 40.833,110.667 40.548,110.676 39.441 C 110.694 37.130,111.597 36.077,112.900 36.845 C 113.712 37.325,113.657 36.428,113.708 50.167 L 113.753 62.417 114.142 63.621 C 114.761 65.540,115.202 65.833,117.473 65.833 L 119.267 65.833 120.259 65.189 C 122.167 63.948,124.930 60.959,126.467 58.473 C 126.770 57.984,127.153 57.396,127.320 57.167 C 127.486 56.938,127.914 56.310,128.270 55.773 C 129.935 53.259,130.528 52.374,132.044 50.144 C 132.939 48.827,133.772 47.600,133.894 47.417 C 134.016 47.233,134.390 46.671,134.726 46.167 C 135.061 45.663,135.441 45.100,135.569 44.917 C 135.697 44.733,136.090 44.142,136.442 43.603 C 136.795 43.064,137.421 42.118,137.833 41.500 C 139.599 38.856,139.798 38.541,139.895 38.235 C 140.121 37.523,141.422 36.333,141.974 36.333 C 142.537 36.333,143.605 37.266,144.530 38.564 C 144.776 38.909,145.470 39.716,146.072 40.358 C 147.533 41.916,150.323 45.253,150.857 46.083 C 152.075 47.974,152.741 49.265,153.266 50.750 C 153.901 52.543,153.969 52.904,154.096 55.126 C 154.238 57.632,154.652 57.816,156.823 56.340 C 157.058 56.180,157.680 55.764,158.207 55.415 C 159.377 54.638,160.970 52.971,162.083 51.356 C 162.542 50.691,163.075 49.945,163.269 49.698 C 163.463 49.452,163.677 49.063,163.744 48.833 C 163.812 48.604,164.005 48.178,164.172 47.885 C 164.339 47.593,164.529 46.993,164.593 46.552 C 164.658 46.111,164.851 45.472,165.022 45.132 C 165.193 44.792,165.333 44.408,165.333 44.280 C 165.333 43.603,167.147 40.734,168.302 39.583 C 172.587 35.317,178.993 35.476,183.253 39.954 C 184.512 41.278,184.676 41.176,184.836 38.969 C 184.977 37.006,185.717 36.172,186.813 36.740 C 187.803 37.251,187.742 36.459,187.838 50.234 C 187.925 62.845,187.928 62.922,188.298 63.906 C 188.899 65.503,189.397 65.818,191.336 65.827 C 193.572 65.836,194.673 65.071,197.473 61.560 C 198.724 59.992,199.133 59.733,200.017 59.950 C 201.126 60.222,201.261 61.590,200.303 62.841 C 196.689 67.560,194.494 69.088,191.345 69.078 C 188.393 69.069,186.870 68.079,185.525 65.297 C 184.869 63.938,184.764 63.861,184.382 64.453 C 183.935 65.147,181.833 67.311,181.344 67.581 C 181.109 67.710,180.654 67.940,180.333 68.091 C 180.012 68.243,179.431 68.519,179.041 68.707 C 177.401 69.494,173.709 69.401,171.810 68.524 C 167.485 66.528,165.044 62.602,164.020 55.999 C 163.794 54.541,163.544 54.502,162.444 55.756 C 161.397 56.951,159.670 58.315,157.667 59.533 C 157.132 59.858,155.306 60.617,154.314 60.926 C 153.563 61.161,152.333 62.397,152.333 62.918 C 152.333 63.349,150.457 65.604,149.366 66.483 C 147.651 67.865,146.372 68.493,144.187 69.025 C 142.875 69.345,138.869 69.131,138.086 68.699 C 137.720 68.498,137.342 68.333,137.244 68.333 C 136.714 68.333,134.345 66.258,133.337 64.910 C 131.702 62.726,131.435 61.435,132.475 60.747 C 133.446 60.104,134.171 60.548,135.333 62.498 C 136.823 64.995,139.871 66.750,142.148 66.420 C 143.553 66.216,145.342 65.684,145.780 65.340 C 146.017 65.153,146.317 65.000,146.446 65.000 C 147.080 65.000,149.230 62.510,150.043 60.833 C 151.341 58.159,151.436 53.523,150.238 51.333 C 150.113 51.104,149.897 50.654,149.758 50.333 C 148.838 48.204,143.639 41.693,142.412 41.134 C 141.849 40.878,141.220 41.643,138.296 46.141 C 137.894 46.759,137.731 46.999,137.260 47.667 C 137.033 47.987,136.739 48.439,136.605 48.671 C 136.381 49.062,128.641 60.685,127.911 61.726 C 125.732 64.839,122.575 67.734,120.685 68.353 C 120.354 68.462,119.899 68.670,119.673 68.817 C 118.926 69.302,115.651 69.166,114.462 68.600 C 113.105 67.954,111.834 66.417,111.176 64.625 C 110.924 63.938,110.663 64.055,109.638 65.309 C 108.210 67.057,106.423 68.251,104.083 69.021 C 102.923 69.403,99.284 69.246,98.280 68.771 C 97.771 68.530,97.301 68.333,97.236 68.333 C 96.648 68.333,93.974 65.950,92.935 64.500 C 92.409 63.766,91.333 61.715,91.333 61.447 C 91.333 61.336,91.183 60.965,91.000 60.623 C 90.817 60.281,90.667 59.897,90.667 59.769 C 90.667 59.641,90.523 59.360,90.346 59.143 L 90.026 58.750 89.677 59.500 C 88.197 62.682,83.590 67.599,81.476 68.255 C 81.260 68.322,80.746 68.554,80.335 68.772 C 79.201 69.370,77.300 69.329,75.838 68.675 C 72.444 67.154,71.837 65.392,71.708 56.667 C 71.663 53.636,71.556 51.114,71.465 50.940 C 71.203 50.442,71.169 50.504,70.101 53.500 C 69.953 53.913,69.689 54.550,69.512 54.917 C 68.338 57.354,66.959 60.133,66.787 60.407 C 65.424 62.575,65.089 63.052,64.029 64.333 C 58.838 70.609,51.351 70.796,47.329 64.750 C 47.025 64.292,46.650 63.729,46.497 63.500 C 46.344 63.271,46.127 62.803,46.014 62.461 C 45.901 62.118,45.745 61.799,45.667 61.750 C 45.589 61.702,45.397 61.270,45.241 60.790 C 45.084 60.310,44.898 59.842,44.827 59.750 C 44.756 59.658,44.583 59.171,44.443 58.667 C 44.303 58.163,44.073 57.413,43.932 57.000 C 43.494 55.719,43.149 54.626,42.830 53.500 C 42.458 52.191,42.070 51.033,41.630 49.917 C 41.449 49.458,41.234 48.805,41.151 48.465 C 41.002 47.847,40.685 47.125,39.910 45.625 C 39.684 45.189,39.500 44.743,39.500 44.634 C 39.500 44.314,37.945 41.996,36.795 40.602 C 35.594 39.145,33.214 37.310,32.197 37.056 C 31.951 36.994,31.417 36.797,31.011 36.617 C 30.041 36.189,26.795 35.995,26.565 36.353 C 26.483 36.480,26.379 42.374,26.333 49.500 L 26.250 62.417 25.864 63.583 C 25.030 66.102,23.877 67.615,22.083 68.548 C 20.756 69.237,18.220 69.314,17.048 68.701 C 16.662 68.499,16.254 68.333,16.141 68.333 C 15.556 68.333,13.153 66.346,11.943 64.861 C 10.042 62.531,9.610 61.191,10.513 60.431 C 11.546 59.562,12.479 59.928,13.633 61.656 C 17.019 66.726,20.810 67.557,22.555 63.611 L 23.083 62.417 23.131 36.167 C 23.158 21.729,23.137 9.748,23.086 9.542 C 22.979 9.108,22.368 9.043,21.326 9.355 C 20.573 9.581,18.713 9.190,17.517 8.556 C 17.114 8.342,16.679 8.167,16.552 8.167 C 16.424 8.167,16.042 8.025,15.702 7.853 C 14.994 7.493,12.762 7.000,11.845 7.000 C 10.693 7.000,9.772 7.457,8.479 8.671 C 6.985 10.075,6.206 10.241,5.431 9.321 C 4.699 8.450,4.885 7.950,6.553 6.304 C 8.924 3.965,10.928 3.382,14.210 4.078 M341.013 4.487 L 341.500 4.974 341.500 11.476 C 341.500 15.298,341.567 18.155,341.663 18.406 L 341.825 18.833 345.371 18.836 C 349.501 18.838,349.530 18.843,349.899 19.616 C 350.726 21.351,349.716 21.833,345.250 21.833 C 342.014 21.833,342.007 21.834,341.746 22.232 C 341.512 22.590,341.490 24.725,341.534 42.940 L 341.583 63.250 342.054 64.167 C 343.206 66.409,345.601 66.566,348.403 64.583 C 349.779 63.610,352.376 60.740,353.243 59.235 C 353.397 58.968,353.701 58.450,353.918 58.083 C 354.521 57.065,355.667 54.736,355.667 54.528 C 355.667 54.427,355.812 54.060,355.991 53.713 C 356.221 53.265,356.362 52.482,356.478 51.000 C 356.568 49.854,356.714 48.728,356.802 48.497 C 356.890 48.266,357.047 47.529,357.151 46.858 C 357.256 46.188,357.489 45.348,357.670 44.993 C 357.852 44.637,358.000 44.212,358.000 44.047 C 358.000 43.028,360.729 39.420,362.250 38.428 C 363.906 37.348,364.287 37.178,365.796 36.842 C 369.578 35.999,372.678 36.868,375.395 39.530 C 376.126 40.247,376.743 40.833,376.765 40.833 C 377.216 40.833,377.334 40.548,377.343 39.441 C 377.361 37.130,378.264 36.077,379.566 36.845 C 380.379 37.325,380.324 36.428,380.375 50.167 L 380.420 62.417 380.808 63.621 C 381.415 65.501,381.890 65.833,383.972 65.833 L 385.600 65.833 386.620 65.091 C 387.886 64.170,388.860 63.161,390.113 61.475 C 392.230 58.626,394.777 59.979,392.829 62.917 C 387.785 70.521,380.320 71.372,377.843 64.625 C 377.591 63.938,377.330 64.055,376.305 65.309 C 374.877 67.057,373.090 68.251,370.750 69.021 C 369.589 69.403,365.950 69.246,364.947 68.771 C 364.437 68.530,363.968 68.333,363.903 68.333 C 363.315 68.333,360.640 65.950,359.602 64.500 C 359.076 63.766,358.000 61.715,358.000 61.447 C 358.000 61.336,357.850 60.965,357.667 60.623 C 357.483 60.281,357.333 59.897,357.333 59.769 C 357.333 59.641,357.189 59.360,357.013 59.143 L 356.693 58.750 356.344 59.500 C 354.864 62.682,350.263 67.594,348.142 68.256 C 347.926 68.323,347.391 68.565,346.953 68.793 C 345.848 69.367,343.720 69.268,342.333 68.577 C 339.051 66.940,338.351 64.648,338.339 55.490 C 338.333 51.076,338.157 49.841,337.699 51.002 C 337.350 51.884,336.953 52.945,336.731 53.583 C 336.604 53.950,336.355 54.550,336.179 54.917 C 335.005 57.354,333.625 60.133,333.453 60.407 C 330.990 64.325,329.542 65.950,327.054 67.585 C 326.429 67.996,325.829 68.333,325.722 68.333 C 324.524 68.335,321.800 70.911,320.735 73.049 C 319.333 75.862,319.417 75.561,319.417 77.827 C 319.417 82.522,323.143 83.751,326.514 80.166 C 327.817 78.780,328.604 78.587,329.410 79.457 C 330.830 80.988,327.355 84.451,323.833 85.013 C 317.838 85.971,314.015 79.090,317.297 73.250 C 317.400 73.067,317.641 72.579,317.832 72.167 C 318.424 70.886,318.796 70.239,319.070 70.011 C 319.639 69.539,319.124 68.700,318.029 68.318 C 317.318 68.070,316.175 66.651,315.571 65.265 C 315.082 64.143,314.629 63.831,314.424 64.477 C 314.154 65.326,311.015 68.039,310.036 68.270 C 309.787 68.328,309.340 68.522,309.043 68.701 C 307.129 69.851,302.791 69.305,300.083 67.573 C 298.432 66.518,295.831 63.102,295.442 61.478 C 295.236 60.618,294.336 58.812,294.166 58.917 C 294.072 58.975,293.886 59.261,293.753 59.553 C 293.520 60.065,293.106 60.755,292.424 61.766 C 290.671 64.366,286.423 68.333,285.392 68.333 C 285.278 68.333,284.832 68.521,284.401 68.750 C 282.227 69.906,278.619 68.727,277.191 66.395 C 276.168 64.722,275.959 63.233,275.874 57.000 C 275.787 50.639,275.580 49.609,274.820 51.759 C 274.660 52.212,274.379 53.005,274.196 53.521 C 274.013 54.037,273.515 55.199,273.089 56.104 C 272.336 57.705,272.181 58.017,271.833 58.625 C 271.742 58.785,271.591 59.104,271.499 59.333 C 270.773 61.142,267.814 65.001,266.019 66.480 C 261.632 70.096,255.642 70.084,253.339 66.453 C 252.188 64.638,252.117 63.900,252.002 52.500 C 251.930 45.421,251.839 42.121,251.709 41.833 C 250.785 39.797,248.950 38.927,246.440 39.337 C 243.928 39.747,239.861 42.021,237.409 44.387 L 236.167 45.586 236.167 73.059 L 236.167 100.533 235.649 101.016 C 234.819 101.792,233.539 101.495,233.171 100.442 C 233.057 100.112,233.000 90.457,233.000 71.162 C 233.000 46.312,232.967 42.347,232.760 42.175 C 232.565 42.013,232.245 42.202,231.034 43.196 C 229.122 44.766,227.630 45.884,226.583 46.530 C 226.125 46.813,225.563 47.172,225.333 47.328 C 224.285 48.042,223.302 47.919,222.843 47.018 C 222.338 46.028,222.852 45.224,224.750 44.035 C 227.334 42.416,230.366 39.958,232.881 37.443 C 234.341 35.983,234.524 35.939,235.602 36.800 L 236.167 37.250 236.167 38.938 C 236.167 41.053,236.311 41.242,237.359 40.502 C 238.147 39.944,238.526 39.691,239.663 38.964 C 240.557 38.393,243.389 37.000,243.657 37.000 C 243.761 37.000,244.162 36.833,244.548 36.629 C 245.782 35.977,249.203 36.081,250.750 36.818 C 252.564 37.683,253.939 39.186,254.580 41.006 L 255.077 42.417 255.163 53.083 L 255.250 63.750 255.634 64.368 C 256.463 65.701,256.775 65.833,259.086 65.833 C 262.305 65.833,264.849 64.290,266.898 61.094 C 268.119 59.189,268.333 58.835,268.333 58.725 C 268.333 58.662,268.438 58.491,268.565 58.346 C 268.693 58.202,269.075 57.446,269.414 56.667 C 270.009 55.300,270.311 54.637,271.236 52.664 C 271.473 52.159,271.667 51.649,271.667 51.531 C 271.667 51.413,271.791 51.077,271.943 50.783 C 272.094 50.490,272.317 49.913,272.437 49.500 C 272.780 48.319,273.336 46.652,273.660 45.833 C 273.938 45.130,274.165 44.333,274.775 41.917 C 274.914 41.367,275.171 40.516,275.347 40.027 C 275.523 39.537,275.667 38.769,275.667 38.319 C 275.667 36.764,277.182 36.145,278.500 37.160 L 278.917 37.481 279.000 50.615 L 279.083 63.750 279.531 64.438 C 280.421 65.805,282.732 66.387,284.167 65.604 C 284.396 65.479,284.771 65.273,285.000 65.146 C 286.557 64.286,289.436 61.318,290.603 59.372 C 291.557 57.779,292.333 56.360,292.333 56.208 C 292.333 56.116,292.441 55.951,292.573 55.842 C 292.704 55.733,292.862 55.416,292.923 55.138 C 292.984 54.860,293.208 54.247,293.422 53.775 C 293.710 53.136,293.837 52.469,293.917 51.167 C 293.977 50.204,294.126 49.042,294.249 48.583 C 294.372 48.125,294.548 47.250,294.640 46.639 C 294.732 46.029,294.920 45.354,295.058 45.139 C 295.196 44.925,295.359 44.473,295.421 44.135 C 295.483 43.796,295.713 43.275,295.933 42.977 C 296.153 42.679,296.333 42.376,296.333 42.304 C 296.333 41.925,297.620 40.253,298.638 39.311 C 302.962 35.307,309.687 35.672,313.463 40.115 C 314.447 41.273,314.721 41.060,314.835 39.049 C 314.924 37.453,315.059 37.151,315.862 36.735 C 316.282 36.518,317.328 36.790,317.700 37.212 C 317.719 37.233,317.780 42.987,317.836 50.000 C 317.952 64.400,317.923 64.088,319.225 65.281 L 319.828 65.833 321.737 65.833 C 323.570 65.833,323.689 65.811,324.698 65.287 C 327.370 63.899,328.170 63.087,330.442 59.458 C 330.657 59.115,331.021 58.548,331.250 58.199 C 331.479 57.851,331.667 57.468,331.667 57.349 C 331.667 57.230,331.843 56.784,332.059 56.358 C 332.275 55.932,332.641 55.171,332.871 54.667 C 333.101 54.163,333.487 53.330,333.728 52.817 C 333.969 52.303,334.167 51.783,334.167 51.661 C 334.167 51.539,334.310 51.134,334.484 50.761 C 334.659 50.388,334.917 49.708,335.057 49.250 C 335.197 48.792,335.547 47.779,335.833 47.000 C 336.120 46.221,336.452 45.171,336.571 44.667 C 336.690 44.163,336.948 43.284,337.144 42.714 C 337.340 42.144,337.500 41.528,337.500 41.345 C 337.500 41.162,337.669 40.616,337.875 40.131 C 338.307 39.117,338.572 22.924,338.169 22.172 C 337.997 21.850,337.831 21.833,334.786 21.830 C 330.483 21.825,329.421 21.336,330.196 19.719 C 330.582 18.915,330.964 18.838,334.619 18.836 C 337.778 18.833,337.999 18.813,338.161 18.511 C 338.271 18.305,338.333 15.897,338.333 11.839 C 338.333 5.140,338.387 4.609,339.109 4.189 C 339.702 3.844,340.494 3.968,341.013 4.487 M278.613 21.147 C 280.992 22.870,279.551 26.237,276.645 25.746 C 275.188 25.500,274.381 24.012,274.820 22.382 C 275.243 20.814,277.251 20.160,278.613 21.147 M100.134 39.648 C 99.795 39.719,99.420 39.856,99.300 39.952 C 99.181 40.048,98.896 40.181,98.667 40.248 C 97.655 40.546,96.175 41.754,95.353 42.952 C 94.842 43.698,93.842 45.698,93.829 46.000 C 93.823 46.137,93.708 46.550,93.572 46.917 C 92.935 48.640,92.722 55.416,93.237 57.583 C 94.054 61.022,94.621 62.225,96.246 63.971 C 98.909 66.833,103.738 66.913,106.667 64.144 C 111.478 59.596,111.713 47.335,107.087 42.190 C 106.501 41.539,104.931 40.333,104.667 40.333 C 104.568 40.333,104.180 40.177,103.805 39.986 C 103.051 39.601,101.173 39.428,100.134 39.648 M174.417 39.603 C 171.006 40.483,168.904 42.774,167.553 47.083 C 166.900 49.168,166.843 56.482,167.465 58.333 C 167.665 58.929,167.830 59.533,167.831 59.675 C 167.839 60.571,169.774 63.601,170.938 64.540 C 175.423 68.156,182.019 65.467,183.605 59.375 C 183.731 58.894,183.950 58.069,184.093 57.542 C 184.517 55.974,184.476 49.764,184.032 48.333 C 183.847 47.737,183.644 46.999,183.581 46.692 C 182.712 42.464,177.865 38.715,174.417 39.603 M304.250 39.645 C 303.975 39.718,303.510 39.903,303.217 40.055 C 302.923 40.208,302.599 40.333,302.497 40.333 C 302.276 40.333,301.307 41.026,300.527 41.740 C 296.760 45.191,295.763 55.401,298.601 61.447 C 301.660 67.962,309.849 67.708,313.025 61.000 C 314.443 58.005,314.996 51.057,314.046 48.167 C 313.850 47.571,313.639 46.821,313.577 46.500 C 313.515 46.179,313.331 45.692,313.168 45.417 C 313.005 45.142,312.819 44.744,312.755 44.532 C 312.292 43.006,310.105 40.816,308.467 40.238 C 308.088 40.105,307.688 39.920,307.576 39.827 C 307.311 39.607,304.892 39.475,304.250 39.645 M366.800 39.648 C 366.461 39.719,366.086 39.856,365.967 39.952 C 365.848 40.048,365.563 40.181,365.333 40.248 C 364.321 40.546,362.841 41.754,362.020 42.952 C 361.508 43.698,360.508 45.698,360.496 46.000 C 360.490 46.137,360.374 46.550,360.239 46.917 C 359.602 48.640,359.389 55.416,359.904 57.583 C 360.721 61.022,361.288 62.225,362.912 63.971 C 365.576 66.833,370.405 66.913,373.334 64.144 C 378.145 59.596,378.379 47.335,373.754 42.190 C 373.168 41.539,371.597 40.333,371.334 40.333 C 371.235 40.333,370.847 40.177,370.472 39.986 C 369.717 39.601,367.839 39.428,366.800 39.648 " stroke="none" fill="#ffffff" fill-rule="evenodd"></path></g></svg>