<svg id="svg" version="1.1" width="400" height="88.51063829787235" xmlns="http://www.w3.org/2000/svg" xmlns:xlink="http://www.w3.org/1999/xlink" style="display: block;"><g id="svgg"><path id="path0" d="M10.333 5.907 C 8.707 6.273,5.519 8.941,5.251 10.160 C 5.048 11.089,5.935 12.000,7.043 12.000 C 7.222 12.000,7.905 11.484,8.559 10.854 C 10.864 8.635,13.066 8.378,16.584 9.918 C 19.884 11.363,20.874 11.625,22.026 11.359 C 23.216 11.084,23.628 11.117,23.834 11.501 C 23.960 11.737,23.999 19.853,23.965 38.960 L 23.917 66.083 23.385 67.333 C 21.851 70.939,18.776 70.957,15.566 67.379 C 15.007 66.756,14.432 66.022,14.289 65.748 C 13.247 63.757,11.257 63.086,10.513 64.475 C 9.588 66.204,13.671 71.129,17.250 72.603 C 20.363 73.884,24.047 72.799,25.523 70.167 C 25.702 69.846,25.955 69.396,26.084 69.167 C 26.213 68.938,26.523 68.112,26.774 67.333 L 27.230 65.917 27.323 52.595 L 27.417 39.274 27.904 39.144 C 28.654 38.943,31.491 39.271,32.341 39.656 C 32.749 39.841,33.186 39.994,33.312 39.996 C 34.383 40.014,37.758 43.050,39.463 45.531 C 40.197 46.599,40.667 47.349,40.667 47.453 C 40.667 47.511,40.936 48.127,41.266 48.821 C 42.288 50.974,42.464 51.398,42.583 52.000 C 42.647 52.321,42.800 52.743,42.923 52.937 C 43.046 53.132,43.270 53.767,43.421 54.350 C 43.572 54.932,43.768 55.545,43.857 55.710 C 43.945 55.876,44.157 56.515,44.326 57.131 C 44.629 58.230,44.925 59.178,45.430 60.667 C 45.569 61.079,45.823 61.867,45.994 62.417 C 46.427 63.811,47.048 65.406,47.267 65.683 C 47.369 65.812,47.527 66.142,47.619 66.417 C 47.775 66.882,48.086 67.406,49.037 68.810 C 49.948 70.155,52.100 72.040,53.144 72.409 C 53.510 72.538,54.000 72.768,54.232 72.920 C 55.378 73.671,59.532 72.940,61.576 71.626 C 63.196 70.585,65.622 68.149,66.789 66.392 C 67.494 65.330,67.814 64.824,68.246 64.083 C 68.787 63.154,69.520 61.720,69.906 60.833 C 70.046 60.512,70.231 60.137,70.317 60.000 C 70.633 59.496,71.500 57.514,71.500 57.296 C 71.500 57.172,71.653 56.773,71.839 56.410 C 72.026 56.047,72.260 55.430,72.360 55.039 C 72.459 54.648,72.613 54.283,72.702 54.228 C 73.180 53.932,73.252 54.615,73.353 60.466 C 73.507 69.340,74.014 70.942,77.176 72.540 C 78.610 73.265,82.083 73.360,83.248 72.706 C 83.613 72.501,83.990 72.333,84.086 72.333 C 84.283 72.333,85.587 71.507,86.586 70.750 C 87.663 69.934,89.343 68.182,90.537 66.630 C 91.571 65.285,91.927 64.728,92.710 63.228 C 93.158 62.370,93.390 62.533,93.982 64.125 C 95.607 68.493,97.699 70.975,101.128 72.605 L 102.417 73.218 104.917 73.225 C 107.294 73.232,107.463 73.210,108.365 72.783 C 108.886 72.536,109.403 72.333,109.514 72.333 C 110.194 72.333,113.826 69.144,114.089 68.316 C 114.148 68.131,114.312 68.004,114.455 68.032 C 114.735 68.087,114.750 68.110,115.442 69.544 C 116.111 70.932,117.168 72.063,118.295 72.600 C 119.637 73.239,122.605 73.384,123.702 72.864 C 124.095 72.678,124.699 72.411,125.043 72.270 C 126.635 71.623,129.256 69.426,130.693 67.534 C 131.091 67.011,131.478 66.538,131.554 66.482 C 131.630 66.427,131.818 66.188,131.971 65.951 C 132.260 65.506,139.220 55.069,139.719 54.333 C 139.874 54.104,140.297 53.467,140.659 52.917 C 141.021 52.367,141.475 51.692,141.667 51.417 C 141.859 51.142,142.331 50.439,142.716 49.855 C 144.964 46.448,145.885 45.087,146.003 45.000 C 146.066 44.954,146.206 44.748,146.314 44.542 C 146.800 43.618,147.423 44.029,149.864 46.882 C 150.978 48.184,151.933 49.288,151.987 49.333 C 154.844 51.760,156.862 58.173,155.989 62.053 C 155.397 64.689,152.707 68.833,151.589 68.833 C 151.491 68.833,151.149 69.011,150.829 69.228 C 148.656 70.705,144.347 70.605,142.380 69.032 C 141.212 68.098,139.500 66.040,139.500 65.570 C 139.500 65.248,138.196 64.167,137.807 64.167 C 134.961 64.167,136.814 68.776,140.833 71.695 C 143.039 73.297,147.612 73.825,150.125 72.768 C 150.692 72.529,151.299 72.333,151.473 72.333 C 151.646 72.333,151.967 72.194,152.186 72.023 C 152.404 71.852,152.883 71.560,153.250 71.373 C 154.529 70.722,156.908 68.115,157.561 66.648 C 158.030 65.597,158.684 65.019,159.917 64.567 C 162.135 63.755,162.392 63.647,162.820 63.351 C 163.057 63.188,163.389 63.004,163.558 62.943 C 164.204 62.709,166.879 60.525,168.039 59.284 C 168.708 58.569,169.048 58.315,169.171 58.438 C 169.352 58.619,170.031 61.449,170.244 62.913 C 170.311 63.369,170.508 64.022,170.683 64.364 C 170.857 64.707,171.000 65.092,171.000 65.220 C 171.000 66.287,174.944 71.500,175.752 71.500 C 175.860 71.500,176.082 71.647,176.244 71.827 C 176.407 72.007,176.812 72.243,177.145 72.353 C 177.478 72.462,178.050 72.708,178.417 72.901 C 179.501 73.469,183.720 73.405,185.002 72.801 C 186.901 71.908,187.093 71.814,187.459 71.602 C 188.172 71.191,190.289 69.046,190.646 68.375 C 190.988 67.731,191.299 67.948,191.901 69.251 C 193.877 73.526,197.646 74.440,201.603 71.602 C 204.218 69.727,206.882 66.357,206.863 64.950 C 206.851 64.088,206.403 63.667,205.500 63.667 C 204.725 63.667,204.533 63.831,202.950 65.847 C 200.732 68.672,199.238 69.741,197.500 69.746 C 195.801 69.751,195.206 69.303,194.649 67.597 L 194.264 66.417 194.174 53.360 L 194.083 40.304 193.687 39.983 C 192.258 38.826,191.194 39.762,191.015 42.333 C 190.891 44.114,190.577 44.285,189.606 43.101 C 188.146 41.319,186.144 40.189,183.527 39.670 C 181.504 39.269,181.226 39.284,178.535 39.933 C 175.930 40.561,173.405 42.687,171.824 45.583 C 171.674 45.858,171.428 46.308,171.277 46.583 C 171.126 46.858,171.002 47.218,171.001 47.382 C 171.000 47.546,170.849 47.977,170.664 48.339 C 170.479 48.702,170.283 49.355,170.230 49.791 C 170.177 50.227,169.997 50.777,169.832 51.014 C 169.666 51.251,169.455 51.721,169.362 52.058 C 169.268 52.395,169.018 52.890,168.804 53.158 C 168.591 53.425,168.229 53.915,168.000 54.246 C 165.759 57.484,164.002 59.056,161.026 60.491 C 159.329 61.308,159.407 61.413,159.257 58.112 C 159.177 56.356,159.086 55.799,158.747 54.992 C 158.519 54.452,158.333 53.912,158.333 53.792 C 158.333 53.672,158.045 53.009,157.692 52.319 C 157.049 51.063,156.818 50.662,156.019 49.417 C 155.467 48.557,152.003 44.426,150.569 42.917 C 149.959 42.275,149.263 41.443,149.022 41.067 C 147.527 38.739,145.896 38.795,144.677 41.216 C 144.292 41.980,144.044 42.369,141.892 45.583 C 141.770 45.767,141.395 46.329,141.059 46.833 C 140.272 48.016,140.431 47.780,137.917 51.494 C 136.725 53.254,135.563 54.981,135.333 55.331 C 134.976 55.877,134.217 57.018,133.392 58.250 C 133.141 58.626,132.200 60.036,131.781 60.667 C 128.856 65.062,126.578 67.670,124.420 69.093 L 123.423 69.750 121.464 69.750 L 119.506 69.750 118.923 69.167 C 117.636 67.879,117.619 67.681,117.511 53.090 L 117.417 40.263 116.838 39.873 C 115.603 39.041,114.615 39.866,114.538 41.792 C 114.436 44.335,114.261 44.387,112.297 42.458 C 110.548 40.741,109.418 40.153,106.917 39.657 L 105.083 39.294 103.167 39.667 C 100.479 40.191,99.266 40.821,97.395 42.667 C 96.545 43.504,95.333 45.153,95.333 45.471 C 95.333 45.543,95.153 45.846,94.933 46.144 C 94.713 46.442,94.482 46.959,94.419 47.294 C 94.357 47.628,94.172 48.167,94.008 48.492 C 93.844 48.817,93.659 49.458,93.597 49.917 C 93.534 50.375,93.379 51.125,93.253 51.583 C 93.127 52.042,92.943 53.376,92.845 54.548 C 92.718 56.076,92.573 56.864,92.334 57.333 C 92.150 57.692,92.000 58.075,92.000 58.183 C 92.000 58.515,90.338 61.725,89.708 62.609 C 89.502 62.898,89.333 63.180,89.333 63.236 C 89.333 63.851,85.659 67.686,84.020 68.783 L 82.583 69.744 80.750 69.797 C 78.571 69.861,78.031 69.661,77.260 68.506 C 76.528 67.410,76.526 67.304,76.513 35.583 C 76.502 8.160,76.490 7.068,76.194 6.667 C 75.703 6.001,75.097 5.776,74.409 6.003 C 73.296 6.370,73.360 5.308,73.300 24.597 L 73.245 42.083 72.860 42.997 C 72.648 43.499,72.398 44.323,72.305 44.827 C 72.212 45.331,72.037 45.934,71.917 46.167 C 71.796 46.400,71.618 47.023,71.520 47.552 C 71.422 48.082,71.228 48.755,71.089 49.049 C 70.949 49.343,70.727 49.958,70.595 50.417 C 70.179 51.858,69.647 53.391,69.318 54.102 C 69.143 54.478,69.000 54.885,69.000 55.005 C 69.000 55.125,68.771 55.717,68.490 56.320 C 68.210 56.923,67.840 57.717,67.670 58.083 C 67.499 58.450,67.172 59.163,66.944 59.667 C 66.715 60.171,66.409 60.846,66.264 61.167 C 66.118 61.487,65.775 62.087,65.500 62.500 C 65.226 62.913,64.906 63.438,64.789 63.667 C 63.686 65.827,60.597 69.000,59.597 69.000 C 59.526 69.000,59.232 69.169,58.942 69.375 C 58.467 69.714,58.224 69.750,56.417 69.750 L 54.417 69.750 53.644 69.194 C 52.724 68.531,51.435 66.832,50.716 65.333 C 49.880 63.590,49.333 62.232,49.332 61.896 C 49.332 61.724,49.209 61.358,49.059 61.083 C 48.910 60.808,48.654 60.133,48.491 59.583 C 48.119 58.328,47.719 57.156,47.298 56.083 C 47.118 55.625,46.875 54.857,46.758 54.377 C 46.641 53.898,46.468 53.410,46.373 53.294 C 46.279 53.178,46.090 52.671,45.953 52.167 C 45.452 50.325,43.026 45.165,42.132 44.040 C 41.876 43.718,41.667 43.393,41.667 43.319 C 41.667 42.864,38.440 39.467,37.333 38.757 C 36.921 38.492,36.321 38.108,36.000 37.904 C 35.679 37.700,34.854 37.292,34.167 36.998 C 32.660 36.354,32.474 36.199,32.894 35.941 C 36.572 33.682,38.764 31.623,40.399 28.889 C 40.866 28.108,41.272 27.453,41.932 26.417 C 42.257 25.905,42.725 25.037,43.235 24.000 C 43.392 23.679,43.593 23.304,43.681 23.167 C 43.769 23.029,44.027 22.542,44.254 22.083 C 44.481 21.625,44.739 21.137,44.829 21.000 C 44.919 20.862,45.105 20.487,45.243 20.167 C 45.380 19.846,45.568 19.471,45.659 19.333 C 45.751 19.196,45.943 18.821,46.087 18.500 C 46.230 18.179,46.566 17.542,46.833 17.083 C 47.100 16.625,47.440 15.996,47.588 15.686 C 47.882 15.069,48.162 14.656,49.421 12.985 C 53.328 7.799,56.940 7.483,59.836 12.075 C 60.186 12.629,60.722 13.482,61.028 13.969 C 62.637 16.536,65.115 14.904,63.707 12.204 C 63.529 11.863,63.247 11.321,63.080 11.000 C 62.326 9.548,59.924 6.833,59.394 6.833 C 59.325 6.833,59.001 6.650,58.676 6.426 C 57.256 5.451,53.602 5.517,51.530 6.555 C 49.781 7.432,47.446 10.041,45.614 13.167 C 45.264 13.762,44.910 14.362,44.826 14.500 C 44.742 14.637,44.106 15.875,43.412 17.250 C 42.719 18.625,41.945 20.125,41.693 20.583 C 41.442 21.042,40.893 22.054,40.475 22.833 C 39.291 25.036,39.134 25.298,38.333 26.392 C 37.921 26.955,37.459 27.609,37.307 27.845 C 35.587 30.516,31.523 33.903,28.644 35.067 C 27.276 35.619,27.333 35.848,27.333 29.842 C 27.333 26.950,27.283 20.574,27.222 15.673 L 27.111 6.763 26.730 6.381 C 26.042 5.694,25.072 5.843,23.844 6.825 C 22.352 8.018,20.349 8.169,18.344 7.240 C 17.862 7.016,17.378 6.833,17.269 6.833 C 17.160 6.833,16.773 6.680,16.410 6.492 C 14.942 5.734,12.252 5.475,10.333 5.907 M248.250 22.976 C 247.552 23.407,240.161 30.998,239.981 31.469 C 239.554 32.586,240.256 33.833,241.312 33.833 C 242.495 33.833,250.833 25.443,250.833 24.252 C 250.833 23.153,249.240 22.366,248.250 22.976 M332.238 39.161 C 330.495 39.361,326.968 40.948,324.727 42.541 C 324.373 42.793,323.821 43.182,323.500 43.406 C 322.572 44.055,322.068 43.974,321.664 43.114 C 319.939 39.444,314.492 38.217,310.169 40.523 C 309.850 40.694,309.529 40.833,309.457 40.833 C 309.385 40.833,309.009 41.034,308.621 41.279 C 306.756 42.458,305.048 43.600,304.721 43.885 C 304.234 44.310,304.134 44.217,303.401 42.656 C 302.762 41.294,301.524 40.002,300.853 39.998 C 300.705 39.998,300.208 39.812,299.750 39.587 C 298.740 39.090,298.324 39.073,297.142 39.480 C 296.641 39.652,295.915 39.846,295.529 39.912 C 294.293 40.121,292.543 41.531,291.315 43.308 C 290.475 44.523,289.333 46.330,289.333 46.445 C 289.333 46.487,289.155 46.761,288.936 47.053 C 288.717 47.345,288.491 47.742,288.432 47.936 C 288.373 48.131,288.177 48.423,287.996 48.587 C 287.815 48.751,287.667 48.962,287.667 49.056 C 287.667 49.150,287.267 49.832,286.778 50.572 C 286.290 51.311,285.623 52.329,285.297 52.833 C 284.391 54.232,283.500 54.791,283.500 53.959 C 283.500 52.598,280.221 47.862,276.441 43.764 C 275.603 42.855,274.729 41.848,274.500 41.527 C 272.604 38.868,271.749 38.700,269.725 40.584 C 269.528 40.767,269.116 41.090,268.809 41.301 C 268.501 41.513,267.745 42.038,267.127 42.468 C 266.510 42.898,265.692 43.438,265.309 43.667 C 264.927 43.896,264.346 44.261,264.019 44.479 C 263.692 44.697,263.129 44.979,262.768 45.106 C 262.407 45.234,262.021 45.414,261.909 45.507 C 261.333 45.984,258.551 46.661,257.150 46.664 C 255.405 46.667,254.756 46.289,253.838 44.732 C 253.519 44.192,253.211 43.712,253.153 43.667 C 253.095 43.621,252.731 43.216,252.345 42.768 C 247.651 37.316,238.074 38.788,234.923 45.447 C 234.785 45.739,234.597 46.024,234.505 46.080 C 234.413 46.137,234.214 46.611,234.062 47.133 C 233.910 47.656,233.688 48.233,233.569 48.417 C 233.449 48.600,233.271 49.255,233.173 49.872 C 233.075 50.490,232.872 51.465,232.723 52.039 C 232.304 53.654,232.351 58.960,232.800 60.750 C 232.984 61.483,233.185 62.458,233.247 62.917 C 233.309 63.375,233.460 63.907,233.583 64.098 C 233.706 64.290,233.889 64.753,233.990 65.128 C 234.473 66.924,237.319 70.687,238.822 71.520 C 239.149 71.701,239.604 71.955,239.833 72.084 C 242.134 73.380,245.477 73.674,247.620 72.771 C 248.190 72.530,248.723 72.333,248.803 72.333 C 249.599 72.333,252.886 69.509,253.750 68.083 C 254.875 66.226,255.927 63.711,256.159 62.320 C 256.242 61.823,256.438 60.892,256.595 60.250 C 257.005 58.563,257.011 53.641,256.603 52.271 C 256.061 50.448,256.291 49.389,257.180 49.622 C 258.499 49.967,261.790 49.037,265.083 47.389 C 266.980 46.439,267.240 46.284,269.855 44.543 C 271.812 43.240,271.712 43.230,273.213 44.875 C 277.340 49.399,279.168 51.890,280.399 54.667 C 282.600 59.630,280.678 66.780,276.583 68.866 C 276.217 69.053,275.804 69.297,275.667 69.408 C 275.216 69.774,272.740 70.333,271.575 70.333 C 268.951 70.333,266.491 68.765,264.931 66.097 C 263.622 63.858,261.786 63.526,261.400 65.458 C 261.171 66.605,263.740 70.120,265.974 71.715 C 270.103 74.665,277.492 73.351,281.081 69.029 C 282.035 67.881,283.500 65.389,283.500 64.914 C 283.500 64.801,283.650 64.371,283.833 63.957 C 284.015 63.544,284.238 62.503,284.328 61.644 C 284.428 60.687,284.622 59.828,284.829 59.423 C 285.015 59.060,285.167 58.638,285.167 58.485 C 285.167 58.332,285.273 58.120,285.402 58.012 C 285.608 57.841,287.444 55.197,287.667 54.750 C 287.712 54.658,288.119 54.021,288.569 53.333 C 289.019 52.646,289.598 51.746,289.854 51.333 C 290.111 50.921,290.476 50.358,290.665 50.083 C 290.855 49.808,291.369 49.021,291.808 48.333 C 292.247 47.646,292.733 46.896,292.888 46.667 C 293.043 46.438,293.347 45.985,293.564 45.662 C 295.365 42.971,298.260 41.832,299.773 43.218 C 301.129 44.460,301.063 43.723,301.162 58.850 C 301.257 73.315,301.211 72.648,302.135 72.958 C 302.764 73.170,303.328 72.988,303.735 72.442 C 304.078 71.982,304.085 71.814,304.171 60.363 C 304.219 53.976,304.320 48.589,304.394 48.392 C 304.753 47.445,308.771 44.711,312.237 43.055 C 313.776 42.319,316.410 42.352,317.514 43.121 C 319.711 44.651,319.705 44.604,319.646 59.500 C 319.599 71.376,319.607 71.767,319.921 72.297 C 320.464 73.214,321.888 73.297,322.379 72.441 C 322.533 72.171,322.604 69.148,322.667 60.125 L 322.750 48.166 323.417 47.564 C 324.368 46.707,326.136 45.319,326.917 44.818 C 328.564 43.760,328.947 43.540,329.336 43.424 C 329.563 43.356,330.125 43.122,330.583 42.904 C 333.062 41.728,335.878 42.366,337.263 44.417 C 338.045 45.575,338.052 45.662,338.172 55.750 C 338.304 66.811,338.419 68.191,339.362 69.982 C 339.861 70.930,341.201 72.333,341.608 72.333 C 341.687 72.333,342.118 72.528,342.563 72.765 C 343.549 73.290,346.358 73.322,346.941 72.815 C 347.111 72.668,347.512 72.459,347.832 72.351 C 349.493 71.793,352.255 69.366,354.419 66.562 C 355.408 65.280,355.763 64.724,356.543 63.228 C 357.024 62.307,357.203 62.453,357.901 64.333 C 359.441 68.486,361.588 71.002,364.961 72.605 L 366.250 73.218 368.750 73.225 C 371.096 73.232,371.306 73.206,372.167 72.803 C 372.671 72.566,373.259 72.319,373.474 72.254 C 374.503 71.939,377.659 69.145,377.922 68.316 C 377.981 68.131,378.145 68.004,378.288 68.032 C 378.568 68.087,378.583 68.110,379.275 69.544 C 382.239 75.687,390.302 73.816,394.789 65.945 C 395.308 65.034,394.951 63.902,394.094 63.741 C 392.986 63.533,392.634 63.744,391.430 65.339 C 390.341 66.783,388.419 68.833,388.155 68.833 C 388.084 68.833,387.780 69.040,387.481 69.292 C 386.616 70.019,383.611 69.992,382.828 69.250 C 381.469 67.963,381.456 67.821,381.346 53.173 L 381.250 40.263 380.671 39.873 C 379.364 38.993,378.487 39.829,378.317 42.118 C 378.250 43.016,378.189 43.769,378.181 43.792 C 378.076 44.099,377.263 43.570,376.130 42.458 C 374.381 40.741,373.251 40.153,370.750 39.657 L 368.917 39.294 367.000 39.668 C 364.374 40.179,362.699 41.057,361.077 42.771 C 360.332 43.559,359.167 45.205,359.167 45.471 C 359.167 45.543,358.987 45.846,358.767 46.144 C 358.547 46.442,358.316 46.963,358.254 47.301 C 358.193 47.640,358.031 48.089,357.895 48.300 C 357.759 48.511,357.541 49.294,357.409 50.042 C 357.278 50.789,357.099 51.629,357.011 51.908 C 356.923 52.188,356.772 53.376,356.676 54.548 C 356.550 56.082,356.407 56.862,356.167 57.333 C 355.983 57.692,355.833 58.075,355.833 58.183 C 355.833 58.468,354.596 60.910,353.827 62.142 C 353.464 62.724,353.167 63.231,353.167 63.268 C 353.167 63.418,351.356 65.618,350.353 66.688 C 349.768 67.312,348.643 68.256,347.853 68.786 L 346.417 69.750 344.913 69.750 C 343.017 69.750,342.502 69.423,341.856 67.808 L 341.433 66.750 341.337 56.000 L 341.241 45.250 340.641 44.000 C 340.121 42.918,338.947 41.317,338.419 40.973 C 338.326 40.912,338.076 40.711,337.863 40.526 C 336.608 39.436,334.437 38.910,332.238 39.161 M107.202 43.023 C 107.542 43.194,107.913 43.333,108.026 43.333 C 109.582 43.333,112.463 47.140,113.340 50.354 C 113.524 51.030,113.759 51.883,113.860 52.250 C 114.224 53.557,114.091 60.050,113.669 61.583 C 113.467 62.317,113.237 63.179,113.157 63.500 C 112.361 66.695,109.241 69.559,106.069 70.007 C 101.012 70.720,97.760 67.603,96.250 60.594 C 96.032 59.580,96.149 52.457,96.399 51.500 C 97.270 48.181,97.820 47.015,99.391 45.167 C 99.911 44.555,101.579 43.334,101.897 43.332 C 102.000 43.332,102.308 43.211,102.583 43.064 C 103.696 42.470,106.056 42.449,107.202 43.023 M184.167 43.149 C 186.086 43.918,188.833 46.457,188.833 47.461 C 188.833 47.526,189.016 47.955,189.239 48.414 C 191.184 52.422,191.165 60.772,189.201 64.833 C 185.835 71.797,177.707 71.990,174.261 65.188 C 172.636 61.982,172.086 54.132,173.239 50.600 C 173.474 49.880,173.669 49.207,173.672 49.104 C 173.688 48.514,175.514 45.508,176.274 44.818 C 178.648 42.665,181.468 42.068,184.167 43.149 M247.250 43.102 C 248.524 43.682,249.816 44.631,250.443 45.446 C 252.941 48.694,253.584 50.978,253.581 56.583 L 253.579 60.583 253.055 62.333 C 249.995 72.549,239.290 72.940,236.417 62.941 C 235.071 58.255,235.418 51.582,237.204 47.833 C 239.288 43.459,243.590 41.433,247.250 43.102 M371.035 43.023 C 371.375 43.194,371.742 43.333,371.851 43.333 C 372.449 43.333,374.569 45.157,375.436 46.417 C 375.881 47.064,377.000 49.424,377.000 49.716 C 377.000 49.840,377.196 50.573,377.435 51.346 C 377.987 53.126,378.083 59.422,377.586 61.250 C 377.436 61.800,377.208 62.663,377.078 63.167 C 375.449 69.504,368.019 72.309,363.722 68.209 C 362.506 67.049,360.833 64.391,360.833 63.619 C 360.833 63.486,360.677 62.898,360.487 62.313 C 359.760 60.084,359.763 52.487,360.490 50.462 C 360.679 49.938,360.833 49.419,360.833 49.309 C 360.833 47.837,364.519 43.339,365.731 43.332 C 365.833 43.332,366.142 43.211,366.417 43.064 C 367.529 42.470,369.889 42.449,371.035 43.023 " stroke="none" fill="#000000" fill-rule="evenodd"></path><path id="path1" d="M0.000 44.250 L 0.000 88.500 200.000 88.500 L 400.000 88.500 400.000 44.250 L 400.000 0.000 200.000 0.000 L 0.000 0.000 0.000 44.250 M14.614 5.909 C 15.239 6.042,16.047 6.305,16.410 6.492 C 16.773 6.680,17.160 6.833,17.269 6.833 C 17.378 6.833,17.862 7.016,18.344 7.240 C 20.349 8.169,22.352 8.018,23.844 6.825 C 25.072 5.843,26.042 5.694,26.730 6.381 L 27.111 6.763 27.222 15.673 C 27.283 20.574,27.333 26.950,27.333 29.842 C 27.333 35.848,27.276 35.619,28.644 35.067 C 31.523 33.903,35.587 30.516,37.307 27.845 C 37.459 27.609,37.921 26.955,38.333 26.392 C 39.134 25.298,39.291 25.036,40.475 22.833 C 40.893 22.054,41.442 21.042,41.693 20.583 C 41.945 20.125,42.719 18.625,43.412 17.250 C 44.106 15.875,44.742 14.637,44.826 14.500 C 44.910 14.362,45.264 13.762,45.614 13.167 C 47.446 10.041,49.781 7.432,51.530 6.555 C 53.602 5.517,57.256 5.451,58.676 6.426 C 59.001 6.650,59.325 6.833,59.394 6.833 C 59.924 6.833,62.326 9.548,63.080 11.000 C 63.247 11.321,63.529 11.863,63.707 12.204 C 65.115 14.904,62.637 16.536,61.028 13.969 C 60.722 13.482,60.186 12.629,59.836 12.075 C 56.940 7.483,53.328 7.799,49.421 12.985 C 48.162 14.656,47.882 15.069,47.588 15.686 C 47.440 15.996,47.100 16.625,46.833 17.083 C 46.566 17.542,46.230 18.179,46.087 18.500 C 45.943 18.821,45.751 19.196,45.659 19.333 C 45.568 19.471,45.380 19.846,45.243 20.167 C 45.105 20.487,44.919 20.862,44.829 21.000 C 44.739 21.137,44.481 21.625,44.254 22.083 C 44.027 22.542,43.769 23.029,43.681 23.167 C 43.593 23.304,43.392 23.679,43.235 24.000 C 42.725 25.037,42.257 25.905,41.932 26.417 C 41.272 27.453,40.866 28.108,40.399 28.889 C 38.764 31.623,36.572 33.682,32.894 35.941 C 32.474 36.199,32.660 36.354,34.167 36.998 C 34.854 37.292,35.679 37.700,36.000 37.904 C 36.321 38.108,36.921 38.492,37.333 38.757 C 38.440 39.467,41.667 42.864,41.667 43.319 C 41.667 43.393,41.876 43.718,42.132 44.040 C 43.026 45.165,45.452 50.325,45.953 52.167 C 46.090 52.671,46.279 53.178,46.373 53.294 C 46.468 53.410,46.641 53.898,46.758 54.377 C 46.875 54.857,47.118 55.625,47.298 56.083 C 47.719 57.156,48.119 58.328,48.491 59.583 C 48.654 60.133,48.910 60.808,49.059 61.083 C 49.209 61.358,49.332 61.724,49.332 61.896 C 49.333 62.232,49.880 63.590,50.716 65.333 C 51.435 66.832,52.724 68.531,53.644 69.194 L 54.417 69.750 56.417 69.750 C 58.224 69.750,58.467 69.714,58.942 69.375 C 59.232 69.169,59.526 69.000,59.597 69.000 C 60.597 69.000,63.686 65.827,64.789 63.667 C 64.906 63.438,65.226 62.913,65.500 62.500 C 65.775 62.087,66.118 61.487,66.264 61.167 C 66.409 60.846,66.715 60.171,66.944 59.667 C 67.172 59.163,67.499 58.450,67.670 58.083 C 67.840 57.717,68.210 56.923,68.490 56.320 C 68.771 55.717,69.000 55.125,69.000 55.005 C 69.000 54.885,69.143 54.478,69.318 54.102 C 69.647 53.391,70.179 51.858,70.595 50.417 C 70.727 49.958,70.949 49.343,71.089 49.049 C 71.228 48.755,71.422 48.082,71.520 47.552 C 71.618 47.023,71.796 46.400,71.917 46.167 C 72.037 45.934,72.212 45.331,72.305 44.827 C 72.398 44.323,72.648 43.499,72.860 42.997 L 73.245 42.083 73.300 24.597 C 73.360 5.308,73.296 6.370,74.409 6.003 C 75.097 5.776,75.703 6.001,76.194 6.667 C 76.490 7.068,76.502 8.160,76.513 35.583 C 76.526 67.304,76.528 67.410,77.260 68.506 C 78.031 69.661,78.571 69.861,80.750 69.797 L 82.583 69.744 84.020 68.783 C 85.659 67.686,89.333 63.851,89.333 63.236 C 89.333 63.180,89.502 62.898,89.708 62.609 C 90.338 61.725,92.000 58.515,92.000 58.183 C 92.000 58.075,92.150 57.692,92.334 57.333 C 92.573 56.864,92.718 56.076,92.845 54.548 C 92.943 53.376,93.127 52.042,93.253 51.583 C 93.379 51.125,93.534 50.375,93.597 49.917 C 93.659 49.458,93.844 48.817,94.008 48.492 C 94.172 48.167,94.357 47.628,94.419 47.294 C 94.482 46.959,94.713 46.442,94.933 46.144 C 95.153 45.846,95.333 45.543,95.333 45.471 C 95.333 45.153,96.545 43.504,97.395 42.667 C 99.266 40.821,100.479 40.191,103.167 39.667 L 105.083 39.294 106.917 39.657 C 109.418 40.153,110.548 40.741,112.297 42.458 C 114.261 44.387,114.436 44.335,114.538 41.792 C 114.615 39.866,115.603 39.041,116.838 39.873 L 117.417 40.263 117.511 53.090 C 117.619 67.681,117.636 67.879,118.923 69.167 L 119.506 69.750 121.464 69.750 L 123.423 69.750 124.420 69.093 C 126.578 67.670,128.856 65.062,131.781 60.667 C 132.200 60.036,133.141 58.626,133.392 58.250 C 134.217 57.018,134.976 55.877,135.333 55.331 C 135.563 54.981,136.725 53.254,137.917 51.494 C 140.431 47.780,140.272 48.016,141.059 46.833 C 141.395 46.329,141.770 45.767,141.892 45.583 C 144.044 42.369,144.292 41.980,144.677 41.216 C 145.896 38.795,147.527 38.739,149.022 41.067 C 149.263 41.443,149.959 42.275,150.569 42.917 C 152.003 44.426,155.467 48.557,156.019 49.417 C 156.818 50.662,157.049 51.063,157.692 52.319 C 158.045 53.009,158.333 53.672,158.333 53.792 C 158.333 53.912,158.519 54.452,158.747 54.992 C 159.086 55.799,159.177 56.356,159.257 58.112 C 159.407 61.413,159.329 61.308,161.026 60.491 C 164.002 59.056,165.759 57.484,168.000 54.246 C 168.229 53.915,168.591 53.425,168.804 53.158 C 169.018 52.890,169.268 52.395,169.362 52.058 C 169.455 51.721,169.666 51.251,169.832 51.014 C 169.997 50.777,170.177 50.227,170.230 49.791 C 170.283 49.355,170.479 48.702,170.664 48.339 C 170.849 47.977,171.000 47.546,171.001 47.382 C 171.002 47.218,171.126 46.858,171.277 46.583 C 171.428 46.308,171.674 45.858,171.824 45.583 C 173.405 42.687,175.930 40.561,178.535 39.933 C 181.226 39.284,181.504 39.269,183.527 39.670 C 186.144 40.189,188.146 41.319,189.606 43.101 C 190.577 44.285,190.891 44.114,191.015 42.333 C 191.194 39.762,192.258 38.826,193.687 39.983 L 194.083 40.304 194.174 53.360 L 194.264 66.417 194.649 67.597 C 195.834 71.223,199.304 70.491,202.950 65.847 C 204.533 63.831,204.725 63.667,205.500 63.667 C 208.934 63.667,205.312 69.569,200.036 72.571 C 197.064 74.262,193.555 72.830,191.901 69.251 C 191.299 67.948,190.988 67.731,190.646 68.375 C 190.289 69.046,188.172 71.191,187.459 71.602 C 187.093 71.814,186.901 71.908,185.002 72.801 C 183.720 73.405,179.501 73.469,178.417 72.901 C 178.050 72.708,177.478 72.462,177.145 72.353 C 176.812 72.243,176.407 72.007,176.244 71.827 C 176.082 71.647,175.860 71.500,175.752 71.500 C 174.944 71.500,171.000 66.287,171.000 65.220 C 171.000 65.092,170.857 64.707,170.683 64.364 C 170.508 64.022,170.311 63.369,170.244 62.913 C 170.031 61.449,169.352 58.619,169.171 58.438 C 169.048 58.315,168.708 58.569,168.039 59.284 C 166.879 60.525,164.204 62.709,163.558 62.943 C 163.389 63.004,163.057 63.188,162.820 63.351 C 162.392 63.647,162.135 63.755,159.917 64.567 C 158.684 65.019,158.030 65.597,157.561 66.648 C 156.908 68.115,154.529 70.722,153.250 71.373 C 152.883 71.560,152.404 71.852,152.186 72.023 C 151.967 72.194,151.646 72.333,151.473 72.333 C 151.299 72.333,150.692 72.529,150.125 72.768 C 147.612 73.825,143.039 73.297,140.833 71.695 C 136.814 68.776,134.961 64.167,137.807 64.167 C 138.196 64.167,139.500 65.248,139.500 65.570 C 139.500 66.040,141.212 68.098,142.380 69.032 C 144.347 70.605,148.656 70.705,150.829 69.228 C 151.149 69.011,151.491 68.833,151.589 68.833 C 151.854 68.833,153.454 67.219,154.146 66.252 C 157.458 61.625,156.900 55.842,152.584 50.083 C 152.310 49.716,152.041 49.379,151.987 49.333 C 151.933 49.288,150.978 48.184,149.864 46.882 C 147.423 44.029,146.800 43.618,146.314 44.542 C 146.206 44.748,146.066 44.954,146.003 45.000 C 145.885 45.087,144.964 46.448,142.716 49.855 C 142.331 50.439,141.859 51.142,141.667 51.417 C 141.475 51.692,141.021 52.367,140.659 52.917 C 140.297 53.467,139.874 54.104,139.719 54.333 C 139.220 55.069,132.260 65.506,131.971 65.951 C 131.818 66.188,131.630 66.427,131.554 66.482 C 131.478 66.538,131.091 67.011,130.693 67.534 C 129.256 69.426,126.635 71.623,125.043 72.270 C 124.699 72.411,124.095 72.678,123.702 72.864 C 122.605 73.384,119.637 73.239,118.295 72.600 C 117.168 72.063,116.111 70.932,115.442 69.544 C 114.750 68.110,114.735 68.087,114.455 68.032 C 114.312 68.004,114.148 68.131,114.089 68.316 C 113.826 69.144,110.194 72.333,109.514 72.333 C 109.403 72.333,108.886 72.536,108.365 72.783 C 107.463 73.210,107.294 73.232,104.917 73.225 L 102.417 73.218 101.128 72.605 C 97.699 70.975,95.607 68.493,93.982 64.125 C 93.390 62.533,93.158 62.370,92.710 63.228 C 91.927 64.728,91.571 65.285,90.537 66.630 C 89.343 68.182,87.663 69.934,86.586 70.750 C 85.587 71.507,84.283 72.333,84.086 72.333 C 83.990 72.333,83.613 72.501,83.248 72.706 C 82.083 73.360,78.610 73.265,77.176 72.540 C 74.014 70.942,73.507 69.340,73.353 60.466 C 73.252 54.615,73.180 53.932,72.702 54.228 C 72.613 54.283,72.459 54.648,72.360 55.039 C 72.260 55.430,72.026 56.047,71.839 56.410 C 71.653 56.773,71.500 57.172,71.500 57.296 C 71.500 57.514,70.633 59.496,70.317 60.000 C 70.231 60.137,70.046 60.512,69.906 60.833 C 69.520 61.720,68.787 63.154,68.246 64.083 C 67.814 64.824,67.494 65.330,66.789 66.392 C 65.622 68.149,63.196 70.585,61.576 71.626 C 59.532 72.940,55.378 73.671,54.232 72.920 C 54.000 72.768,53.510 72.538,53.144 72.409 C 52.100 72.040,49.948 70.155,49.037 68.810 C 48.086 67.406,47.775 66.882,47.619 66.417 C 47.527 66.142,47.369 65.812,47.267 65.683 C 47.048 65.406,46.427 63.811,45.994 62.417 C 45.823 61.867,45.569 61.079,45.430 60.667 C 44.925 59.178,44.629 58.230,44.326 57.131 C 44.157 56.515,43.945 55.876,43.857 55.710 C 43.768 55.545,43.572 54.932,43.421 54.350 C 43.270 53.767,43.046 53.132,42.923 52.937 C 42.800 52.743,42.647 52.321,42.583 52.000 C 42.464 51.398,42.288 50.974,41.266 48.821 C 40.936 48.127,40.667 47.511,40.667 47.453 C 40.667 47.349,40.197 46.599,39.463 45.531 C 37.758 43.050,34.383 40.014,33.312 39.996 C 33.186 39.994,32.749 39.841,32.341 39.656 C 31.491 39.271,28.654 38.943,27.904 39.144 L 27.417 39.274 27.323 52.595 L 27.230 65.917 26.774 67.333 C 26.523 68.112,26.213 68.938,26.084 69.167 C 25.955 69.396,25.702 69.846,25.523 70.167 C 24.047 72.799,20.363 73.884,17.250 72.603 C 13.671 71.129,9.588 66.204,10.513 64.475 C 11.257 63.086,13.247 63.757,14.289 65.748 C 14.432 66.022,15.007 66.756,15.566 67.379 C 18.776 70.957,21.851 70.939,23.385 67.333 L 23.917 66.083 23.965 38.960 C 23.999 19.853,23.960 11.737,23.834 11.501 C 23.628 11.117,23.216 11.084,22.026 11.359 C 20.874 11.625,19.884 11.363,16.584 9.918 C 13.066 8.378,10.864 8.635,8.559 10.854 C 7.345 12.023,7.089 12.130,6.225 11.829 C 4.740 11.311,4.907 10.120,6.722 8.290 C 9.169 5.821,11.255 5.192,14.614 5.909 M249.721 22.894 C 250.288 23.131,250.833 23.797,250.833 24.252 C 250.833 25.443,242.495 33.833,241.312 33.833 C 240.256 33.833,239.554 32.586,239.981 31.469 C 240.161 30.998,247.552 23.407,248.250 22.976 C 248.849 22.607,249.013 22.598,249.721 22.894 M336.446 39.700 C 337.012 39.969,337.650 40.341,337.863 40.526 C 338.076 40.711,338.326 40.912,338.419 40.973 C 338.947 41.317,340.121 42.918,340.641 44.000 L 341.241 45.250 341.337 56.000 L 341.433 66.750 341.856 67.808 C 342.502 69.423,343.017 69.750,344.913 69.750 L 346.417 69.750 347.853 68.786 C 348.643 68.256,349.768 67.312,350.353 66.688 C 351.356 65.618,353.167 63.418,353.167 63.268 C 353.167 63.231,353.464 62.724,353.827 62.142 C 354.596 60.910,355.833 58.468,355.833 58.183 C 355.833 58.075,355.983 57.692,356.167 57.333 C 356.407 56.862,356.550 56.082,356.676 54.548 C 356.772 53.376,356.923 52.188,357.011 51.908 C 357.099 51.629,357.278 50.789,357.409 50.042 C 357.541 49.294,357.759 48.511,357.895 48.300 C 358.031 48.089,358.193 47.640,358.254 47.301 C 358.316 46.963,358.547 46.442,358.767 46.144 C 358.987 45.846,359.167 45.543,359.167 45.471 C 359.167 45.205,360.332 43.559,361.077 42.771 C 362.699 41.057,364.374 40.179,367.000 39.668 L 368.917 39.294 370.750 39.657 C 373.251 40.153,374.381 40.741,376.130 42.458 C 377.263 43.570,378.076 44.099,378.181 43.792 C 378.189 43.769,378.250 43.016,378.317 42.118 C 378.487 39.829,379.364 38.993,380.671 39.873 L 381.250 40.263 381.346 53.173 C 381.456 67.821,381.469 67.963,382.828 69.250 C 383.611 69.992,386.616 70.019,387.481 69.292 C 387.780 69.040,388.084 68.833,388.155 68.833 C 388.419 68.833,390.341 66.783,391.430 65.339 C 392.634 63.744,392.986 63.533,394.094 63.741 C 394.951 63.902,395.308 65.034,394.789 65.945 C 390.302 73.816,382.239 75.687,379.275 69.544 C 378.583 68.110,378.568 68.087,378.288 68.032 C 378.145 68.004,377.981 68.131,377.922 68.316 C 377.659 69.145,374.503 71.939,373.474 72.254 C 373.259 72.319,372.671 72.566,372.167 72.803 C 371.306 73.206,371.096 73.232,368.750 73.225 L 366.250 73.218 364.961 72.605 C 361.588 71.002,359.441 68.486,357.901 64.333 C 357.203 62.453,357.024 62.307,356.543 63.228 C 355.763 64.724,355.408 65.280,354.419 66.562 C 352.255 69.366,349.493 71.793,347.832 72.351 C 347.512 72.459,347.111 72.668,346.941 72.815 C 346.358 73.322,343.549 73.290,342.563 72.765 C 342.118 72.528,341.687 72.333,341.608 72.333 C 341.201 72.333,339.861 70.930,339.362 69.982 C 338.419 68.191,338.304 66.811,338.172 55.750 C 338.052 45.662,338.045 45.575,337.263 44.417 C 335.878 42.366,333.062 41.728,330.583 42.904 C 330.125 43.122,329.563 43.356,329.336 43.424 C 328.947 43.540,328.564 43.760,326.917 44.818 C 326.136 45.319,324.368 46.707,323.417 47.564 L 322.750 48.166 322.667 60.125 C 322.604 69.148,322.533 72.171,322.379 72.441 C 321.888 73.297,320.464 73.214,319.921 72.297 C 319.607 71.767,319.599 71.376,319.646 59.500 C 319.705 44.604,319.711 44.651,317.514 43.121 C 316.410 42.352,313.776 42.319,312.237 43.055 C 308.771 44.711,304.753 47.445,304.394 48.392 C 304.320 48.589,304.219 53.976,304.171 60.363 C 304.085 71.814,304.078 71.982,303.735 72.442 C 303.328 72.988,302.764 73.170,302.135 72.958 C 301.211 72.648,301.257 73.315,301.162 58.850 C 301.063 43.723,301.129 44.460,299.773 43.218 C 298.260 41.832,295.365 42.971,293.564 45.662 C 293.347 45.985,293.043 46.438,292.888 46.667 C 292.733 46.896,292.247 47.646,291.808 48.333 C 291.369 49.021,290.855 49.808,290.665 50.083 C 290.476 50.358,290.111 50.921,289.854 51.333 C 289.598 51.746,289.019 52.646,288.569 53.333 C 288.119 54.021,287.712 54.658,287.667 54.750 C 287.444 55.197,285.608 57.841,285.402 58.012 C 285.273 58.120,285.167 58.332,285.167 58.485 C 285.167 58.638,285.015 59.060,284.829 59.423 C 284.622 59.828,284.428 60.687,284.328 61.644 C 284.238 62.503,284.015 63.544,283.833 63.957 C 283.650 64.371,283.500 64.801,283.500 64.914 C 283.500 65.389,282.035 67.881,281.081 69.029 C 277.492 73.351,270.103 74.665,265.974 71.715 C 263.740 70.120,261.171 66.605,261.400 65.458 C 261.786 63.526,263.622 63.858,264.931 66.097 C 266.491 68.765,268.951 70.333,271.575 70.333 C 272.740 70.333,275.216 69.774,275.667 69.408 C 275.804 69.297,276.217 69.053,276.583 68.866 C 278.441 67.920,280.489 64.862,281.071 62.167 C 282.248 56.710,280.500 52.863,273.213 44.875 C 271.712 43.230,271.812 43.240,269.855 44.543 C 267.240 46.284,266.980 46.439,265.083 47.389 C 261.790 49.037,258.499 49.967,257.180 49.622 C 256.291 49.389,256.061 50.448,256.603 52.271 C 257.011 53.641,257.005 58.563,256.595 60.250 C 256.438 60.892,256.242 61.823,256.159 62.320 C 255.927 63.711,254.875 66.226,253.750 68.083 C 252.886 69.509,249.599 72.333,248.803 72.333 C 248.723 72.333,248.190 72.530,247.620 72.771 C 245.477 73.674,242.134 73.380,239.833 72.084 C 239.604 71.955,239.149 71.701,238.822 71.520 C 237.319 70.687,234.473 66.924,233.990 65.128 C 233.889 64.753,233.706 64.290,233.583 64.098 C 233.460 63.907,233.309 63.375,233.247 62.917 C 233.185 62.458,232.984 61.483,232.800 60.750 C 232.351 58.960,232.304 53.654,232.723 52.039 C 232.872 51.465,233.075 50.490,233.173 49.872 C 233.271 49.255,233.449 48.600,233.569 48.417 C 233.688 48.233,233.910 47.656,234.062 47.133 C 234.214 46.611,234.413 46.137,234.505 46.080 C 234.597 46.024,234.785 45.739,234.923 45.447 C 238.074 38.788,247.651 37.316,252.345 42.768 C 252.731 43.216,253.095 43.621,253.153 43.667 C 253.211 43.712,253.519 44.192,253.838 44.732 C 254.756 46.289,255.405 46.667,257.150 46.664 C 258.551 46.661,261.333 45.984,261.909 45.507 C 262.021 45.414,262.407 45.234,262.768 45.106 C 263.129 44.979,263.692 44.697,264.019 44.479 C 264.346 44.261,264.927 43.896,265.309 43.667 C 265.692 43.438,266.510 42.898,267.127 42.468 C 267.745 42.038,268.501 41.513,268.809 41.301 C 269.116 41.090,269.528 40.767,269.725 40.584 C 271.749 38.700,272.604 38.868,274.500 41.527 C 274.729 41.848,275.603 42.855,276.441 43.764 C 280.221 47.862,283.500 52.598,283.500 53.959 C 283.500 54.791,284.391 54.232,285.297 52.833 C 285.623 52.329,286.290 51.311,286.778 50.572 C 287.267 49.832,287.667 49.150,287.667 49.056 C 287.667 48.962,287.815 48.751,287.996 48.587 C 288.177 48.423,288.373 48.131,288.432 47.936 C 288.491 47.742,288.717 47.345,288.936 47.053 C 289.155 46.761,289.333 46.487,289.333 46.445 C 289.333 46.330,290.475 44.523,291.315 43.308 C 292.543 41.531,294.293 40.121,295.529 39.912 C 295.915 39.846,296.641 39.652,297.142 39.480 C 298.324 39.073,298.740 39.090,299.750 39.587 C 300.208 39.812,300.705 39.998,300.853 39.998 C 301.524 40.002,302.762 41.294,303.401 42.656 C 304.134 44.217,304.234 44.310,304.721 43.885 C 305.048 43.600,306.756 42.458,308.621 41.279 C 309.009 41.034,309.385 40.833,309.457 40.833 C 309.529 40.833,309.850 40.694,310.169 40.523 C 314.492 38.217,319.939 39.444,321.664 43.114 C 322.068 43.974,322.572 44.055,323.500 43.406 C 323.821 43.182,324.373 42.793,324.727 42.541 C 329.135 39.408,333.571 38.332,336.446 39.700 M103.917 42.671 C 103.458 42.740,102.858 42.917,102.583 43.064 C 102.308 43.211,102.000 43.332,101.897 43.332 C 101.579 43.334,99.911 44.555,99.391 45.167 C 97.820 47.015,97.270 48.181,96.399 51.500 C 96.149 52.457,96.032 59.580,96.250 60.594 C 97.760 67.603,101.012 70.720,106.069 70.007 C 109.241 69.559,112.361 66.695,113.157 63.500 C 113.237 63.179,113.467 62.317,113.669 61.583 C 114.091 60.050,114.224 53.557,113.860 52.250 C 113.759 51.883,113.524 51.030,113.340 50.354 C 112.463 47.140,109.582 43.333,108.026 43.333 C 107.913 43.333,107.542 43.194,107.202 43.023 C 106.457 42.650,105.053 42.500,103.917 42.671 M180.583 42.669 C 179.179 42.874,177.486 43.719,176.274 44.818 C 175.514 45.508,173.688 48.514,173.672 49.104 C 173.669 49.207,173.474 49.880,173.239 50.600 C 172.086 54.132,172.636 61.982,174.261 65.188 C 177.707 71.990,185.835 71.797,189.201 64.833 C 191.165 60.772,191.184 52.422,189.239 48.414 C 189.016 47.955,188.833 47.526,188.833 47.461 C 188.833 47.397,188.522 46.890,188.141 46.335 C 186.349 43.723,183.343 42.265,180.583 42.669 M243.075 42.645 C 237.602 44.075,234.694 51.016,235.804 60.000 C 236.675 67.052,240.694 70.931,246.083 69.921 C 249.459 69.289,251.703 66.846,253.055 62.333 L 253.579 60.583 253.581 56.583 C 253.584 51.555,253.038 49.201,251.258 46.565 C 249.222 43.551,245.830 41.925,243.075 42.645 M367.750 42.671 C 367.292 42.740,366.692 42.917,366.417 43.064 C 366.142 43.211,365.833 43.332,365.731 43.332 C 364.519 43.339,360.833 47.837,360.833 49.309 C 360.833 49.419,360.679 49.938,360.490 50.462 C 359.763 52.487,359.760 60.084,360.487 62.313 C 360.677 62.898,360.833 63.486,360.833 63.619 C 360.833 64.391,362.506 67.049,363.722 68.209 C 368.019 72.309,375.449 69.504,377.078 63.167 C 377.208 62.663,377.436 61.800,377.586 61.250 C 378.083 59.422,377.987 53.126,377.435 51.346 C 377.196 50.573,377.000 49.840,377.000 49.716 C 377.000 49.424,375.881 47.064,375.436 46.417 C 374.569 45.157,372.449 43.333,371.851 43.333 C 371.742 43.333,371.375 43.194,371.035 43.023 C 370.290 42.650,368.887 42.500,367.750 42.671 " stroke="none" fill="#ffffff" fill-rule="evenodd"></path></g></svg>