<svg id="svg" version="1.1" width="400" height="63.07977736549165" xmlns="http://www.w3.org/2000/svg" xmlns:xlink="http://www.w3.org/1999/xlink" style="display: block;"><g id="svgg"><path id="path0" d="M5.391 1.403 C 2.751 2.044,0.114 5.129,1.242 6.258 C 1.987 7.002,2.664 6.838,3.990 5.593 C 5.987 3.717,7.555 3.644,11.488 5.245 C 14.106 6.311,14.545 6.405,15.724 6.154 C 17.322 5.815,17.179 3.374,17.128 30.245 L 17.083 53.917 16.616 55.019 C 15.143 58.497,11.700 57.869,8.782 53.588 C 7.527 51.746,6.634 51.351,5.742 52.242 C 4.961 53.023,5.568 54.580,7.475 56.687 C 11.938 61.619,17.706 60.954,19.505 55.300 C 20.032 53.644,20.157 50.807,20.162 40.395 C 20.167 29.181,19.969 30.233,22.046 30.384 C 28.187 30.832,31.528 35.060,35.245 47.083 C 36.262 50.372,36.918 52.215,37.679 53.917 C 41.127 61.626,49.224 62.102,54.680 54.917 C 56.064 53.094,59.333 47.093,59.333 46.375 C 59.333 46.301,59.553 45.719,59.822 45.082 C 60.778 42.817,60.897 43.240,61.018 49.333 C 61.146 55.739,61.346 56.757,62.801 58.369 C 66.002 61.915,71.885 59.562,76.145 53.031 C 77.746 50.577,77.639 50.598,78.417 52.583 C 79.205 54.598,79.708 55.457,81.007 57.008 C 84.622 61.326,91.490 61.145,95.133 56.637 C 96.112 55.427,96.209 55.430,96.851 56.701 C 99.377 61.706,105.371 61.045,110.161 55.234 C 110.823 54.431,114.184 49.550,117.629 44.388 C 121.075 39.226,124.031 34.960,124.197 34.907 C 124.778 34.723,125.152 35.029,127.123 37.299 C 130.225 40.870,131.710 43.291,132.255 45.667 C 134.470 55.314,123.507 61.916,118.340 54.046 C 117.114 52.178,116.546 51.869,115.679 52.598 C 114.561 53.539,115.795 56.041,118.445 58.203 C 122.894 61.832,130.204 60.210,133.362 54.894 C 134.373 53.191,134.624 52.977,136.437 52.272 C 138.847 51.335,140.317 50.372,142.294 48.439 C 143.856 46.910,143.928 46.948,144.449 49.593 C 146.445 59.716,155.301 63.602,161.487 57.067 C 163.074 55.390,163.022 55.399,163.653 56.721 C 166.144 61.940,172.400 60.935,176.696 54.627 C 177.812 52.987,177.615 51.767,176.233 51.767 C 175.570 51.767,175.299 52.011,173.500 54.233 C 172.996 54.855,172.096 55.732,171.500 56.181 L 170.417 56.997 168.888 56.998 C 165.680 57.002,165.785 57.452,165.673 43.167 C 165.577 30.996,165.586 31.112,164.762 30.905 C 163.581 30.608,162.981 31.275,162.844 33.038 C 162.717 34.668,162.508 34.685,160.905 33.188 C 156.417 28.996,149.534 30.143,146.362 35.610 C 145.654 36.829,144.667 39.283,144.667 39.822 C 144.667 41.572,140.952 46.387,138.262 48.124 C 135.673 49.795,135.455 49.709,135.203 46.917 C 134.852 43.038,133.417 40.286,129.333 35.661 C 128.188 34.363,126.891 32.844,126.452 32.284 C 124.131 29.329,124.752 28.784,116.721 40.833 C 107.815 54.197,107.460 54.662,104.836 56.396 C 103.548 57.246,100.795 57.321,100.002 56.527 C 98.948 55.474,98.943 55.420,98.842 42.860 L 98.750 31.470 98.357 31.152 C 97.316 30.309,96.180 31.036,96.150 32.564 C 96.117 34.244,95.534 34.882,94.907 33.925 C 93.621 31.963,90.153 30.508,87.264 30.720 C 81.488 31.143,77.872 35.938,77.248 44.000 C 76.949 47.856,72.622 54.519,69.146 56.473 C 67.336 57.491,65.120 57.185,64.332 55.808 L 63.917 55.083 63.833 28.804 L 63.750 2.524 63.400 2.054 C 62.930 1.422,61.889 1.312,61.408 1.843 C 61.093 2.191,61.081 2.638,60.993 17.476 C 60.904 32.468,60.895 32.770,60.548 33.833 C 60.354 34.429,59.991 35.629,59.743 36.500 C 55.368 51.860,50.090 58.694,43.924 56.982 C 42.848 56.683,41.494 55.152,40.510 53.123 C 39.712 51.477,39.289 50.320,37.163 43.978 C 34.130 34.933,31.273 30.899,26.276 28.607 C 24.698 27.883,24.701 27.855,26.529 26.625 C 29.641 24.532,31.664 21.791,35.195 14.882 C 36.309 12.701,37.359 10.718,37.527 10.474 C 37.696 10.231,37.833 9.979,37.833 9.915 C 37.833 9.594,40.087 6.630,40.972 5.788 C 43.820 3.077,46.667 3.613,48.749 7.252 C 49.987 9.417,50.972 10.028,51.833 9.167 C 53.049 7.951,50.304 3.337,47.528 1.931 C 42.914 -0.407,38.483 2.579,34.440 10.750 C 33.805 12.033,32.970 13.646,32.584 14.333 C 32.199 15.021,31.564 16.183,31.173 16.917 C 28.650 21.652,23.333 26.770,20.812 26.890 L 20.250 26.917 20.144 25.833 C 20.086 25.238,20.030 19.703,20.019 13.534 L 20.000 2.318 19.591 1.909 C 18.943 1.261,18.225 1.356,17.084 2.243 C 15.527 3.452,14.515 3.453,11.417 2.252 C 8.565 1.147,7.227 0.958,5.391 1.403 M206.503 1.543 C 205.700 1.957,205.672 2.189,205.667 8.333 C 205.664 11.650,205.595 14.189,205.504 14.333 C 205.376 14.536,204.746 14.599,202.158 14.667 L 198.971 14.750 198.569 15.218 C 197.242 16.761,198.579 17.498,202.717 17.503 C 204.018 17.504,205.196 17.576,205.333 17.663 C 205.552 17.801,205.594 20.079,205.668 35.952 C 205.747 52.866,205.774 54.167,206.061 55.333 C 207.598 61.559,214.793 61.652,218.940 55.500 C 220.423 53.300,221.564 50.258,223.753 42.667 C 226.015 34.824,227.763 32.391,230.108 33.821 C 231.331 34.567,231.333 34.589,231.333 47.231 C 231.333 60.169,231.294 59.833,232.810 59.833 C 233.987 59.833,233.999 59.760,234.007 52.353 C 234.016 44.759,233.932 45.248,235.606 42.991 C 242.907 33.148,241.856 34.066,243.786 35.840 C 247.525 39.275,249.530 39.165,253.788 35.290 C 256.002 33.274,256.694 33.116,259.126 34.073 C 261.464 34.993,263.627 35.667,264.242 35.667 C 266.026 35.667,266.034 36.128,264.289 38.432 C 263.531 39.432,261.491 42.125,259.757 44.417 C 258.022 46.708,255.805 49.633,254.829 50.917 C 248.750 58.916,248.811 58.811,249.667 59.667 C 250.312 60.312,250.963 60.119,252.511 58.826 C 254.708 56.992,256.325 56.262,258.190 56.262 L 259.679 56.262 261.548 57.250 C 266.722 59.984,266.538 59.911,268.357 59.974 C 270.907 60.063,272.415 59.531,275.569 57.433 C 277.677 56.030,277.661 56.030,279.315 57.534 C 282.504 60.435,288.034 60.812,292.167 58.410 C 294.474 57.070,296.122 55.524,298.220 52.734 C 299.705 50.760,300.225 50.418,300.436 51.281 C 302.221 58.593,309.549 62.030,316.500 58.815 C 319.936 57.225,323.723 52.806,326.418 47.241 C 328.056 43.857,328.050 43.848,328.194 49.917 C 328.335 55.807,328.540 56.787,329.968 58.369 C 333.164 61.910,339.051 59.560,343.299 53.049 C 344.914 50.574,344.805 50.596,345.583 52.583 C 346.372 54.598,346.875 55.457,348.174 57.008 C 351.788 61.326,358.657 61.145,362.300 56.637 C 363.287 55.416,363.373 55.423,364.065 56.796 C 366.682 61.994,372.993 60.857,377.190 54.432 C 378.184 52.912,377.924 51.767,376.584 51.767 C 375.898 51.767,375.837 51.822,373.893 54.195 C 373.330 54.883,372.403 55.795,371.835 56.223 L 370.800 57.000 369.256 57.000 C 367.390 57.000,367.043 56.797,366.472 55.371 L 366.090 54.417 366.003 42.943 L 365.917 31.470 365.523 31.152 C 364.514 30.335,363.351 31.035,363.314 32.481 C 363.268 34.247,362.710 34.897,362.073 33.925 C 360.788 31.963,357.319 30.508,354.431 30.720 C 348.660 31.143,345.052 35.901,344.427 43.913 C 344.278 45.817,343.475 47.887,341.871 50.500 C 338.190 56.499,333.109 59.000,331.434 55.639 L 331.000 54.768 330.999 43.676 C 330.998 30.824,330.999 30.833,329.471 30.833 C 328.210 30.833,328.032 31.150,327.510 34.333 C 326.686 39.362,325.318 43.710,323.558 46.895 C 323.160 47.617,322.833 48.237,322.833 48.274 C 322.833 48.529,319.865 52.811,319.289 53.387 C 318.120 54.555,316.689 55.523,315.003 56.283 L 313.417 56.998 311.167 56.999 C 305.145 57.001,301.884 51.673,302.671 43.119 C 303.480 34.330,310.295 30.307,315.233 35.705 C 317.648 38.345,319.936 37.281,317.890 34.470 C 311.682 25.944,300.474 31.658,299.851 43.667 L 299.742 45.750 298.259 48.000 C 296.006 51.416,294.386 53.279,292.195 54.976 C 288.766 57.631,284.206 57.878,281.377 55.560 C 280.260 54.644,280.378 54.230,282.167 52.788 C 285.786 49.870,286.713 49.060,288.541 47.221 C 292.616 43.117,294.635 39.067,293.519 37.236 C 293.346 36.953,293.152 36.477,293.086 36.178 C 291.621 29.511,282.529 28.822,278.294 35.057 C 275.919 38.555,274.607 45.310,275.472 49.588 C 275.564 50.044,275.774 51.028,275.938 51.775 C 276.330 53.562,276.241 53.738,274.295 55.017 C 271.675 56.739,270.946 57.001,268.769 56.997 C 266.709 56.994,267.126 57.145,263.750 55.171 C 261.205 53.682,260.630 53.477,258.668 53.357 C 257.267 53.271,256.910 53.198,256.870 52.988 C 256.827 52.761,258.192 50.896,263.083 44.500 C 272.938 31.613,272.509 32.265,271.735 31.346 C 271.120 30.615,270.616 30.676,269.102 31.665 C 266.836 33.144,265.738 33.169,261.573 31.833 C 260.112 31.365,258.427 30.826,257.829 30.635 L 256.742 30.288 255.496 30.831 C 254.149 31.417,253.413 31.954,251.539 33.716 C 248.891 36.206,247.353 36.070,244.877 33.122 C 242.972 30.855,242.594 30.500,242.093 30.500 C 241.545 30.500,240.714 31.097,240.387 31.725 C 240.252 31.987,239.013 33.732,237.635 35.604 C 234.529 39.824,234.168 40.085,234.165 38.115 C 234.159 32.543,231.306 29.435,227.555 30.916 C 224.542 32.105,222.755 35.221,220.768 42.750 C 217.738 54.227,215.989 57.000,211.778 57.000 C 209.948 57.000,209.603 56.821,208.973 55.541 L 208.583 54.750 208.536 36.458 C 208.505 24.272,208.546 18.060,208.659 17.848 C 208.814 17.557,209.085 17.527,211.986 17.474 C 215.605 17.408,216.036 17.270,216.133 16.137 C 216.244 14.854,215.981 14.757,212.223 14.697 C 210.370 14.667,208.843 14.572,208.750 14.480 C 208.648 14.381,208.551 11.959,208.500 8.246 C 208.420 2.454,208.401 2.160,208.083 1.848 C 207.633 1.407,207.004 1.285,206.503 1.543 M328.735 16.517 C 326.821 17.057,326.487 20.024,328.258 20.764 C 329.928 21.462,331.664 20.452,331.666 18.783 C 331.668 17.268,330.172 16.111,328.735 16.517 M90.323 33.964 C 97.495 36.835,97.779 53.219,90.718 56.695 C 89.137 57.473,86.462 57.520,85.000 56.796 C 81.353 54.988,79.605 50.064,80.157 43.148 C 80.731 35.969,85.214 31.919,90.323 33.964 M156.833 33.868 C 161.471 35.678,163.862 43.130,162.090 50.250 C 159.754 59.642,149.814 59.896,147.397 50.626 C 144.790 40.629,150.082 31.232,156.833 33.868 M357.221 33.855 C 360.971 35.333,362.901 39.321,362.896 45.583 C 362.890 53.079,360.039 57.250,354.920 57.250 C 349.646 57.250,346.791 52.221,347.257 43.750 C 347.660 36.415,352.222 31.884,357.221 33.855 M287.923 33.894 C 289.350 34.559,289.906 35.406,290.494 37.813 L 290.877 39.377 290.496 40.313 C 289.439 42.913,286.070 46.504,281.367 50.045 C 278.829 51.956,278.515 51.826,278.186 48.731 C 277.184 39.312,282.421 31.332,287.923 33.894 " stroke="none" fill="#010101" fill-rule="evenodd"></path><path id="path1" d="M0.000 31.500 L 0.000 63.000 200.000 63.000 L 400.000 63.000 400.000 31.500 L 400.000 0.000 200.000 0.000 L 0.000 0.000 0.000 31.500 M8.700 1.354 C 9.186 1.457,10.408 1.861,11.417 2.252 C 14.515 3.453,15.527 3.452,17.084 2.243 C 18.225 1.356,18.943 1.261,19.591 1.909 L 20.000 2.318 20.019 13.534 C 20.030 19.703,20.086 25.238,20.144 25.833 L 20.250 26.917 20.812 26.890 C 23.333 26.770,28.650 21.652,31.173 16.917 C 31.564 16.183,32.199 15.021,32.584 14.333 C 32.970 13.646,33.805 12.033,34.440 10.750 C 38.483 2.579,42.914 -0.407,47.528 1.931 C 50.304 3.337,53.049 7.951,51.833 9.167 C 50.972 10.028,49.987 9.417,48.749 7.252 C 46.667 3.613,43.820 3.077,40.972 5.788 C 40.087 6.630,37.833 9.594,37.833 9.915 C 37.833 9.979,37.696 10.231,37.527 10.474 C 37.359 10.718,36.309 12.701,35.195 14.882 C 31.664 21.791,29.641 24.532,26.529 26.625 C 24.701 27.855,24.698 27.883,26.276 28.607 C 31.273 30.899,34.130 34.933,37.163 43.978 C 39.289 50.320,39.712 51.477,40.510 53.123 C 42.550 57.331,45.651 58.378,49.461 56.144 C 53.027 54.053,56.793 46.858,59.743 36.500 C 59.991 35.629,60.354 34.429,60.548 33.833 C 60.895 32.770,60.904 32.468,60.993 17.476 C 61.081 2.638,61.093 2.191,61.408 1.843 C 61.889 1.312,62.930 1.422,63.400 2.054 L 63.750 2.524 63.833 28.804 L 63.917 55.083 64.332 55.808 C 65.120 57.185,67.336 57.491,69.146 56.473 C 72.622 54.519,76.949 47.856,77.248 44.000 C 77.872 35.938,81.488 31.143,87.264 30.720 C 90.153 30.508,93.621 31.963,94.907 33.925 C 95.534 34.882,96.117 34.244,96.150 32.564 C 96.180 31.036,97.316 30.309,98.357 31.152 L 98.750 31.470 98.842 42.860 C 98.943 55.420,98.948 55.474,100.002 56.527 C 100.795 57.321,103.548 57.246,104.836 56.396 C 107.460 54.662,107.815 54.197,116.721 40.833 C 124.752 28.784,124.131 29.329,126.452 32.284 C 126.891 32.844,128.188 34.363,129.333 35.661 C 133.417 40.286,134.852 43.038,135.203 46.917 C 135.455 49.709,135.673 49.795,138.262 48.124 C 140.952 46.387,144.667 41.572,144.667 39.822 C 144.667 39.283,145.654 36.829,146.362 35.610 C 149.534 30.143,156.417 28.996,160.905 33.188 C 162.508 34.685,162.717 34.668,162.844 33.038 C 162.981 31.275,163.581 30.608,164.762 30.905 C 165.586 31.112,165.577 30.996,165.673 43.167 C 165.785 57.452,165.680 57.002,168.888 56.998 L 170.417 56.997 171.500 56.181 C 172.096 55.732,172.996 54.855,173.500 54.233 C 175.299 52.011,175.570 51.767,176.233 51.767 C 177.615 51.767,177.812 52.987,176.696 54.627 C 172.400 60.935,166.144 61.940,163.653 56.721 C 163.022 55.399,163.074 55.390,161.487 57.067 C 155.301 63.602,146.445 59.716,144.449 49.593 C 143.928 46.948,143.856 46.910,142.294 48.439 C 140.317 50.372,138.847 51.335,136.437 52.272 C 134.624 52.977,134.373 53.191,133.362 54.894 C 130.204 60.210,122.894 61.832,118.445 58.203 C 115.795 56.041,114.561 53.539,115.679 52.598 C 116.546 51.869,117.114 52.178,118.340 54.046 C 119.922 56.455,121.648 57.500,124.048 57.500 C 130.857 57.500,134.703 49.589,131.156 42.881 C 129.881 40.470,125.679 35.185,124.820 34.912 C 124.148 34.699,123.726 35.255,117.629 44.388 C 114.184 49.550,110.823 54.431,110.161 55.234 C 105.371 61.045,99.377 61.706,96.851 56.701 C 96.209 55.430,96.112 55.427,95.133 56.637 C 91.490 61.145,84.622 61.326,81.007 57.008 C 79.708 55.457,79.205 54.598,78.417 52.583 C 77.639 50.598,77.746 50.577,76.145 53.031 C 71.885 59.562,66.002 61.915,62.801 58.369 C 61.346 56.757,61.146 55.739,61.018 49.333 C 60.897 43.240,60.778 42.817,59.822 45.082 C 59.553 45.719,59.333 46.301,59.333 46.375 C 59.333 47.093,56.064 53.094,54.680 54.917 C 49.224 62.102,41.127 61.626,37.679 53.917 C 36.918 52.215,36.262 50.372,35.245 47.083 C 31.528 35.060,28.187 30.832,22.046 30.384 C 19.969 30.233,20.167 29.181,20.162 40.395 C 20.157 50.807,20.032 53.644,19.505 55.300 C 17.706 60.954,11.938 61.619,7.475 56.687 C 5.568 54.580,4.961 53.023,5.742 52.242 C 6.634 51.351,7.527 51.746,8.782 53.588 C 11.700 57.869,15.143 58.497,16.616 55.019 L 17.083 53.917 17.128 30.245 C 17.179 3.374,17.322 5.815,15.724 6.154 C 14.545 6.405,14.106 6.311,11.488 5.245 C 7.555 3.644,5.987 3.717,3.990 5.593 C 2.664 6.838,1.987 7.002,1.242 6.258 C 0.568 5.583,0.732 5.003,1.986 3.630 C 3.887 1.551,6.096 0.802,8.700 1.354 M208.083 1.848 C 208.401 2.160,208.420 2.454,208.500 8.246 C 208.551 11.959,208.648 14.381,208.750 14.480 C 208.843 14.572,210.370 14.667,212.223 14.697 C 215.981 14.757,216.244 14.854,216.133 16.137 C 216.036 17.270,215.605 17.408,211.986 17.474 C 209.085 17.527,208.814 17.557,208.659 17.848 C 208.546 18.060,208.505 24.272,208.536 36.458 L 208.583 54.750 208.973 55.541 C 209.603 56.821,209.948 57.000,211.778 57.000 C 215.989 57.000,217.738 54.227,220.768 42.750 C 221.461 40.123,222.629 36.563,223.108 35.616 C 227.093 27.737,234.155 29.333,234.165 38.115 C 234.168 40.085,234.529 39.824,237.635 35.604 C 239.013 33.732,240.252 31.987,240.387 31.725 C 240.714 31.097,241.545 30.500,242.093 30.500 C 242.594 30.500,242.972 30.855,244.877 33.122 C 247.353 36.070,248.891 36.206,251.539 33.716 C 253.413 31.954,254.149 31.417,255.496 30.831 L 256.742 30.288 257.829 30.635 C 258.427 30.826,260.112 31.365,261.573 31.833 C 265.738 33.169,266.836 33.144,269.102 31.665 C 270.616 30.676,271.120 30.615,271.735 31.346 C 272.509 32.265,272.938 31.613,263.083 44.500 C 258.192 50.896,256.827 52.761,256.870 52.988 C 256.910 53.198,257.267 53.271,258.668 53.357 C 260.630 53.477,261.205 53.682,263.750 55.171 C 267.126 57.145,266.709 56.994,268.769 56.997 C 270.946 57.001,271.675 56.739,274.295 55.017 C 276.241 53.738,276.330 53.562,275.938 51.775 C 275.774 51.028,275.564 50.044,275.472 49.588 C 274.607 45.310,275.919 38.555,278.294 35.057 C 282.529 28.822,291.621 29.511,293.086 36.178 C 293.152 36.477,293.346 36.953,293.519 37.236 C 294.635 39.067,292.616 43.117,288.541 47.221 C 286.713 49.060,285.786 49.870,282.167 52.788 C 280.378 54.230,280.260 54.644,281.377 55.560 C 284.206 57.878,288.766 57.631,292.195 54.976 C 294.386 53.279,296.006 51.416,298.259 48.000 L 299.742 45.750 299.851 43.667 C 300.474 31.658,311.682 25.944,317.890 34.470 C 319.936 37.281,317.648 38.345,315.233 35.705 C 310.295 30.307,303.480 34.330,302.671 43.119 C 301.884 51.673,305.145 57.001,311.167 56.999 L 313.417 56.998 315.003 56.283 C 316.689 55.523,318.120 54.555,319.289 53.387 C 319.865 52.811,322.833 48.529,322.833 48.274 C 322.833 48.237,323.160 47.617,323.558 46.895 C 325.318 43.710,326.686 39.362,327.510 34.333 C 328.032 31.150,328.210 30.833,329.471 30.833 C 330.999 30.833,330.998 30.824,330.999 43.676 L 331.000 54.768 331.434 55.639 C 333.109 59.000,338.190 56.499,341.871 50.500 C 343.475 47.887,344.278 45.817,344.427 43.913 C 345.052 35.901,348.660 31.143,354.431 30.720 C 357.319 30.508,360.788 31.963,362.073 33.925 C 362.710 34.897,363.268 34.247,363.314 32.481 C 363.351 31.035,364.514 30.335,365.523 31.152 L 365.917 31.470 366.003 42.943 L 366.090 54.417 366.472 55.371 C 367.043 56.797,367.390 57.000,369.256 57.000 L 370.800 57.000 371.835 56.223 C 372.403 55.795,373.330 54.883,373.893 54.195 C 375.837 51.822,375.898 51.767,376.584 51.767 C 377.924 51.767,378.184 52.912,377.190 54.432 C 372.993 60.857,366.682 61.994,364.065 56.796 C 363.373 55.423,363.287 55.416,362.300 56.637 C 358.657 61.145,351.788 61.326,348.174 57.008 C 346.875 55.457,346.372 54.598,345.583 52.583 C 344.805 50.596,344.914 50.574,343.299 53.049 C 339.051 59.560,333.164 61.910,329.968 58.369 C 328.540 56.787,328.335 55.807,328.194 49.917 C 328.050 43.848,328.056 43.857,326.418 47.241 C 323.723 52.806,319.936 57.225,316.500 58.815 C 309.549 62.030,302.221 58.593,300.436 51.281 C 300.225 50.418,299.705 50.760,298.220 52.734 C 296.122 55.524,294.474 57.070,292.167 58.410 C 288.034 60.812,282.504 60.435,279.315 57.534 C 277.661 56.030,277.677 56.030,275.569 57.433 C 272.415 59.531,270.907 60.063,268.357 59.974 C 266.538 59.911,266.722 59.984,261.548 57.250 L 259.679 56.262 258.190 56.262 C 256.325 56.262,254.708 56.992,252.511 58.826 C 250.963 60.119,250.312 60.312,249.667 59.667 C 248.811 58.811,248.750 58.916,254.829 50.917 C 255.805 49.633,258.022 46.708,259.757 44.417 C 261.491 42.125,263.531 39.432,264.289 38.432 C 266.034 36.128,266.026 35.667,264.242 35.667 C 263.627 35.667,261.464 34.993,259.126 34.073 C 256.694 33.116,256.002 33.274,253.788 35.290 C 249.530 39.165,247.525 39.275,243.786 35.840 C 241.959 34.161,242.282 33.999,239.209 38.137 C 233.285 46.114,234.016 44.117,234.007 52.353 C 233.999 59.760,233.987 59.833,232.810 59.833 C 231.294 59.833,231.333 60.169,231.333 47.231 C 231.333 34.589,231.331 34.567,230.108 33.821 C 227.763 32.391,226.015 34.824,223.753 42.667 C 221.564 50.258,220.423 53.300,218.940 55.500 C 214.793 61.652,207.598 61.559,206.061 55.333 C 205.774 54.167,205.747 52.866,205.668 35.952 C 205.594 20.079,205.552 17.801,205.333 17.663 C 205.196 17.576,204.018 17.504,202.717 17.503 C 198.579 17.498,197.242 16.761,198.569 15.218 L 198.971 14.750 202.158 14.667 C 204.746 14.599,205.376 14.536,205.504 14.333 C 205.595 14.189,205.664 11.650,205.667 8.333 C 205.670 4.060,205.725 2.477,205.881 2.170 C 206.313 1.315,207.381 1.159,208.083 1.848 M330.629 16.871 C 332.096 17.753,331.968 20.112,330.418 20.760 C 329.342 21.210,327.899 20.913,327.495 20.158 C 326.209 17.754,328.354 15.503,330.629 16.871 M86.721 33.501 C 83.039 34.265,80.578 37.883,80.157 43.148 C 79.458 51.908,82.336 57.250,87.754 57.250 C 93.317 57.250,96.580 51.455,95.696 43.144 C 95.022 36.803,91.102 32.591,86.721 33.501 M153.542 33.502 C 148.221 34.610,145.325 42.680,147.397 50.626 C 149.814 59.896,159.754 59.642,162.090 50.250 C 164.338 41.218,159.740 32.210,153.542 33.502 M353.888 33.501 C 350.091 34.289,347.562 38.198,347.257 43.750 C 346.791 52.221,349.646 57.250,354.920 57.250 C 360.039 57.250,362.890 53.079,362.896 45.583 C 362.902 37.638,359.023 32.434,353.888 33.501 M283.833 33.866 C 280.034 35.311,277.475 42.048,278.186 48.731 C 278.515 51.826,278.829 51.956,281.367 50.045 C 286.070 46.504,289.439 42.913,290.496 40.313 L 290.877 39.377 290.494 37.813 C 289.564 34.011,287.174 32.595,283.833 33.866 " stroke="none" fill="#ffffff" fill-rule="evenodd"></path></g></svg>