<svg xmlns="http://www.w3.org/2000/svg" xmlns:xlink="http://www.w3.org/1999/xlink" version="1.1" width="544" height="100" style="display: block;"><rect id="backgroundrect" width="100%" height="100%" x="0" y="0" fill="none" stroke="none" class="" style=""/><g class="currentLayer" style=""><title>Layer 1</title><path id="path0" d="M5.067607134677548,0.16017082855202575 C3.214422617142622,0.6297560456649464 5.747915401835887e-13,3.518543675939987 5.747915401835887e-13,4.7162654945881375 C5.747915401835887e-13,6.5247276104932865 1.6980536868821154,6.63094331436406 3.5260818535003144,4.938479927686234 C5.862827338657488,2.7750337488445225 7.674084604664488,2.713540446603533 12.274901672330412,4.646386742041569 C14.3265418470976,5.507292973415271 14.758392537835357,5.606520802031395 16.537505577670938,5.617701402438844 L18.517869424840622,5.628882002846301 L18.58355545223441,31.601416749354055 C18.653434204780964,58.851335092413024 18.604519077998376,60.44876337562755 17.64578259305949,62.20272006454637 C15.930958005566751,65.33887847883625 11.661366224971562,63.99441127984031 8.718073167710173,59.39359421217439 C6.968309203944143,56.65993741255272 4.114460949942378,57.49149456785685 5.489674800058827,60.33276464640025 C9.407077667819319,68.42612176634354 18.236956839603426,69.39324370158802 21.1746595966611,62.051781959045755 L21.75465324279758,60.60109905617905 L21.844098046057177,47.20813734310417 C21.94612102477518,31.81524573214654 21.711328416218706,33.11918325466547 24.335974361867738,33.30226558633747 C29.023441082691413,33.63069572330633 33.095974781105284,36.96950251998126 35.768138278485985,42.67719902798481 C36.63323723501248,44.52619082036695 36.89458376953664,45.22497834583261 38.07693226262454,48.83770985249008 C38.43331390061203,49.92642081716561 38.85957429114607,51.184238363003786 39.024488147155964,51.63285995435274 C39.18940200316588,52.081481545701706 39.55277151640801,53.23448096272004 39.83088895154333,54.194615022709854 C41.875541251055886,61.228610254047226 44.28216548875961,64.88885931243634 47.95499272260715,66.54638332284091 C52.25812630442471,68.4876150685845 58.88402962089012,64.73512605683392 62.35979877255632,58.38734017550384 C63.12846505056855,56.98417482436878 63.13964565097598,56.81227309310424 62.5107368780569,56.064570440855974 C61.70992637387325,55.11282183117174 61.12574000258395,55.17711028351458 60.05939023872335,56.33010970053293 C58.90639082170503,57.57954179606553 58.81415086834353,57.44257944107426 58.81415086834353,54.46574458259053 C58.81415086834353,51.353344944166466 58.59333401029639,51.24153894009196 55.89741173704988,52.996893204061706 C53.401342696086495,54.62087541324392 52.859083576325155,55.551660397164184 54.55434211310485,55.302892038098406 C56.073506193467225,55.07928002994939 54.51101728652598,57.825515005029445 52.51667768884699,58.88347931858446 C49.98986199676314,60.2237537924276 48.57551604522064,58.1846917931188 45.87120832166854,49.303102344450224 C45.081578417892345,46.711998200023544 44.46245267032975,44.794525230145766 44.1424079836665,43.94619717423045 C43.97330140250379,43.497575582881495 43.604341589057924,42.397684017798554 43.32342900382073,41.50044083510063 C42.0516357074732,37.45166591255257 40.06428398504888,34.108666390724856 37.32224173512163,31.411346542427385 L35.3544560634103,29.475705096887506 L36.29642164773801,28.670701867551074 C38.58425200611259,26.71269922119627 41.05236954605734,22.972788384904042 43.66583489129892,17.508269935762563 C47.72579041425442,9.018001501354775 48.329542836256735,8.0746383419761 49.70755183647503,8.0746383419761 C50.76272099992816,8.0746383419761 51.47688185095409,8.883834296465352 51.47688185095409,10.075965814909775 C51.47688185095409,11.933343057597508 52.991853206163654,12.732755986730218 54.02326359375096,11.42183058895664 C54.70388264355452,10.555334057379216 54.69549719324893,10.538563156768046 52.76824119801461,8.630873212246787 C51.08975356184611,6.967758901638487 50.99471845838277,6.910458324550311 49.901814768554495,6.910458324550311 C47.54829838278612,6.910458324550311 47.05355681475644,7.574306473742694 42.85104863660594,16.344089918336785 C39.45354368779188,23.438180876864166 37.373952012006065,26.431786635959075 34.32723840097578,28.61899159066661 C33.11134810666554,29.49247599749869 33.047059654322695,30.13955324607988 34.12459001859075,30.639885114313298 C38.12025708920341,32.500057507102895 41.05935742131198,37.626362793919 44.22067218651864,48.25492105625172 C46.424648041837344,55.66486397628961 47.38478210182715,57.941513734256745 48.95425888402304,59.474653565128406 C50.82840702732196,61.30407930679753 53.84856671238453,60.471124576442435 55.8443038851145,57.572553920810876 C56.716390716895624,56.306350924667086 57.14265110742967,56.11348556763858 57.25864983665697,56.932464547484344 C57.32573343910168,57.40344733964818 58.23275964715613,58.18189664301691 58.23275964715613,57.766816852890344 C58.23275964715613,57.67317932447793 58.34875837638341,57.71231142590402 58.491311031578384,57.854864081098995 C58.68138123850506,58.04493428802566 58.520660107647934,58.46001407815227 57.88616103452512,59.41595541298929 C55.02672248031964,63.723281719959644 50.04856014890226,65.26620457618783 47.43649237871161,62.6555343810481 C46.05848337849332,61.276127805778884 42.85943408691152,54.857065596851314 42.85943408691152,53.4692735712765 C42.85943408691152,53.14922888461324 40.44023167374939,45.908392545738025 39.755419898793036,44.17959220773598 C37.23279693186203,37.803854825387276 33.86743620921939,33.66144237442683 29.442713597970823,31.478430144872096 C28.217040278304044,30.874677722869766 27.301628619944008,30.30865982724258 27.407844323814803,30.219215023982976 C27.515457602736493,30.131167795774296 28.365183233702737,29.55117414963779 29.298763367724863,28.932048402075218 C31.260958739232457,27.630906029658156 33.88280953477961,24.926598306106044 34.988291400066295,23.06083561311272 C35.41035906544758,22.349469912188678 35.93584728459775,21.491358830916834 36.1566641426449,21.151748093540537 C36.715694163017446,20.29643216237055 37.10701517727819,19.5668979857844 39.33474980846273,15.240005628101008 C42.51563062438244,9.064121478035501 43.5763900880393,7.378645966612303 45.54697090985247,5.375920918627742 C48.94587343371745,1.9225129677764135 51.9897918946459,2.484338138250808 54.79891774701783,7.08375763086581 C56.05813286790695,9.14238568088764 56.646511964349045,9.62874179861176 57.58987512372771,9.39255161500435 C60.969211596879646,8.54422355908904 55.65842640334061,0.8603559290686142 51.18758381541129,0.1308217524824483 C46.048700353136816,-0.706325703025405 42.47510094790543,2.3962909100421332 37.87009115508669,11.695755298939183 C32.541137485885535,22.45568561605945 26.306555183680885,29.647606828152053 22.66726975105575,29.229731887923577 L22.01180705216894,29.155660410224232 L21.89580832294164,15.100248123007885 L21.778412018663417,1.0462334108424691 L21.229165023647408,0.6004069695953833 C20.44652299512587,-0.032694528476500936 19.983925653267587,0.04137694922285991 18.731698407633132,0.9973182840598712 C17.377448183280674,2.0315238217490723 16.502566201397645,2.3026533816297308 15.139930526739603,2.111185599652154 C14.154640115833043,1.972825669609939 13.599802820613291,1.7855506127851413 10.712412765389157,0.614382720104697 C9.369343141444185,0.06932845024147999 6.3757373823492856,-0.17105445851871587 5.067607134677548,0.16017082855202575 M69.50560000796816,0.3334701348675034 C68.7257531295485,0.8547656288648925 68.71457252914107,1.2936041948573287 68.71457252914107,29.546981424484997 C68.71457252914107,58.88208174353353 68.79842703219693,61.835157826151416 69.67750173923274,63.59330724022301 C71.97651269801476,68.18573885758335 77.57659592709656,68.29195456145416 81.74975502917752,63.82250954857575 C84.88032314326367,60.469727001391504 85.63361609571568,58.981309572149655 84.6804699109805,58.028163387414494 C83.71614312583786,57.06383660227188 82.68892546340336,57.39226673924074 81.59881692367694,59.013453798321066 C78.0322053937002,64.31585354155452 73.8758171922304,65.53873171111942 72.32450888569666,61.741520297739015 C71.86889941909304,60.626255407095826 71.85632124363467,59.924672731528304 71.74172008945825,30.708366291808936 C71.62851651033284,1.457120475816271 71.61593833487447,0.8100432272350874 71.17290704372923,0.4858058154190174 C70.68515335095422,0.12942417743153434 69.91788464799288,0.05954542488495897 69.50560000796816,0.3334701348675034 M74.59417076840919,0.44667371399294076 C74.09942920037948,1.0657994615555113 74.08265829976826,1.708683984983931 74.53687019132097,2.601734442529038 C74.96033543175315,3.431894022782241 75.00366025833209,3.9741531425436083 75.00366025833209,8.576367785260468 C75.00366025833209,13.747395473706364 74.87508335364635,14.483917525547165 74.15672977746762,13.458097438163591 C73.79196268917455,12.936801944166204 72.80806985331894,12.79285171392028 72.54392816869289,13.221907254556196 C72.45727851553514,13.361664759649326 72.58166269506802,13.754383348961014 72.82064802877731,14.095391661388268 C73.06103093753751,14.435002398764567 73.57114583112742,15.315474680851311 73.95547897013351,16.051996732692125 C75.47184790039397,18.95755526357836 75.72341140956163,18.92820618750878 77.43124812179971,15.643904817820195 C78.75754684513355,13.093330349870502 78.59822328932742,12.203075042427258 77.0357343823862,13.43294108724683 C76.71009939551915,13.688697321567252 76.38166925855032,13.898333579206957 76.3062002058,13.898333579206957 C75.96938461852551,13.898333579206957 76.17902087616527,3.0727172346929006 76.52422191374532,2.61431261798743 C77.5626201765873,1.2432914930237882 75.66331568237165,-0.8894080346974031 74.59417076840919,0.44667371399294076 M6.871876525429883,6.217261099288366 C6.487543386423794,6.309501052649853 5.858634613504695,6.554076686562828 5.474301474498578,6.762315369151589 C5.089968335492461,6.970554051740351 4.649732194449089,7.141058207954 4.497396513897574,7.1424557830049284 C3.6448757328294867,7.146648508157707 3.221410492397257,8.920171247789558 3.9201980178629094,9.553272745861456 C4.820236350662724,10.368059000554418 6.138149623690939,9.769896878755818 6.388315557807664,8.432417555014545 C6.716745694776497,6.686846316401307 9.05069602983183,7.082360055814881 13.7423554758083,9.679054500445286 C14.03584623650387,9.841173206353307 14.101532263897631,10.773355765324498 14.1490498156293,15.43706371028234 C14.209145542819348,21.273337122971547 14.079171063082747,22.209712407095534 13.35522718670031,21.176904444457296 C12.79060686612408,20.371901215120847 12.017747862959052,20.471129043736983 12.188252019172658,21.32644497490694 C12.467767029358932,22.721224875736404 14.297192771028023,25.661722782895918 14.885571867470116,25.661722782895918 C15.707345997417734,25.661722782895918 17.96442970467182,21.280324998226217 17.42217058491047,20.738065878464845 C17.09653559804348,20.412430891597868 17.0126810949876,20.42920179220904 16.565457078689565,20.9099676097294 C15.60532301869976,21.9399804222658 15.496312164727094,21.36417950128208 15.420843111976826,14.917165791335893 L15.350964359430272,8.970483949623098 L14.255265519500067,8.500898732510164 C13.652910672548703,8.242347348087861 12.74169173934146,7.8398457334196525 12.228781695649664,7.606450699914128 C9.014359078507617,6.145984771690876 8.132489221369951,5.916782463338151 6.871876525429883,6.217261099288366 M285.0396243625972,17.805953421610926 C283.600122060138,18.697606304105115 283.6700008126846,21.425672803523067 285.15282794172265,22.19154393143344 C286.74187077463154,23.013318061381046 288.7921133743478,22.17058030566946 289.2057955894235,20.5256344707233 C289.7522474343377,18.34681496632135 287.0339639602762,16.571894651638573 285.0396243625972,17.805953421610926 M340.4646557324317,27.33042739370793 C340.14740619587036,27.647676930269323 340.32629580238967,28.040395519581033 340.90768702357707,28.30453720420705 C341.7993399060712,28.711231544028077 341.5966915236861,29.534403249026607 340.54291993528386,29.794352208499838 C338.4759064349564,30.30446710208978 335.1343044881795,32.40502240363956 333.78983728918377,34.04018521322922 C332.949894683574,35.06041500040908 332.1211326783717,35.862623079643654 331.4782481549434,36.27770286977028 C330.34201963853616,37.00863462140735 330.92900115992734,38.82128946246529 332.3014198599418,38.82128946246529 C333.113410964533,38.82128946246529 333.55504468062725,38.20775401510642 333.55504468062725,37.078513373953925 C333.55504468062725,35.61525229562882 336.07207734735454,33.09542447879964 338.829492922842,31.7956796814335 C341.2514904861061,30.65525843987355 342.27311784833694,30.58817483742885 341.32975468895825,31.632163400474532 C340.10967166949524,32.98082332462326 341.51283702063023,33.017160275947475 343.48481541749436,31.688066402511794 C346.7146113601967,29.51204204821173 346.80964646365993,29.075998632321152 344.24649382025194,28.150803948604597 C341.4303800926253,27.136164461628464 340.79727859455335,26.997804531586265 340.4646557324317,27.33042739370793 M249.7005416247477,28.923662951769632 C247.74114140334194,29.218551287516146 246.62308136259696,29.579125650656408 245.04102640494267,30.426056131520802 C244.59240481359376,30.666439040280995 243.80696763497028,30.936171025110745 243.29405759127857,31.02701340342127 C241.62116025531373,31.323299314218712 240.97548058178344,32.26386732349549 241.69103900786033,33.356771013323794 C242.35907988220546,34.377000800503666 244.57563391298257,33.54963637035233 244.57563391298257,32.27924064905574 C244.57563391298257,31.971774137850854 246.82013944477822,31.015832803013826 248.9402607970411,30.42046583131708 C254.56270522693777,28.842603598815607 260.2536308343302,31.70064457797018 261.6232543842429,36.787817763360195 C261.9432990709061,37.97575655665182 261.84407124229,38.914926990877674 261.49467747955714,38.00510563272138 C261.3283660484963,37.57045979188173 260.21030600775134,37.54530344096497 260.04678972679227,37.971563831499026 C259.93498372271785,38.263657017143686 261.4234011519597,41.282419127155336 262.3150540344539,42.57238089916497 C262.9481555325258,43.4891901325759 264.80413520016253,41.17061312308084 265.6440778057723,38.41319754759333 C265.84253346300454,37.763325148910255 265.14793866269173,37.38877503526068 264.74823219812527,37.93103415502202 C264.6070771179813,38.12250193699961 264.2576833552484,38.403414522236815 263.97257804485844,38.55575020278832 C263.40795772428214,38.85622883873857 263.4289213500461,38.893963365113706 263.1046839382301,36.96810494493036 C262.64488174647363,34.235845720359606 260.0258261010284,30.973905551485878 257.31872322737433,29.75941283222656 C256.12798928398087,29.225539162770787 252.53202867793468,28.466655910115087 251.8178678269086,28.598027964902634 C251.74239877415835,28.612003715411937 250.78925258942323,28.75874909575974 249.7005416247477,28.923662951769632 M477.70373058378607,29.60707715167504 C475.5822116564723,30.363165254228896 473.91630219576217,31.481225294973953 472.28393453627433,33.247760159351145 C471.52644885866965,34.06673913919691 470.51879724694817,34.91087446995944 470.0450193046824,35.123305877701 C468.627878203038,35.75780495082381 468.5845533764591,37.455858637705376 469.9779357022377,37.80525240043822 C470.93247946202376,38.04423773414746 471.3265956263864,37.69624154646556 471.92615532323595,36.07784963748709 C472.9953002371983,33.197447457517626 477.6212736557811,30.21781744893203 481.04253738046094,30.206636848524592 C482.27519857538243,30.20244412337179 484.79782154231344,30.807594120425055 486.82151021606205,31.5944288740994 C487.78304185110284,31.967581412698053 488.857777065269,32.34213152634766 489.21136355315457,32.42878117950539 C490.15891943768594,32.65798348785815 490.1687024630425,32.877402770854346 489.26586898014085,33.566407270963495 C488.8186449638428,33.90741558339073 488.45248030049885,34.39097655101297 488.45248030049885,34.64114248512968 C488.45248030049885,35.18759433004384 487.99267810874244,35.20855795580782 486.7055114868348,34.723599413134636 C480.5352176369729,32.39663695333398 477.15308601371913,33.314843761795856 473.46907817946413,38.32095759423187 C472.22383880908427,40.01202340585877 472.1204182553154,40.67866670515302 472.99390266214755,41.367671205262155 C474.14550450411474,42.27329983826566 474.32159896053224,42.17267443459859 477.0035454832695,39.07984084688758 C478.59678104133116,37.24063207986195 479.7330095577384,36.64107238301243 481.58060377506956,36.66483115887823 C482.8929267478941,36.68020448443849 483.3890658909746,36.83114258993908 486.04166333764243,38.02606925848535 C486.4455625273615,38.20775401510642 486.89697926881234,38.35589697050514 487.0437246491601,38.35589697050514 C487.1904700295078,38.35589697050514 487.6293085955003,38.520810826515046 488.01783445965935,38.72206163384915 C488.40775789886914,38.92331244118327 489.3623016586552,39.15810504973972 490.1421485370748,39.24615227794841 C491.9771645789476,39.45019823538438 491.9883451793551,39.57597998996819 490.3573750949182,41.75899221952292 C488.6285747569162,44.071978928814275 481.43385839472177,53.764161907022995 478.35779570762173,57.921947683543706 C477.07901453601977,59.650748021545766 475.3627923734761,61.95115655537873 474.5438133936303,63.032879644799564 C471.77242206763356,66.69452627823965 473.3908139766121,68.75175675321054 476.7016692722682,65.77492189472683 C479.0328244572218,63.67855931832983 480.7867811461406,62.92806151597972 483.32757258873374,62.93924211638716 C485.7481725769467,62.950422716794634 485.215696482542,62.75336463461329 489.85005535143017,65.35704695449836 C494.58783477408736,68.02082500157346 497.445875753242,67.90901899749893 500.5317214656982,64.93917201426989 C503.72797560717834,61.86450690222097 501.77975598617996,59.39778693732718 498.5094303670008,62.3788145209637 C496.0189516262411,64.6498739787271 494.3362712649198,64.62052490265755 490.56980650265973,62.24464731607431 C487.5720080184122,60.35372827216422 485.9368452088225,59.72901222439792 483.5609676222393,59.56968866859175 C480.7881787211915,59.382413611766964 479.5653005516267,61.46340286260369 492.9359010638866,43.607984011905074 C499.0195452605906,35.48248266579033 499.2906748204712,35.00171684826998 498.27603533349514,34.082112464757145 C497.58423568328425,33.457396416990846 496.82395485557754,33.63069572330633 495.12310601859417,34.80326119103772 C493.5522316613474,35.886381855509484 493.4809553337499,35.91014063137533 491.7423719703911,35.91014063137533 C487.4574068642358,35.91014063137533 487.70617522330156,35.36788151161396 492.7080963305848,33.80539260467275 C495.05602241614935,33.071665702933814 495.00151698916306,32.71807921504819 492.21894506275885,30.61053603824374 C489.92412682912953,28.874747824987036 488.6746947335969,28.785303021727426 489.85424807658296,30.44282703213198 C490.49713260001135,31.344262939982674 490.23438849043623,31.397370791918075 488.33648157127146,30.74470324313314 C482.86218009677344,28.86636237468145 480.4960855355469,28.613401290462882 477.70373058378607,29.60707715167504 M137.54514378750886,31.000459477453578 C135.07283352241134,31.8893172098459 134.428551423932,32.76559676677984 136.24679656519362,32.76559676677984 C136.76809205919105,32.76559676677984 137.195750024776,32.867619745497834 137.195750024776,32.992003925030716 C137.195750024776,33.799802304469026 131.48525836667062,38.35589697050514 130.47341402979632,38.35589697050514 C129.5943393227605,38.35589697050514 129.04229717764267,38.893963365113706 129.04229717764267,39.75347202143648 C129.04229717764267,41.458513583572696 131.21692395689186,41.6681498412124 131.79132730282456,40.01901128111342 C131.93387995801956,39.612316941292406 132.71093168633737,38.80591613690504 133.73814934877194,37.99951533251766 C134.67871735804871,37.26159570562592 136.04973848301236,36.075054487385216 136.7848629598022,35.36229121141025 C138.1950161861919,33.99546281159941 138.49828997224398,33.97170403573358 138.63385475218433,35.211353105909666 C138.87004493579175,37.385979885158804 140.4674732190062,34.431506227489976 140.86717968357263,31.077326105254805 C141.001346888462,29.949483039153225 140.49961744517765,29.936904863694846 137.54514378750886,31.000459477453578 M446.05145083029345,30.98229100179147 C443.17244622537487,32.04724319060115 442.72102948392416,32.66217621301092 444.7069836312975,32.81171674346059 L445.6419613403705,32.88159549600715 L444.65806850451486,33.99686038665034 C443.0019420691612,35.875201255102056 439.8434224540565,38.197970989749905 438.74772361412636,38.3447163700977 C437.5164599942557,38.50963022610759 436.9322736229666,39.47116186114833 437.47173759262597,40.438283796392824 C438.0880681900867,41.54097051157764 439.82804912849633,41.282419127155336 440.1145520139371,40.046962782132056 C440.21377984255327,39.61511209139426 440.80914681425,38.98340816837333 441.92301412984233,38.12250193699961 C442.83702821315137,37.41812411133023 444.24857901459194,36.224595017834886 445.0605701191832,35.469904490331956 C446.65799840239765,33.9856797862429 446.73766018030057,33.970306460682636 446.88161041054667,35.10094467688609 C447.05490971686214,36.47615852700251 447.82078084477246,36.27351014461749 448.28896848683445,34.72918971333836 C449.81372286740054,29.700714680087447 449.7592174404143,29.609872301776903 446.05145083029345,30.98229100179147 M248.88435779500392,33.604141797338656 C248.37284532636298,33.79840472941808 247.6908287015085,34.04158278828014 247.37078401484519,34.145003342049066 C246.50149233316588,34.427313502337185 243.71193253150696,35.959055758157916 242.17040725032982,37.00024917110176 C240.45558266283697,38.15883888832383 240.05308104816876,38.108526186490295 239.97202169521475,36.723529311017344 C239.75959028747323,33.09682205385057 238.60239814530212,32.81590946861337 235.44387853019725,35.62084259583254 C233.1155184953457,37.687856096159976 229.96258918044458,40.16855181156306 228.2701257937668,41.26285307644231 C225.98229543539222,42.74428263042951 225.53646899414505,43.498973157932426 226.30373769710636,44.59327442281166 C227.0905724507807,45.71692476376046 229.64114691873039,44.48007084368621 234.32721606450312,40.699630330916975 C236.15664180617225,39.22379107713351 236.52001131941435,39.0630699462764 236.73943060241058,39.633280567056374 C236.812104505059,39.82335077398304 236.87639295740192,53.339299091539885 236.88338083265654,69.6685659866215 C236.89456143306404,101.00359620355273 236.86660993204538,100.00852276728965 237.7303113135209,100.22654447523493 C240.05308104816876,100.80933327147332 239.91751626822844,102.62198811253121 239.91751626822844,70.9627204837839 L239.91751626822844,43.030785515870434 L240.67360437078224,42.165686559343925 C243.60292167753434,38.81849431236341 249.90039485703085,35.82209340316666 252.68156920838425,36.4537973261876 C256.0539178062815,37.219668454097985 256.06649598174,37.26578843077871 256.2425904381573,50.46867993692695 L256.39073339355593,61.53188404009933 L257.0056664159658,63.034277219850495 C258.8798145592647,67.60993793659966 264.11373312500245,68.48901264363545 268.16809834775427,64.90702778809846 C271.6173135734528,61.86171175211912 273.30418665992687,58.48796557917089 271.7528783533931,57.734672626718904 C270.7298534161113,57.23713590858736 270.18200399614625,57.54040969463945 268.7998022707752,59.3670402862067 C265.95014674192623,63.13769777361942 265.0487108340755,63.821111973524836 262.96492643313695,63.791762897455285 C261.30600484768144,63.76800412158944 260.8503953810779,63.54439211344042 260.1446199803575,62.408163597033266 L259.5995657104943,61.53188404009933 L259.45701305529934,50.58467866615425 C259.2879064741366,37.72139789738232 259.2403889224049,37.42650956163581 256.92181191290985,35.16523312922892 C255.190216424806,33.475564892652955 251.24905478117967,32.70969376474258 248.88435779500392,33.604141797338656 M315.96796023970745,33.37633706403683 C310.9436779316094,34.67608186140298 308.08563695245476,38.24269339137972 306.00325012656714,45.8091647171219 C305.3477874276804,48.18783745380702 305.2862941254393,54.68376629053583 305.90402229795103,56.26302609808822 C306.12204400589627,56.82345369351168 306.3023311874664,57.484506692602196 306.3023311874664,57.73047990156611 C306.3023311874664,57.97785068558096 306.51895532036076,58.67244548589383 306.78309700498676,59.2734027577943 C309.31550299727434,65.02162894227483 312.211278502804,67.12358181887558 317.5989303241443,67.12218424382462 C322.6777180592287,67.12078666877369 326.69854148075814,64.64568125357431 331.17916709404415,58.7646854392553 C333.01138798581496,56.35945877660248 330.55864377143035,54.699139616096076 328.6174120256869,57.030294801049536 C323.1668693270547,63.57374118950999 318.2012851710957,65.69526011682375 313.73603288337017,63.386466132685186 C311.60752608080173,62.285176992551314 309.831208191068,59.38520876186881 310.96044883222055,58.85273266746397 C323.4212279863242,52.99549562901079 328.53914782283476,46.829394504301774 326.7306857069296,39.85829015025632 C325.65595049276345,35.71308254919401 320.0307109127648,32.32536062573649 315.96796023970745,33.37633706403683 M98.52904109065899,33.9060180083398 C95.00994711241393,34.715213962829054 90.43428639566476,38.81150643710876 90.36860036827096,41.21254037460878 C90.36440764311823,41.370466355364016 90.1575665355804,41.91971335038002 89.91019575156555,42.432623394071825 C89.66282496755068,42.944135862712685 89.45598386001284,43.62615248756718 89.45039355980914,43.94619717423045 C89.44340568455445,44.266241860893714 89.28408212874834,45.10478689145252 89.09540949687255,45.8091647171219 C88.11850453627157,49.447052574696144 88.97382046744156,56.82205611846075 90.78368015839762,60.36770402267352 C94.72064907687117,68.08231830381446 103.23747143724664,69.58191633346377 108.82777164097197,63.54299453838951 C110.40144114832069,61.84494085150796 110.43218779944112,61.83795297625328 110.97863964435528,63.104155972397066 C113.15047127350257,68.13682373080076 118.78968660401041,68.49879566899197 123.16409651342548,63.88540042586767 C126.34497732934524,60.531220303632495 127.19190781020959,58.51451950513858 125.75520065785213,57.713709000954935 C124.89569200152941,57.23294318343456 123.96490701760915,57.66898659932514 123.17108438868023,58.921213844959624 C119.81410911634318,64.22920388839677 115.19791872311697,65.56249048698527 113.80593397238935,61.62691914356266 C113.39364933236455,60.45994397603501 113.35451723093853,59.42294328824396 113.26087970252613,47.37305119911406 L113.16025429885904,34.37839837555458 L112.58165822777354,33.9996555367522 C111.29868433101853,33.158315356091535 110.18481701542625,34.290351147345916 110.17922671522255,36.44121915072924 C110.17363641501882,38.1574413132729 109.78650812591083,38.20775401510642 108.25336829503915,36.68719235969314 C105.57840964755664,34.031799762923626 102.19488044925193,33.06328025262823 98.52904109065899,33.9060180083398 M169.68936995892926,33.90042770813609 C157.53885246613237,36.89403346723098 156.08816956326567,60.675170533878415 167.70900611175966,66.37028886642359 C169.62228635648458,67.30806172559849 173.6528928033706,67.47437315665931 175.2978386383168,66.68334567783218 C175.79956808160105,66.44156519402107 176.66885976328044,66.02229267874165 177.22788978365287,65.751163118861 C178.28026379700418,65.24244580032199 180.19214646667825,63.530416362931106 180.8783558166855,62.48363264978356 C181.36051920925686,61.747110597942736 181.5058670145537,61.829567525947695 182.17390788889887,63.22294985172623 C185.17450152324847,69.48268850484762 193.0009218084639,67.86988689607288 197.2775014643137,60.11055021330216 C198.7757019189121,57.39226673924074 195.98055181704947,56.52297505756145 194.1832703015518,59.14901857826142 C192.7423704240415,61.250971454862125 190.00032817411426,63.73865504551988 189.0793262155506,63.777787146945954 C184.56236365094045,63.97205007902542 184.65739875440386,64.30886566629985 184.4938824734449,47.6246147082817 C184.3667031438101,34.76692423971349 184.35132981824987,34.406349876573216 183.8971179266972,34.06394398909504 C182.68681793259074,33.14853233073502 181.45415673766925,33.98987251139569 181.4485664374655,35.73544375000891 C181.44157856221085,38.2510788416853 181.19560535324692,38.35030667030142 179.3088790344897,36.60333785663725 C176.453633205437,33.95912586027519 173.1805124361558,33.03952147676239 169.68936995892926,33.90042770813609 M342.289888748948,33.91580103369631 C337.571675377004,35.325954260086036 332.8730280557728,40.561270400874776 334.4844320894966,42.6101154255401 C335.31039894459707,43.65969428878954 336.65346856854205,43.04196611627788 337.6219880788375,41.167817972978966 C338.57373668852165,39.328609205953356 342.25494937267473,36.72492688606829 343.9054855078247,36.72492688606829 C346.39456667353346,36.72492688606829 346.50357752750585,37.44048531214513 346.3959642485843,53.077952557015735 L346.3079170203756,65.58764683790203 L347.01788514624883,66.2962173887242 C347.8438520013492,67.12218424382462 348.2058239395404,67.17249694565814 348.96051446704325,66.56175664840116 L349.5097614620594,66.11593020715407 L349.6271577663375,57.98903128598842 L349.74315649556473,49.863529939873686 L354.1539033563042,43.85255964581805 C359.20613716542084,36.966707369879416 358.73375679820595,37.358028384140184 360.7630357721583,38.38384847152378 C364.188492221991,40.11404638457675 369.2253527055475,39.404078258703635 372.0135149321554,36.79620321366579 C374.4662591465399,34.49998740498562 372.3195838683095,32.642610162297885 369.6320470453686,34.736177588592994 C367.0087986747704,36.78082988810554 363.7790027320681,36.74728808688319 360.54082133906024,34.64393763523155 C358.247400680482,33.15272505588783 358.1272092261019,33.219808658332525 354.7408848776952,37.81783057589658 C351.2008272736861,42.622693600998474 350.2239223130852,43.839981470359675 349.96257577856096,43.77429544296591 C349.84098674912997,43.74494636689634 349.67607289312014,42.37392524193271 349.5922183900642,40.72897940698655 C349.3015227794705,34.93463324582527 346.7719119372848,32.57552655985319 342.289888748948,33.91580103369631 M516.308946215662,33.8473198562007 C508.72570398930867,35.47269964043383 504.6196284896724,45.07963054053576 506.86692917156995,55.94158383637402 C507.8074971808467,60.49488335230828 511.2063997047117,65.41574510663747 514.0378867578987,66.32696403984471 C514.5060743999607,66.47790214534528 515.0371529193145,66.71828505410545 515.2174401008849,66.8622352843514 C515.9847088038459,67.47437315665931 520.8091378796609,67.15572604504698 522.4596740148108,66.38286704188194 C524.2835094562762,65.53034626081384 526.0947667222832,64.13416878493344 526.8871917761613,62.97138634255859 C527.6712313797337,61.81978450059117 527.9283851891051,61.886868103035894 528.725002968136,63.45354973512991 C531.7535481035042,69.41141217725013 539.9083985256885,67.58338401063196 543.741946890393,60.08818901248728 C545.1409195163753,57.35173706276373 542.3289985139015,56.49781870664469 540.6183666515616,59.13783797785396 C537.3368604319747,64.20125238737815 532.9261135712356,65.45208205796168 531.4349009918917,61.741520297739015 C531.0044478762051,60.66818265862376 530.9695084999319,59.82404732786124 530.8535097707044,47.47926690298483 C530.7333183163242,34.83540541720913 530.7123546905602,34.34625414938317 530.2763112746696,34.027607037770835 C528.9821567775072,33.081448728290326 527.8179767600815,34.15758151750744 527.8179767600815,36.298666495534235 C527.8179767600815,38.165826763578494 527.4504145216866,38.25666914188902 525.9284552912223,36.766854137596226 C523.249303918587,34.142208191947205 519.8070765681431,33.09682205385057 516.308946215662,33.8473198562007 M141.68056836321463,34.92065749531595 C140.95941963693406,35.59289109481392 139.78685416920266,36.75846868729066 139.0740908932277,37.5103640646917 C138.3613276172527,38.263657017143686 136.51932370012526,39.82474834903398 134.9819911441008,40.98054291615418 C131.8206763788941,43.357818077788366 131.84583272981092,43.32986657676973 131.84164000465807,44.34031333859308 C131.83744727950528,45.11876264196184 132.50409057879955,45.8091647171219 133.25738353125155,45.8091647171219 C134.1560242890004,45.8091647171219 137.46548200960575,43.33405930192252 140.86997483367452,40.11404638457675 C143.78811154001906,37.35523323403832 143.4512959527446,37.33147445817248 146.2101091032831,40.48999407327727 C150.14568044670563,44.997173612530815 151.56561669845192,47.269630645345146 152.36922235273744,50.351283632648716 C154.0239512130401,56.70465981418252 150.27565492644231,63.01890389429025 144.29962400865995,63.94409857800679 C140.7483858042434,64.4933455730228 138.37809851786395,63.08598749673496 135.2153861776063,58.548061306360935 C133.4041289115993,55.94857171162869 130.92483077124714,56.932464547484344 132.27628584549774,59.7150364738886 C138.4186281943409,72.35750038461336 155.6800776483937,67.60015491124314 155.67868007334275,53.26383003878961 C155.67868007334275,47.150836766015985 154.01416818768362,44.17959220773598 145.21084294186718,34.57126373258312 C144.0466629244414,33.30086801128654 143.34088752372097,33.37074676383311 141.68056836321463,34.92065749531595 M284.7000136252209,34.90248901965384 C283.9620939983292,35.56633716884623 283.30663129944236,36.17567989105228 283.24234284709956,36.25813681905723 C282.92229816043624,36.666228733929174 278.7505366334063,39.8974222516824 277.31243190599787,40.84917086136663 C275.0232039725725,42.366937366678044 274.39010247450057,42.98746068929157 274.39010247450057,43.7211875910305 C274.39010247450057,46.16135362995661 277.309636755896,45.11037719165624 282.7755527800885,40.699630330916975 C283.7370844151293,39.92537375270102 284.62733972257246,39.32581405585148 284.7559166272582,39.3663437323285 C284.90405958265694,39.415258859111105 285.0368292124954,43.292132050394585 285.12068371555125,50.021455920628924 C285.2911878717649,63.579331489713724 285.55393198133993,64.73792120693578 288.8326430508249,66.35771069096518 C291.7535749072713,67.80140571857723 294.68988008927806,67.14594301969048 297.57447499440036,64.40669591986506 C301.0027265943348,61.15034605119507 302.20883386328865,58.56483220697211 300.6952600831299,57.71929930115866 C299.6806205961538,57.15188383048056 299.03913364777634,57.52084364392641 297.6653173727108,59.462075389670034 C296.1377678420429,61.621328843358924 293.8848768599416,63.728872020163365 293.043536679281,63.78617259725155 C290.6984057438182,63.94549615305772 289.8039577112221,63.60588541568141 289.0366890082608,62.26561094183826 L288.48324928809194,61.299886581644714 L288.3658529838137,47.94326181989403 L288.24985425458647,34.58663705814337 L287.7006072595705,34.142208191947205 C286.8117495271781,33.423854615768505 286.163274703546,33.588768471778394 284.7000136252209,34.90248901965384 M384.7663872719038,34.80326119103772 C384.08017792189656,35.41260391324377 383.4135346226023,36.02753693565356 383.2849577179167,36.17148716589949 C382.8279506762621,36.68719235969314 378.14607425564225,40.301321441401555 376.88406398465116,41.114710121043586 C374.33348951670155,42.75686080588788 373.71715891924066,43.79665664378079 374.74297900662435,44.72604405265014 C375.71289609197066,45.603721184635006 377.77431929209433,44.5779010972514 382.49532781414047,40.86454418692689 C383.5994121043762,39.99804765534945 384.61265401630124,39.288079529476335 384.7468212211908,39.288079529476335 C384.91313265225165,39.288079529476335 385.02354108127514,42.41864764356251 385.08782953361805,49.01240673385651 C385.170286461623,57.52643394413013 385.23317733891486,58.88208174353353 385.59095655195335,59.90231153071339 C388.61670653721956,68.52674717001061 398.52830879842463,69.65459023611218 404.22761985612254,62.02243288297622 L404.9040461807733,61.11540667492177 L405.5595088796602,61.906434153748904 C405.9214808178514,62.341079994588554 406.2219594538017,62.802279761395894 406.22894732905627,62.92945909103064 C406.3421509081816,64.85811266131587 410.935980100593,67.08305214239853 414.5654825078616,66.96705341317124 C424.73982887864156,66.64002085125331 430.54675321526133,52.14716757309547 425.1772698695832,40.4858013481245 C424.689516176808,39.42643945951855 424.8460445825124,39.348175256666394 427.65796558498624,39.23497167754094 C432.19309662525836,39.053286920919874 436.32572605086233,36.05548843667219 434.5256493852627,34.2540141960217 C433.8100909591858,33.53845576994486 433.4075893445177,33.62510542310261 431.57816360284863,34.885718119042664 C428.75925472512006,36.83114258993908 425.78940774189095,36.85629894085584 422.9718964392135,34.95978959674203 C419.524078788566,32.63981501219604 417.90289172948553,33.95493313512242 419.9838809803223,37.38318473505694 C420.5023813242178,38.238500666226926 421.0222792431643,39.095214172447825 421.1396755474425,39.288079529476335 C421.2556742766698,39.47954731145394 421.62323651506466,40.266382065128255 421.9572569522373,41.03504834314049 C422.2898798143589,41.80371462115272 422.65464690265213,42.605922700387296 422.7692480568283,42.81695653307794 C423.895693547879,44.92030698472959 424.27723153678335,52.37217715629542 423.40654228005315,55.2539769113158 C420.95100291556685,63.368297657023064 413.7758526040853,66.53520272243345 409.27985366523944,61.48995678857138 C407.3609831203105,59.33908878518807 407.31765829373177,58.97991199709871 407.45462064872294,46.35002626183231 C407.5901854286634,33.66843024968149 407.48117457469067,33.02554572625307 405.33310172140915,33.91580103369631 C404.379955536674,34.30991719805897 404.3645822111138,34.45806015345768 404.3645822111138,43.985329275656525 C404.3645822111138,54.39027552984025 404.09764537638586,56.07575104126343 401.917428296933,59.43552146370233 C398.2446010630855,65.09430284492328 391.85209278012564,65.44090145755422 389.0289911772444,60.13430898916799 L388.40986542968176,58.970128971742184 L388.3371915270335,46.85874358037135 C388.2673127744868,34.89550114439919 388.2603248992322,34.7403703137458 387.77257120645703,34.22186996985029 C386.99272432803747,33.391710389597066 386.18213079849716,33.54823879530139 384.7663872719038,34.80326119103772 M451.1246482651742,33.94934283491868 C450.8996386819742,34.08071488970623 449.5887132842006,35.29940033411833 448.21210185903317,36.65924085867452 C445.8963199996401,38.94567364199817 443.95648582894734,40.58363160168969 441.3010932321778,42.495514271363746 C440.0796126376638,43.374588978399544 439.7777364266626,44.15024313166643 440.32977857178065,44.992980887378025 C441.31786413278894,46.49956679228198 443.3345649312829,45.43601217852324 448.68448222624795,40.586426751791535 C452.19658832923847,37.40135321071905 451.74097886263485,37.501978614386104 453.6402833568505,39.497715787116036 C461.0907559533653,47.326931222433316 462.87685686845555,53.445514795410666 459.4276416427572,59.330703334882486 C455.7212726076873,65.65612801539766 448.28058303652887,65.64634499004116 444.09205060888763,59.3097397091185 C442.57568167862723,57.016319050540204 441.84474992699006,56.58866108495522 440.75324381221276,57.35313463781466 C439.139044628387,58.483772854018085 442.86078698901724,64.10342213381296 446.3141949398684,65.74836796875914 C448.82144458123923,66.94189706225448 449.0772008155597,67.00618551459732 451.31611604715164,67.00618551459732 C461.75600167760877,67.00618551459732 467.50003513693645,55.35739746508473 462.0397094129477,45.257122572004036 C460.87692697057287,43.10765214367164 460.2871502990799,42.31103436464079 457.3019299902906,38.85762641378949 C452.656390520995,33.48674549306041 452.3447312846371,33.23797713399463 451.1246482651742,33.94934283491868 M116.17342610866699,34.18134029337328 C115.67029909033175,34.47483105406887 115.64095001426216,35.725660724652386 116.12311340683348,36.362954947877085 C116.38026721620484,36.70256568525339 116.46412171926075,37.52154466509914 116.46412171926075,39.68219569383898 C116.46412171926075,42.494116696312815 116.29641271314898,43.0741103424493 115.76533419379504,42.083229631338995 C115.47603615825228,41.54097051157764 114.36775914286373,41.43475480770687 114.36775914286373,41.94906242644958 C114.36775914286373,42.67440387788295 116.63881860062715,46.625348546865794 117.09582564228167,46.69382972436145 C117.66603626306164,46.78047937751917 117.8127816434095,46.597397045847174 118.99932286165016,44.303976387268875 C120.28788705860886,41.81210007145832 120.1942495301964,41.159432522673384 118.66390484942663,41.95325515160236 C118.0391888016603,42.27749256341845 117.96791247406281,42.27329983826566 117.82256466876598,41.90434002481979 C117.51090543240831,41.11750527114543 117.61851871133003,37.508966489640756 117.97909307447031,36.645265108165205 C118.83580658069118,34.59222735834709 117.82955254402066,33.217013508230664 116.17342610866699,34.18134029337328 M187.17582899618205,34.29594144754965 C186.68947287845796,34.78229756527375 186.71323165432383,35.27284640815064 187.27505682479816,36.321027696349134 C188.17369758254702,37.996720182415785 187.8396771453744,43.44866045609889 186.91867518681073,42.140530208427165 C186.53853477295743,41.601066238767686 185.78104909535264,41.44034510791059 185.52948558618496,41.84703944773159 C185.45122138333278,41.974218777366346 185.93757750105698,43.127218194384696 186.6098111005549,44.40879451608872 C188.22540785943156,47.49603780359601 188.48954954405755,47.50442325390159 190.03386997533664,44.52060052016323 C191.36296384877232,41.95046000150053 191.32802447249915,40.94700111493184 189.93883487187333,41.86101519824092 C189.56288718317282,42.109783557306685 189.1757588940648,42.313829514742665 189.0807237906015,42.313829514742665 C188.73971547817422,42.316624664844525 188.88785843357292,37.29094478169547 189.25542067196787,36.41187007465969 C189.89970277044722,34.86894721843149 189.50418903103366,33.92977678420564 188.20723938376938,33.92977678420564 C187.8410747204254,33.92977678420564 187.3770798035162,34.09469064021553 187.17582899618205,34.29594144754965 M533.6877919739932,34.2092917943919 C533.3006636848851,34.59642008349988 533.3370006362094,35.84305702893063 533.749285276234,36.389508873844775 C534.0036439355036,36.72632446111922 534.0930887387632,37.539713140761265 534.0986790389668,39.56479938956075 C534.1070644892724,42.39349129264575 533.8988258066838,43.02100249051392 533.260134008408,42.108385982255754 C532.9107402456752,41.60945168907327 532.1420739676631,41.44733298316524 531.9100765092085,41.823280671865774 C531.7898850548282,42.017543603945214 532.5208168064654,43.545093134613154 533.7982004030167,45.765839890543035 C534.6898532855108,47.31435304697493 535.1314870016051,47.086548313673134 536.5192790271799,44.36267453940799 C537.844180175463,41.76318494467573 537.8008553488839,40.9861332163579 536.376726371985,41.851232172884394 C535.9798150575206,42.09301265669551 535.5675304174957,42.23836046199237 535.4627122886759,42.174072009649535 C535.1189088261468,41.96164060190796 535.2544736060871,37.134416375991165 535.6206382694311,36.49292942761369 C536.3879069723923,35.14985980366869 535.9448756812471,33.92977678420564 534.68845571046,33.92977678420564 C534.2915443959954,33.92977678420564 533.8415252295955,34.055558538789455 533.6877919739932,34.2092917943919 M409.6236571277684,36.300064070585165 C409.03667560637723,37.48940043892773 408.55730736390785,38.60047260441813 408.55730736390785,38.76678403547896 C408.55730736390785,39.356560706971976 409.30221486605416,39.377524332735945 409.75083645740324,38.800325836701305 C410.48176820904024,37.85556510227174 410.6466820650501,38.60885805472371 410.6466820650501,42.898015886031956 C410.6466820650501,47.18717371734019 410.48176820904024,47.94046666979217 409.75083645740324,46.99570593536262 C409.28684154049404,46.397543813563985 408.55730736390785,46.4464589403466 408.55730736390785,47.07536771326568 C408.55730736390785,47.494640228545094 410.60475481352216,51.574161802213624 410.90942617462525,51.762834434089356 C411.45028771933573,52.09685487126194 412.0386668157777,51.48611457400496 412.94150029867933,49.655291257284915 C414.21049844492495,47.083753163571274 414.21888389523053,45.739285964575345 412.9582711992905,46.88110478118624 C412.16864129551425,47.59526563221213 412.05124499123616,47.083753163571274 412.05124499123616,42.898015886031956 C412.05124499123616,38.611653204825586 412.1979903715838,38.03305713374 413.0183669264805,39.07984084688758 C413.5732042217003,39.787013822658835 414.27199174716606,39.16229777489252 413.9198028343313,38.2734400425002 C412.1141358685281,33.714550226362206 411.12046000731584,33.2589407597586 409.6236571277684,36.300064070585165 M321.40312961277937,37.57884524218734 C327.02697161772704,41.47388690913293 322.9558354943641,49.64411065687746 313.03305263275166,54.373504629229075 C310.1610359030878,55.74173060409085 309.39376720012643,55.98351108790196 309.03878313718997,55.62712944991446 C308.4573919160025,55.04573822872703 308.6628354484895,46.924429607765106 309.3071175469688,44.99437846242894 C311.77243993681157,37.6137846184606 316.9071306739333,34.466445603763276 321.40312961277937,37.57884524218734 M103.23747143724664,37.20569270358867 C111.26234737969436,40.277562665535726 112.46006919834245,57.77240715309405 104.98863297606364,62.799484611294034 C101.08241070871053,65.42972085714678 95.81914306690325,63.875617400511146 93.5900108606677,59.43552146370233 C91.44333558243723,55.15894180785247 91.37625197999256,46.11383607822495 93.46003638093107,41.965833327060764 C95.62488013482378,37.661302170192286 99.49756060095444,35.77457585143499 103.23747143724664,37.20569270358867 M174.763964968861,37.41812411133023 C184.11513963464247,41.83585884732413 182.88527358982287,62.38999512137117 173.17631971100295,63.939905852854 C166.79918475360333,64.95873806498292 163.16968234633464,60.02809328529722 163.16968234633464,50.351283632648716 C163.17107992138563,40.3041165915034 168.43714271329486,34.428711077388115 174.763964968861,37.41812411133023 M520.9782444608236,37.24342722996383 C528.8801337987894,40.2677796401792 529.8738096600016,58.25037782051257 522.3995782876208,62.96859119245673 C518.5185123711846,65.41854025673933 513.4285440356925,63.80014834776085 511.20919485481375,59.40896753773464 C509.4552381658949,55.9359935361703 508.89760572057327,48.33039010900201 510.11070086478173,44.41158966619058 C511.9848490080806,38.361487270708864 516.3592589174957,35.47689236558662 520.9782444608236,37.24342722996383 M99.03636083414713,40.25240631461895 C97.03643093626435,42.19643321046442 96.4298833641602,43.075507917500246 95.72550553849081,45.053076614568056 C95.16088521791457,46.633733997171376 94.91071928379779,46.82380420409804 94.56971097137058,45.92656102140013 C94.31395473705011,45.255724996953106 93.75911744183036,45.1578947433879 93.53271028357956,45.744876264779066 C93.31608615068518,46.31089416040625 94.77375692880652,50.669930744261066 95.26849849683629,50.93407242888708 C95.87504606894045,51.25830984070315 98.3529466342417,48.39467856134486 98.86725425298442,46.777684227417325 C99.07689051062411,46.11383607822495 98.43121083709387,45.84829681854798 97.86100021631384,46.36400201234164 C97.24187446875125,46.924429607765106 97.1314660397277,46.837779954607356 97.1314660397277,45.792393816510724 C97.1314660397277,43.828800869952204 99.31308069423152,41.24747975088205 100.74559512143611,41.51581416066087 C102.26475920179851,41.80091947105086 103.26682051331619,40.11404638457675 102.18230227379355,39.095214172447825 C101.338166943031,38.30139154351882 100.86299142571436,38.47608842488525 99.03636083414713,40.25240631461895 M169.84869351473552,40.62695642826854 C167.98572597184403,42.46197247014139 167.70760853670873,42.8504983343003 167.0661215883312,44.52060052016323 C166.27928683465692,46.575035845032275 166.052879676406,46.801443003283154 165.65736593699248,45.93215132160387 C165.08156501600877,44.66594832546008 164.4694271437008,45.532444857037504 164.86354330806344,47.05580166255265 C165.65876351204344,50.1276716244997 166.47215219168538,51.47772912369936 167.1751324423039,50.89354275241007 C167.74534306308385,50.42116238519529 170.03876372166218,47.030645311635894 170.03876372166218,46.66168549819001 C170.03876372166218,46.092872452460966 169.58175668000766,45.96150039767342 169.106581162691,46.39195351336028 C168.068182899849,47.33112394758612 167.8557514921074,45.84410409339519 168.77256072551833,44.06079832840682 C169.67259905831816,42.313829514742665 170.8507548262533,41.33971970424352 171.84023796231264,41.52559718601739 C173.3216675162998,41.80371462115272 174.4131736310772,39.94633737846499 173.33983599196193,38.97362514301679 C172.544615787982,38.25527156683809 171.99257364286413,38.51522052631131 169.84869351473552,40.62695642826854 M516.6080272765614,40.28594811584131 C514.5200501504698,42.26072166280727 514.1035727852924,42.851895909351214 513.37962890891,44.878379733201655 C512.6822389584952,46.827996929250844 512.5103372272307,46.9998986605154 512.1874973904655,46.07470397679887 C511.89121147966813,45.22497834583261 511.20919485481375,45.14671414298046 511.0931961255863,45.948922222215046 C510.9855828466647,46.69802244951424 512.34402579617,50.538558689473504 512.8303819138939,50.861398526238645 C513.4089779849795,51.245731665244776 513.5655063906839,51.114359610457214 515.0888631961991,48.95510615676832 C516.6569424033439,46.73575697588937 516.8847471366458,45.113172341758116 515.4466424092375,46.41431471417516 C514.4557616981272,47.31155789687308 514.3201969181869,45.744876264779066 515.2356085765467,43.957377774637905 C516.0909245077167,42.28308286362217 517.2746705758557,41.33273182898887 518.2879124877809,41.50323598520251 C519.849003819671,41.767377669828534 520.8077403046101,40.380983219304625 519.8811480458425,39.202827451369544 C519.1320478185434,38.24968126663437 518.5604396227124,38.4383538985101 516.6080272765614,40.28594811584131 M320.0446866632741,42.481538520854414 C319.3207427868916,42.69676507869785 315.84916636037826,44.46050479297318 315.71080643033605,44.68411680112219 C315.4578453461175,45.09500386609599 316.0685856433745,45.44998792903256 316.9057330988824,45.37731402638414 C318.25020029787834,45.26271287220774 317.84909625826106,45.88603134492311 315.26917271424185,47.92649091928287 C313.14905136197905,49.60358098040045 313.11970228590945,49.620351881011636 311.8940289662426,49.76290453620663 C311.0233397095124,49.86492751492462 310.79413740115973,50.00049229486494 310.5216102662282,50.570702915644944 C309.7878833644891,52.10524032156752 311.7864156873209,53.360262717303854 312.7451521722598,51.96827796657625 C313.3391215689056,51.1045765851007 313.8282728367316,50.650364693548 315.96796023970745,48.97327463243043 C316.9937803270911,48.17106655319584 317.97627558789577,47.3395093978917 318.1509724692622,47.127077990150156 C318.64152131213916,46.535903743606184 319.1097089542011,46.667275798393746 319.26483978485453,47.44013480155877 C319.5150057189712,48.69236204719323 320.44858585299335,48.411449461956025 320.617692434156,47.03204288668681 C320.69176391185533,46.4240977395317 320.8552801928143,45.42063885296301 320.98106194739813,44.80151310540043 C321.36819023650605,42.892425585828235 321.0788922009633,42.17546958470045 320.0446866632741,42.481538520854414 M231.32382728005172,46.18091968066963 C230.48667982454384,46.75811817670427 229.56707544103102,47.20673976805324 229.22187440345107,47.20673976805324 C227.79355270139922,47.20673976805324 227.01929612318324,48.731494148619305 227.99759865883516,49.61755673090977 C228.82496308898655,50.36525938315802 229.73618202219373,50.116491024092255 230.47969194928922,48.939732831208076 C232.00025360470252,46.53450616855527 232.7675223076638,47.08794588872405 232.65431872853833,50.50781203835302 C232.57046422548248,53.0500010559971 232.39576734411602,53.424551169646705 231.72632889471998,52.506344361184816 C231.2273946015374,51.82013501117754 230.65997913085934,51.671992055778816 230.46711377383085,52.17511907411409 C230.33853686914514,52.51053708633762 232.314707991162,56.57748048454776 232.80385925898804,56.98277724931785 C233.32934747813812,57.41882066520843 233.83247449647342,56.98417482436878 234.64586317611548,55.39513199145986 C235.08190659200608,54.542611210391755 235.63394873712394,53.509803247753524 235.87153649578218,53.0989161827797 C236.4892646682939,52.02977126881723 236.06160670270896,51.61888420384342 234.9030169854869,52.1709263489613 C234.4488050939341,52.387550481855655 234.02953257865485,52.56504251332393 233.96943685146474,52.56504251332393 C233.90934112427462,52.56504251332393 233.86042599749211,50.99556573112805 233.86042599749211,49.07949033630122 C233.86042599749211,44.556937471487444 233.79194481999644,44.47867326863529 231.32382728005172,46.18091968066963 M279.65197254125695,46.16414878005847 C278.7072118068274,46.77628665236638 277.76804137260154,47.20673976805324 277.3809130834937,47.20673976805324 C276.6136443805323,47.20673976805324 275.7876775254319,47.93208121948659 275.7876775254319,48.60431481898456 C275.7876775254319,50.21292370260652 277.7848122732127,50.45889691157042 278.72817543259134,48.969081907277626 C280.18864136081464,46.66028792313908 280.9041997868914,47.05021136234893 280.90839251204426,50.15841827562019 C280.9139828122479,52.79144967157481 280.53244482334367,53.93326848818572 280.1005941326059,52.57622311373139 C279.93288512649417,52.04514459437749 279.1041231212919,51.71671445740863 278.7728978342211,52.04933731953028 C278.54090037576657,52.27993720293394 280.0600644561289,55.62712944991446 280.9041997868914,56.74658706571047 C281.52751825960684,57.572553920810876 282.1061143306923,57.070824477526514 283.315016749748,54.64603176416068 C284.61476154711414,52.04514459437749 284.5406900694147,51.42322369671305 283.0271162892561,52.20586572523459 C282.09633130533587,52.68663154275495 282.0767652546228,52.619547940310255 282.0767652546228,48.962094032022975 C282.0767652546228,44.61563562362657 282.06418707916447,44.60165987311724 279.65197254125695,46.16414878005847 M379.57858868284677,46.16414878005847 C378.6925261005563,46.7371545509403 377.6904647890385,47.20673976805324 377.3508540516623,47.20673976805324 C376.0077844277172,47.20673976805324 375.2866357014366,48.64344692041064 376.18108373403265,49.536497377955754 C377.0140384643876,50.369452108310824 377.96858222417393,50.15422555046739 378.69392367560715,48.97047948232857 C380.11106477725156,46.65469762293537 380.83081592848134,47.05300651245078 380.83500865363413,50.15841827562019 C380.8405989538377,52.97592957829775 380.54151789293843,53.74739100641183 379.9503436463944,52.4476462090457 C379.6848043867175,51.864857412807325 378.900764783145,51.65382358011671 378.62963522326436,52.09266214610915 C378.4828898429166,52.33024990476747 380.1362211281683,55.82558510714672 380.83081592848134,56.74658706571047 C381.4555319762474,57.573951495861806 382.0103692714673,57.082005077933985 383.2961383183241,54.557984535952016 C384.5721243398244,52.054927619734 384.53299223839815,51.48471699895401 383.13122446231415,52.16393847370664 C382.0299353221803,52.69781214316241 382.0033813962125,52.62374066546306 382.0033813962125,48.98725038293975 C382.0033813962125,44.6128404735247 381.9922007958051,44.60026229806631 379.57858868284677,46.16414878005847 M352.83738765832686,51.34216434375902 C352.28674308825975,51.97247069172904 350.5509548750032,55.62433429981262 350.6921099551471,55.85493418321627 C350.9534564896714,56.275604273546605 351.73889366829474,56.045004390142935 352.00163777786986,55.470601044210156 C352.5536799229877,54.256108324950844 352.77030405588204,55.01499157760655 352.8387852333776,58.406906226216876 C352.9268324615865,62.84001428777104 352.7409549798125,63.57653633961185 351.9080002494574,62.113275261286745 C351.5152816601457,61.42287318612668 350.94926376451843,61.20485147818138 350.67813420463796,61.64229246912289 C350.535581549443,61.87428992757749 352.7926652566969,66.68614082793404 353.1476493196335,66.90695768598121 C353.79612414326573,67.30806172559849 356.5926718201792,62.701654357728856 356.2460732075484,61.80021844987813 C356.06159330082534,61.3208502074087 355.54449053198084,61.299886581644714 355.36560092546154,61.765279073604844 C355.0874834903262,62.490620525038196 354.35375658858726,62.1607928130184 354.2014209080357,61.24118842950561 C353.61304181159375,57.67876962468165 354.3369856879761,54.60130936253087 355.44945542851747,55.94158383637402 C356.5269857927854,57.23993105868922 356.4515167400353,55.674647001646136 355.3250712489846,53.3756360428641 C354.11477125487795,50.90332577776658 353.59207818582973,50.47706538723254 352.83738765832686,51.34216434375902 M243.2185885385282,84.30956222017808 C241.513546976392,86.36539512009806 240.48353416385558,90.40298944223866 242.01946914482915,89.01240226656196 C242.98379592997176,88.13891785972989 243.17805886205122,88.64484002816702 243.17805886205122,92.03815225182828 C243.17805886205122,95.41469357487837 243.02991590665252,95.76129218750935 241.9887224937086,94.8179290281307 C240.80357885051893,93.74738653911729 240.83153035153748,95.2064548922896 242.03763762049127,97.47052647479838 C243.27309396551462,99.79050105934436 243.74966705788208,100.31039897829082 244.2122643997404,99.84221133622883 C244.78387259557132,99.2622176900923 246.64264741331004,95.38534449880882 246.51267293357336,95.04573376143249 C246.3212051515958,94.5454018931991 245.7887290571909,94.66699092263013 245.37085411696248,95.30568272090572 C244.71259626797385,96.31053918252535 244.57563391298257,95.73194311143976 244.57563391298257,91.92914139785564 C244.57563391298257,88.22836266298953 244.76710169496016,87.34509523080091 245.31075838977242,88.53862432429625 C245.584683099755,89.14097917124765 246.2848682002716,89.33803725342895 246.56158806035586,88.89221081218186 C247.15555745700175,87.92928160209021 243.90899061368833,83.47940263992486 243.2185885385282,84.30956222017808 " stroke="none" fill="#424242" fill-rule="evenodd" class="selected" fill-opacity="1"/></g></svg>