<svg id="svg" version="1.1" width="400" height="72.80163599182004" xmlns="http://www.w3.org/2000/svg" xmlns:xlink="http://www.w3.org/1999/xlink" style="display: block;"><g id="svgg"><path id="path0" d="M8.333 1.574 C 7.112 1.848,6.351 2.341,4.876 3.812 C 3.213 5.470,3.034 5.952,3.765 6.821 C 4.535 7.736,5.288 7.577,6.747 6.191 C 8.746 4.292,11.354 3.992,14.035 5.353 C 14.375 5.525,14.751 5.667,14.870 5.667 C 14.989 5.667,15.423 5.844,15.835 6.060 C 17.219 6.786,18.813 7.068,19.830 6.766 C 21.440 6.288,21.267 3.536,21.374 31.283 C 21.479 58.164,21.455 59.185,20.696 60.833 C 19.070 64.362,15.067 63.605,12.297 59.245 C 11.324 57.714,10.602 57.086,9.837 57.106 C 8.436 57.143,7.898 58.316,8.681 59.629 C 12.949 66.789,19.515 68.303,23.070 62.948 C 23.398 62.453,23.667 61.961,23.667 61.854 C 23.667 61.746,23.834 61.229,24.038 60.704 C 24.408 59.754,24.410 59.697,24.497 46.800 C 24.596 31.940,24.384 33.398,26.439 33.461 C 29.787 33.564,33.557 35.579,35.300 38.196 C 35.456 38.430,35.808 38.944,36.083 39.338 C 36.358 39.731,36.713 40.247,36.870 40.485 C 37.450 41.357,39.039 44.819,39.248 45.667 C 39.304 45.896,39.490 46.421,39.660 46.833 C 40.066 47.816,40.616 49.510,40.922 50.717 C 41.056 51.248,41.269 51.886,41.394 52.133 C 41.520 52.381,41.676 52.883,41.742 53.250 C 41.808 53.617,41.993 54.254,42.154 54.667 C 42.315 55.079,42.577 55.792,42.737 56.250 C 43.468 58.341,44.103 59.792,44.671 60.667 C 46.493 63.472,47.856 64.755,49.917 65.603 C 50.982 66.042,51.257 66.083,53.083 66.080 C 55.372 66.077,55.979 65.906,58.500 64.561 C 59.223 64.175,61.100 62.459,62.030 61.333 C 63.087 60.054,63.458 59.525,64.786 57.407 C 65.710 55.934,68.235 50.362,68.776 48.602 C 69.010 47.842,69.045 47.807,69.305 48.066 C 69.550 48.311,69.595 49.026,69.684 54.047 C 69.796 60.401,70.002 61.871,71.006 63.453 C 72.464 65.753,76.022 66.904,78.168 65.772 C 78.580 65.554,79.093 65.322,79.309 65.255 C 80.901 64.761,84.583 61.279,86.186 58.750 C 86.419 58.383,86.802 57.783,87.038 57.417 C 87.274 57.050,87.517 56.581,87.578 56.375 C 87.639 56.169,87.786 56.000,87.905 56.000 C 88.107 56.000,89.167 58.259,89.167 58.690 C 89.167 59.185,90.901 61.850,92.022 63.075 C 94.618 65.916,99.399 67.153,102.425 65.768 C 102.947 65.529,103.462 65.333,103.570 65.333 C 104.248 65.333,107.066 62.905,107.944 61.565 C 108.289 61.038,108.636 61.061,108.842 61.625 C 109.965 64.708,111.787 66.038,114.925 66.067 C 116.872 66.084,116.927 66.070,119.069 64.989 C 120.722 64.155,123.383 61.788,124.304 60.333 C 124.449 60.104,124.839 59.579,125.171 59.167 C 125.646 58.576,127.805 55.404,130.599 51.192 C 130.913 50.720,131.992 49.100,132.226 48.750 C 132.348 48.567,132.723 48.004,133.059 47.500 C 133.395 46.996,133.770 46.433,133.892 46.250 C 134.015 46.067,134.390 45.504,134.726 45.000 C 135.061 44.496,135.436 43.933,135.559 43.750 C 135.682 43.567,136.057 43.004,136.392 42.500 C 136.728 41.996,137.103 41.433,137.226 41.250 C 137.348 41.067,137.719 40.504,138.049 40.000 C 139.556 37.697,139.637 37.701,141.781 40.187 C 142.589 41.123,143.646 42.339,144.130 42.888 C 144.879 43.738,145.447 44.540,146.627 46.417 C 149.225 50.548,149.183 55.609,146.519 59.523 C 143.954 63.291,138.528 64.583,135.269 62.201 C 134.497 61.636,132.500 59.320,132.500 58.990 C 132.500 58.617,131.279 57.500,130.871 57.500 C 130.217 57.500,129.333 58.257,129.333 58.818 C 129.333 60.388,133.434 65.333,134.736 65.333 C 134.838 65.333,135.220 65.502,135.586 65.708 C 136.604 66.283,141.430 66.273,142.917 65.693 C 145.978 64.498,148.018 62.904,149.333 60.679 C 150.716 58.340,150.696 58.357,152.948 57.513 C 154.370 56.980,155.466 56.443,156.237 55.901 C 157.421 55.070,159.524 53.271,160.044 52.645 C 160.671 51.891,161.100 51.851,161.228 52.535 C 162.023 56.783,162.608 58.666,163.711 60.530 C 164.436 61.754,166.880 64.500,167.244 64.500 C 167.356 64.500,167.582 64.648,167.746 64.829 C 167.910 65.010,168.203 65.207,168.397 65.266 C 168.591 65.325,169.155 65.562,169.649 65.793 C 171.028 66.438,174.628 66.416,176.186 65.753 C 176.771 65.503,177.400 65.242,177.583 65.171 C 178.290 64.898,180.082 63.392,180.945 62.345 C 182.065 60.988,182.113 60.989,182.794 62.398 C 185.492 67.982,192.347 67.250,196.678 60.917 C 196.991 60.458,197.417 59.871,197.624 59.612 C 198.462 58.563,197.990 56.996,196.838 57.002 C 196.002 57.007,195.692 57.214,194.870 58.315 C 193.629 59.980,192.372 61.301,191.258 62.111 L 190.267 62.833 188.592 62.827 C 185.033 62.812,185.128 63.226,185.009 47.234 C 184.909 33.715,184.962 34.398,183.994 33.998 C 182.800 33.503,182.132 34.316,182.006 36.415 C 181.892 38.330,181.669 38.431,180.438 37.126 C 178.660 35.242,177.286 34.487,174.704 33.978 L 172.893 33.620 171.080 33.985 C 168.090 34.587,165.443 36.385,164.063 38.750 C 163.795 39.208,163.484 39.733,163.370 39.917 C 162.911 40.660,162.060 42.994,161.912 43.917 C 161.853 44.283,161.662 44.817,161.486 45.103 C 161.310 45.389,161.166 45.726,161.164 45.853 C 161.163 45.980,160.898 46.458,160.576 46.917 C 160.254 47.375,159.862 47.938,159.705 48.167 C 157.979 50.687,156.291 52.275,153.968 53.565 C 151.746 54.799,151.503 54.720,151.495 52.758 C 151.487 50.869,151.260 49.325,150.827 48.209 C 150.366 47.024,149.517 45.224,149.156 44.667 C 149.007 44.438,148.670 43.913,148.407 43.500 C 147.839 42.608,144.471 38.566,142.923 36.917 C 142.320 36.275,141.670 35.487,141.478 35.167 C 140.235 33.092,138.593 33.189,137.464 35.405 C 137.273 35.778,136.548 36.935,135.851 37.975 C 135.154 39.016,134.436 40.103,134.255 40.392 C 134.075 40.681,133.719 41.217,133.463 41.583 C 132.539 42.909,128.742 48.536,128.422 49.053 C 128.242 49.345,127.886 49.883,127.631 50.250 C 127.376 50.617,126.288 52.229,125.214 53.833 C 122.043 58.568,120.258 60.635,118.103 62.070 L 116.956 62.833 115.094 62.833 L 113.232 62.833 112.689 62.273 C 111.431 60.976,111.443 61.108,111.341 47.109 L 111.250 34.635 110.750 34.235 C 110.194 33.790,110.042 33.762,109.436 33.993 C 108.733 34.260,108.457 34.888,108.349 36.467 C 108.220 38.348,108.050 38.386,106.553 36.871 C 104.888 35.186,103.484 34.431,101.176 33.980 L 99.307 33.614 97.497 33.971 C 93.508 34.758,90.570 37.374,89.040 41.500 C 88.313 43.462,87.727 46.276,87.585 48.482 C 87.514 49.592,87.366 50.329,87.076 51.018 C 86.851 51.553,86.667 52.095,86.667 52.223 C 86.667 52.350,86.527 52.634,86.356 52.853 C 86.186 53.071,85.991 53.425,85.924 53.639 C 85.265 55.740,80.532 61.461,78.972 62.042 C 78.786 62.111,78.444 62.318,78.211 62.501 C 77.055 63.410,74.261 62.898,73.392 61.617 L 72.917 60.917 72.833 31.804 L 72.750 2.691 72.400 2.221 C 72.108 1.829,71.908 1.742,71.201 1.700 C 69.632 1.607,69.763 0.101,69.659 19.409 L 69.568 36.250 69.117 37.455 C 68.870 38.118,68.667 38.784,68.667 38.935 C 68.667 39.188,68.174 40.855,67.564 42.667 C 67.425 43.079,67.197 43.829,67.057 44.333 C 66.917 44.837,66.740 45.326,66.664 45.419 C 66.587 45.512,66.433 45.962,66.321 46.419 C 66.209 46.876,65.979 47.528,65.809 47.868 C 65.639 48.208,65.500 48.578,65.500 48.689 C 65.500 48.800,65.271 49.384,64.990 49.987 C 64.710 50.590,64.346 51.383,64.182 51.750 C 64.018 52.117,63.693 52.829,63.459 53.333 C 63.226 53.837,62.951 54.438,62.848 54.667 C 62.745 54.896,62.439 55.421,62.167 55.833 C 61.895 56.246,61.577 56.770,61.461 56.999 C 61.201 57.511,60.391 58.728,59.756 59.560 C 58.698 60.948,55.629 62.829,54.342 62.879 C 51.807 62.978,50.743 62.846,49.973 62.336 C 48.700 61.493,47.250 59.272,46.272 56.667 C 46.014 55.979,45.622 54.946,45.401 54.372 C 45.181 53.797,45.000 53.196,45.000 53.036 C 45.000 52.876,44.860 52.484,44.689 52.164 C 44.518 51.845,44.321 51.321,44.252 51.000 C 44.182 50.679,43.957 49.967,43.751 49.417 C 43.258 48.097,42.854 46.921,42.578 46.000 C 41.914 43.785,39.766 39.389,38.454 37.561 C 38.200 37.206,37.847 36.692,37.670 36.417 C 37.160 35.624,34.477 33.123,33.660 32.679 C 32.461 32.028,30.331 31.000,30.180 31.000 C 29.625 31.000,29.686 30.496,30.279 30.175 C 33.602 28.377,35.517 26.416,38.094 22.167 C 38.344 21.754,38.665 21.229,38.807 21.000 C 39.157 20.437,40.232 18.400,41.664 15.583 C 42.317 14.300,43.082 12.838,43.364 12.333 C 43.646 11.829,43.995 11.192,44.138 10.917 C 44.281 10.642,44.612 10.117,44.872 9.750 C 45.132 9.383,45.542 8.783,45.782 8.417 C 48.963 3.562,53.290 3.202,55.936 7.572 C 57.658 10.417,57.738 10.500,58.752 10.500 C 61.559 10.500,58.819 4.347,55.083 2.260 C 51.592 0.310,46.779 1.748,44.240 5.500 C 44.022 5.821,43.621 6.383,43.347 6.750 C 43.074 7.117,42.506 8.017,42.085 8.750 C 41.664 9.483,41.253 10.196,41.171 10.333 C 41.088 10.471,40.918 10.808,40.791 11.083 C 40.665 11.358,40.474 11.733,40.368 11.917 C 40.262 12.100,40.064 12.512,39.927 12.833 C 39.791 13.154,39.301 14.092,38.839 14.917 C 38.376 15.742,37.845 16.717,37.658 17.083 C 35.231 21.845,32.506 25.200,28.687 28.125 C 28.418 28.331,28.133 28.500,28.054 28.500 C 27.975 28.500,27.650 28.675,27.330 28.889 C 26.398 29.514,25.042 29.942,24.791 29.691 C 24.629 29.529,24.573 26.506,24.537 16.011 L 24.491 2.539 24.087 2.103 C 23.409 1.371,22.555 1.487,21.248 2.489 C 19.799 3.600,17.591 3.780,16.012 2.916 C 13.584 1.587,10.595 1.065,8.333 1.574 M342.034 1.675 C 341.222 2.001,341.167 2.492,341.167 9.378 C 341.167 14.125,341.115 15.818,340.967 15.967 C 340.826 16.108,339.856 16.167,337.675 16.168 C 333.406 16.169,332.921 16.348,333.032 17.881 C 333.115 19.019,333.562 19.149,337.433 19.159 C 340.330 19.166,340.640 19.195,340.899 19.480 C 341.383 20.015,341.231 38.265,340.734 39.339 C 340.541 39.755,340.329 40.389,340.261 40.748 C 340.194 41.107,339.995 41.683,339.819 42.027 C 339.644 42.372,339.500 42.767,339.500 42.906 C 339.500 43.252,337.866 46.833,337.327 47.667 C 336.272 49.301,335.766 49.927,334.412 51.276 C 332.370 53.311,330.992 54.012,330.780 53.125 C 330.730 52.919,330.638 52.038,330.575 51.167 C 330.499 50.137,330.328 49.263,330.085 48.667 C 329.880 48.163,329.658 47.525,329.593 47.250 C 329.527 46.975,329.376 46.637,329.257 46.500 C 329.137 46.362,328.986 46.063,328.920 45.833 C 328.854 45.604,328.631 45.154,328.425 44.833 C 328.219 44.512,327.783 43.837,327.457 43.333 C 326.759 42.258,324.112 39.089,322.498 37.398 C 321.875 36.746,321.088 35.826,320.748 35.353 C 320.408 34.880,319.813 34.307,319.425 34.080 C 318.234 33.381,317.750 33.505,315.498 35.083 C 314.752 35.606,313.066 36.743,311.816 37.565 C 311.413 37.830,310.701 38.299,310.233 38.607 C 309.765 38.915,309.298 39.167,309.195 39.167 C 309.092 39.167,308.612 39.349,308.129 39.571 C 304.395 41.288,301.857 41.150,300.666 39.162 C 297.361 33.651,290.629 32.051,285.598 35.583 C 284.439 36.397,282.167 39.088,282.167 39.647 C 282.167 39.725,282.021 39.973,281.844 40.199 C 281.666 40.425,281.469 40.829,281.405 41.096 C 281.341 41.364,281.152 41.891,280.985 42.267 C 280.818 42.643,280.602 43.447,280.505 44.054 C 280.408 44.661,280.247 45.366,280.149 45.621 C 280.050 45.875,279.911 47.621,279.841 49.500 C 279.700 53.258,279.686 53.310,278.163 55.667 C 277.897 56.079,277.554 56.642,277.401 56.917 C 276.605 58.348,273.776 61.276,272.167 62.334 C 271.097 63.037,268.241 63.086,267.333 62.417 C 267.023 62.187,266.680 62.000,266.571 62.000 C 266.463 62.000,266.271 61.876,266.145 61.724 C 266.020 61.572,265.692 61.341,265.417 61.210 C 265.142 61.078,264.542 60.753,264.083 60.487 C 263.625 60.221,262.987 59.887,262.667 59.745 C 262.346 59.604,261.775 59.341,261.398 59.161 C 260.858 58.902,260.360 58.833,259.037 58.833 C 256.405 58.833,256.367 58.769,257.875 56.826 C 258.448 56.088,259.029 55.316,259.167 55.110 C 259.304 54.904,259.847 54.177,260.373 53.493 C 260.898 52.809,261.811 51.612,262.401 50.833 C 262.992 50.054,263.820 48.967,264.243 48.417 C 266.004 46.124,266.626 45.311,267.417 44.262 C 267.875 43.655,268.625 42.677,269.083 42.090 C 273.782 36.070,274.148 35.446,273.478 34.593 C 272.721 33.631,271.877 33.753,270.167 35.072 C 268.206 36.584,264.882 36.413,260.917 34.597 C 260.642 34.471,260.080 34.313,259.668 34.246 C 259.256 34.179,258.657 33.983,258.337 33.812 C 257.593 33.413,256.491 33.414,255.702 33.813 C 255.362 33.985,254.821 34.180,254.500 34.247 C 253.281 34.498,251.532 35.969,250.352 37.735 C 249.613 38.841,248.667 40.363,248.667 40.445 C 248.667 40.487,248.479 40.768,248.250 41.069 C 248.021 41.369,247.833 41.659,247.833 41.714 C 247.833 41.820,246.275 44.322,245.784 45.002 C 245.620 45.230,245.251 45.792,244.964 46.250 C 243.977 47.829,243.280 48.362,243.056 47.708 C 242.760 46.842,241.477 44.395,240.751 43.310 C 240.327 42.677,237.106 38.726,236.829 38.500 C 236.527 38.253,234.379 35.827,233.994 35.297 C 232.491 33.228,231.491 33.034,230.066 34.535 C 227.137 37.620,224.488 40.007,222.501 41.351 C 219.918 43.100,219.461 43.994,220.579 45.113 C 221.234 45.768,221.452 45.758,222.608 45.023 C 225.069 43.458,226.529 42.295,229.458 39.567 C 231.892 37.301,231.645 37.335,233.208 39.043 C 239.910 46.366,241.919 50.654,240.763 55.168 C 240.618 55.732,240.500 56.305,240.500 56.441 C 240.500 57.600,237.232 62.000,236.371 62.000 C 236.283 62.000,236.012 62.157,235.768 62.349 C 235.274 62.737,232.425 63.500,231.467 63.500 C 229.067 63.500,226.211 61.465,224.836 58.776 C 224.206 57.544,223.099 57.183,222.301 57.948 C 220.793 59.392,224.058 63.906,227.833 65.598 C 229.970 66.556,234.634 66.283,236.833 65.071 C 237.063 64.945,237.557 64.697,237.933 64.521 C 240.605 63.266,243.444 58.668,243.842 54.954 C 243.928 54.149,244.102 53.324,244.229 53.121 C 244.356 52.917,244.511 52.532,244.573 52.266 C 244.635 52.000,244.932 51.475,245.233 51.100 C 245.722 50.490,246.224 49.739,247.415 47.833 C 247.616 47.512,247.923 47.034,248.098 46.770 C 248.273 46.505,248.493 46.168,248.585 46.020 C 248.819 45.646,250.131 43.643,251.777 41.148 C 254.556 36.932,256.014 36.197,259.167 37.421 C 260.037 37.759,261.087 38.147,261.500 38.284 C 261.912 38.420,262.587 38.668,263.000 38.834 C 263.412 39.000,264.275 39.184,264.917 39.243 C 267.441 39.476,267.458 39.368,264.218 43.573 C 262.709 45.532,261.893 46.611,261.629 47.000 C 261.474 47.229,260.850 48.054,260.242 48.833 C 259.635 49.612,258.379 51.262,257.452 52.500 C 256.525 53.737,255.725 54.788,255.674 54.833 C 255.623 54.879,255.319 55.277,254.999 55.718 C 254.679 56.159,254.042 57.000,253.583 57.586 C 253.125 58.172,252.563 58.924,252.333 59.257 C 252.104 59.590,251.722 60.100,251.484 60.390 C 249.472 62.839,248.667 64.086,248.667 64.754 C 248.667 66.292,249.902 66.628,251.318 65.475 C 254.896 62.563,255.760 62.115,257.969 62.028 C 260.086 61.945,260.280 61.999,262.751 63.356 C 269.197 66.897,270.362 67.023,274.083 64.583 C 274.958 64.009,277.787 61.134,278.500 60.094 C 278.729 59.760,279.120 59.220,279.368 58.895 C 279.617 58.570,279.866 58.161,279.921 57.986 C 280.166 57.216,281.333 57.509,281.333 58.340 C 281.333 60.045,285.408 64.640,287.579 65.382 C 287.856 65.477,288.267 65.674,288.492 65.819 C 289.651 66.567,294.104 66.123,296.000 65.071 C 296.229 64.943,296.651 64.729,296.936 64.593 C 299.185 63.529,302.140 58.849,302.680 55.497 C 302.774 54.916,302.888 54.380,302.933 54.306 C 303.441 53.485,303.498 47.717,303.017 45.792 C 302.563 43.972,302.688 43.596,303.761 43.541 C 305.525 43.451,307.413 43.133,308.019 42.824 C 308.368 42.646,308.750 42.500,308.868 42.500 C 309.553 42.499,315.254 39.213,316.909 37.866 C 318.002 36.975,318.528 37.336,321.846 41.250 C 322.700 42.258,323.465 43.129,323.546 43.184 C 323.626 43.240,323.818 43.474,323.971 43.704 C 324.125 43.934,324.475 44.444,324.750 44.838 C 326.775 47.739,328.058 51.490,327.760 53.634 C 326.940 59.524,323.823 62.904,318.716 63.438 C 316.355 63.685,313.657 62.165,312.167 59.748 C 310.776 57.493,310.125 57.111,309.057 57.925 C 307.378 59.206,310.710 63.904,314.500 65.599 C 316.025 66.281,320.445 66.334,322.083 65.690 C 325.561 64.324,327.587 62.550,329.129 59.523 C 329.791 58.222,330.524 57.406,331.243 57.169 C 334.309 56.157,338.417 52.385,340.275 48.875 C 341.021 47.466,341.166 48.114,341.171 52.889 C 341.180 61.737,341.920 64.031,345.277 65.618 C 346.624 66.255,349.499 66.303,350.630 65.708 C 351.023 65.502,351.424 65.333,351.522 65.333 C 352.630 65.333,357.001 61.215,358.686 58.583 C 359.644 57.088,359.757 56.898,359.950 56.458 C 360.224 55.833,360.470 55.883,360.766 56.625 C 360.903 56.969,361.085 57.400,361.170 57.583 C 361.255 57.767,361.477 58.329,361.663 58.833 C 362.461 60.992,364.397 63.417,366.367 64.724 C 366.872 65.059,367.353 65.333,367.436 65.333 C 367.520 65.333,367.887 65.494,368.252 65.691 C 369.485 66.354,373.915 66.418,374.886 65.787 C 375.086 65.657,375.541 65.455,375.896 65.339 C 377.138 64.932,380.140 62.371,380.424 61.477 C 380.609 60.893,380.979 61.167,381.521 62.292 C 384.440 68.348,391.308 67.234,396.162 59.917 C 397.236 58.297,396.950 57.000,395.518 57.000 C 394.747 57.000,394.558 57.153,393.149 58.915 C 391.825 60.570,391.130 61.270,389.944 62.147 L 389.014 62.833 387.338 62.833 C 383.782 62.833,383.803 62.925,383.720 47.083 C 383.649 33.626,383.698 34.422,382.912 34.048 C 381.719 33.478,380.833 34.341,380.833 36.073 C 380.833 38.398,380.542 38.484,378.725 36.694 C 377.044 35.038,375.906 34.445,373.491 33.969 L 371.669 33.609 369.876 33.981 C 367.342 34.507,365.765 35.350,364.200 37.016 C 363.436 37.830,362.333 39.353,362.333 39.595 C 362.333 39.641,362.202 39.877,362.042 40.120 C 361.709 40.624,361.065 42.391,360.811 43.500 C 360.716 43.913,360.527 44.737,360.389 45.333 C 360.252 45.929,360.073 47.297,359.991 48.373 C 359.889 49.710,359.742 50.529,359.528 50.957 C 359.355 51.301,359.161 51.802,359.097 52.070 C 359.032 52.338,358.834 52.742,358.656 52.968 C 358.479 53.194,358.333 53.450,358.333 53.537 C 358.333 53.680,357.813 54.622,356.768 56.372 C 356.069 57.542,353.504 60.473,352.543 61.200 C 350.572 62.691,350.256 62.813,348.204 62.867 C 346.025 62.926,345.727 62.786,344.917 61.320 L 344.417 60.417 344.369 40.188 C 344.327 22.309,344.351 19.914,344.575 19.572 C 344.826 19.190,344.873 19.184,348.429 19.134 L 352.029 19.083 352.431 18.616 C 352.890 18.082,352.941 17.524,352.591 16.848 C 352.272 16.231,351.853 16.171,347.881 16.169 C 344.886 16.167,344.667 16.146,344.506 15.844 C 344.396 15.638,344.333 13.230,344.333 9.169 C 344.333 2.279,344.312 2.105,343.421 1.699 C 342.913 1.467,342.566 1.461,342.034 1.675 M295.228 17.825 C 295.033 17.907,293.346 19.532,291.478 21.435 C 289.611 23.338,287.926 25.050,287.734 25.239 C 286.474 26.479,286.895 28.333,288.436 28.333 C 289.488 28.333,297.500 20.240,297.500 19.178 C 297.500 18.317,296.075 17.468,295.228 17.825 M294.137 37.295 C 298.604 39.338,300.774 44.761,300.188 52.417 C 299.878 56.466,298.548 59.543,296.263 61.495 C 295.804 61.887,295.533 62.056,294.475 62.610 C 292.956 63.405,289.563 63.248,287.892 62.305 C 286.202 61.351,284.249 58.729,283.818 56.835 C 283.724 56.424,283.521 55.711,283.365 55.252 C 282.948 54.015,282.947 45.779,283.365 44.667 C 283.520 44.254,283.726 43.607,283.824 43.229 C 285.051 38.480,290.222 35.505,294.137 37.295 M101.611 37.255 C 104.386 38.365,106.441 40.851,107.270 44.103 C 107.407 44.642,107.635 45.533,107.775 46.083 C 108.496 48.905,107.826 55.677,106.579 58.167 C 103.301 64.715,95.565 64.956,92.313 58.611 C 90.167 54.424,90.116 46.256,92.208 41.833 C 93.149 39.844,95.354 37.519,96.325 37.493 C 96.467 37.489,96.846 37.342,97.167 37.167 C 98.081 36.666,100.246 36.709,101.611 37.255 M174.977 37.170 C 175.376 37.352,175.793 37.500,175.902 37.500 C 176.125 37.500,177.336 38.334,178.059 38.987 C 179.001 39.837,180.833 43.070,180.833 43.881 C 180.833 44.014,180.998 44.602,181.199 45.187 C 182.177 48.037,181.628 55.104,180.191 58.142 C 177.794 63.210,171.709 64.857,168.023 61.437 C 162.279 56.105,163.285 40.536,169.556 37.702 C 169.938 37.530,170.512 37.269,170.833 37.122 C 171.711 36.720,174.044 36.747,174.977 37.170 M374.123 37.293 C 377.275 38.560,378.971 41.005,380.160 46.000 C 381.089 49.900,380.005 57.219,378.136 59.667 C 377.614 60.350,375.955 62.000,375.789 62.000 C 375.704 62.000,375.419 62.153,375.156 62.341 C 373.568 63.472,369.577 63.387,367.800 62.184 C 365.528 60.647,364.271 58.475,363.402 54.583 C 362.973 52.664,363.140 45.819,363.654 44.250 C 365.611 38.270,369.735 35.530,374.123 37.293 " stroke="none" fill="#000000" fill-rule="evenodd"></path><path id="path1" d="M0.000 36.333 L 0.000 72.667 200.000 72.667 L 400.000 72.667 400.000 36.333 L 400.000 0.000 200.000 0.000 L 0.000 0.000 0.000 36.333 M12.250 1.570 C 13.366 1.797,15.100 2.417,16.012 2.916 C 17.591 3.780,19.799 3.600,21.248 2.489 C 22.555 1.487,23.409 1.371,24.087 2.103 L 24.491 2.539 24.537 16.011 C 24.573 26.506,24.629 29.529,24.791 29.691 C 25.042 29.942,26.398 29.514,27.330 28.889 C 27.650 28.675,27.975 28.500,28.054 28.500 C 28.133 28.500,28.418 28.331,28.687 28.125 C 32.506 25.200,35.231 21.845,37.658 17.083 C 37.845 16.717,38.376 15.742,38.839 14.917 C 39.301 14.092,39.791 13.154,39.927 12.833 C 40.064 12.512,40.262 12.100,40.368 11.917 C 40.474 11.733,40.665 11.358,40.791 11.083 C 40.918 10.808,41.088 10.471,41.171 10.333 C 41.253 10.196,41.664 9.483,42.085 8.750 C 42.506 8.017,43.074 7.117,43.347 6.750 C 43.621 6.383,44.022 5.821,44.240 5.500 C 46.779 1.748,51.592 0.310,55.083 2.260 C 58.819 4.347,61.559 10.500,58.752 10.500 C 57.738 10.500,57.658 10.417,55.936 7.572 C 53.290 3.202,48.963 3.562,45.782 8.417 C 45.542 8.783,45.132 9.383,44.872 9.750 C 44.612 10.117,44.281 10.642,44.138 10.917 C 43.995 11.192,43.646 11.829,43.364 12.333 C 43.082 12.838,42.317 14.300,41.664 15.583 C 40.232 18.400,39.157 20.437,38.807 21.000 C 38.665 21.229,38.344 21.754,38.094 22.167 C 35.517 26.416,33.602 28.377,30.279 30.175 C 29.686 30.496,29.625 31.000,30.180 31.000 C 30.331 31.000,32.461 32.028,33.660 32.679 C 34.477 33.123,37.160 35.624,37.670 36.417 C 37.847 36.692,38.200 37.206,38.454 37.561 C 39.766 39.389,41.914 43.785,42.578 46.000 C 42.854 46.921,43.258 48.097,43.751 49.417 C 43.957 49.967,44.182 50.679,44.252 51.000 C 44.321 51.321,44.518 51.845,44.689 52.164 C 44.860 52.484,45.000 52.876,45.000 53.036 C 45.000 53.196,45.181 53.797,45.401 54.372 C 45.622 54.946,46.014 55.979,46.272 56.667 C 47.250 59.272,48.700 61.493,49.973 62.336 C 50.743 62.846,51.807 62.978,54.342 62.879 C 55.629 62.829,58.698 60.948,59.756 59.560 C 60.391 58.728,61.201 57.511,61.461 56.999 C 61.577 56.770,61.895 56.246,62.167 55.833 C 62.439 55.421,62.745 54.896,62.848 54.667 C 62.951 54.438,63.226 53.837,63.459 53.333 C 63.693 52.829,64.018 52.117,64.182 51.750 C 64.346 51.383,64.710 50.590,64.990 49.987 C 65.271 49.384,65.500 48.800,65.500 48.689 C 65.500 48.578,65.639 48.208,65.809 47.868 C 65.979 47.528,66.209 46.876,66.321 46.419 C 66.433 45.962,66.587 45.512,66.664 45.419 C 66.740 45.326,66.917 44.837,67.057 44.333 C 67.197 43.829,67.425 43.079,67.564 42.667 C 68.174 40.855,68.667 39.188,68.667 38.935 C 68.667 38.784,68.870 38.118,69.117 37.455 L 69.568 36.250 69.659 19.409 C 69.763 0.101,69.632 1.607,71.201 1.700 C 71.908 1.742,72.108 1.829,72.400 2.221 L 72.750 2.691 72.833 31.804 L 72.917 60.917 73.392 61.617 C 74.261 62.898,77.055 63.410,78.211 62.501 C 78.444 62.318,78.786 62.111,78.972 62.042 C 80.532 61.461,85.265 55.740,85.924 53.639 C 85.991 53.425,86.186 53.071,86.356 52.853 C 86.527 52.634,86.667 52.350,86.667 52.223 C 86.667 52.095,86.851 51.553,87.076 51.018 C 87.366 50.329,87.514 49.592,87.585 48.482 C 87.727 46.276,88.313 43.462,89.040 41.500 C 90.570 37.374,93.508 34.758,97.497 33.971 L 99.307 33.614 101.176 33.980 C 103.484 34.431,104.888 35.186,106.553 36.871 C 108.050 38.386,108.220 38.348,108.349 36.467 C 108.457 34.888,108.733 34.260,109.436 33.993 C 110.042 33.762,110.194 33.790,110.750 34.235 L 111.250 34.635 111.341 47.109 C 111.443 61.108,111.431 60.976,112.689 62.273 L 113.232 62.833 115.094 62.833 L 116.956 62.833 118.103 62.070 C 120.258 60.635,122.043 58.568,125.214 53.833 C 126.288 52.229,127.376 50.617,127.631 50.250 C 127.886 49.883,128.242 49.345,128.422 49.053 C 128.742 48.536,132.539 42.909,133.463 41.583 C 133.719 41.217,134.075 40.681,134.255 40.392 C 134.436 40.103,135.154 39.016,135.851 37.975 C 136.548 36.935,137.273 35.778,137.464 35.405 C 138.593 33.189,140.235 33.092,141.478 35.167 C 141.670 35.487,142.320 36.275,142.923 36.917 C 144.471 38.566,147.839 42.608,148.407 43.500 C 148.670 43.913,149.007 44.438,149.156 44.667 C 149.517 45.224,150.366 47.024,150.827 48.209 C 151.260 49.325,151.487 50.869,151.495 52.758 C 151.503 54.720,151.746 54.799,153.968 53.565 C 156.291 52.275,157.979 50.687,159.705 48.167 C 159.862 47.938,160.254 47.375,160.576 46.917 C 160.898 46.458,161.163 45.980,161.164 45.853 C 161.166 45.726,161.310 45.389,161.486 45.103 C 161.662 44.817,161.853 44.283,161.912 43.917 C 162.060 42.994,162.911 40.660,163.370 39.917 C 163.484 39.733,163.795 39.208,164.063 38.750 C 165.443 36.385,168.090 34.587,171.080 33.985 L 172.893 33.620 174.704 33.978 C 177.286 34.487,178.660 35.242,180.438 37.126 C 181.669 38.431,181.892 38.330,182.006 36.415 C 182.132 34.316,182.800 33.503,183.994 33.998 C 184.962 34.398,184.909 33.715,185.009 47.234 C 185.128 63.226,185.033 62.812,188.592 62.827 L 190.267 62.833 191.258 62.111 C 192.372 61.301,193.629 59.980,194.870 58.315 C 195.692 57.214,196.002 57.007,196.838 57.002 C 197.990 56.996,198.462 58.563,197.624 59.612 C 197.417 59.871,196.991 60.458,196.678 60.917 C 192.347 67.250,185.492 67.982,182.794 62.398 C 182.113 60.989,182.065 60.988,180.945 62.345 C 180.082 63.392,178.290 64.898,177.583 65.171 C 177.400 65.242,176.771 65.503,176.186 65.753 C 174.628 66.416,171.028 66.438,169.649 65.793 C 169.155 65.562,168.591 65.325,168.397 65.266 C 168.203 65.207,167.910 65.010,167.746 64.829 C 167.582 64.648,167.356 64.500,167.244 64.500 C 166.880 64.500,164.436 61.754,163.711 60.530 C 162.608 58.666,162.023 56.783,161.228 52.535 C 161.100 51.851,160.671 51.891,160.044 52.645 C 159.524 53.271,157.421 55.070,156.237 55.901 C 155.466 56.443,154.370 56.980,152.948 57.513 C 150.696 58.357,150.716 58.340,149.333 60.679 C 148.018 62.904,145.978 64.498,142.917 65.693 C 141.430 66.273,136.604 66.283,135.586 65.708 C 135.220 65.502,134.838 65.333,134.736 65.333 C 133.434 65.333,129.333 60.388,129.333 58.818 C 129.333 58.257,130.217 57.500,130.871 57.500 C 131.279 57.500,132.500 58.617,132.500 58.990 C 132.500 59.320,134.497 61.636,135.269 62.201 C 138.528 64.583,143.954 63.291,146.519 59.523 C 149.183 55.609,149.225 50.548,146.627 46.417 C 145.447 44.540,144.879 43.738,144.130 42.888 C 143.646 42.339,142.589 41.123,141.781 40.187 C 139.637 37.701,139.556 37.697,138.049 40.000 C 137.719 40.504,137.348 41.067,137.226 41.250 C 137.103 41.433,136.728 41.996,136.392 42.500 C 136.057 43.004,135.682 43.567,135.559 43.750 C 135.436 43.933,135.061 44.496,134.726 45.000 C 134.390 45.504,134.015 46.067,133.892 46.250 C 133.770 46.433,133.395 46.996,133.059 47.500 C 132.723 48.004,132.348 48.567,132.226 48.750 C 131.992 49.100,130.913 50.720,130.599 51.192 C 127.805 55.404,125.646 58.576,125.171 59.167 C 124.839 59.579,124.449 60.104,124.304 60.333 C 123.383 61.788,120.722 64.155,119.069 64.989 C 116.927 66.070,116.872 66.084,114.925 66.067 C 111.787 66.038,109.965 64.708,108.842 61.625 C 108.636 61.061,108.289 61.038,107.944 61.565 C 107.066 62.905,104.248 65.333,103.570 65.333 C 103.462 65.333,102.947 65.529,102.425 65.768 C 99.399 67.153,94.618 65.916,92.022 63.075 C 90.901 61.850,89.167 59.185,89.167 58.690 C 89.167 58.259,88.107 56.000,87.905 56.000 C 87.786 56.000,87.639 56.169,87.578 56.375 C 87.517 56.581,87.274 57.050,87.038 57.417 C 86.802 57.783,86.419 58.383,86.186 58.750 C 84.583 61.279,80.901 64.761,79.309 65.255 C 79.093 65.322,78.580 65.554,78.168 65.772 C 76.022 66.904,72.464 65.753,71.006 63.453 C 70.002 61.871,69.796 60.401,69.684 54.047 C 69.595 49.026,69.550 48.311,69.305 48.066 C 69.045 47.807,69.010 47.842,68.776 48.602 C 68.235 50.362,65.710 55.934,64.786 57.407 C 63.458 59.525,63.087 60.054,62.030 61.333 C 61.100 62.459,59.223 64.175,58.500 64.561 C 55.979 65.906,55.372 66.077,53.083 66.080 C 49.382 66.086,47.334 64.768,44.671 60.667 C 44.103 59.792,43.468 58.341,42.737 56.250 C 42.577 55.792,42.315 55.079,42.154 54.667 C 41.993 54.254,41.808 53.617,41.742 53.250 C 41.676 52.883,41.520 52.381,41.394 52.133 C 41.269 51.886,41.056 51.248,40.922 50.717 C 40.616 49.510,40.066 47.816,39.660 46.833 C 39.490 46.421,39.304 45.896,39.248 45.667 C 39.039 44.819,37.450 41.357,36.870 40.485 C 36.713 40.247,36.358 39.731,36.083 39.338 C 35.808 38.944,35.456 38.430,35.300 38.196 C 33.557 35.579,29.787 33.564,26.439 33.461 C 24.384 33.398,24.596 31.940,24.497 46.800 C 24.410 59.697,24.408 59.754,24.038 60.704 C 23.834 61.229,23.667 61.746,23.667 61.854 C 23.667 61.961,23.398 62.453,23.070 62.948 C 19.515 68.303,12.949 66.789,8.681 59.629 C 7.898 58.316,8.436 57.143,9.837 57.106 C 10.602 57.086,11.324 57.714,12.297 59.245 C 15.067 63.605,19.070 64.362,20.696 60.833 C 21.455 59.185,21.479 58.164,21.374 31.283 C 21.267 3.536,21.440 6.288,19.830 6.766 C 18.813 7.068,17.219 6.786,15.835 6.060 C 15.423 5.844,14.989 5.667,14.870 5.667 C 14.751 5.667,14.375 5.525,14.035 5.353 C 11.354 3.992,8.746 4.292,6.747 6.191 C 5.288 7.577,4.535 7.736,3.765 6.821 C 3.034 5.952,3.213 5.470,4.876 3.812 C 7.196 1.499,9.077 0.927,12.250 1.570 M343.421 1.699 C 344.312 2.105,344.333 2.279,344.333 9.169 C 344.333 13.230,344.396 15.638,344.506 15.844 C 344.667 16.146,344.886 16.167,347.881 16.169 C 351.853 16.171,352.272 16.231,352.591 16.848 C 352.941 17.524,352.890 18.082,352.431 18.616 L 352.029 19.083 348.429 19.134 C 344.873 19.184,344.826 19.190,344.575 19.572 C 344.351 19.914,344.327 22.309,344.369 40.188 L 344.417 60.417 344.917 61.320 C 345.727 62.786,346.025 62.926,348.204 62.867 C 350.256 62.813,350.572 62.691,352.543 61.200 C 353.504 60.473,356.069 57.542,356.768 56.372 C 357.813 54.622,358.333 53.680,358.333 53.537 C 358.333 53.450,358.479 53.194,358.656 52.968 C 358.834 52.742,359.032 52.338,359.097 52.070 C 359.161 51.802,359.355 51.301,359.528 50.957 C 359.742 50.529,359.889 49.710,359.991 48.373 C 360.073 47.297,360.252 45.929,360.389 45.333 C 360.527 44.737,360.716 43.913,360.811 43.500 C 361.065 42.391,361.709 40.624,362.042 40.120 C 362.202 39.877,362.333 39.641,362.333 39.595 C 362.333 39.353,363.436 37.830,364.200 37.016 C 365.765 35.350,367.342 34.507,369.876 33.981 L 371.669 33.609 373.491 33.969 C 375.906 34.445,377.044 35.038,378.725 36.694 C 380.542 38.484,380.833 38.398,380.833 36.073 C 380.833 34.341,381.719 33.478,382.912 34.048 C 383.698 34.422,383.649 33.626,383.720 47.083 C 383.803 62.925,383.782 62.833,387.338 62.833 L 389.014 62.833 389.944 62.147 C 391.130 61.270,391.825 60.570,393.149 58.915 C 394.558 57.153,394.747 57.000,395.518 57.000 C 398.896 57.000,394.961 63.114,389.958 65.642 C 389.177 66.036,388.895 66.083,387.333 66.083 C 384.399 66.083,382.867 65.084,381.521 62.292 C 380.979 61.167,380.609 60.893,380.424 61.477 C 380.140 62.371,377.138 64.932,375.896 65.339 C 375.541 65.455,375.086 65.657,374.886 65.787 C 373.915 66.418,369.485 66.354,368.252 65.691 C 367.887 65.494,367.520 65.333,367.436 65.333 C 366.151 65.333,362.579 61.311,361.663 58.833 C 361.477 58.329,361.255 57.767,361.170 57.583 C 361.085 57.400,360.903 56.969,360.766 56.625 C 360.470 55.883,360.224 55.833,359.950 56.458 C 359.757 56.898,359.644 57.088,358.686 58.583 C 357.001 61.215,352.630 65.333,351.522 65.333 C 351.424 65.333,351.023 65.502,350.630 65.708 C 349.499 66.303,346.624 66.255,345.277 65.618 C 341.920 64.031,341.180 61.737,341.171 52.889 C 341.166 48.114,341.021 47.466,340.275 48.875 C 338.417 52.385,334.309 56.157,331.243 57.169 C 330.524 57.406,329.791 58.222,329.129 59.523 C 327.587 62.550,325.561 64.324,322.083 65.690 C 320.445 66.334,316.025 66.281,314.500 65.599 C 310.710 63.904,307.378 59.206,309.057 57.925 C 310.125 57.111,310.776 57.493,312.167 59.748 C 313.657 62.165,316.355 63.685,318.716 63.438 C 323.823 62.904,326.940 59.524,327.760 53.634 C 328.058 51.490,326.775 47.739,324.750 44.838 C 324.475 44.444,324.125 43.934,323.971 43.704 C 323.818 43.474,323.626 43.240,323.546 43.184 C 323.465 43.129,322.700 42.258,321.846 41.250 C 318.528 37.336,318.002 36.975,316.909 37.866 C 315.254 39.213,309.553 42.499,308.868 42.500 C 308.750 42.500,308.368 42.646,308.019 42.824 C 307.413 43.133,305.525 43.451,303.761 43.541 C 302.688 43.596,302.563 43.972,303.017 45.792 C 303.498 47.717,303.441 53.485,302.933 54.306 C 302.888 54.380,302.774 54.916,302.680 55.497 C 302.140 58.849,299.185 63.529,296.936 64.593 C 296.651 64.729,296.229 64.943,296.000 65.071 C 294.104 66.123,289.651 66.567,288.492 65.819 C 288.267 65.674,287.856 65.477,287.579 65.382 C 285.408 64.640,281.333 60.045,281.333 58.340 C 281.333 57.509,280.166 57.216,279.921 57.986 C 279.866 58.161,279.617 58.570,279.368 58.895 C 279.120 59.220,278.729 59.760,278.500 60.094 C 277.787 61.134,274.958 64.009,274.083 64.583 C 270.362 67.023,269.197 66.897,262.751 63.356 C 260.280 61.999,260.086 61.945,257.969 62.028 C 255.760 62.115,254.896 62.563,251.318 65.475 C 249.902 66.628,248.667 66.292,248.667 64.754 C 248.667 64.086,249.472 62.839,251.484 60.390 C 251.722 60.100,252.104 59.590,252.333 59.257 C 252.563 58.924,253.125 58.172,253.583 57.586 C 254.042 57.000,254.679 56.159,254.999 55.718 C 255.319 55.277,255.623 54.879,255.674 54.833 C 255.725 54.788,256.525 53.737,257.452 52.500 C 258.379 51.262,259.635 49.612,260.242 48.833 C 260.850 48.054,261.474 47.229,261.629 47.000 C 261.893 46.611,262.709 45.532,264.218 43.573 C 267.458 39.368,267.441 39.476,264.917 39.243 C 264.275 39.184,263.412 39.000,263.000 38.834 C 262.587 38.668,261.912 38.420,261.500 38.284 C 261.087 38.147,260.037 37.759,259.167 37.421 C 256.014 36.197,254.556 36.932,251.777 41.148 C 250.131 43.643,248.819 45.646,248.585 46.020 C 248.493 46.168,248.273 46.505,248.098 46.770 C 247.923 47.034,247.616 47.512,247.415 47.833 C 246.224 49.739,245.722 50.490,245.233 51.100 C 244.932 51.475,244.635 52.000,244.573 52.266 C 244.511 52.532,244.356 52.917,244.229 53.121 C 244.102 53.324,243.928 54.149,243.842 54.954 C 243.624 56.987,242.893 58.927,241.530 61.083 C 240.915 62.056,238.726 64.149,237.933 64.521 C 237.557 64.697,237.063 64.945,236.833 65.071 C 234.634 66.283,229.970 66.556,227.833 65.598 C 224.058 63.906,220.793 59.392,222.301 57.948 C 223.099 57.183,224.206 57.544,224.836 58.776 C 226.211 61.465,229.067 63.500,231.467 63.500 C 232.425 63.500,235.274 62.737,235.768 62.349 C 236.012 62.157,236.283 62.000,236.371 62.000 C 237.232 62.000,240.500 57.600,240.500 56.441 C 240.500 56.305,240.618 55.732,240.763 55.168 C 241.919 50.654,239.910 46.366,233.208 39.043 C 231.645 37.335,231.892 37.301,229.458 39.567 C 226.529 42.295,225.069 43.458,222.608 45.023 C 221.452 45.758,221.234 45.768,220.579 45.113 C 219.461 43.994,219.918 43.100,222.501 41.351 C 224.488 40.007,227.137 37.620,230.066 34.535 C 231.491 33.034,232.491 33.228,233.994 35.297 C 234.379 35.827,236.527 38.253,236.829 38.500 C 237.106 38.726,240.327 42.677,240.751 43.310 C 241.477 44.395,242.760 46.842,243.056 47.708 C 243.280 48.362,243.977 47.829,244.964 46.250 C 245.251 45.792,245.620 45.230,245.784 45.002 C 246.275 44.322,247.833 41.820,247.833 41.714 C 247.833 41.659,248.021 41.369,248.250 41.069 C 248.479 40.768,248.667 40.487,248.667 40.445 C 248.667 40.363,249.613 38.841,250.352 37.735 C 251.532 35.969,253.281 34.498,254.500 34.247 C 254.821 34.180,255.362 33.985,255.702 33.813 C 256.491 33.414,257.593 33.413,258.337 33.812 C 258.657 33.983,259.256 34.179,259.668 34.246 C 260.080 34.313,260.642 34.471,260.917 34.597 C 264.882 36.413,268.206 36.584,270.167 35.072 C 271.877 33.753,272.721 33.631,273.478 34.593 C 274.148 35.446,273.782 36.070,269.083 42.090 C 268.625 42.677,267.875 43.655,267.417 44.262 C 266.626 45.311,266.004 46.124,264.243 48.417 C 263.820 48.967,262.992 50.054,262.401 50.833 C 261.811 51.612,260.898 52.809,260.373 53.493 C 259.847 54.177,259.304 54.904,259.167 55.110 C 259.029 55.316,258.448 56.088,257.875 56.826 C 256.367 58.769,256.405 58.833,259.037 58.833 C 260.360 58.833,260.858 58.902,261.398 59.161 C 261.775 59.341,262.346 59.604,262.667 59.745 C 262.987 59.887,263.625 60.221,264.083 60.487 C 264.542 60.753,265.142 61.078,265.417 61.210 C 265.692 61.341,266.020 61.572,266.145 61.724 C 266.271 61.876,266.463 62.000,266.571 62.000 C 266.680 62.000,267.023 62.187,267.333 62.417 C 268.241 63.086,271.097 63.037,272.167 62.334 C 273.776 61.276,276.605 58.348,277.401 56.917 C 277.554 56.642,277.897 56.079,278.163 55.667 C 279.686 53.310,279.700 53.258,279.841 49.500 C 279.911 47.621,280.050 45.875,280.149 45.621 C 280.247 45.366,280.408 44.661,280.505 44.054 C 280.602 43.447,280.818 42.643,280.985 42.267 C 281.152 41.891,281.341 41.364,281.405 41.096 C 281.469 40.829,281.666 40.425,281.844 40.199 C 282.021 39.973,282.167 39.725,282.167 39.647 C 282.167 39.088,284.439 36.397,285.598 35.583 C 290.629 32.051,297.361 33.651,300.666 39.162 C 301.857 41.150,304.395 41.288,308.129 39.571 C 308.612 39.349,309.092 39.167,309.195 39.167 C 309.298 39.167,309.765 38.915,310.233 38.607 C 310.701 38.299,311.413 37.830,311.816 37.565 C 313.066 36.743,314.752 35.606,315.498 35.083 C 317.750 33.505,318.234 33.381,319.425 34.080 C 319.813 34.307,320.408 34.880,320.748 35.353 C 321.088 35.826,321.875 36.746,322.498 37.398 C 324.112 39.089,326.759 42.258,327.457 43.333 C 327.783 43.837,328.219 44.512,328.425 44.833 C 328.631 45.154,328.854 45.604,328.920 45.833 C 328.986 46.063,329.137 46.362,329.257 46.500 C 329.376 46.637,329.527 46.975,329.593 47.250 C 329.658 47.525,329.880 48.163,330.085 48.667 C 330.328 49.263,330.499 50.137,330.575 51.167 C 330.638 52.038,330.730 52.919,330.780 53.125 C 330.992 54.012,332.370 53.311,334.412 51.276 C 335.766 49.927,336.272 49.301,337.327 47.667 C 337.866 46.833,339.500 43.252,339.500 42.906 C 339.500 42.767,339.644 42.372,339.819 42.027 C 339.995 41.683,340.194 41.107,340.261 40.748 C 340.329 40.389,340.541 39.755,340.734 39.339 C 341.231 38.265,341.383 20.015,340.899 19.480 C 340.640 19.195,340.330 19.166,337.433 19.159 C 333.562 19.149,333.115 19.019,333.032 17.881 C 332.921 16.348,333.406 16.169,337.675 16.168 C 339.856 16.167,340.826 16.108,340.967 15.967 C 341.115 15.818,341.167 14.125,341.167 9.378 C 341.167 4.163,341.211 2.883,341.409 2.409 C 341.753 1.585,342.553 1.303,343.421 1.699 M297.042 18.336 C 297.994 19.381,297.847 19.603,293.041 24.375 C 289.276 28.114,289.020 28.333,288.436 28.333 C 286.895 28.333,286.474 26.479,287.734 25.239 C 287.926 25.050,289.611 23.338,291.478 21.435 C 295.547 17.287,295.905 17.088,297.042 18.336 M290.333 36.823 C 287.613 37.283,284.592 40.256,283.824 43.229 C 283.726 43.607,283.520 44.254,283.365 44.667 C 282.947 45.779,282.948 54.015,283.365 55.252 C 283.521 55.711,283.724 56.424,283.818 56.835 C 284.249 58.729,286.202 61.351,287.892 62.305 C 289.563 63.248,292.956 63.405,294.475 62.610 C 295.533 62.056,295.804 61.887,296.263 61.495 C 299.218 58.971,300.552 54.583,300.240 48.417 C 299.865 41.019,295.530 35.945,290.333 36.823 M97.167 37.167 C 96.846 37.342,96.467 37.489,96.325 37.493 C 95.354 37.519,93.149 39.844,92.208 41.833 C 90.116 46.256,90.167 54.424,92.313 58.611 C 95.565 64.956,103.301 64.715,106.579 58.167 C 107.826 55.677,108.496 48.905,107.775 46.083 C 107.635 45.533,107.407 44.642,107.270 44.103 C 106.670 41.752,105.064 39.296,103.384 38.162 C 101.458 36.863,98.567 36.400,97.167 37.167 M170.833 37.122 C 170.512 37.269,169.938 37.530,169.556 37.702 C 163.951 40.234,162.297 53.907,166.849 60.083 C 170.480 65.011,177.420 64.002,180.191 58.142 C 181.628 55.104,182.177 48.037,181.199 45.187 C 180.998 44.602,180.833 44.014,180.833 43.881 C 180.833 43.070,179.001 39.837,178.059 38.987 C 177.336 38.334,176.125 37.500,175.902 37.500 C 175.793 37.500,175.376 37.352,174.977 37.170 C 174.044 36.747,171.711 36.720,170.833 37.122 M369.167 37.315 C 366.399 38.516,364.923 40.372,363.654 44.250 C 363.140 45.819,362.973 52.664,363.402 54.583 C 364.682 60.315,367.328 63.145,371.417 63.158 C 372.742 63.162,374.561 62.765,375.156 62.341 C 375.419 62.153,375.704 62.000,375.789 62.000 C 375.955 62.000,377.614 60.350,378.136 59.667 C 380.005 57.219,381.089 49.900,380.160 46.000 C 378.435 38.756,373.973 35.230,369.167 37.315 " stroke="none" fill="#ffffff" fill-rule="evenodd"></path></g></svg>