<svg id="svg" version="1.1" width="400" height="94.95327102803739" xmlns="http://www.w3.org/2000/svg" xmlns:xlink="http://www.w3.org/1999/xlink" style="display: block;"><g id="svgg"><path id="path0" d="M11.880 3.586 C 8.922 4.112,5.960 7.309,7.242 8.591 C 7.964 9.312,8.573 9.156,9.914 7.909 C 11.470 6.461,12.302 6.180,14.129 6.485 C 15.422 6.701,15.805 6.817,17.500 7.503 C 20.098 8.556,20.497 8.633,22.200 8.412 C 23.107 8.294,23.153 8.306,23.248 8.686 C 23.303 8.904,23.325 19.771,23.299 32.833 L 23.250 56.583 22.875 57.366 C 22.669 57.796,22.500 58.225,22.500 58.318 C 22.500 58.783,21.456 59.648,20.702 59.809 C 18.699 60.234,16.791 59.088,14.915 56.333 C 13.857 54.779,13.528 54.500,12.748 54.500 C 9.415 54.500,12.987 60.351,17.473 62.238 C 20.926 63.692,24.256 61.976,25.635 58.032 L 26.083 56.750 26.131 45.009 C 26.186 31.679,26.027 32.832,27.812 32.837 C 31.333 32.848,33.829 34.387,36.947 38.466 C 38.076 39.944,40.137 44.903,41.081 48.417 C 41.204 48.875,41.413 49.550,41.546 49.917 C 41.679 50.283,41.995 51.258,42.248 52.083 C 42.841 54.012,43.842 56.521,44.342 57.333 C 44.427 57.471,44.656 57.879,44.851 58.240 C 45.562 59.557,47.784 61.548,49.197 62.135 C 51.344 63.027,55.323 62.735,56.667 61.587 C 56.804 61.470,57.142 61.259,57.417 61.119 C 58.847 60.389,61.390 57.459,62.943 54.752 C 63.048 54.568,63.598 53.479,64.163 52.333 C 64.729 51.188,65.268 50.108,65.362 49.934 C 65.456 49.760,65.669 49.235,65.834 48.767 C 66.000 48.300,66.258 47.579,66.407 47.167 C 66.556 46.754,66.714 46.314,66.758 46.190 C 66.818 46.018,66.893 46.008,67.064 46.150 C 67.242 46.298,67.308 47.415,67.374 51.377 C 67.506 59.250,67.994 60.727,70.960 62.230 C 74.128 63.835,78.946 61.259,82.424 56.099 C 83.139 55.039,83.526 54.395,83.712 53.958 C 83.819 53.706,83.992 53.500,84.097 53.500 C 84.268 53.500,85.333 55.777,85.333 56.142 C 85.333 57.014,88.019 60.359,89.583 61.435 C 91.567 62.800,95.415 63.270,97.430 62.394 C 97.881 62.197,98.438 61.963,98.667 61.873 C 99.451 61.564,101.167 60.139,101.941 59.152 C 102.905 57.926,102.859 57.919,103.571 59.380 C 105.810 63.973,110.947 63.919,115.583 59.252 C 117.851 56.970,118.134 56.580,124.250 47.289 C 124.649 46.683,126.839 43.406,129.065 40.083 C 131.550 36.374,131.149 36.317,134.998 40.917 C 136.334 42.514,136.870 43.250,137.792 44.750 C 138.873 46.510,139.779 49.850,139.572 51.312 C 138.265 60.543,128.663 63.622,124.777 56.056 C 123.994 54.531,122.000 54.517,122.000 56.036 C 122.000 57.707,125.223 61.354,127.497 62.255 C 131.706 63.925,137.906 61.775,140.167 57.862 C 141.195 56.083,141.611 55.587,142.266 55.360 C 142.624 55.236,143.225 54.992,143.602 54.817 C 143.978 54.643,144.375 54.500,144.482 54.500 C 144.590 54.500,144.869 54.375,145.101 54.223 C 145.333 54.071,145.736 53.827,145.995 53.682 C 147.123 53.048,148.002 52.360,149.246 51.139 C 150.694 49.716,150.946 49.600,151.088 50.292 C 151.140 50.544,151.289 51.200,151.420 51.750 C 151.550 52.300,151.734 53.192,151.827 53.731 C 151.921 54.271,152.063 54.796,152.144 54.898 C 152.224 55.000,152.384 55.383,152.498 55.750 C 153.282 58.254,155.829 61.045,158.417 62.235 C 161.970 63.870,168.209 61.807,169.734 58.494 C 169.994 57.928,170.286 58.132,170.808 59.247 C 173.237 64.439,179.445 63.776,183.515 57.891 C 183.822 57.447,184.219 56.915,184.398 56.710 C 184.771 56.280,184.848 54.948,184.519 54.619 C 184.063 54.163,182.860 54.373,182.340 55.000 C 182.073 55.321,181.421 56.108,180.889 56.750 C 178.882 59.174,178.073 59.667,176.098 59.667 C 172.862 59.667,172.959 60.089,172.842 45.442 L 172.750 33.968 172.250 33.568 C 171.251 32.769,170.167 33.496,170.167 34.966 C 170.167 37.089,169.809 37.395,168.696 36.227 C 165.225 32.584,160.447 32.090,156.213 34.935 C 155.282 35.560,153.333 37.851,153.333 38.319 C 153.333 38.394,153.188 38.640,153.010 38.866 C 152.833 39.092,152.635 39.495,152.572 39.763 C 152.508 40.031,152.323 40.550,152.160 40.917 C 151.998 41.283,151.812 41.937,151.748 42.370 C 151.683 42.802,151.528 43.241,151.403 43.345 C 151.278 43.449,151.128 43.789,151.069 44.102 C 151.010 44.415,150.898 44.710,150.818 44.759 C 150.739 44.808,150.394 45.276,150.052 45.799 C 148.309 48.459,146.593 50.100,144.284 51.316 C 142.341 52.339,142.425 52.404,142.202 49.708 C 142.001 47.269,141.842 46.710,140.644 44.234 C 139.507 41.886,138.624 40.710,134.854 36.524 C 134.247 35.850,133.600 35.106,133.417 34.871 C 132.166 33.266,131.509 32.776,130.911 33.001 C 130.523 33.148,129.333 34.412,129.333 34.679 C 129.333 34.777,128.752 35.719,128.042 36.773 C 127.331 37.827,126.412 39.204,126.000 39.833 C 125.587 40.462,124.050 42.753,122.583 44.923 C 121.117 47.094,119.489 49.518,118.966 50.310 C 118.443 51.102,117.881 51.938,117.716 52.167 C 117.552 52.396,117.104 53.051,116.720 53.622 C 115.112 56.013,113.241 57.984,111.413 59.210 C 110.424 59.873,107.648 59.941,106.860 59.322 C 105.621 58.348,105.602 58.155,105.546 45.583 C 105.491 33.121,105.531 33.756,104.768 33.392 C 103.631 32.850,102.840 33.690,102.836 35.445 C 102.831 37.376,102.606 37.428,101.035 35.857 C 97.507 32.329,91.832 32.217,88.174 35.603 C 86.896 36.786,85.167 39.382,85.167 40.116 C 85.167 40.245,85.059 40.558,84.927 40.813 C 84.599 41.447,83.880 45.130,83.777 46.704 C 83.673 48.293,82.853 50.487,81.580 52.583 C 81.357 52.950,81.027 53.512,80.846 53.833 C 80.052 55.240,76.464 58.990,75.898 59.004 C 75.817 59.006,75.563 59.154,75.333 59.333 C 74.991 59.601,74.648 59.660,73.412 59.663 C 71.666 59.667,71.400 59.540,70.711 58.367 L 70.250 57.583 70.200 31.106 C 70.155 7.372,70.122 4.587,69.888 4.229 C 69.391 3.472,68.224 3.503,67.710 4.287 C 67.437 4.704,67.411 5.791,67.333 20.159 L 67.250 35.583 66.869 36.750 C 66.143 38.972,65.863 39.919,65.762 40.500 C 65.707 40.821,65.521 41.458,65.350 41.917 C 64.963 42.957,64.698 43.705,64.380 44.667 C 63.779 46.479,63.412 47.384,62.318 49.750 C 62.149 50.117,61.772 50.942,61.481 51.583 C 60.977 52.695,60.741 53.099,59.242 55.417 C 58.204 57.022,56.096 59.000,55.425 59.000 C 55.357 59.000,55.065 59.169,54.776 59.375 C 53.872 60.020,50.342 59.938,49.394 59.250 C 47.981 58.225,46.078 54.987,45.573 52.750 C 45.511 52.475,45.369 52.100,45.258 51.917 C 45.146 51.733,44.962 51.209,44.848 50.752 C 44.735 50.295,44.579 49.845,44.503 49.752 C 44.427 49.659,44.250 49.171,44.110 48.667 C 43.772 47.449,43.357 46.243,42.977 45.371 C 42.806 44.979,42.667 44.538,42.667 44.391 C 42.667 43.883,40.683 39.473,39.782 37.978 C 38.300 35.521,36.001 32.966,34.553 32.168 C 34.203 31.975,33.729 31.706,33.500 31.570 C 33.271 31.435,32.558 31.091,31.917 30.807 C 30.891 30.352,30.788 30.267,31.065 30.103 C 34.471 28.090,36.046 26.516,38.428 22.750 C 39.112 21.668,41.176 17.878,41.786 16.583 C 41.915 16.308,42.092 15.971,42.178 15.833 C 42.264 15.696,42.409 15.396,42.500 15.167 C 42.592 14.938,42.742 14.637,42.835 14.500 C 42.928 14.362,43.158 13.950,43.346 13.583 C 43.829 12.639,44.195 12.016,44.715 11.250 C 44.964 10.883,45.367 10.283,45.611 9.917 C 46.785 8.154,48.911 6.529,50.421 6.240 C 51.604 6.014,53.966 7.501,54.775 8.980 C 54.945 9.290,55.159 9.665,55.252 9.813 C 56.391 11.635,56.598 11.833,57.365 11.833 C 58.777 11.833,58.973 10.286,57.797 8.417 C 57.682 8.233,57.327 7.671,57.009 7.167 C 54.451 3.111,49.659 2.287,46.058 5.283 C 45.261 5.947,42.667 9.156,42.667 9.479 C 42.667 9.557,42.515 9.814,42.330 10.050 C 42.144 10.286,41.251 11.927,40.344 13.698 C 39.437 15.468,38.464 17.329,38.183 17.833 C 37.901 18.337,37.578 18.938,37.465 19.167 C 37.284 19.534,36.024 21.492,35.213 22.667 C 32.637 26.395,26.694 30.701,26.276 29.141 C 26.218 28.926,26.170 23.325,26.169 16.696 L 26.167 4.641 25.679 4.154 C 24.958 3.432,24.400 3.502,23.225 4.458 L 22.253 5.250 20.668 5.250 C 19.347 5.250,18.965 5.188,18.370 4.875 C 17.977 4.669,17.562 4.500,17.447 4.500 C 17.331 4.500,16.941 4.349,16.580 4.165 C 16.218 3.980,15.433 3.751,14.836 3.656 C 14.239 3.561,13.600 3.458,13.417 3.427 C 13.233 3.397,12.542 3.468,11.880 3.586 M226.052 3.798 C 225.428 4.194,225.418 4.457,225.370 20.882 C 225.318 38.717,225.396 37.688,224.192 36.394 C 219.845 31.722,212.648 32.207,209.264 37.400 C 208.392 38.738,207.833 39.759,207.832 40.015 C 207.832 40.144,207.714 40.475,207.571 40.750 C 206.574 42.662,206.058 50.131,206.794 52.000 C 206.885 52.229,207.014 52.829,207.081 53.333 C 207.148 53.837,207.345 54.565,207.518 54.949 C 207.692 55.334,207.833 55.737,207.833 55.846 C 207.833 56.057,208.653 57.545,209.295 58.500 C 210.136 59.749,212.669 62.000,213.235 62.000 C 213.299 62.000,213.704 62.164,214.134 62.365 C 216.848 63.629,221.339 62.457,223.924 59.811 C 224.607 59.111,225.167 58.455,225.167 58.352 C 225.167 57.812,225.698 58.300,226.141 59.247 C 228.054 63.336,232.448 63.964,236.047 60.664 C 239.359 57.627,240.544 55.255,239.151 54.450 C 238.279 53.946,237.703 54.234,236.761 55.646 C 236.060 56.696,234.310 58.556,233.265 59.360 C 232.338 60.073,229.953 59.936,229.220 59.127 C 228.195 57.997,228.259 59.707,228.167 30.833 C 228.120 16.113,228.018 4.450,227.936 4.279 C 227.692 3.777,226.545 3.484,226.052 3.798 M230.631 3.875 C 230.135 4.263,230.118 5.026,230.585 5.904 L 231.015 6.713 230.966 11.176 C 230.914 15.884,230.870 16.160,230.284 15.472 C 229.868 14.984,229.450 14.799,229.083 14.940 C 228.770 15.060,228.759 15.639,229.064 15.987 C 229.191 16.132,229.575 16.788,229.916 17.445 C 230.258 18.103,230.749 18.890,231.007 19.195 L 231.477 19.750 231.886 19.333 C 232.386 18.824,234.000 15.752,234.000 15.310 C 234.000 14.662,232.886 14.877,232.450 15.610 C 232.069 16.250,232.000 15.567,232.000 11.136 C 232.000 6.717,232.021 6.396,232.347 5.722 C 233.049 4.273,231.817 2.947,230.631 3.875 M246.898 27.738 C 246.777 28.054,246.946 28.276,247.528 28.566 C 248.207 28.905,248.051 29.555,247.250 29.724 C 246.883 29.801,246.201 30.044,245.733 30.265 C 245.266 30.486,244.832 30.667,244.770 30.667 C 244.179 30.667,241.354 33.069,240.239 34.519 C 240.055 34.759,239.666 35.078,239.374 35.229 C 238.365 35.751,238.166 36.906,238.984 37.489 C 239.996 38.209,240.833 37.703,240.833 36.370 C 240.833 34.391,247.256 29.494,248.087 30.839 C 248.165 30.966,248.067 31.157,247.833 31.333 C 247.437 31.632,247.453 32.500,247.855 32.500 C 248.116 32.500,251.208 30.405,251.664 29.919 C 252.220 29.327,251.822 28.770,250.587 28.411 C 250.086 28.265,249.454 28.035,249.183 27.900 C 248.364 27.491,247.029 27.397,246.898 27.738 M249.285 33.240 C 248.937 33.364,248.377 33.517,248.040 33.580 C 247.703 33.644,247.226 33.839,246.980 34.014 C 246.733 34.190,246.476 34.333,246.408 34.333 C 245.262 34.333,241.551 38.574,241.377 40.083 C 241.130 42.220,243.423 41.910,244.592 39.649 C 245.395 38.097,248.505 35.954,249.977 35.938 C 252.302 35.913,252.423 36.694,252.282 50.842 C 252.173 61.775,252.169 61.695,252.956 62.292 C 253.402 62.630,254.143 62.539,254.591 62.091 L 255.000 61.682 255.003 54.716 L 255.006 47.750 255.462 47.083 C 255.712 46.717,256.561 45.554,257.348 44.500 C 261.151 39.405,262.272 37.884,262.533 37.471 C 263.090 36.584,263.381 36.567,264.946 37.329 C 268.021 38.824,271.516 38.506,274.273 36.480 C 275.931 35.261,276.215 34.490,275.316 33.650 C 274.601 32.983,274.029 33.126,272.305 34.406 C 270.585 35.683,267.361 35.818,265.688 34.683 C 263.075 32.910,262.481 32.860,261.417 34.327 C 261.142 34.706,260.729 35.268,260.500 35.575 C 260.271 35.882,259.957 36.310,259.803 36.525 C 259.348 37.160,256.050 41.547,255.688 41.998 C 255.173 42.640,255.090 42.337,254.989 39.445 C 254.895 36.785,254.887 36.736,254.333 35.698 C 253.245 33.659,251.074 32.602,249.285 33.240 M330.661 33.399 C 329.280 33.768,328.978 33.907,327.595 34.818 C 326.149 35.770,323.667 39.110,323.667 40.102 C 323.667 40.224,323.525 40.645,323.352 41.037 C 322.421 43.146,321.993 49.759,322.652 51.833 C 322.754 52.154,322.914 52.896,323.009 53.482 C 323.103 54.068,323.290 54.703,323.424 54.894 C 323.557 55.085,323.667 55.364,323.667 55.514 C 323.667 55.820,324.420 57.286,325.082 58.269 C 326.140 59.838,328.718 61.997,329.539 62.001 C 329.655 62.002,329.975 62.126,330.250 62.278 C 332.402 63.466,337.111 62.301,339.549 59.978 C 340.966 58.628,341.083 58.688,341.083 60.759 L 341.083 62.429 339.162 64.756 C 331.910 73.542,329.453 78.789,329.722 84.917 C 329.867 88.215,331.000 90.209,333.417 91.417 C 334.550 91.984,338.568 92.168,339.500 91.697 C 341.459 90.705,342.550 89.391,343.471 86.917 L 343.904 85.750 343.994 74.236 L 344.083 62.722 345.032 61.569 C 345.553 60.935,346.201 60.178,346.470 59.887 C 350.861 55.136,351.832 52.893,349.436 53.034 L 348.593 53.083 347.284 54.667 C 344.808 57.662,344.367 58.111,344.177 57.833 C 344.063 57.668,344.004 53.587,344.003 45.740 L 344.000 33.896 343.533 33.448 C 342.437 32.398,341.333 33.333,341.333 35.311 C 341.333 36.874,340.910 37.310,340.220 36.458 C 338.012 33.729,334.108 32.480,330.661 33.399 M362.635 33.342 C 360.546 33.787,358.957 34.643,357.658 36.023 C 357.064 36.653,356.656 37.223,355.705 38.750 C 355.181 39.591,354.512 41.476,354.325 42.638 C 354.234 43.201,354.092 43.842,354.008 44.063 C 353.751 44.737,353.630 48.326,353.807 50.000 C 354.486 56.414,356.893 60.422,361.170 62.261 C 362.613 62.882,365.920 62.947,367.167 62.381 C 367.579 62.193,368.103 61.983,368.331 61.913 C 369.319 61.610,371.101 60.123,372.196 58.686 C 372.716 58.005,372.823 58.057,373.432 59.288 C 376.073 64.625,382.074 63.677,386.294 57.256 C 387.251 55.800,387.371 55.203,386.811 54.681 C 385.897 53.830,385.036 54.130,384.040 55.649 C 382.061 58.664,380.040 60.022,377.923 59.758 C 375.582 59.466,375.503 59.004,375.490 45.634 C 375.480 33.822,375.485 33.906,374.692 33.443 C 373.490 32.741,372.670 33.728,372.668 35.880 C 372.666 37.154,372.361 37.291,371.526 36.394 C 369.921 34.669,368.330 33.777,366.039 33.316 C 364.218 32.950,364.485 32.948,362.635 33.342 M287.029 33.413 C 286.816 33.530,286.179 34.071,285.612 34.614 C 284.363 35.813,280.059 39.238,278.941 39.922 C 276.900 41.171,276.438 41.952,277.179 42.894 C 277.790 43.672,278.429 43.517,280.645 42.053 C 281.711 41.349,282.665 40.693,282.765 40.595 C 282.865 40.497,283.197 40.229,283.503 40.000 C 283.808 39.771,284.461 39.258,284.953 38.860 C 286.391 37.697,286.302 37.199,286.363 46.698 C 286.423 55.982,286.408 55.847,287.638 58.305 C 290.492 64.006,299.587 64.032,303.918 58.352 C 304.795 57.203,305.151 57.410,305.746 59.417 C 306.568 62.188,310.343 63.548,313.385 62.169 C 316.119 60.929,319.995 55.965,319.202 54.719 C 318.535 53.668,317.382 54.097,316.018 55.904 C 314.896 57.391,313.812 58.539,312.754 59.363 C 312.100 59.872,309.842 59.930,309.120 59.456 C 307.829 58.610,307.816 58.488,307.692 45.400 C 307.575 33.185,307.613 33.662,306.721 33.322 C 306.192 33.121,305.197 33.561,305.089 34.043 C 305.043 34.248,304.979 38.017,304.945 42.417 C 304.873 51.917,304.800 52.386,302.926 55.325 C 299.497 60.706,292.402 61.416,289.881 56.631 L 289.417 55.750 289.333 44.969 L 289.250 34.188 288.760 33.677 C 288.233 33.127,287.697 33.045,287.029 33.413 M346.792 33.595 C 346.223 33.904,346.178 34.624,346.667 35.583 C 346.972 36.182,346.999 36.555,346.990 39.994 C 346.978 44.780,346.800 45.821,346.199 44.606 C 345.992 44.188,345.240 43.982,344.956 44.267 C 344.868 44.354,345.250 45.278,345.673 46.000 C 345.753 46.137,346.103 46.803,346.449 47.479 C 347.290 49.119,347.798 49.217,348.475 47.870 C 348.647 47.529,349.059 46.725,349.390 46.083 C 350.227 44.465,350.061 43.415,349.109 44.309 C 348.587 44.800,348.224 44.763,348.118 44.208 C 347.906 43.105,348.208 36.096,348.500 35.333 C 348.867 34.373,348.689 33.765,347.966 33.513 C 347.333 33.292,347.353 33.291,346.792 33.595 M378.180 33.540 C 377.495 33.897,377.402 34.547,377.901 35.501 C 378.619 36.874,378.471 41.963,377.743 40.917 C 377.310 40.293,377.154 40.167,376.822 40.167 C 376.091 40.167,376.248 40.720,377.766 43.500 C 378.768 45.335,379.104 45.278,380.172 43.091 C 380.556 42.306,380.931 41.626,381.005 41.580 C 381.898 41.028,381.166 39.889,380.259 40.420 C 379.871 40.647,379.504 40.833,379.444 40.833 C 379.146 40.833,379.335 36.365,379.663 35.643 C 380.352 34.125,379.467 32.871,378.180 33.540 M310.669 33.914 C 310.450 34.177,309.350 36.198,308.904 37.153 C 308.695 37.603,308.678 37.809,308.827 38.135 L 309.015 38.548 309.491 38.092 C 310.504 37.121,310.578 37.333,310.628 41.354 C 310.680 45.479,310.592 45.803,309.667 44.917 C 308.895 44.177,308.345 44.840,308.907 45.833 C 309.037 46.063,309.459 46.875,309.846 47.640 C 310.578 49.087,311.104 49.564,311.554 49.191 C 311.871 48.928,313.308 46.004,313.436 45.361 C 313.589 44.596,313.082 44.441,312.562 45.094 C 311.874 45.956,311.756 45.529,311.698 41.950 C 311.630 37.787,311.861 36.652,312.534 37.834 C 312.857 38.401,313.244 38.479,313.487 38.025 C 313.643 37.733,312.270 34.643,311.655 33.903 C 311.400 33.596,310.928 33.601,310.669 33.914 M97.000 36.464 C 98.648 37.207,100.536 39.085,100.918 40.359 C 100.982 40.574,101.128 40.900,101.242 41.083 C 102.922 43.778,102.864 51.904,101.140 55.474 C 100.474 56.852,98.632 59.000,98.115 59.000 C 98.034 59.000,97.767 59.143,97.522 59.318 C 96.100 60.330,92.516 60.181,90.833 59.041 C 87.863 57.027,86.750 54.019,86.750 48.000 C 86.750 40.820,88.790 37.128,93.417 35.937 C 94.216 35.731,95.937 35.984,97.000 36.464 M163.250 36.100 C 163.617 36.239,164.116 36.416,164.360 36.494 C 169.873 38.251,171.826 51.618,167.376 57.133 C 163.838 61.517,157.875 60.860,155.394 55.813 C 153.497 51.954,153.471 44.296,155.342 40.417 C 156.962 37.057,160.571 35.087,163.250 36.100 M219.359 36.380 C 220.991 37.054,223.500 39.431,223.500 40.302 C 223.500 40.368,223.641 40.685,223.814 41.007 C 225.052 43.316,225.551 49.984,224.687 52.667 C 224.495 53.262,224.337 53.855,224.335 53.984 C 224.334 54.112,224.101 54.712,223.816 55.317 C 220.963 61.382,213.622 61.666,210.715 55.825 C 208.890 52.157,208.803 44.229,210.549 40.667 C 211.796 38.122,213.610 36.572,216.083 35.937 C 216.740 35.769,218.434 35.998,219.359 36.380 M335.511 36.378 C 337.226 37.161,338.780 38.849,339.690 40.917 C 341.510 45.049,341.435 51.833,339.528 55.611 C 336.665 61.282,329.341 61.372,326.600 55.770 C 324.618 51.719,324.651 43.973,326.667 40.192 C 328.653 36.466,332.279 34.902,335.511 36.378 M366.733 36.395 C 370.386 37.909,372.333 41.984,372.333 48.113 C 372.333 56.549,368.501 61.105,362.489 59.815 C 360.400 59.367,357.949 56.697,357.354 54.221 C 357.270 53.870,357.070 53.096,356.909 52.500 C 356.381 50.541,356.480 44.855,357.076 42.833 C 358.089 39.400,359.749 37.299,362.250 36.286 C 363.646 35.720,365.196 35.758,366.733 36.395 M362.820 39.048 C 360.924 40.872,360.512 41.472,359.904 43.292 C 359.391 44.827,359.260 44.930,358.901 44.072 C 358.320 42.680,357.710 44.037,358.254 45.515 C 358.402 45.919,358.672 46.718,358.853 47.290 C 359.281 48.646,359.793 48.858,360.527 47.983 C 361.143 47.247,362.175 45.782,362.529 45.138 C 362.992 44.298,362.497 43.816,361.811 44.437 C 360.938 45.227,360.814 43.773,361.632 42.333 C 362.691 40.469,363.326 39.984,364.528 40.119 C 365.284 40.204,365.313 40.190,365.752 39.527 L 366.202 38.847 365.848 38.273 C 365.127 37.108,364.734 37.208,362.820 39.048 M216.879 37.897 C 216.572 38.066,216.254 38.350,214.610 39.919 C 213.520 40.959,212.333 43.077,212.333 43.981 C 212.333 44.936,211.993 45.049,211.522 44.250 C 211.143 43.608,211.036 43.565,210.605 43.880 C 210.293 44.109,210.281 44.058,211.481 47.534 C 211.950 48.893,212.554 49.015,213.333 47.910 C 213.941 47.049,214.600 46.146,214.991 45.640 C 215.585 44.872,215.339 43.818,214.698 44.381 C 213.111 45.773,213.355 43.323,215.011 41.234 C 215.694 40.374,216.079 40.180,217.116 40.173 C 218.107 40.166,218.500 39.807,218.500 38.905 C 218.500 38.080,217.584 37.510,216.879 37.897 M331.275 38.958 C 329.434 40.641,328.171 42.444,328.164 43.398 C 328.157 44.533,327.883 44.704,327.069 44.083 C 326.006 43.273,325.618 43.932,326.333 45.333 C 326.517 45.693,326.667 46.099,326.667 46.237 C 326.667 46.644,327.336 48.312,327.609 48.585 C 327.856 48.832,328.833 48.487,328.833 48.154 C 328.833 48.094,329.040 47.778,329.292 47.450 C 330.522 45.853,331.000 45.090,331.000 44.729 C 331.000 44.198,330.508 44.208,329.864 44.750 C 329.027 45.454,328.920 44.978,329.529 43.267 C 330.230 41.295,331.517 40.082,332.705 40.275 C 333.919 40.472,334.769 38.774,333.796 38.093 C 333.078 37.590,332.589 37.758,331.275 38.958 M282.000 43.939 C 281.047 44.680,279.943 45.198,279.597 45.066 C 278.625 44.693,277.794 46.476,278.576 47.258 C 279.371 48.053,280.122 47.788,280.917 46.432 C 281.983 44.612,282.667 45.103,282.667 47.688 C 282.667 50.053,282.287 51.062,281.858 49.833 C 281.661 49.268,280.667 49.068,280.667 49.593 C 280.667 50.009,282.712 54.000,282.925 54.000 C 283.280 54.000,283.868 53.501,284.082 53.019 C 284.228 52.688,284.640 51.892,284.997 51.250 C 285.947 49.541,285.795 48.789,284.641 49.492 C 283.656 50.093,283.667 50.124,283.667 46.783 C 283.667 42.992,283.526 42.752,282.000 43.939 M257.795 48.875 C 257.569 49.173,257.294 49.692,257.183 50.028 C 257.073 50.365,256.874 50.730,256.741 50.840 C 256.609 50.951,256.500 51.126,256.500 51.231 C 256.500 51.336,256.345 51.711,256.155 52.066 C 255.772 52.780,255.886 53.062,256.522 52.972 C 256.779 52.936,257.000 52.728,257.155 52.375 C 257.760 51.001,258.036 52.126,257.971 55.700 C 257.912 58.887,257.760 59.486,257.256 58.512 C 256.939 57.899,256.255 57.511,255.979 57.788 C 255.771 57.995,257.885 62.420,258.260 62.564 C 258.832 62.783,261.133 58.885,260.924 58.052 C 260.805 57.578,260.408 57.552,260.128 58.000 C 259.406 59.156,259.000 58.226,259.000 55.417 C 259.000 52.491,259.208 52.011,260.109 52.858 C 260.789 53.496,261.271 52.735,260.758 51.833 C 260.628 51.604,260.215 50.800,259.841 50.046 C 258.934 48.217,258.488 47.962,257.795 48.875 M340.967 67.533 C 341.223 67.790,341.249 83.892,340.996 85.454 C 340.184 90.458,333.458 90.841,332.636 85.929 C 332.188 83.253,333.302 77.753,334.619 76.137 C 334.718 76.016,334.917 75.654,335.063 75.333 C 335.208 75.012,335.422 74.604,335.538 74.426 C 335.868 73.923,336.898 72.322,337.086 72.021 C 337.493 71.370,338.263 70.234,338.416 70.060 C 338.508 69.955,339.025 69.299,339.565 68.601 C 340.605 67.258,340.654 67.220,340.967 67.533 " stroke="none" fill="#000000" fill-rule="evenodd"></path><path id="path1" d="M0.000 47.417 L 0.000 94.833 200.000 94.833 L 400.000 94.833 400.000 47.417 L 400.000 0.000 200.000 0.000 L 0.000 0.000 0.000 47.417 M14.836 3.656 C 15.433 3.751,16.218 3.980,16.580 4.165 C 16.941 4.349,17.331 4.500,17.447 4.500 C 17.562 4.500,17.977 4.669,18.370 4.875 C 18.965 5.188,19.347 5.250,20.668 5.250 L 22.253 5.250 23.225 4.458 C 24.400 3.502,24.958 3.432,25.679 4.154 L 26.167 4.641 26.169 16.696 C 26.170 23.325,26.218 28.926,26.276 29.141 C 26.694 30.701,32.637 26.395,35.213 22.667 C 36.024 21.492,37.284 19.534,37.465 19.167 C 37.578 18.938,37.901 18.337,38.183 17.833 C 38.464 17.329,39.437 15.468,40.344 13.698 C 41.251 11.927,42.144 10.286,42.330 10.050 C 42.515 9.814,42.667 9.557,42.667 9.479 C 42.667 9.156,45.261 5.947,46.058 5.283 C 49.659 2.287,54.451 3.111,57.009 7.167 C 57.327 7.671,57.682 8.233,57.797 8.417 C 58.973 10.286,58.777 11.833,57.365 11.833 C 56.598 11.833,56.391 11.635,55.252 9.813 C 55.159 9.665,54.945 9.290,54.775 8.980 C 53.966 7.501,51.604 6.014,50.421 6.240 C 48.911 6.529,46.785 8.154,45.611 9.917 C 45.367 10.283,44.964 10.883,44.715 11.250 C 44.195 12.016,43.829 12.639,43.346 13.583 C 43.158 13.950,42.928 14.362,42.835 14.500 C 42.742 14.637,42.592 14.938,42.500 15.167 C 42.409 15.396,42.264 15.696,42.178 15.833 C 42.092 15.971,41.915 16.308,41.786 16.583 C 41.176 17.878,39.112 21.668,38.428 22.750 C 36.046 26.516,34.471 28.090,31.065 30.103 C 30.788 30.267,30.891 30.352,31.917 30.807 C 32.558 31.091,33.271 31.435,33.500 31.570 C 33.729 31.706,34.203 31.975,34.553 32.168 C 36.001 32.966,38.300 35.521,39.782 37.978 C 40.683 39.473,42.667 43.883,42.667 44.391 C 42.667 44.538,42.806 44.979,42.977 45.371 C 43.357 46.243,43.772 47.449,44.110 48.667 C 44.250 49.171,44.427 49.659,44.503 49.752 C 44.579 49.845,44.735 50.295,44.848 50.752 C 44.962 51.209,45.146 51.733,45.258 51.917 C 45.369 52.100,45.511 52.475,45.573 52.750 C 46.078 54.987,47.981 58.225,49.394 59.250 C 50.342 59.938,53.872 60.020,54.776 59.375 C 55.065 59.169,55.357 59.000,55.425 59.000 C 56.096 59.000,58.204 57.022,59.242 55.417 C 60.741 53.099,60.977 52.695,61.481 51.583 C 61.772 50.942,62.149 50.117,62.318 49.750 C 63.412 47.384,63.779 46.479,64.380 44.667 C 64.698 43.705,64.963 42.957,65.350 41.917 C 65.521 41.458,65.707 40.821,65.762 40.500 C 65.863 39.919,66.143 38.972,66.869 36.750 L 67.250 35.583 67.333 20.159 C 67.411 5.791,67.437 4.704,67.710 4.287 C 68.224 3.503,69.391 3.472,69.888 4.229 C 70.122 4.587,70.155 7.372,70.200 31.106 L 70.250 57.583 70.711 58.367 C 71.400 59.540,71.666 59.667,73.412 59.663 C 74.648 59.660,74.991 59.601,75.333 59.333 C 75.563 59.154,75.817 59.006,75.898 59.004 C 76.464 58.990,80.052 55.240,80.846 53.833 C 81.027 53.512,81.357 52.950,81.580 52.583 C 82.853 50.487,83.673 48.293,83.777 46.704 C 83.880 45.130,84.599 41.447,84.927 40.813 C 85.059 40.558,85.167 40.245,85.167 40.116 C 85.167 39.382,86.896 36.786,88.174 35.603 C 91.832 32.217,97.507 32.329,101.035 35.857 C 102.606 37.428,102.831 37.376,102.836 35.445 C 102.840 33.690,103.631 32.850,104.768 33.392 C 105.531 33.756,105.491 33.121,105.546 45.583 C 105.602 58.155,105.621 58.348,106.860 59.322 C 107.648 59.941,110.424 59.873,111.413 59.210 C 113.241 57.984,115.112 56.013,116.720 53.622 C 117.104 53.051,117.552 52.396,117.716 52.167 C 117.881 51.938,118.443 51.102,118.966 50.310 C 119.489 49.518,121.117 47.094,122.583 44.923 C 124.050 42.753,125.587 40.462,126.000 39.833 C 126.412 39.204,127.331 37.827,128.042 36.773 C 128.752 35.719,129.333 34.777,129.333 34.679 C 129.333 34.412,130.523 33.148,130.911 33.001 C 131.509 32.776,132.166 33.266,133.417 34.871 C 133.600 35.106,134.247 35.850,134.854 36.524 C 138.624 40.710,139.507 41.886,140.644 44.234 C 141.842 46.710,142.001 47.269,142.202 49.708 C 142.425 52.404,142.341 52.339,144.284 51.316 C 146.593 50.100,148.309 48.459,150.052 45.799 C 150.394 45.276,150.739 44.808,150.818 44.759 C 150.898 44.710,151.010 44.415,151.069 44.102 C 151.128 43.789,151.278 43.449,151.403 43.345 C 151.528 43.241,151.683 42.802,151.748 42.370 C 151.812 41.937,151.998 41.283,152.160 40.917 C 152.323 40.550,152.508 40.031,152.572 39.763 C 152.635 39.495,152.833 39.092,153.010 38.866 C 153.188 38.640,153.333 38.394,153.333 38.319 C 153.333 37.851,155.282 35.560,156.213 34.935 C 157.892 33.807,158.526 33.571,160.991 33.159 C 163.462 32.745,166.550 33.975,168.696 36.227 C 169.809 37.395,170.167 37.089,170.167 34.966 C 170.167 33.496,171.251 32.769,172.250 33.568 L 172.750 33.968 172.842 45.442 C 172.959 60.089,172.862 59.667,176.098 59.667 C 178.073 59.667,178.882 59.174,180.889 56.750 C 181.421 56.108,182.073 55.321,182.340 55.000 C 182.860 54.373,184.063 54.163,184.519 54.619 C 184.848 54.948,184.771 56.280,184.398 56.710 C 184.219 56.915,183.822 57.447,183.515 57.891 C 179.445 63.776,173.237 64.439,170.808 59.247 C 170.286 58.132,169.994 57.928,169.734 58.494 C 168.209 61.807,161.970 63.870,158.417 62.235 C 155.829 61.045,153.282 58.254,152.498 55.750 C 152.384 55.383,152.224 55.000,152.144 54.898 C 152.063 54.796,151.921 54.271,151.827 53.731 C 151.734 53.192,151.550 52.300,151.420 51.750 C 151.289 51.200,151.140 50.544,151.088 50.292 C 150.946 49.600,150.694 49.716,149.246 51.139 C 148.002 52.360,147.123 53.048,145.995 53.682 C 145.736 53.827,145.333 54.071,145.101 54.223 C 144.869 54.375,144.590 54.500,144.482 54.500 C 144.375 54.500,143.978 54.643,143.602 54.817 C 143.225 54.992,142.624 55.236,142.266 55.360 C 141.611 55.587,141.195 56.083,140.167 57.862 C 137.906 61.775,131.706 63.925,127.497 62.255 C 125.223 61.354,122.000 57.707,122.000 56.036 C 122.000 54.517,123.994 54.531,124.777 56.056 C 128.663 63.622,138.265 60.543,139.572 51.312 C 139.779 49.850,138.873 46.510,137.792 44.750 C 136.870 43.250,136.334 42.514,134.998 40.917 C 131.149 36.317,131.550 36.374,129.065 40.083 C 126.839 43.406,124.649 46.683,124.250 47.289 C 118.134 56.580,117.851 56.970,115.583 59.252 C 110.947 63.919,105.810 63.973,103.571 59.380 C 102.859 57.919,102.905 57.926,101.941 59.152 C 101.167 60.139,99.451 61.564,98.667 61.873 C 98.438 61.963,97.881 62.197,97.430 62.394 C 95.415 63.270,91.567 62.800,89.583 61.435 C 88.019 60.359,85.333 57.014,85.333 56.142 C 85.333 55.777,84.268 53.500,84.097 53.500 C 83.992 53.500,83.819 53.706,83.712 53.958 C 83.604 54.210,83.344 54.686,83.133 55.016 C 79.243 61.100,74.397 63.971,70.960 62.230 C 67.994 60.727,67.506 59.250,67.374 51.377 C 67.308 47.415,67.242 46.298,67.064 46.150 C 66.893 46.008,66.818 46.018,66.758 46.190 C 66.714 46.314,66.556 46.754,66.407 47.167 C 66.258 47.579,66.000 48.300,65.834 48.767 C 65.669 49.235,65.456 49.760,65.362 49.934 C 65.268 50.108,64.729 51.188,64.163 52.333 C 61.961 56.796,59.430 60.092,57.417 61.119 C 57.142 61.259,56.804 61.470,56.667 61.587 C 55.323 62.735,51.344 63.027,49.197 62.135 C 47.784 61.548,45.562 59.557,44.851 58.240 C 44.656 57.879,44.427 57.471,44.342 57.333 C 43.842 56.521,42.841 54.012,42.248 52.083 C 41.995 51.258,41.679 50.283,41.546 49.917 C 41.413 49.550,41.204 48.875,41.081 48.417 C 40.137 44.903,38.076 39.944,36.947 38.466 C 33.829 34.387,31.333 32.848,27.812 32.837 C 26.027 32.832,26.186 31.679,26.131 45.009 L 26.083 56.750 25.635 58.032 C 23.310 64.683,15.878 64.113,11.781 56.970 C 10.972 55.562,11.388 54.500,12.748 54.500 C 13.528 54.500,13.857 54.779,14.915 56.333 C 16.791 59.088,18.699 60.234,20.702 59.809 C 21.456 59.648,22.500 58.783,22.500 58.318 C 22.500 58.225,22.669 57.796,22.875 57.366 L 23.250 56.583 23.299 32.833 C 23.325 19.771,23.303 8.904,23.248 8.686 C 23.153 8.306,23.107 8.294,22.200 8.412 C 20.497 8.633,20.098 8.556,17.500 7.503 C 13.490 5.879,12.010 5.958,9.914 7.909 C 8.573 9.156,7.964 9.312,7.242 8.591 C 6.475 7.824,7.124 6.439,8.950 4.944 C 10.143 3.967,12.287 3.239,13.417 3.427 C 13.600 3.458,14.239 3.561,14.836 3.656 M227.383 3.821 C 228.085 4.087,228.081 3.957,228.167 30.833 C 228.259 59.707,228.195 57.997,229.220 59.127 C 229.953 59.936,232.338 60.073,233.265 59.360 C 234.310 58.556,236.060 56.696,236.761 55.646 C 238.309 53.326,240.719 54.108,239.486 56.529 C 236.034 63.306,228.736 64.793,226.141 59.247 C 225.698 58.300,225.167 57.812,225.167 58.352 C 225.167 58.736,222.665 61.091,221.799 61.523 C 219.469 62.686,219.300 62.728,217.036 62.729 C 215.205 62.729,214.810 62.679,214.134 62.365 C 213.704 62.164,213.299 62.000,213.235 62.000 C 212.669 62.000,210.136 59.749,209.295 58.500 C 208.653 57.545,207.833 56.057,207.833 55.846 C 207.833 55.737,207.692 55.334,207.518 54.949 C 207.345 54.565,207.148 53.837,207.081 53.333 C 207.014 52.829,206.885 52.229,206.794 52.000 C 206.058 50.131,206.574 42.662,207.571 40.750 C 207.714 40.475,207.832 40.144,207.832 40.015 C 207.833 39.759,208.392 38.738,209.264 37.400 C 212.648 32.207,219.845 31.722,224.192 36.394 C 225.396 37.688,225.318 38.717,225.370 20.882 C 225.418 4.457,225.428 4.194,226.052 3.798 C 226.323 3.626,226.896 3.635,227.383 3.821 M232.164 3.832 C 232.666 4.101,232.744 4.903,232.347 5.722 C 232.021 6.396,232.000 6.717,232.000 11.136 C 232.000 15.567,232.069 16.250,232.450 15.610 C 232.886 14.877,234.000 14.662,234.000 15.310 C 234.000 15.752,232.386 18.824,231.886 19.333 L 231.477 19.750 231.007 19.195 C 230.749 18.890,230.258 18.103,229.916 17.445 C 229.575 16.788,229.191 16.132,229.064 15.987 C 228.759 15.639,228.770 15.060,229.083 14.940 C 229.450 14.799,229.868 14.984,230.284 15.472 C 230.870 16.160,230.914 15.884,230.966 11.176 L 231.015 6.713 230.585 5.904 C 229.764 4.359,230.744 3.072,232.164 3.832 M249.183 27.900 C 249.454 28.035,250.086 28.265,250.587 28.411 C 251.822 28.770,252.220 29.327,251.664 29.919 C 251.208 30.405,248.116 32.500,247.855 32.500 C 247.453 32.500,247.437 31.632,247.833 31.333 C 248.339 30.952,248.125 30.600,247.467 30.732 C 246.656 30.894,244.226 32.154,243.464 32.807 C 241.478 34.510,240.833 35.383,240.833 36.370 C 240.833 37.703,239.996 38.209,238.984 37.489 C 238.166 36.906,238.365 35.751,239.374 35.229 C 239.666 35.078,240.055 34.759,240.239 34.519 C 241.354 33.069,244.179 30.667,244.770 30.667 C 244.832 30.667,245.266 30.486,245.733 30.265 C 246.201 30.044,246.883 29.801,247.250 29.724 C 248.051 29.555,248.207 28.905,247.528 28.566 C 246.946 28.276,246.777 28.054,246.898 27.738 C 247.029 27.397,248.364 27.491,249.183 27.900 M251.690 33.342 C 254.110 34.296,254.856 35.677,254.989 39.445 C 255.090 42.337,255.173 42.640,255.688 41.998 C 256.050 41.547,259.348 37.160,259.803 36.525 C 259.957 36.310,260.271 35.882,260.500 35.575 C 260.729 35.268,261.142 34.706,261.417 34.327 C 262.481 32.860,263.075 32.910,265.688 34.683 C 267.361 35.818,270.585 35.683,272.305 34.406 C 274.029 33.126,274.601 32.983,275.316 33.650 C 276.215 34.490,275.931 35.261,274.273 36.480 C 271.516 38.506,268.021 38.824,264.946 37.329 C 263.381 36.567,263.090 36.584,262.533 37.471 C 262.272 37.884,261.151 39.405,257.348 44.500 C 256.561 45.554,255.712 46.717,255.462 47.083 L 255.006 47.750 255.003 54.716 L 255.000 61.682 254.591 62.091 C 254.143 62.539,253.402 62.630,252.956 62.292 C 252.169 61.695,252.173 61.775,252.282 50.842 C 252.423 36.694,252.302 35.913,249.977 35.938 C 248.505 35.954,245.395 38.097,244.592 39.649 C 243.423 41.910,241.130 42.220,241.377 40.083 C 241.551 38.574,245.262 34.333,246.408 34.333 C 246.476 34.333,246.733 34.190,246.980 34.014 C 247.226 33.839,247.703 33.644,248.040 33.580 C 248.377 33.517,248.937 33.364,249.285 33.240 C 250.167 32.925,250.687 32.947,251.690 33.342 M335.098 33.334 C 337.052 33.828,339.106 35.081,340.220 36.458 C 340.910 37.310,341.333 36.874,341.333 35.311 C 341.333 33.333,342.437 32.398,343.533 33.448 L 344.000 33.896 344.003 45.740 C 344.004 53.587,344.063 57.668,344.177 57.833 C 344.367 58.111,344.808 57.662,347.284 54.667 L 348.593 53.083 349.436 53.034 C 351.832 52.893,350.861 55.136,346.470 59.887 C 346.201 60.178,345.553 60.935,345.032 61.569 L 344.083 62.722 343.994 74.236 L 343.904 85.750 343.471 86.917 C 342.711 88.960,341.558 90.544,340.309 91.260 C 339.246 91.871,339.044 91.908,336.750 91.912 C 332.158 91.921,329.933 89.706,329.722 84.917 C 329.453 78.789,331.910 73.542,339.162 64.756 L 341.083 62.429 341.083 60.759 C 341.083 58.688,340.966 58.628,339.549 59.978 C 337.111 62.301,332.402 63.466,330.250 62.278 C 329.975 62.126,329.655 62.002,329.539 62.001 C 328.718 61.997,326.140 59.838,325.082 58.269 C 324.420 57.286,323.667 55.820,323.667 55.514 C 323.667 55.364,323.557 55.085,323.424 54.894 C 323.290 54.703,323.103 54.068,323.009 53.482 C 322.914 52.896,322.754 52.154,322.652 51.833 C 321.993 49.759,322.421 43.146,323.352 41.037 C 323.525 40.645,323.667 40.224,323.667 40.102 C 323.667 39.110,326.149 35.770,327.595 34.818 C 328.978 33.907,329.280 33.768,330.661 33.399 C 332.441 32.925,333.426 32.910,335.098 33.334 M366.039 33.316 C 368.330 33.777,369.921 34.669,371.526 36.394 C 372.361 37.291,372.666 37.154,372.668 35.880 C 372.670 33.728,373.490 32.741,374.692 33.443 C 375.485 33.906,375.480 33.822,375.490 45.634 C 375.503 59.004,375.582 59.466,377.923 59.758 C 380.040 60.022,382.061 58.664,384.040 55.649 C 385.036 54.130,385.897 53.830,386.811 54.681 C 387.371 55.203,387.251 55.800,386.294 57.256 C 382.074 63.677,376.073 64.625,373.432 59.288 C 372.823 58.057,372.716 58.005,372.196 58.686 C 371.101 60.123,369.319 61.610,368.331 61.913 C 368.103 61.983,367.579 62.193,367.167 62.381 C 365.920 62.947,362.613 62.882,361.170 62.261 C 356.893 60.422,354.486 56.414,353.807 50.000 C 353.630 48.326,353.751 44.737,354.008 44.063 C 354.092 43.842,354.234 43.201,354.325 42.638 C 354.512 41.476,355.181 39.591,355.705 38.750 C 357.440 35.965,358.271 35.128,360.357 34.072 C 361.029 33.731,363.401 33.093,364.276 33.017 C 364.381 33.008,365.175 33.142,366.039 33.316 M288.760 33.677 L 289.250 34.188 289.333 44.969 L 289.417 55.750 289.881 56.631 C 292.402 61.416,299.497 60.706,302.926 55.325 C 304.800 52.386,304.873 51.917,304.945 42.417 C 304.979 38.017,305.043 34.248,305.089 34.043 C 305.197 33.561,306.192 33.121,306.721 33.322 C 307.613 33.662,307.575 33.185,307.692 45.400 C 307.816 58.488,307.829 58.610,309.120 59.456 C 309.842 59.930,312.100 59.872,312.754 59.363 C 313.812 58.539,314.896 57.391,316.018 55.904 C 317.382 54.097,318.535 53.668,319.202 54.719 C 319.995 55.965,316.119 60.929,313.385 62.169 C 310.343 63.548,306.568 62.188,305.746 59.417 C 305.151 57.410,304.795 57.203,303.918 58.352 C 299.587 64.032,290.492 64.006,287.638 58.305 C 286.408 55.847,286.423 55.982,286.363 46.698 C 286.302 37.199,286.391 37.697,284.953 38.860 C 284.461 39.258,283.808 39.771,283.503 40.000 C 283.197 40.229,282.865 40.497,282.765 40.595 C 282.665 40.693,281.711 41.349,280.645 42.053 C 278.429 43.517,277.790 43.672,277.179 42.894 C 276.438 41.952,276.900 41.171,278.941 39.922 C 280.059 39.238,284.363 35.813,285.612 34.614 C 287.286 33.008,287.934 32.815,288.760 33.677 M347.966 33.513 C 348.689 33.765,348.867 34.373,348.500 35.333 C 348.208 36.096,347.906 43.105,348.118 44.208 C 348.224 44.763,348.587 44.800,349.109 44.309 C 350.061 43.415,350.227 44.465,349.390 46.083 C 349.059 46.725,348.647 47.529,348.475 47.870 C 347.798 49.217,347.290 49.119,346.449 47.479 C 346.103 46.803,345.753 46.137,345.673 46.000 C 345.250 45.278,344.868 44.354,344.956 44.267 C 345.240 43.982,345.992 44.188,346.199 44.606 C 346.800 45.821,346.978 44.780,346.990 39.994 C 346.999 36.555,346.972 36.182,346.667 35.583 C 346.178 34.624,346.223 33.904,346.792 33.595 C 347.353 33.291,347.333 33.292,347.966 33.513 M379.708 33.859 C 380.083 34.302,380.072 34.742,379.663 35.643 C 379.335 36.365,379.146 40.833,379.444 40.833 C 379.504 40.833,379.871 40.647,380.259 40.420 C 381.166 39.889,381.898 41.028,381.005 41.580 C 380.931 41.626,380.556 42.306,380.172 43.091 C 379.104 45.278,378.768 45.335,377.766 43.500 C 376.248 40.720,376.091 40.167,376.822 40.167 C 377.154 40.167,377.310 40.293,377.743 40.917 C 378.471 41.963,378.619 36.874,377.901 35.501 C 377.065 33.902,378.580 32.525,379.708 33.859 M311.655 33.903 C 312.270 34.643,313.643 37.733,313.487 38.025 C 313.244 38.479,312.857 38.401,312.534 37.834 C 311.861 36.652,311.630 37.787,311.698 41.950 C 311.756 45.529,311.874 45.956,312.562 45.094 C 313.082 44.441,313.589 44.596,313.436 45.361 C 313.308 46.004,311.871 48.928,311.554 49.191 C 311.104 49.564,310.578 49.087,309.846 47.640 C 309.459 46.875,309.037 46.063,308.907 45.833 C 308.345 44.840,308.895 44.177,309.667 44.917 C 310.592 45.803,310.680 45.479,310.628 41.354 C 310.578 37.333,310.504 37.121,309.491 38.092 L 309.015 38.548 308.827 38.135 C 308.617 37.676,308.681 37.500,309.817 35.373 C 310.763 33.600,311.148 33.292,311.655 33.903 M93.417 35.937 C 88.790 37.128,86.750 40.820,86.750 48.000 C 86.750 54.019,87.863 57.027,90.833 59.041 C 92.516 60.181,96.100 60.330,97.522 59.318 C 97.767 59.143,98.034 59.000,98.115 59.000 C 98.632 59.000,100.474 56.852,101.140 55.474 C 102.864 51.904,102.922 43.778,101.242 41.083 C 101.128 40.900,100.982 40.574,100.918 40.359 C 100.160 37.825,95.881 35.303,93.417 35.937 M160.750 35.947 C 158.365 36.487,156.490 38.036,155.342 40.417 C 153.471 44.296,153.497 51.954,155.394 55.813 C 157.875 60.860,163.838 61.517,167.376 57.133 C 171.826 51.618,169.873 38.251,164.360 36.494 C 164.116 36.416,163.617 36.239,163.250 36.100 C 162.611 35.858,161.455 35.788,160.750 35.947 M216.083 35.937 C 213.610 36.572,211.796 38.122,210.549 40.667 C 208.803 44.229,208.890 52.157,210.715 55.825 C 213.622 61.666,220.963 61.382,223.816 55.317 C 224.101 54.712,224.334 54.112,224.335 53.984 C 224.337 53.855,224.495 53.262,224.687 52.667 C 225.551 49.984,225.052 43.316,223.814 41.007 C 223.641 40.685,223.500 40.368,223.500 40.302 C 223.500 39.853,221.959 38.034,220.882 37.213 C 219.666 36.285,217.241 35.640,216.083 35.937 M330.780 36.254 C 328.946 37.062,327.699 38.256,326.667 40.192 C 324.651 43.973,324.618 51.719,326.600 55.770 C 329.341 61.372,336.665 61.282,339.528 55.611 C 341.435 51.833,341.510 45.049,339.690 40.917 C 337.919 36.894,333.993 34.840,330.780 36.254 M363.250 35.933 C 360.313 36.658,358.202 39.017,357.076 42.833 C 356.480 44.855,356.381 50.541,356.909 52.500 C 357.070 53.096,357.270 53.870,357.354 54.221 C 357.949 56.697,360.400 59.367,362.489 59.815 C 368.501 61.105,372.333 56.549,372.333 48.113 C 372.333 40.292,368.176 34.718,363.250 35.933 M365.233 37.600 C 365.376 37.655,365.653 37.958,365.848 38.273 L 366.202 38.847 365.752 39.527 C 365.313 40.190,365.284 40.204,364.528 40.119 C 363.326 39.984,362.691 40.469,361.632 42.333 C 360.814 43.773,360.938 45.227,361.811 44.437 C 362.497 43.816,362.992 44.298,362.529 45.138 C 360.669 48.516,359.463 49.222,358.853 47.290 C 358.672 46.718,358.402 45.919,358.254 45.515 C 357.710 44.037,358.320 42.680,358.901 44.072 C 359.260 44.930,359.391 44.827,359.904 43.292 C 360.512 41.472,360.924 40.872,362.820 39.048 C 364.359 37.569,364.669 37.383,365.233 37.600 M218.208 38.133 C 219.054 38.864,218.358 40.164,217.116 40.173 C 216.079 40.180,215.694 40.374,215.011 41.234 C 213.355 43.323,213.111 45.773,214.698 44.381 C 215.339 43.818,215.585 44.872,214.991 45.640 C 214.600 46.146,213.941 47.049,213.333 47.910 C 212.554 49.015,211.950 48.893,211.481 47.534 C 210.281 44.058,210.293 44.109,210.605 43.880 C 211.036 43.565,211.143 43.608,211.522 44.250 C 211.993 45.049,212.333 44.936,212.333 43.981 C 212.333 43.077,213.520 40.959,214.610 39.919 C 216.254 38.350,216.572 38.066,216.879 37.897 C 217.272 37.681,217.793 37.774,218.208 38.133 M333.796 38.093 C 334.769 38.774,333.919 40.472,332.705 40.275 C 331.517 40.082,330.230 41.295,329.529 43.267 C 328.920 44.978,329.027 45.454,329.864 44.750 C 330.508 44.208,331.000 44.198,331.000 44.729 C 331.000 45.090,330.522 45.853,329.292 47.450 C 329.040 47.778,328.833 48.094,328.833 48.154 C 328.833 48.487,327.856 48.832,327.609 48.585 C 327.336 48.312,326.667 46.644,326.667 46.237 C 326.667 46.099,326.517 45.693,326.333 45.333 C 325.618 43.932,326.006 43.273,327.069 44.083 C 327.883 44.704,328.157 44.533,328.164 43.398 C 328.178 41.296,332.524 37.202,333.796 38.093 M283.467 43.533 C 283.608 43.674,283.667 44.633,283.667 46.783 C 283.667 50.124,283.656 50.093,284.641 49.492 C 285.795 48.789,285.947 49.541,284.997 51.250 C 284.640 51.892,284.228 52.688,284.082 53.019 C 283.868 53.501,283.280 54.000,282.925 54.000 C 282.712 54.000,280.667 50.009,280.667 49.593 C 280.667 49.068,281.661 49.268,281.858 49.833 C 282.287 51.062,282.667 50.053,282.667 47.688 C 282.667 45.103,281.983 44.612,280.917 46.432 C 280.122 47.788,279.371 48.053,278.576 47.258 C 277.794 46.476,278.625 44.693,279.597 45.066 C 279.943 45.198,281.047 44.680,282.000 43.939 C 282.805 43.313,283.150 43.217,283.467 43.533 M258.842 48.504 C 259.018 48.599,259.467 49.292,259.841 50.046 C 260.215 50.800,260.628 51.604,260.758 51.833 C 261.271 52.735,260.789 53.496,260.109 52.858 C 259.208 52.011,259.000 52.491,259.000 55.417 C 259.000 58.226,259.406 59.156,260.128 58.000 C 260.408 57.552,260.805 57.578,260.924 58.052 C 261.133 58.885,258.832 62.783,258.260 62.564 C 257.885 62.420,255.771 57.995,255.979 57.788 C 256.255 57.511,256.939 57.899,257.256 58.512 C 257.760 59.486,257.912 58.887,257.971 55.700 C 258.036 52.126,257.760 51.001,257.155 52.375 C 257.000 52.728,256.779 52.936,256.522 52.972 C 255.886 53.062,255.772 52.780,256.155 52.066 C 256.345 51.711,256.500 51.336,256.500 51.231 C 256.500 51.126,256.609 50.951,256.741 50.840 C 256.874 50.730,257.073 50.365,257.183 50.028 C 257.596 48.770,258.237 48.181,258.842 48.504 M339.565 68.601 C 339.025 69.299,338.508 69.955,338.416 70.060 C 338.263 70.234,337.493 71.370,337.086 72.021 C 336.898 72.322,335.868 73.923,335.538 74.426 C 335.422 74.604,335.208 75.012,335.063 75.333 C 334.917 75.654,334.718 76.016,334.619 76.137 C 333.302 77.753,332.188 83.253,332.636 85.929 C 333.306 89.930,338.428 90.709,340.469 87.120 C 341.083 86.041,341.164 84.760,341.165 76.075 C 341.167 66.155,341.230 66.449,339.565 68.601 " stroke="none" fill="#ffffff" fill-rule="evenodd"></path></g></svg>