<svg id="svg" version="1.1" width="400" height="63.63636363636364" xmlns="http://www.w3.org/2000/svg" xmlns:xlink="http://www.w3.org/1999/xlink" style="display: block;"><g id="svgg"><path id="path0" d="M18.417 2.829 C 17.683 2.897,16.755 3.076,16.354 3.226 C 15.953 3.377,15.517 3.500,15.386 3.500 C 15.255 3.500,14.421 3.856,13.532 4.292 C 7.798 7.102,5.446 13.988,8.234 19.805 C 10.211 23.930,12.639 25.957,18.750 28.585 C 19.758 29.019,21.201 29.664,21.955 30.020 C 22.709 30.376,23.378 30.667,23.440 30.667 C 23.842 30.667,27.554 33.105,28.895 34.250 C 33.117 37.854,33.639 45.295,30.036 50.531 C 29.497 51.315,27.059 53.667,26.786 53.667 C 26.703 53.667,26.436 53.808,26.192 53.981 C 25.949 54.154,25.488 54.374,25.167 54.471 C 24.846 54.567,24.283 54.760,23.917 54.899 C 23.152 55.189,18.985 55.264,18.000 55.006 C 13.874 53.923,10.566 51.280,8.808 47.661 C 7.960 45.917,7.820 45.452,7.496 43.308 C 7.113 40.774,7.017 40.549,6.247 40.405 C 4.601 40.096,4.299 42.397,5.469 46.333 C 5.761 47.318,6.028 47.928,6.924 49.667 C 8.717 53.145,12.745 56.250,17.000 57.435 C 21.541 58.699,26.893 57.412,30.138 54.275 C 32.182 52.299,33.992 49.372,34.285 47.569 C 34.399 46.865,35.046 46.152,37.297 44.250 C 38.992 42.818,40.514 41.109,42.714 38.167 C 46.681 32.862,47.967 32.166,51.333 33.501 C 53.916 34.526,54.509 34.716,55.583 34.867 C 58.101 35.219,58.240 34.735,54.077 40.139 C 53.347 41.086,52.600 42.074,52.417 42.334 C 52.233 42.595,51.408 43.693,50.583 44.774 C 49.758 45.856,48.971 46.906,48.833 47.108 C 48.696 47.309,47.796 48.498,46.833 49.748 C 45.871 50.999,44.933 52.234,44.750 52.494 C 44.567 52.754,43.865 53.690,43.192 54.573 C 42.258 55.797,41.963 56.314,41.951 56.742 C 41.912 58.123,43.212 58.269,44.626 57.042 C 47.069 54.922,48.128 54.429,50.250 54.422 L 51.917 54.417 53.500 55.267 C 54.371 55.734,55.383 56.291,55.750 56.503 C 62.424 60.371,68.382 56.110,73.060 44.122 C 73.302 43.501,73.500 42.887,73.500 42.757 C 73.500 42.476,73.807 42.252,73.969 42.414 C 74.032 42.476,74.121 45.778,74.167 49.750 L 74.250 56.974 74.654 57.403 C 75.178 57.961,75.971 57.980,76.471 57.448 C 76.830 57.065,76.833 57.004,76.833 50.646 C 76.833 43.263,76.785 43.526,78.089 43.848 C 78.830 44.031,79.962 44.522,81.173 45.185 C 82.742 46.045,84.733 48.348,86.017 50.787 C 89.108 56.665,90.398 57.891,93.500 57.902 C 94.969 57.907,95.727 57.644,97.250 56.602 C 98.559 55.706,101.837 51.979,102.215 50.958 C 102.424 50.394,103.155 50.595,103.432 51.292 C 104.486 53.944,106.356 56.062,108.641 57.196 L 110.083 57.911 112.083 57.897 C 115.351 57.874,117.838 56.487,119.716 53.640 C 121.662 50.691,122.647 46.135,122.186 42.216 C 122.069 41.227,121.961 40.079,121.945 39.667 L 121.917 38.917 123.583 38.808 C 126.112 38.644,127.833 38.126,129.194 37.120 C 130.139 36.421,130.136 36.402,130.206 44.802 C 130.262 51.507,130.306 52.566,130.577 53.667 C 132.172 60.137,140.311 58.985,145.003 51.625 C 145.935 50.163,146.475 50.173,146.922 51.660 C 147.518 53.646,150.062 56.404,152.258 57.444 C 153.628 58.093,157.293 58.148,158.452 57.537 C 158.838 57.333,159.228 57.167,159.318 57.167 C 159.819 57.167,162.158 55.134,162.935 54.024 C 163.312 53.487,163.465 53.578,163.922 54.612 C 165.155 57.399,168.661 58.866,171.006 57.577 C 175.520 55.096,178.796 50.167,175.930 50.167 C 175.139 50.167,175.082 50.216,173.260 52.478 C 170.626 55.749,167.289 56.237,166.271 53.500 C 165.945 52.622,165.927 52.132,165.840 41.777 L 165.750 30.970 165.357 30.652 C 164.371 29.854,163.469 30.477,163.379 32.017 C 163.264 33.989,162.909 34.376,162.168 33.336 C 159.953 30.224,154.647 29.360,151.019 31.519 C 149.354 32.510,146.856 35.594,146.828 36.694 C 146.825 36.816,146.677 37.217,146.500 37.583 C 146.323 37.950,146.175 38.438,146.170 38.667 C 146.166 38.896,146.048 39.496,145.907 40.000 C 145.765 40.510,145.595 42.115,145.524 43.619 C 145.420 45.795,145.341 46.382,145.114 46.632 C 144.960 46.803,144.833 47.005,144.833 47.080 C 144.833 47.880,141.701 52.092,140.072 53.481 C 137.403 55.759,134.414 55.877,133.274 53.750 L 132.917 53.083 132.876 29.417 C 132.850 14.551,132.894 5.657,132.994 5.500 C 133.125 5.296,133.780 5.235,136.571 5.167 C 140.401 5.073,140.567 5.022,140.567 3.917 C 140.567 2.708,140.890 2.756,132.286 2.699 C 123.920 2.644,123.469 2.682,123.217 3.460 C 122.759 4.881,123.356 5.167,126.788 5.167 C 128.906 5.167,129.499 5.218,129.796 5.426 L 130.167 5.686 130.152 18.218 C 130.136 32.389,130.159 31.994,129.273 33.204 C 127.333 35.856,123.861 36.970,121.200 35.794 C 120.357 35.422,120.300 35.367,119.390 34.031 C 115.637 28.522,106.780 29.224,104.151 35.239 C 104.069 35.428,103.928 35.696,103.839 35.833 C 103.505 36.350,102.851 38.280,102.738 39.083 C 102.674 39.542,102.547 40.104,102.456 40.333 C 102.365 40.563,102.238 42.100,102.174 43.750 L 102.057 46.750 101.356 47.963 C 97.167 55.217,92.353 57.386,90.179 53.000 C 90.020 52.679,89.714 52.117,89.500 51.750 C 89.286 51.383,88.971 50.821,88.801 50.500 C 86.490 46.139,84.589 44.022,81.781 42.682 C 81.203 42.406,80.599 42.035,80.438 41.857 C 80.048 41.426,79.194 42.051,90.593 34.430 C 94.630 31.731,95.088 31.183,94.119 30.215 C 93.386 29.481,93.106 29.621,87.250 33.652 C 85.783 34.662,83.721 36.076,82.667 36.794 C 81.612 37.513,80.017 38.603,79.120 39.217 C 77.418 40.383,77.102 40.506,76.934 40.070 C 76.879 39.925,76.833 31.654,76.833 21.690 C 76.833 1.905,76.887 2.978,75.888 2.787 C 75.286 2.672,74.737 2.896,74.468 3.367 C 74.295 3.672,74.233 6.704,74.167 18.167 C 74.091 31.240,74.057 32.661,73.796 33.417 C 73.638 33.875,73.317 34.925,73.082 35.750 C 72.427 38.046,71.789 40.065,71.658 40.250 C 71.594 40.342,71.425 40.792,71.284 41.250 C 70.921 42.421,70.535 43.465,70.157 44.292 C 69.979 44.681,69.675 45.356,69.482 45.792 C 65.708 54.289,61.395 57.116,56.833 54.082 C 56.028 53.547,54.534 52.714,53.833 52.411 C 53.512 52.272,53.100 52.068,52.917 51.958 C 52.733 51.848,51.797 51.718,50.835 51.670 C 48.725 51.565,48.632 51.437,49.697 50.107 C 50.093 49.612,50.567 48.996,50.750 48.739 C 50.933 48.481,51.533 47.689,52.083 46.979 C 52.633 46.269,53.571 45.044,54.167 44.256 C 54.762 43.469,55.700 42.236,56.250 41.515 C 56.800 40.795,57.887 39.369,58.667 38.347 C 59.446 37.324,60.504 35.947,61.019 35.286 C 63.540 32.044,63.755 31.563,63.013 30.821 C 62.352 30.160,62.076 30.200,60.657 31.162 C 58.793 32.426,56.650 32.640,54.636 31.765 C 53.979 31.479,52.677 31.043,51.750 30.798 C 51.383 30.701,50.732 30.481,50.302 30.311 C 49.300 29.912,48.652 29.918,47.877 30.333 C 47.535 30.517,47.113 30.667,46.939 30.667 C 45.845 30.667,44.119 32.215,42.034 35.065 C 39.025 39.182,36.078 42.500,35.432 42.500 C 35.126 42.500,35.047 42.176,34.943 40.500 C 34.710 36.753,31.998 32.816,27.894 30.264 C 26.346 29.302,20.775 26.500,20.409 26.500 C 20.150 26.500,15.335 24.055,14.613 23.557 C 10.464 20.691,8.457 14.906,10.316 11.167 C 11.219 9.351,11.302 9.231,12.319 8.290 C 18.774 2.314,28.664 5.607,30.078 14.204 C 30.199 14.937,30.682 15.333,31.456 15.333 C 32.182 15.333,32.727 14.537,32.597 13.667 C 32.163 10.764,30.942 8.207,29.069 6.280 C 26.477 3.613,22.795 2.420,18.417 2.829 M290.041 2.800 C 289.240 2.921,289.255 2.654,289.167 18.664 C 289.074 35.362,289.136 34.549,288.052 33.324 C 284.758 29.601,279.115 29.263,275.538 32.575 C 274.581 33.461,273.500 34.828,273.500 35.153 C 273.500 35.227,273.363 35.467,273.195 35.686 C 272.375 36.754,271.554 40.219,271.398 43.269 C 271.271 45.729,271.229 45.825,268.874 49.007 C 267.178 51.298,264.124 54.024,262.812 54.416 C 262.595 54.481,262.229 54.658,262.000 54.809 C 261.229 55.316,257.140 55.201,256.083 54.642 C 252.878 52.946,250.703 47.904,251.655 44.375 C 251.882 43.535,251.867 43.537,253.389 44.142 C 259.865 46.720,265.700 43.380,265.720 37.083 C 265.735 32.265,262.065 29.518,257.031 30.577 C 254.075 31.199,252.150 33.132,250.084 37.554 C 249.834 38.088,249.525 38.565,249.396 38.614 C 248.940 38.789,244.918 35.187,242.663 32.583 C 241.177 30.867,240.291 30.000,240.025 30.000 C 239.625 30.000,238.523 30.831,238.398 31.227 C 238.336 31.423,238.119 31.808,237.917 32.083 C 232.494 39.438,232.500 39.432,232.500 37.257 C 232.500 33.200,231.617 31.495,228.949 30.399 L 227.858 29.951 226.471 30.330 C 224.337 30.912,224.171 30.998,223.083 32.076 C 222.222 32.928,221.000 34.502,221.000 34.759 C 221.000 34.800,220.644 35.392,220.208 36.075 C 219.773 36.758,219.122 37.789,218.761 38.367 C 216.762 41.569,216.099 42.500,215.819 42.500 C 215.751 42.500,215.301 41.706,214.819 40.736 C 214.336 39.766,213.678 38.622,213.356 38.194 C 212.413 36.944,210.359 34.520,209.068 33.132 C 208.411 32.426,207.821 31.639,207.757 31.383 C 207.396 29.948,206.081 29.685,205.020 30.835 C 202.654 33.402,200.346 35.598,199.242 36.333 C 196.326 38.276,195.892 38.952,196.941 39.925 C 197.549 40.488,197.884 40.442,199.063 39.635 C 199.624 39.251,200.337 38.764,200.646 38.553 C 201.345 38.077,202.868 36.770,204.447 35.292 C 206.199 33.652,206.121 33.622,209.186 37.137 C 213.529 42.118,214.761 46.597,212.897 50.621 C 210.133 56.590,202.790 57.314,200.029 51.891 C 199.372 50.601,198.643 50.257,197.817 50.845 C 196.992 51.432,197.244 52.491,198.667 54.418 C 199.228 55.176,201.450 57.167,201.736 57.167 C 201.800 57.167,202.204 57.328,202.634 57.525 C 204.118 58.206,207.189 58.131,209.333 57.363 C 212.929 56.075,215.737 52.378,216.159 48.375 C 216.234 47.665,216.416 46.858,216.563 46.583 C 216.711 46.308,216.832 46.031,216.832 45.967 C 216.833 45.857,217.087 45.474,218.332 43.702 C 218.608 43.310,218.833 42.950,218.833 42.904 C 218.833 42.858,218.973 42.617,219.143 42.368 C 219.313 42.120,219.939 41.167,220.533 40.250 C 224.373 34.330,224.796 33.799,226.167 33.179 C 227.677 32.497,228.898 32.899,229.548 34.293 C 229.915 35.081,229.917 35.120,229.952 46.083 L 229.988 57.083 230.420 57.458 C 230.851 57.833,231.420 57.937,231.767 57.706 C 232.371 57.302,232.415 56.855,232.500 50.250 C 232.557 45.793,232.644 43.645,232.775 43.417 C 232.881 43.233,233.420 42.483,233.973 41.750 C 235.925 39.160,237.455 37.096,238.583 35.527 C 239.941 33.639,239.831 33.619,242.409 36.209 C 244.260 38.068,245.839 39.434,248.477 41.459 C 248.861 41.754,248.872 41.834,248.930 44.839 C 249.069 52.013,251.222 55.791,256.104 57.431 C 261.241 59.155,266.785 56.528,271.052 50.346 C 271.656 49.472,271.865 49.490,272.294 50.458 C 272.486 50.894,272.825 51.663,273.046 52.167 C 276.010 58.926,284.877 60.018,288.754 54.101 C 289.156 53.487,289.247 53.538,289.841 54.707 C 291.198 57.378,292.895 58.238,296.026 57.841 C 299.883 57.352,303.498 53.080,304.846 47.417 C 304.933 47.050,305.110 46.487,305.238 46.167 C 305.367 45.846,305.667 44.908,305.904 44.083 C 306.142 43.258,306.486 42.133,306.668 41.583 C 306.851 41.033,307.003 40.433,307.006 40.250 C 307.009 40.067,307.156 39.617,307.333 39.250 C 307.510 38.883,307.658 38.458,307.661 38.304 C 307.709 35.930,310.559 32.530,311.897 33.251 C 313.102 33.900,313.069 33.574,313.165 46.056 L 313.250 57.196 313.643 57.515 C 314.356 58.091,315.178 57.852,315.482 56.979 C 315.608 56.617,315.667 53.526,315.667 47.208 L 315.667 37.965 316.646 37.007 C 320.334 33.398,325.352 31.680,327.641 33.243 C 329.084 34.228,329.152 34.656,329.168 42.750 C 329.191 54.921,329.445 56.048,332.472 57.456 C 336.181 59.180,341.043 56.674,344.347 51.333 C 344.716 50.737,345.088 50.137,345.174 50.000 C 345.765 49.058,347.940 44.083,348.398 42.625 C 348.527 42.215,348.812 42.262,348.906 42.708 C 348.950 42.915,349.017 45.108,349.056 47.583 C 349.167 54.660,349.688 56.191,352.408 57.435 C 356.259 59.196,362.435 55.445,365.019 49.776 C 365.301 49.157,365.606 49.225,365.841 49.958 C 365.950 50.302,366.106 50.655,366.187 50.742 C 366.267 50.829,366.333 51.024,366.333 51.175 C 366.333 52.490,370.212 57.167,371.302 57.167 C 371.368 57.167,371.720 57.335,372.086 57.540 C 373.175 58.151,376.649 58.096,378.239 57.441 C 379.898 56.757,381.154 55.766,382.362 54.186 C 382.889 53.496,383.003 53.558,383.635 54.875 C 384.934 57.584,387.986 58.761,390.250 57.425 C 394.697 54.801,397.555 50.167,394.726 50.167 C 394.098 50.167,393.957 50.244,393.468 50.852 C 390.601 54.417,389.762 55.083,388.138 55.083 C 385.506 55.083,385.449 54.808,385.380 41.667 C 385.320 30.348,385.346 30.802,384.746 30.529 C 383.616 30.014,382.969 30.661,382.843 32.434 C 382.723 34.133,382.554 34.160,381.056 32.715 C 376.679 28.492,369.970 29.817,366.956 35.500 C 366.018 37.267,365.444 39.476,365.159 42.407 C 364.755 46.572,360.685 53.029,357.500 54.560 C 357.363 54.626,357.063 54.788,356.833 54.921 C 355.574 55.649,353.051 55.156,352.257 54.026 L 351.750 53.305 351.667 42.160 C 351.585 31.261,351.576 31.008,351.250 30.758 C 350.218 29.966,349.089 30.429,348.955 31.700 C 348.904 32.186,348.714 33.071,348.532 33.667 C 348.350 34.262,348.040 35.313,347.843 36.000 C 347.397 37.558,346.821 39.329,346.161 41.167 C 345.881 41.946,345.584 42.797,345.500 43.058 C 345.359 43.495,345.215 43.824,344.323 45.750 C 344.153 46.117,343.809 46.867,343.558 47.417 C 341.306 52.351,338.240 55.167,335.120 55.167 C 331.806 55.167,331.821 55.215,331.681 43.333 L 331.576 34.417 331.024 33.298 C 329.624 30.465,325.837 29.110,322.781 30.351 C 319.970 31.491,318.315 32.377,316.684 33.612 C 315.706 34.353,315.648 34.334,315.093 33.091 C 314.095 30.852,311.531 29.360,310.314 30.310 C 310.096 30.481,309.750 30.673,309.547 30.737 C 308.120 31.183,305.572 35.170,304.851 38.083 C 304.760 38.450,304.578 39.087,304.446 39.500 C 304.315 39.912,304.119 40.587,304.011 41.000 C 302.825 45.523,302.010 48.233,301.363 49.802 C 299.790 53.619,297.991 55.167,295.125 55.167 C 293.513 55.167,293.489 55.161,292.931 54.625 C 291.676 53.421,291.765 55.308,291.669 27.901 C 291.601 8.321,291.540 3.333,291.370 3.127 C 291.133 2.842,290.613 2.714,290.041 2.800 M210.232 16.707 C 209.683 17.035,203.599 23.325,203.450 23.719 C 203.065 24.742,203.831 25.829,204.771 25.593 C 205.701 25.360,212.333 18.540,212.333 17.818 C 212.333 16.994,210.964 16.271,210.232 16.707 M349.064 17.195 C 348.800 17.394,348.521 17.610,348.445 17.675 C 348.173 17.908,348.012 19.080,348.171 19.678 C 348.788 21.994,352.361 21.470,352.361 19.063 C 352.361 17.323,350.383 16.203,349.064 17.195 M114.275 33.213 C 115.930 33.992,116.744 34.703,117.752 36.250 C 120.125 39.893,120.315 47.433,118.139 51.531 C 115.434 56.622,108.907 56.684,106.265 51.645 C 104.266 47.831,104.298 40.455,106.331 36.667 C 108.035 33.492,111.586 31.949,114.275 33.213 M157.310 33.170 C 157.709 33.352,158.103 33.500,158.184 33.500 C 158.535 33.500,160.038 34.757,160.594 35.515 C 163.824 39.915,163.840 49.014,160.625 52.915 C 158.267 55.776,154.071 56.230,151.355 53.920 C 147.219 50.402,147.007 38.916,151.001 34.813 C 152.671 33.097,155.516 32.356,157.310 33.170 M260.842 33.375 C 264.415 35.200,263.666 40.800,259.667 42.164 C 258.177 42.672,255.492 42.338,253.747 41.428 C 253.474 41.285,253.161 41.168,253.053 41.168 C 251.390 41.159,252.621 37.070,255.008 34.677 C 256.876 32.804,258.858 32.362,260.842 33.375 M283.279 33.208 C 286.975 34.613,288.750 38.168,288.750 44.167 C 288.750 50.897,286.714 54.509,282.500 55.255 C 276.907 56.244,273.612 51.208,274.101 42.417 C 274.471 35.756,278.733 31.480,283.279 33.208 M377.102 33.263 C 380.649 34.554,382.538 38.378,382.529 44.250 C 382.525 47.019,382.483 47.376,381.937 49.401 C 379.874 57.047,370.315 57.427,368.495 49.936 C 368.426 49.651,368.249 48.970,368.101 48.423 C 367.596 46.550,367.720 41.094,368.311 39.152 C 369.841 34.134,373.240 31.857,377.102 33.263 " stroke="none" fill="#000000" fill-rule="evenodd"></path><path id="path1" d="M0.000 31.750 L 0.000 63.500 200.000 63.500 L 400.000 63.500 400.000 31.750 L 400.000 0.000 200.000 0.000 L 0.000 0.000 0.000 31.750 M23.833 3.192 C 27.491 4.316,30.138 6.682,31.635 10.167 C 32.026 11.075,32.429 12.543,32.597 13.667 C 32.727 14.537,32.182 15.333,31.456 15.333 C 30.682 15.333,30.199 14.937,30.078 14.204 C 28.664 5.607,18.774 2.314,12.319 8.290 C 11.302 9.231,11.219 9.351,10.316 11.167 C 8.457 14.906,10.464 20.691,14.613 23.557 C 15.335 24.055,20.150 26.500,20.409 26.500 C 20.775 26.500,26.346 29.302,27.894 30.264 C 31.998 32.816,34.710 36.753,34.943 40.500 C 35.047 42.176,35.126 42.500,35.432 42.500 C 36.078 42.500,39.025 39.182,42.034 35.065 C 44.119 32.215,45.845 30.667,46.939 30.667 C 47.113 30.667,47.535 30.517,47.877 30.333 C 48.652 29.918,49.300 29.912,50.302 30.311 C 50.732 30.481,51.383 30.701,51.750 30.798 C 52.677 31.043,53.979 31.479,54.636 31.765 C 56.650 32.640,58.793 32.426,60.657 31.162 C 62.076 30.200,62.352 30.160,63.013 30.821 C 63.755 31.563,63.540 32.044,61.019 35.286 C 60.504 35.947,59.446 37.324,58.667 38.347 C 57.887 39.369,56.800 40.795,56.250 41.515 C 55.700 42.236,54.762 43.469,54.167 44.256 C 53.571 45.044,52.633 46.269,52.083 46.979 C 51.533 47.689,50.933 48.481,50.750 48.739 C 50.567 48.996,50.093 49.612,49.697 50.107 C 48.632 51.437,48.725 51.565,50.835 51.670 C 51.797 51.718,52.733 51.848,52.917 51.958 C 53.100 52.068,53.512 52.272,53.833 52.411 C 54.534 52.714,56.028 53.547,56.833 54.082 C 58.247 55.022,58.688 55.167,60.148 55.167 C 63.780 55.167,66.557 52.376,69.482 45.792 C 69.675 45.356,69.979 44.681,70.157 44.292 C 70.535 43.465,70.921 42.421,71.284 41.250 C 71.425 40.792,71.594 40.342,71.658 40.250 C 71.789 40.065,72.427 38.046,73.082 35.750 C 73.317 34.925,73.638 33.875,73.796 33.417 C 74.057 32.661,74.091 31.240,74.167 18.167 C 74.233 6.704,74.295 3.672,74.468 3.367 C 74.737 2.896,75.286 2.672,75.888 2.787 C 76.887 2.978,76.833 1.905,76.833 21.690 C 76.833 31.654,76.879 39.925,76.934 40.070 C 77.102 40.506,77.418 40.383,79.120 39.217 C 80.017 38.603,81.612 37.513,82.667 36.794 C 83.721 36.076,85.783 34.662,87.250 33.652 C 93.106 29.621,93.386 29.481,94.119 30.215 C 95.088 31.183,94.630 31.731,90.593 34.430 C 79.194 42.051,80.048 41.426,80.438 41.857 C 80.599 42.035,81.203 42.406,81.781 42.682 C 84.589 44.022,86.490 46.139,88.801 50.500 C 88.971 50.821,89.286 51.383,89.500 51.750 C 89.714 52.117,90.020 52.679,90.179 53.000 C 92.353 57.386,97.167 55.217,101.356 47.963 L 102.057 46.750 102.174 43.750 C 102.238 42.100,102.365 40.563,102.456 40.333 C 102.547 40.104,102.674 39.542,102.738 39.083 C 102.851 38.280,103.505 36.350,103.839 35.833 C 103.928 35.696,104.069 35.428,104.151 35.239 C 106.780 29.224,115.637 28.522,119.390 34.031 C 120.300 35.367,120.357 35.422,121.200 35.794 C 123.861 36.970,127.333 35.856,129.273 33.204 C 130.159 31.994,130.136 32.389,130.152 18.218 L 130.167 5.686 129.796 5.426 C 129.499 5.218,128.906 5.167,126.788 5.167 C 123.356 5.167,122.759 4.881,123.217 3.460 C 123.469 2.682,123.920 2.644,132.286 2.699 C 140.890 2.756,140.567 2.708,140.567 3.917 C 140.567 5.022,140.401 5.073,136.571 5.167 C 133.780 5.235,133.125 5.296,132.994 5.500 C 132.894 5.657,132.850 14.551,132.876 29.417 L 132.917 53.083 133.274 53.750 C 134.414 55.877,137.403 55.759,140.072 53.481 C 141.701 52.092,144.833 47.880,144.833 47.080 C 144.833 47.005,144.960 46.803,145.114 46.632 C 145.341 46.382,145.420 45.795,145.524 43.619 C 145.595 42.115,145.765 40.510,145.907 40.000 C 146.048 39.496,146.166 38.896,146.170 38.667 C 146.175 38.438,146.323 37.950,146.500 37.583 C 146.677 37.217,146.825 36.816,146.828 36.694 C 146.856 35.594,149.354 32.510,151.019 31.519 C 154.647 29.360,159.953 30.224,162.168 33.336 C 162.909 34.376,163.264 33.989,163.379 32.017 C 163.469 30.477,164.371 29.854,165.357 30.652 L 165.750 30.970 165.840 41.777 C 165.927 52.132,165.945 52.622,166.271 53.500 C 167.289 56.237,170.626 55.749,173.260 52.478 C 175.082 50.216,175.139 50.167,175.930 50.167 C 178.796 50.167,175.520 55.096,171.006 57.577 C 168.661 58.866,165.155 57.399,163.922 54.612 C 163.465 53.578,163.312 53.487,162.935 54.024 C 162.158 55.134,159.819 57.167,159.318 57.167 C 159.228 57.167,158.838 57.333,158.452 57.537 C 157.293 58.148,153.628 58.093,152.258 57.444 C 150.062 56.404,147.518 53.646,146.922 51.660 C 146.475 50.173,145.935 50.163,145.003 51.625 C 140.311 58.985,132.172 60.137,130.577 53.667 C 130.306 52.566,130.262 51.507,130.206 44.802 C 130.136 36.402,130.139 36.421,129.194 37.120 C 127.833 38.126,126.112 38.644,123.583 38.808 L 121.917 38.917 121.945 39.667 C 121.961 40.079,122.069 41.227,122.186 42.216 C 123.190 50.751,118.616 57.851,112.083 57.897 L 110.083 57.911 108.641 57.196 C 106.356 56.062,104.486 53.944,103.432 51.292 C 103.155 50.595,102.424 50.394,102.215 50.958 C 101.103 53.965,96.151 57.911,93.500 57.902 C 90.398 57.891,89.108 56.665,86.017 50.787 C 84.733 48.348,82.742 46.045,81.173 45.185 C 79.962 44.522,78.830 44.031,78.089 43.848 C 76.785 43.526,76.833 43.263,76.833 50.646 C 76.833 57.004,76.830 57.065,76.471 57.448 C 75.971 57.980,75.178 57.961,74.654 57.403 L 74.250 56.974 74.167 49.750 C 74.121 45.778,74.032 42.476,73.969 42.414 C 73.807 42.252,73.500 42.476,73.500 42.757 C 73.500 42.887,73.302 43.501,73.060 44.122 C 68.382 56.110,62.424 60.371,55.750 56.503 C 55.383 56.291,54.371 55.734,53.500 55.267 L 51.917 54.417 50.250 54.422 C 48.128 54.429,47.069 54.922,44.626 57.042 C 43.212 58.269,41.912 58.123,41.951 56.742 C 41.963 56.314,42.258 55.797,43.192 54.573 C 43.865 53.690,44.567 52.754,44.750 52.494 C 44.933 52.234,45.871 50.999,46.833 49.748 C 47.796 48.498,48.696 47.309,48.833 47.108 C 48.971 46.906,49.758 45.856,50.583 44.774 C 51.408 43.693,52.233 42.595,52.417 42.334 C 52.600 42.074,53.347 41.086,54.077 40.139 C 57.663 35.483,57.814 35.235,57.134 35.104 C 56.923 35.063,56.225 34.956,55.583 34.867 C 54.509 34.716,53.916 34.526,51.333 33.501 C 47.967 32.166,46.681 32.862,42.714 38.167 C 40.514 41.109,38.992 42.818,37.297 44.250 C 35.046 46.152,34.399 46.865,34.285 47.569 C 33.992 49.372,32.182 52.299,30.138 54.275 C 26.893 57.412,21.541 58.699,17.000 57.435 C 12.745 56.250,8.717 53.145,6.924 49.667 C 6.028 47.928,5.761 47.318,5.469 46.333 C 4.299 42.397,4.601 40.096,6.247 40.405 C 7.017 40.549,7.113 40.774,7.496 43.308 C 7.820 45.452,7.960 45.917,8.808 47.661 C 10.566 51.280,13.874 53.923,18.000 55.006 C 18.985 55.264,23.152 55.189,23.917 54.899 C 24.283 54.760,24.846 54.567,25.167 54.471 C 25.488 54.374,25.949 54.154,26.192 53.981 C 26.436 53.808,26.703 53.667,26.786 53.667 C 27.059 53.667,29.497 51.315,30.036 50.531 C 33.639 45.295,33.117 37.854,28.895 34.250 C 27.554 33.105,23.842 30.667,23.440 30.667 C 23.378 30.667,22.709 30.376,21.955 30.020 C 21.201 29.664,19.758 29.019,18.750 28.585 C 13.961 26.525,12.074 25.272,10.190 22.898 C 5.866 17.449,5.987 11.013,10.500 6.500 C 11.858 5.142,14.532 3.500,15.386 3.500 C 15.517 3.500,15.953 3.377,16.354 3.226 C 17.974 2.619,21.910 2.601,23.833 3.192 M291.370 3.127 C 291.540 3.333,291.601 8.321,291.669 27.901 C 291.765 55.308,291.676 53.421,292.931 54.625 C 293.489 55.161,293.513 55.167,295.125 55.167 C 297.991 55.167,299.790 53.619,301.363 49.802 C 302.010 48.233,302.825 45.523,304.011 41.000 C 304.119 40.587,304.315 39.912,304.446 39.500 C 304.578 39.087,304.760 38.450,304.851 38.083 C 305.572 35.170,308.120 31.183,309.547 30.737 C 309.750 30.673,310.096 30.481,310.314 30.310 C 311.531 29.360,314.095 30.852,315.093 33.091 C 315.648 34.334,315.706 34.353,316.684 33.612 C 318.315 32.377,319.970 31.491,322.781 30.351 C 325.837 29.110,329.624 30.465,331.024 33.298 L 331.576 34.417 331.681 43.333 C 331.821 55.215,331.806 55.167,335.120 55.167 C 338.240 55.167,341.306 52.351,343.558 47.417 C 343.809 46.867,344.153 46.117,344.323 45.750 C 345.215 43.824,345.359 43.495,345.500 43.058 C 345.584 42.797,345.881 41.946,346.161 41.167 C 346.821 39.329,347.397 37.558,347.843 36.000 C 348.040 35.313,348.350 34.262,348.532 33.667 C 348.714 33.071,348.904 32.186,348.955 31.700 C 349.089 30.429,350.218 29.966,351.250 30.758 C 351.576 31.008,351.585 31.261,351.667 42.160 L 351.750 53.305 352.257 54.026 C 353.051 55.156,355.574 55.649,356.833 54.921 C 357.063 54.788,357.363 54.626,357.500 54.560 C 359.281 53.704,362.205 50.212,363.692 47.164 C 364.773 44.950,364.976 44.289,365.159 42.407 C 365.444 39.476,366.018 37.267,366.956 35.500 C 369.970 29.817,376.679 28.492,381.056 32.715 C 382.554 34.160,382.723 34.133,382.843 32.434 C 382.969 30.661,383.616 30.014,384.746 30.529 C 385.346 30.802,385.320 30.348,385.380 41.667 C 385.449 54.808,385.506 55.083,388.138 55.083 C 389.762 55.083,390.601 54.417,393.468 50.852 C 393.957 50.244,394.098 50.167,394.726 50.167 C 397.555 50.167,394.697 54.801,390.250 57.425 C 387.986 58.761,384.934 57.584,383.635 54.875 C 383.003 53.558,382.889 53.496,382.362 54.186 C 381.154 55.766,379.898 56.757,378.239 57.441 C 376.649 58.096,373.175 58.151,372.086 57.540 C 371.720 57.335,371.368 57.167,371.302 57.167 C 370.212 57.167,366.333 52.490,366.333 51.175 C 366.333 51.024,366.267 50.829,366.187 50.742 C 366.106 50.655,365.950 50.302,365.841 49.958 C 365.606 49.225,365.301 49.157,365.019 49.776 C 362.435 55.445,356.259 59.196,352.408 57.435 C 349.688 56.191,349.167 54.660,349.056 47.583 C 349.017 45.108,348.950 42.915,348.906 42.708 C 348.812 42.262,348.527 42.215,348.398 42.625 C 347.940 44.083,345.765 49.058,345.174 50.000 C 345.088 50.137,344.716 50.737,344.347 51.333 C 341.043 56.674,336.181 59.180,332.472 57.456 C 329.445 56.048,329.191 54.921,329.168 42.750 C 329.152 34.656,329.084 34.228,327.641 33.243 C 325.352 31.680,320.334 33.398,316.646 37.007 L 315.667 37.965 315.667 47.208 C 315.667 53.526,315.608 56.617,315.482 56.979 C 315.178 57.852,314.356 58.091,313.643 57.515 L 313.250 57.196 313.165 46.056 C 313.069 33.574,313.102 33.900,311.897 33.251 C 310.559 32.530,307.709 35.930,307.661 38.304 C 307.658 38.458,307.510 38.883,307.333 39.250 C 307.156 39.617,307.009 40.067,307.006 40.250 C 307.003 40.433,306.851 41.033,306.668 41.583 C 306.486 42.133,306.142 43.258,305.904 44.083 C 305.667 44.908,305.367 45.846,305.238 46.167 C 305.110 46.487,304.933 47.050,304.846 47.417 C 303.498 53.080,299.883 57.352,296.026 57.841 C 292.895 58.238,291.198 57.378,289.841 54.707 C 289.247 53.538,289.156 53.487,288.754 54.101 C 284.877 60.018,276.010 58.926,273.046 52.167 C 272.825 51.663,272.486 50.894,272.294 50.458 C 271.865 49.490,271.656 49.472,271.052 50.346 C 266.785 56.528,261.241 59.155,256.104 57.431 C 251.222 55.791,249.069 52.013,248.930 44.839 C 248.872 41.834,248.861 41.754,248.477 41.459 C 245.839 39.434,244.260 38.068,242.409 36.209 C 239.831 33.619,239.941 33.639,238.583 35.527 C 237.455 37.096,235.925 39.160,233.973 41.750 C 233.420 42.483,232.881 43.233,232.775 43.417 C 232.644 43.645,232.557 45.793,232.500 50.250 C 232.415 56.855,232.371 57.302,231.767 57.706 C 231.420 57.937,230.851 57.833,230.420 57.458 L 229.988 57.083 229.952 46.083 C 229.917 35.120,229.915 35.081,229.548 34.293 C 228.898 32.899,227.677 32.497,226.167 33.179 C 224.796 33.799,224.373 34.330,220.533 40.250 C 219.939 41.167,219.313 42.120,219.143 42.368 C 218.973 42.617,218.833 42.858,218.833 42.904 C 218.833 42.950,218.608 43.310,218.332 43.702 C 217.087 45.474,216.833 45.857,216.832 45.967 C 216.832 46.031,216.711 46.308,216.563 46.583 C 216.416 46.858,216.234 47.665,216.159 48.375 C 215.737 52.378,212.929 56.075,209.333 57.363 C 207.189 58.131,204.118 58.206,202.634 57.525 C 202.204 57.328,201.800 57.167,201.736 57.167 C 201.450 57.167,199.228 55.176,198.667 54.418 C 197.244 52.491,196.992 51.432,197.817 50.845 C 198.643 50.257,199.372 50.601,200.029 51.891 C 202.790 57.314,210.133 56.590,212.897 50.621 C 214.761 46.597,213.529 42.118,209.186 37.137 C 206.121 33.622,206.199 33.652,204.447 35.292 C 202.868 36.770,201.345 38.077,200.646 38.553 C 200.337 38.764,199.624 39.251,199.063 39.635 C 197.884 40.442,197.549 40.488,196.941 39.925 C 195.892 38.952,196.326 38.276,199.242 36.333 C 200.346 35.598,202.654 33.402,205.020 30.835 C 206.081 29.685,207.396 29.948,207.757 31.383 C 207.821 31.639,208.411 32.426,209.068 33.132 C 210.359 34.520,212.413 36.944,213.356 38.194 C 213.678 38.622,214.336 39.766,214.819 40.736 C 215.301 41.706,215.751 42.500,215.819 42.500 C 216.099 42.500,216.762 41.569,218.761 38.367 C 219.122 37.789,219.773 36.758,220.208 36.075 C 220.644 35.392,221.000 34.800,221.000 34.759 C 221.000 34.502,222.222 32.928,223.083 32.076 C 224.171 30.998,224.337 30.912,226.471 30.330 L 227.858 29.951 228.949 30.399 C 231.617 31.495,232.500 33.200,232.500 37.257 C 232.500 39.432,232.494 39.438,237.917 32.083 C 238.119 31.808,238.336 31.423,238.398 31.227 C 238.523 30.831,239.625 30.000,240.025 30.000 C 240.291 30.000,241.177 30.867,242.663 32.583 C 244.918 35.187,248.940 38.789,249.396 38.614 C 249.525 38.565,249.834 38.088,250.084 37.554 C 252.150 33.132,254.075 31.199,257.031 30.577 C 262.065 29.518,265.735 32.265,265.720 37.083 C 265.700 43.380,259.865 46.720,253.389 44.142 C 251.867 43.537,251.882 43.535,251.655 44.375 C 250.703 47.904,252.878 52.946,256.083 54.642 C 257.140 55.201,261.229 55.316,262.000 54.809 C 262.229 54.658,262.595 54.481,262.812 54.416 C 264.124 54.024,267.178 51.298,268.874 49.007 C 271.229 45.825,271.271 45.729,271.398 43.269 C 271.554 40.219,272.375 36.754,273.195 35.686 C 273.363 35.467,273.500 35.227,273.500 35.153 C 273.500 34.828,274.581 33.461,275.538 32.575 C 279.115 29.263,284.758 29.601,288.052 33.324 C 289.136 34.549,289.074 35.362,289.167 18.664 C 289.231 7.045,289.298 3.500,289.458 3.220 C 289.779 2.660,290.935 2.604,291.370 3.127 M211.958 17.092 C 212.452 17.653,212.431 17.984,211.854 18.767 C 210.965 19.973,205.261 25.470,204.771 25.593 C 203.831 25.829,203.065 24.742,203.450 23.719 C 203.599 23.325,209.683 17.035,210.232 16.707 C 210.726 16.413,211.516 16.590,211.958 17.092 M351.283 17.159 C 353.409 18.456,352.285 21.450,349.798 21.116 C 348.366 20.924,347.430 18.542,348.445 17.675 C 349.537 16.743,350.356 16.594,351.283 17.159 M109.703 33.341 C 106.309 34.904,104.736 38.603,104.885 44.667 C 105.044 51.142,106.993 54.563,110.909 55.244 C 116.248 56.171,119.581 51.905,119.566 44.167 C 119.550 35.882,115.008 30.896,109.703 33.341 M153.459 33.245 C 149.749 34.786,148.249 37.933,148.252 44.167 C 148.253 48.736,148.666 50.420,150.355 52.749 C 153.357 56.891,159.194 56.136,161.630 51.289 C 163.480 47.610,163.472 41.050,161.613 37.196 C 160.826 35.564,158.911 33.500,158.184 33.500 C 158.103 33.500,157.709 33.352,157.310 33.170 C 156.275 32.701,154.696 32.731,153.459 33.245 M257.091 33.219 C 254.498 34.170,251.422 39.153,252.496 40.661 C 252.694 40.939,252.945 41.167,253.053 41.168 C 253.161 41.168,253.474 41.285,253.747 41.428 C 258.464 43.888,263.000 41.823,263.000 37.216 C 263.000 33.819,260.347 32.025,257.091 33.219 M279.170 33.300 C 271.719 36.402,272.424 53.967,280.052 55.271 C 285.499 56.202,288.750 52.052,288.750 44.167 C 288.750 36.055,284.401 31.122,279.170 33.300 M372.836 33.300 C 370.717 34.183,369.246 36.084,368.311 39.152 C 367.720 41.094,367.596 46.550,368.101 48.423 C 368.249 48.970,368.426 49.651,368.495 49.936 C 370.315 57.427,379.874 57.047,381.937 49.401 C 382.483 47.376,382.525 47.019,382.529 44.250 C 382.541 36.147,378.087 31.115,372.836 33.300 " stroke="none" fill="#ffffff" fill-rule="evenodd"></path></g></svg>