<svg xmlns="http://www.w3.org/2000/svg" xmlns:xlink="http://www.w3.org/1999/xlink" version="1.1" width="633" height="100"><g class="currentLayer" style=""><path id="path0" d="M13.814137498955523,0.6764376441348676 C1.0766947690926676,4.464352549386319 -1.195072882628248,18.922274925452232 9.61803075603212,27.38621947497712 C10.582580038339396,28.141589900824428 11.464634447875978,28.759477537761814 11.577270985774083,28.759477537761814 C11.68832169912775,28.759477537761814 12.148385797654901,29.028123814748835 12.598931949247314,29.356820447766943 C13.049478100839721,29.687097905882627 13.89345872285859,30.116932349017613 14.474091481674158,30.316046319056195 C15.056311064923527,30.513580463886576 16.304830928737402,31.02558881530373 17.250343317285814,31.452263608022303 C18.19585570583423,31.88051722605971 19.742624571390877,32.5789979461817 20.688135960049916,33.007252564108484 C21.633648348598328,33.43392635693768 22.704487870957834,33.94909535866063 23.06778067625688,34.15136997900499 C23.431072481666547,34.353645599238725 24.54633308927901,34.96363111046698 25.545783510125762,35.507244965052564 C32.50862214194734,39.295159870304026 35.23569441878335,46.618147655238204 32.49117207262229,54.15289201143406 C26.976743188806072,69.2855907302733 5.6027780034307,65.45342672074092 3.2310654096140485,48.90796431001815 C2.7995571516698723,45.88964125715596 1.8619768855117649,44.90671100851804 0.3358317381477885,45.86909753011308 C-0.21783200451860868,46.216758064965866 -0.0607753812569144,49.69494023903388 0.6150438461317025,52.06851062730423 C5.493314114510845,69.19551469628198 27.774716901027524,72.2565040285488 34.8581241931375,56.77298512444034 C35.35467725452732,55.69049789078313 35.75921649632234,54.61591178294569 35.75921649632234,54.38677213494686 C35.75921649632234,53.490757269994496 36.93793408305726,51.74929594520348 38.31019525613779,50.61939995684892 C40.17742266617432,49.080213252402295 43.32807207845357,45.54198172219253 45.34600981390594,42.71803316374432 C49.9498284476026,36.27525799212301 51.73614780930225,35.567295321083655 57.766166648267145,37.7891594941234 C59.61911663795688,38.47183796260586 61.54186890472556,39.03125506872037 62.041594615093615,39.03125506872037 C64.58464125251878,39.03125506872037 64.57353548126085,39.05495844617967 58.432466928831644,47.07642695123581 C55.48646787404532,50.92281238731015 52.81016098052936,54.449983141283724 52.48335613820363,54.91300291279535 C52.15655229576724,55.376023684196355 51.34905963672166,56.466412043673316 50.68751782967986,57.335561880971234 C44.47347435119346,65.513477076772 44.36083781329536,65.72049317251971 45.63949934223666,66.5548778562328 C46.42795510752336,67.07004685795576 47.24179306452544,66.79507928035719 48.63467895568802,65.54192292952403 C50.94293357049284,63.46702349631156 52.86410001271709,62.61367591065317 55.19297834571459,62.63105898739029 C57.490128189150866,62.64844206412738 57.27437406017877,62.56310650565004 62.56352986819877,65.58300938372042 C69.34551550958774,69.45468002224102 76.52728191924903,63.89527711434896 81.64669050809437,50.81061280106774 C83.13476086805127,47.006894644287385 83.20139149604132,47.25341736902332 83.35210182145717,57.119064834195555 C83.49488102437203,66.52959365367593 83.5202632160874,66.68604034442053 84.93059917657504,66.68604034442053 C86.48212751554375,66.68604034442053 86.52496077647352,66.45848152151932 86.52813442534114,58.23631822132698 C86.53289289886382,49.51952964645461 86.5392391967097,49.473701716854855 87.68305464501579,49.70758184036765 C91.86805561668125,50.565670901429414 95.7294253948886,54.1686942630736 98.53899154460593,59.837135107012905 C103.30145362599809,69.44993854683766 110.12151405479416,69.29981315670462 116.68298609379896,59.438906167046376 C118.67554163753597,56.44428849142222 118.59304776465466,56.461671568159325 119.68609682975129,58.84946438286101 C125.34489174091622,71.21194359867157 138.87713553402224,69.0912162358593 141.96432696728968,55.360220432667425 C142.56717026873173,52.686397264352266 142.69567105141044,48.429141286977625 142.23877960186155,46.276808420996964 C141.7295359445587,43.86847187925238 141.7834739768571,43.77207554453887 143.64752873791537,43.77207554453887 C145.8368015168656,43.77207554453887 148.576565389504,43.08781625095883 150.08684629208733,42.16493735824138 C152.141271990513,40.911780007518864 152.03815439943898,40.46140183734099 152.16665518211772,51.19461931460296 C152.31102020957704,63.16203024075275 152.5981644399513,64.35513723544416 155.75515915018704,66.1124008118747 C159.7672392538102,68.34532776092938 165.99873380151098,64.82921878308134 169.94735692601168,58.10515573313925 C171.0800676029492,56.17406138933763 171.28789060942043,56.189863640977165 172.03509893832177,58.26002259867563 C175.49351529927856,67.84122053533197 186.52554571588928,70.12945636501436 191.65764490064763,62.329226382137236 C192.2573155531114,61.41740826565596 192.4619649107149,61.507484299647295 193.0886045793279,62.96133544561661 C195.1906240119847,67.82541728380306 201.55061934236426,68.19678219600453 205.58173733963562,63.689841843698794 C209.26066730297663,59.57638995584568 209.9015843919363,57.46672536904834 207.4711742924093,57.46672536904834 C206.7604539264812,57.46672536904834 206.45110015336988,57.657938213267165 205.85936262318575,58.454396093200245 C202.36763094823397,63.16835154136431 199.10910447146864,64.7770705527594 196.86430683578627,62.8949647888633 C195.52853362567905,61.776130576634294 195.46031717314455,60.99073447282677 195.46031717314455,46.970548665604966 L195.46031717314455,34.11186335001678 L194.78608377030034,33.80529026924978 C193.18854952142362,33.079944521473315 192.28745821812817,33.8764024014064 192.28745821812817,36.009771365552396 C192.28745821812817,37.97879251313402 191.8718132050752,38.06570789681955 190.23779099322516,36.438025983479164 C187.81055354267642,34.018627665609046 184.59962080014233,32.993030137677145 181.1189938965591,33.52242156583142 C175.30314336202184,34.40737465465825 171.47350207337567,39.890922955100955 170.74374481368875,48.38015270707208 C170.432805216033,51.99739849514761 167.90879547236668,56.77298512444034 164.3742305364851,60.429737541504046 C160.90153575529217,64.02485977732847 157.37807659066848,64.62378351243119 155.8709683370634,61.87568756165358 C155.17928486489416,60.61779073530649 154.99208657650502,4.051901182988448 155.6774237508284,3.3708035396035605 C156.02802496032507,3.019982354444986 156.77364646479262,2.9472903970801445 160.0067897499532,2.9472903970801445 C164.2171739132234,2.9472903970801445 164.78828872510422,2.7671393289868713 164.78828872510422,1.431808069982174 C164.78828872510422,0.06013083229505432 164.7121401501794,0.05064888137771192 154.30833522672614,0.05064888137771192 C143.7474736800111,0.05064888137771192 143.6364239665468,0.06645213290661608 143.6364239665468,1.4997595518330311 C143.6364239665468,2.778201105112419 144.14090815043755,2.9472903970801445 147.96261731669338,2.9472903970801445 C152.60292291347398,2.9472903970801445 152.0968519051494,0.9450839211218851 152.0968519051494,19.344208242767444 C152.0968519051494,36.77146409190063 152.15237776177088,36.242071663857 150.15982221803387,37.85237050046027 C149.69817129507294,38.22531523786994 149.0731174510044,38.7547066660242 148.76852315130517,39.03125506872037 C146.41108897772466,41.16778468317213 141.27264349512052,41.07612882397261 139.74967099673475,38.8716467277806 C134.6032943916296,31.420658104853874 125.20369936243515,31.368508874642547 120.95999988516985,38.767349267247326 C120.58560330839167,39.41842123267198 120.10491449178247,40.15798940687976 119.89074718724416,40.40925360701904 C119.36563828527139,41.02397959376128 118.53752190803314,44.89406940718429 118.23927390617975,48.117826730807245 C117.82521571756064,52.612124481889836 115.8485244186042,56.59915535695862 112.17276710424153,60.36020523455563 C107.77359782814841,64.86082428624978 105.09094563667601,64.81183570634423 102.40194814724707,60.18321481676813 C101.66108511630217,58.906354088586326 100.94560527696204,57.68480224103224 100.81075919632684,57.46672536904834 C100.67591211580223,57.25022732238328 100.24916333127011,56.47905364500708 99.85890150982193,55.7552887223282 C98.12017488246411,52.51572814717632 95.66120894235405,50.020476221746215 92.70886358972186,48.49709276882849 C91.74272748298078,47.999306843842646 90.89240156300544,47.43514926221416 90.81942563705886,47.24393541810596 C90.65919636481892,46.828324401291695 90.18326802151115,47.17440411104692 99.33696625671675,41.05084462141574 C107.52294256063689,35.57519644690343 107.94175922277866,35.2512402893993 107.94175922277866,34.39473205343515 C107.94175922277866,32.67381445568701 106.33787967594547,32.57583729587592 104.06769884865837,34.157691279616536 C103.13170540693407,34.80876424493058 101.98471630976033,35.532529167609454 101.51830691327669,35.76799011621983 C101.05189651690364,36.001870239732625 100.37290464053679,36.46647083634182 100.00961183523775,36.79990894476329 C99.64632002982808,37.133346053295384 97.92028399838325,38.37228097758657 96.17521207306896,39.55274537105486 C87.00882224206097,45.753738293454255 87.03103178479806,45.74109569223112 86.77720386830829,45.341286927056366 C86.63283784095957,45.11372710426577 86.53130707431941,35.91495585593646 86.52972024988557,22.9393294787025 C86.52496077647352,-1.295744153752533 86.61538777163452,0.05064888137771192 84.98453820876274,0.05064888137771192 C83.28705801790089,0.05064888137771192 83.35210182145717,-0.6762766916069406 83.35210182145717,18.168484324813136 L83.35210182145717,35.2338572126622 L82.4272141509908,38.51450524189984 C80.43941708077648,45.56726592474941 79.08460697691035,49.200314964353836 76.19095912998853,55.229057944479706 C72.97685273858683,61.926256966656716 67.50843076456802,65.15949624119702 63.786666540407936,62.56310650565004 C60.621739707781884,60.35546475904164 56.86031587155965,58.96324379431164 54.80271652426639,59.23821137191021 C54.220496941017004,59.31564480467842 53.73187700190688,59.25085397313334 53.627172586399084,59.08018385606804 C53.473288612115624,58.8320813061239 61.38322645691943,48.068839150791085 63.13781732905785,46.142485282503436 C63.46620799592806,45.78060232121933 64.25307693678096,44.750264317773436 64.88447607880599,43.85582927802927 C65.515875220831,42.95981441307689 67.08168098014652,40.843828525668 68.36351615795543,39.154516431088325 C71.36186742049566,35.20541235979956 71.4554670646349,34.9999770891494 70.65749335241344,34.15611145440835 C69.8737970605388,33.32330659590346 69.39786771734165,33.331208721612605 68.11920618840037,34.19561808339654 C65.21445357010997,36.16147758078301 63.6708573535316,36.253133439982534 59.15905153954036,34.73133081216238 C54.329960829936866,33.10206907361379 53.617653639574954,33.00883238931668 51.0666748797595,33.65990535463071 C48.11908900053935,34.41211513017224 47.28145367647697,35.17538768172869 42.77282151135336,41.21993391338346 C40.32813399147952,44.495840467217754 37.66610451831039,47.458852639673474 37.16637980783172,47.458852639673474 C36.99821841320146,47.458852639673474 36.78563693320763,46.74931014342591 36.679345693266015,45.83275155143064 C35.83377824681334,38.582456723750695 31.715407903137937,34.63967495296284 18.836772794793994,28.753156237150257 C8.747081117864088,24.141918424311275 6.005731420681274,21.043001288375095 6.024768314440135,14.273110308833248 C6.0453920326328054,7.53640465766804 10.852273199499189,3.4024090427719966 18.70509936313703,3.369223714395357 C24.816025250549444,3.3423586867409063 28.502888336170038,6.287988782348883 30.36535627279451,12.681774374175282 C31.03482920233726,14.98107297987259 31.269621224957582,15.31609091350226 32.21513261361662,15.32241221411382 C34.883507384742245,15.34137511605913 33.32563374781702,8.590447038462594 29.751408199983917,4.638183316757401 C26.080410359033298,0.5832009598377635 19.571289527893008,-1.0365788277934849 13.814137498955523,0.6764376441348676 M337.24269537668044,0.27030657845918665 C336.4701048560637,0.7586115524170518 336.3876099832931,2.6328161904933625 336.3876099832931,19.85305594387882 C336.3876099832931,31.58658674651582 336.29718398802135,37.474685287536616 336.11633099758876,37.586884873779034 C335.9672064967174,37.67854073297855 335.1771649068863,37.14598865451851 334.3617401254504,36.40484065510252 C329.40890710669083,31.894739652491037 322.9600706056948,32.45257593350796 318.408604179752,37.782838193511836 C315.41183874175624,41.292625870748296 312.00418876400886,42.531560795039475 307.81442831893133,41.63554493019773 C304.93664471679017,41.020818943455495 303.845181476238,40.274929468636174 301.089553358819,37.0337890682761 C295.6195445603663,30.60207567278032 286.246918547321,32.613764099655924 282.4775625887084,41.028720069275266 C282.1158566078432,41.8362397253339 281.1909679374874,46.52965244634444 280.99425070227426,48.561883600373555 C280.2470423733729,56.2751991994545 271.12824527670676,65.87536003805612 267.1701042052713,63.114622485944764 C265.68679231883715,62.077963181887334 265.6709280740565,61.94996034411601 265.51704409977305,49.82926337752741 C265.36316112537895,37.6548363556299 265.3647469499234,37.66747895685301 263.80052801504166,35.73164413753741 C260.61180381535536,31.78254006624863 255.4892235774212,32.136521901712975 248.3407714818656,36.79832811966571 C246.27682683661584,38.14472115479596 246.2260614532957,38.125758252850645 246.2260614532957,36.03189591769286 C246.2260614532957,32.714901909772784 244.6412178003319,32.365661549711795 241.88400385836854,35.075829696820016 C240.85441077250502,36.08720479832059 238.82219461681643,37.798641445040744 237.3674385709653,38.879548853489744 C235.91426934954785,39.95887543684117 234.15809165297563,41.26734166819143 233.4679950052402,41.78409149501195 C232.1671229336724,42.759119617940726 232.00530683699867,43.195275361687266 232.48282200474023,44.44527206210399 C232.97144294373976,45.72845409089737 235.58429185824383,44.4468518873122 240.51174268528806,40.50406911663498 C241.514365755113,39.7012909359797 242.43608077660113,39.108688501488565 242.5614089103016,39.18612193425676 C242.68673704400203,39.26197454192738 242.7882688105317,52.694299390061396 242.7882688105317,69.03590735523159 C242.7882688105317,98.69447993198762 242.7898546350761,98.74820898740714 243.33558725524156,99.44036840691756 C243.98602329102542,100.2636913145051 244.61583560861666,100.31900119502222 245.46933417757026,99.63158225102578 L246.092801197205,99.12747402553899 L246.16577712315149,70.81055400839924 L246.23716622466432,42.493633991259486 L247.61418687115685,41.25944054237165 C253.41893263432547,36.06192059576371 259.18560361008707,34.75661501471925 261.67629803975836,38.07834949815331 C262.1998201172974,38.775250393067104 262.2283759578803,39.24143081488451 262.385432581142,49.650692134642334 C262.5932545877238,63.329539707512275 262.8312192593223,64.39306403922417 266.0786399648298,66.12030293758386 C270.2906109525338,68.36113001256889 277.0107264392341,64.38358208830682 280.59447093389133,57.53309602580163 C281.3654756299636,56.060281977887016 281.4416242048884,56.09346730626365 282.33002391238153,58.2884674515383 C287.5049573579589,71.09342271181758 301.7701320596195,69.32035588385816 304.8366997746944,55.49138292085516 C305.2666222080942,53.54606615062221 305.4316109537461,48.15733435968483 305.14129407439367,45.48351119136965 C305.0556275525341,44.69337461204813 305.0556275525341,44.69337461204813 306.24544891074817,44.82453710023586 C308.1428189858015,45.03471384628938 313.16228163266175,44.97782414056405 314.2251900325203,44.732881241036324 L315.1976714372179,44.51006289364908 L315.0437874629344,48.49077146821692 C314.83437863191887,53.898467160989 315.3515544116119,56.594413881555255 317.4028084609488,60.81058340473349 C320.76762517776626,67.72744112388133 329.5199568201552,68.97901764950629 334.98203349621747,63.3232184069007 L336.61605570806756,61.63232548722344 L337.19351681779415,62.77644390200932 C338.7164883162905,65.79634678007972 340.1553801173612,66.74767152554921 343.26160944427687,66.79033880484317 C348.4016407514255,66.85987011190225 350.7368653822688,64.55899268088612 360.7488216598401,49.560617100540384 C368.3319546623181,38.20003103531307 368.5794382807409,37.868173751989175 369.2504980347174,38.12417742775307 C370.2673985248892,38.512925416691644 375.23609578842934,44.71391833909103 376.6258080307243,47.32769015148573 C381.1280958977809,55.796376176413965 374.795068583661,65.89116328958502 366.33464064505836,63.729348472687 C365.0353543980351,63.397491189363144 361.50554893556557,60.29857505331634 361.50554893556557,59.48947457216014 C361.50554893556557,58.97430557043718 360.36173348725947,57.992956146896844 359.76999495718593,58.002438097814185 C357.4807772361401,58.040363901704794 358.14707751670454,60.982833347007 361.1200465875295,63.95848812068583 C366.5456353006184,69.38988819080657 375.92301978718643,67.3118291071777 379.7542479002664,59.82923398119315 C380.4776588621075,58.41646928942025 380.62519753843446,58.29478875214986 383.3189545012754,56.87728258497362 C385.7858525637758,55.5814589548465 388.8333833850917,52.72116341782647 390.4689924213755,50.17060261176864 C391.9745138505468,47.82231642605516 392.02528023375623,47.953478914242886 392.2013737507768,54.592207405597016 C392.4361647735078,63.504950300091565 393.1627493842164,65.26379470161967 397.15420676953636,66.56277898205258 C401.49626436446346,67.97870432413127 407.4866215915875,64.197109719602 411.1274777674107,57.741692946646914 C412.08250810289377,56.046059551455684 411.9508346712369,55.96388464328413 413.3151637219271,59.113370184334045 C416.2278484626078,65.84217470967948 422.3895407332296,68.71353102293567 428.2371197573282,66.06973353258073 C429.674424733965,65.42024139236429 432.8948774232125,62.54414360370472 432.8948774232125,61.90887388991961 C432.8948774232125,61.268862700731134 433.49296125124255,61.837761757763 434.1100819730314,63.06405408083104 C435.4188861669894,65.6683439423084 436.93551336741865,66.69078081993455 439.7704627087406,66.87725318863937 C445.9083586121916,67.28180342921746 451.5512882786866,61.61810306079211 455.78070933571564,50.81061280106774 C457.1672489290323,47.26447914514886 457.3243055522941,47.511001869884794 457.5099170162493,53.538165024802446 C457.72725796965534,60.58460440704045 458.52523268176606,62.71955419628402 461.77265338727346,64.92245546737843 C466.77942543822064,68.32320420867826 472.6206581644732,67.14431964041819 476.5550038686272,61.94047939308805 C477.36725600108485,60.86589328525059 477.9145734459054,61.11557666029231 478.74586247212187,62.940792718463086 C479.88650527144966,65.44552559492114 484.2983661433451,67.24703727574324 487.9899877024885,66.7144851972832 C497.02311727740573,65.41075944144694 501.94580863103783,53.860541357098384 498.4382127113055,42.199702511826224 C497.96228336810833,40.6162687028774 498.3049524552146,40.511971242344124 500.6401770860579,41.52334634384469 C503.1990879682639,42.63269760526698 505.8611164415435,43.24426394159281 508.13288309337514,43.24426394159281 L509.89223343892564,43.24426394159281 L509.72089939531696,44.36467797903003 C507.7886281817241,56.98158104539626 512.854097738382,66.94836632068538 521.1987164901082,66.94836632068538 C528.7310841092661,66.94836632068538 534.1217716838157,59.0659614296367 533.5252736803301,48.9206059113519 C533.4316750360805,47.319789025665976 533.328556445117,45.53566042158098 533.2952421310112,44.957280413521154 L533.2365436254115,43.903238032726605 L535.2195812222138,43.74204986657865 C538.4178223689456,43.48288554050897 540.6515152332593,42.809689022943836 541.8857576767264,41.73194226480062 C543.0803395082421,40.69054148533982 543.1517286097547,41.13143770460034 543.1517286097547,49.502146569717496 C543.1517286097547,59.65856386412785 543.5086751172078,61.25147962399403 546.3975634907175,63.97113072190897 C551.2710742856846,68.56340563280263 557.9816718254503,67.64526621570977 562.3618032078952,61.78561252755164 C563.0407950842621,60.87537523616794 563.626188316379,61.20881234470003 564.4146430817764,62.950273669491054 C565.4727920082229,65.28749807907897 569.9211398432024,67.17750596868417 573.3383097676631,66.74293005014584 C582.5856066471185,65.56720713208091 587.4845016335796,54.70440699183941 584.2085240875999,42.63743908067034 C583.6453423979989,40.56886094806943 583.8690286493612,40.45350071152122 586.3517909566422,41.528086819358684 C588.9456029773877,42.65008068200409 591.5219649288076,43.24426394159281 593.7984910540512,43.24426394159281 L595.5578413996018,43.24426394159281 L595.3849205315595,44.495840467217754 C593.2226167687585,60.10262073369416 601.2785064654553,70.75366430267393 611.6394771280895,65.98597879920096 C613.2163876587737,65.2606340513139 616.1274865749098,62.604193959735824 616.1274865749098,61.89149081318248 C616.1274865749098,61.26728287552293 616.7335025253301,61.8519841841943 617.3426911247285,63.06405408083104 C620.3902219460447,69.1307238647369 627.3229189127386,67.94709882096282 632.3423825594884,60.500849673660696 C634.5855933707369,57.17279388961508 631.688773874726,56.23253192016052 629.2155295143799,59.48473409664613 C625.8253296059578,63.945846519352074 621.6212917405334,64.97618452279798 620.1316345561426,61.71291957029743 C619.7508916815185,60.87695506137613 619.6874337025067,59.12443196045959 619.6176314254278,47.41934601068525 L619.5383102015246,34.078678021640144 L618.7784102768208,33.765783640261574 C617.276061496628,33.146316178115974 616.3924202626575,34.070775895931014 616.3924202626575,36.26261539089988 C616.3924202626575,37.90926020618557 616.0465785265731,37.93296458353426 614.3665494049255,36.40484065510252 C609.1614742942206,31.664020179284012 601.2436043270264,32.725963685898336 597.7693237212891,38.62828465335046 C596.4985943147382,40.790099470248485 591.1079067401886,40.573601423583426 586.846756193709,38.188969259187516 C586.2502591901127,37.85553115076604 584.9113123311379,37.11912362686406 583.8722012983396,36.55180539492979 C582.8330902655412,35.9860679880931 581.425926954032,35.02368146649807 580.7453482532313,34.4168566055756 C577.8485287572205,31.828367995848392 575.457779269645,34.04391186816593 577.9183310342994,37.0353688934843 C581.4798659862196,41.363738002904945 583.1519619855874,50.22275184197996 581.4084758848176,55.52456924912119 C578.7020273261741,63.75621350034148 570.9967398388633,66.41265359191954 566.843467356759,60.54351695295468 L565.7583494141633,59.01223237421718 L565.6266749826171,46.62920943136374 C565.4823099551575,33.173181205770426 565.5219715669986,33.500298013580334 564.0402455051087,33.500298013580334 C562.5902489326697,33.500298013580334 562.59818105506,33.448148783369 562.4331933092973,44.07864862530589 C562.2682045636451,54.63645550998857 562.2095060580455,55.11843818344549 560.7610963100402,57.991375321799254 C557.318544193864,64.81973783205338 549.7274790689955,65.60829358627733 546.9274308662132,59.42784439092082 C546.5006810817915,58.48442077127111 546.4546751718835,57.283413650649294 546.4229456824329,46.28787019712251 L546.3880445438936,34.18771695757679 L545.7978928382539,33.712054584842036 C544.5969657087817,32.74334676263544 543.3833469835074,33.32172677069526 543.0628884390276,35.017360165886515 C542.1744877316452,39.710771887007674 533.3269706205724,42.515757543510574 530.8267572440772,38.89693193022686 C529.7226024077225,37.297694869749115 527.9251782746544,35.55623354495811 526.3688904622737,34.57646394662598 C521.723825392081,31.654538228366672 514.5008115460344,33.86850127558664 511.8165725301281,39.03757536944255 C510.9059622800085,40.790099470248485 504.9854073299634,40.319177573027716 501.1795624084882,38.188969259187516 C500.583065404892,37.85553115076604 499.2441185459172,37.11912362686406 498.2050075131188,36.55180539492979 C497.1658964803207,35.9860679880931 495.75873316881115,35.02368146649807 495.0781544680106,34.4168566055756 C492.12739593981223,31.77937941594284 489.86831988389355,33.97437956121749 492.29714415887616,37.11912362686406 C495.94434563265594,41.84256102594546 497.502219269581,50.32072800190168 495.69368936525495,55.61464428322312 C492.7714866776396,64.17340534225332 484.6965600871837,66.52327235306437 480.72890006892425,59.96987842029822 L480.09115562894266,58.91583603950368 L479.95948119739626,46.58180167655576 C479.8151161699369,33.12419262586488 479.86270890427886,33.500298013580334 478.3222863365681,33.500298013580334 C476.83421497672174,33.500298013580334 476.78662224237996,33.7989689686382 476.78027694442346,43.4417980864232 C476.7723448220332,53.223690818215665 476.5629359910175,55.03152379964933 475.095488349364,57.99453597210505 C471.86710453761543,64.50842327588299 464.47910194591685,65.58142955851221 461.49185545474506,59.96987842029822 L460.7906540356411,58.65193023803062 L460.7160912852608,46.5375535721642 C460.6415295347698,34.638094127865266 460.6304237635117,34.413695955269816 460.0910384410817,33.96015713478616 C459.0328895146351,33.07362322086176 457.48453482453397,33.50187783878853 457.48453482453397,34.68234223225685 C457.48453482453397,36.47753261246737 453.7643574248078,47.88078595698866 451.81146249302225,52.06851062730423 C450.009278886542,55.93543979042147 449.8268390716756,56.27045772405113 448.2927618019213,58.52076774984288 C446.0289272724801,61.84566288358274 443.70004793959316,63.35482391006915 440.6366528734966,63.48598639825687 C436.3770901513402,63.66771829144773 436.33267006597663,63.49704817438243 436.33267006597663,46.687679962186614 L436.33267006597663,34.08973979776569 L435.5584917210367,33.77052411577555 C434.0434523449306,33.146316178115974 433.1598111109602,34.06287477011125 433.1598111109602,36.26261539089988 C433.1598111109602,37.90926020618557 432.8139693748756,37.93296458353426 431.1339402532283,36.40484065510252 C422.8797474967736,28.889059200851964 412.73453096311147,35.191189933368214 411.6414808981255,48.51289502046801 C411.28612021521684,52.855486556319974 406.9155067797067,59.87190126048714 402.9637110062277,62.444586618685435 C400.051026265547,64.33933398391527 397.1415151737339,64.02802042763426 395.8454015756889,61.681314067128994 C395.37106005681494,60.821645180859036 395.14737280556307,19.620755645574235 395.6121973773917,18.75476545869271 C395.87554424070566,18.263300834318436 396.15792899766785,18.223794205330236 399.4354923681919,18.223794205330236 C403.42060345566597,18.223794205330236 403.75057994708067,18.154261898381808 404.1027679810111,17.22980218056677 C404.69450551119525,15.677972874897007 404.0155136348283,15.376141269533347 399.70994400287447,15.279743934930465 C394.93479132556934,15.173865649299607 395.3583684610125,15.916594473813165 395.35360898760047,7.662826670341783 C395.3488495141884,0.24976385130566964 395.3060162532587,0.05064888137771192 393.69103093516753,0.05064888137771192 C392.2743496767234,0.05064888137771192 392.1775773836058,0.5610774075866704 392.1775773836058,8.016807505916763 L392.1775773836058,14.813563513113063 L391.498585507239,15.069568188766329 C391.12577375511586,15.211792453079607 389.36483758502095,15.327152689627804 387.5848635212778,15.327152689627804 C384.01063797344466,15.327152689627804 383.71556162068015,15.440932101078426 383.71556162068015,16.834733890906012 C383.71556162068015,18.03574101152783 384.3406154647486,18.223794205330236 388.32731237676705,18.223794205330236 C392.6170177639404,18.223794205330236 392.2172379955574,17.12392389493592 392.11729305346165,28.66940150377049 L392.03162553171273,38.37228097758657 L391.14957112217616,40.85963077730754 C388.86035240124073,47.30872724954042 386.4648444401426,50.992344694258605 383.13016938845243,53.19050448994965 C381.729352374789,54.113384382556475 381.4136523038318,53.87950425904368 381.2058302972499,51.755616245925665 C380.7901862840865,47.52206364601033 377.82356251121803,42.18548008539489 373.4037705168217,37.722787837480745 C373.04047771152256,37.35616440068264 371.98708825848814,36.19624373425722 371.0637864125662,35.14536200376846 C368.4160353596333,32.136521901712975 368.7872602873226,31.875776750545725 362.74137720357703,41.00975716732995 C360.53465335541244,44.34413425198713 358.4627765877723,47.33717210240307 358.1343859209022,47.6611282599072 C357.8075810785764,47.983503592313745 357.5394747418505,48.38489318258607 357.5394747418505,48.55240264934558 C357.5394747418505,48.71991111621574 357.1777687609852,49.340958403569545 356.7367415562169,49.93514166315827 C356.29412752701495,50.52932492274698 354.8361988321853,52.67217483792093 353.4972529730998,54.69808569122787 C350.8447424467548,58.710399768964145 348.43654188996504,61.455335069435954 346.4630242398762,62.716393545978235 C344.7940998895972,63.78465835320412 342.10510240016833,63.89053663883499 341.05805824509036,62.932890592753935 C339.65565540688243,61.649708563960544 339.7048339657687,62.71481272088067 339.5620557627432,30.709534783508747 C339.45100504938955,5.994057302915618 339.3669243520744,0.8471067613107972 339.0655027013534,0.4868046251242522 C338.6800003533172,0.023783853723261056 337.79794594378063,-0.08051360681001676 337.24269537668044,0.27030657845918665 M133.27545230402333,37.20445818545202 C141.26947084614227,41.18358693481166 141.5439234807141,59.00275042329983 133.6720604233174,63.00874420031391 C128.75888801650942,65.50873660125802 123.5078059960071,62.329226382137236 121.91978969406505,55.8880320356135 C119.01662390020853,44.11341377889074 125.55112692306419,33.35965357447526 133.27545230402333,37.20445818545202 M185.0469933028671,36.912107531116334 C193.65813256677487,39.92726993367273 194.55605222098146,58.80205562816368 186.2891678687245,63.00874420031391 C181.31729795620612,65.53876227921826 176.09794442526504,62.38611608786255 174.47344116023908,55.87064895887641 C171.7162262183863,44.80715402349875 177.57808366272099,34.29675489362404 185.0469933028671,36.912107531116334 M296.09071443015137,37.17443350738116 C304.15294842491545,41.18832841021502 304.46706167143896,58.977466220742976 296.5460190552665,63.00874420031391 C291.6471250686946,65.50083547543825 286.5340627776952,62.441425968379654 284.8413420602454,56.0049720973699 C281.7890517655175,44.39312283189267 288.3901854163631,33.342270497738156 296.09071443015137,37.17443350738116 M330.1323180685319,37.31033647108288 C336.8651251510346,40.48352638948146 338.4928020649281,55.37760350940454 332.74992745633745,61.26728287552293 C328.6870809695048,65.43446381879562 322.28425137830624,64.29666670462129 319.7665879324857,58.958503318797646 C318.09131828425035,55.404468537059 317.63601365913524,47.76068524492648 318.86866927816857,43.88111348058613 C320.79776684289374,37.81444369668028 325.44600556195394,35.10269472447446 330.1323180685319,37.31033647108288 M426.59516542308785,37.149149304824284 C432.4078433086468,39.63491927933705 434.8826734935375,51.038172623858365 431.271959982731,58.69459751732462 C428.21173656572347,65.1847804437539 419.8655309895633,65.51505790186957 416.61493763507775,59.27455835048201 C414.4383564519299,55.099475281500176 414.2860583021909,46.23256131649477 416.3182754577688,41.927895584533424 C418.4631281513555,37.38144960312888 422.6179864580041,35.448774434229676 426.59516542308785,37.149149304824284 M524.309705290436,37.193396409326475 C530.1065189312144,40.078976148903365 532.3655939872435,50.73159954309134 528.8564122429666,58.63138651098774 C525.9421406778521,65.19268156957367 517.3389335363346,65.48977369931269 514.1200686714102,59.140234212099124 C512.4146563581581,55.77583244937108 511.9244495946141,47.19968831360378 513.225321666182,43.46392163867429 C515.228982981177,37.69750363492387 519.9549560997064,35.025261291706265 524.309705290436,37.193396409326475 M610.1371283478964,37.31033647108288 C616.6938419133785,40.40135148130991 618.3849758063944,54.81502575298427 612.9165528324864,61.00337707404988 C609.0599425276911,65.36809216215295 602.5746190636111,64.51000410098058 599.8475467867751,59.27455835048201 C598.1706903141059,56.058701152789446 597.5710206615314,48.751516619384184 598.6450328328693,44.62384230509969 C600.359963093056,38.03410239365111 605.1731905577683,34.97153223628674 610.1371283478964,37.31033647108288 " stroke="#ffffff" fill="#424242" fill-rule="evenodd" opacity="1" filter="" class="" stroke-opacity="1" fill-opacity="1" stroke-width="0"/></g><defs><filter xmlns:inkscape="http://www.inkscape.org/namespaces/inkscape" id="f001" inkscape:label="Matte jelly" x="0" y="0" width="1" height="1" inkscape:menu="ABCs" inkscape:menu-tooltip="Bulging, matte jelly covering" color-interpolation-filters="sRGB">
            <feColorMatrix values="1 0 0 0 0 0 1 0 0 0 0 0 1 0 0 0 0 0 0.85 0" result="result0" in="SourceGraphic"/>
            <feGaussianBlur in="SourceAlpha" stdDeviation="7"/>
            <feSpecularLighting surfaceScale="5" specularConstant=".9" specularExponent="25">
                <feDistantLight elevation="60" azimuth="225"/>
            </feSpecularLighting>
            <feComposite operator="atop" in2="result0"/>
        </filter></defs></svg>